<svg width="24" height="24" viewBox="0 0 24 24" fill="none" xmlns="http://www.w3.org/2000/svg">
<path d="M6 5.00002C7.02711 4.99873 8.01535 5.3926 8.76 6.10002C9.50465 6.80743 9.94865 7.77419 10 8.80002V19.5C10 19.8978 9.84196 20.2794 9.56066 20.5607C9.27936 20.842 8.89782 21 8.5 21C8.10218 21 7.72064 20.842 7.43934 20.5607C7.15804 20.2794 7 19.8978 7 19.5V13H6C4.97289 13.0013 3.98465 12.6074 3.24 11.9C2.49535 11.1926 2.05135 10.2258 2 9.20002V9.00002C2 7.93915 2.42143 6.92173 3.17157 6.17159C3.92172 5.42144 4.93913 5.00002 6 5.00002Z" stroke="black" stroke-width="2" stroke-linecap="round" stroke-linejoin="round"/>
<path d="M18 3.00003C16.9729 2.99875 15.9847 3.39261 15.24 4.10003C14.4953 4.80745 14.0514 5.77421 14 6.80003V17.5C14 17.8979 14.158 18.2794 14.4393 18.5607C14.7206 18.842 15.1022 19 15.5 19C15.8978 19 16.2794 18.842 16.5607 18.5607C16.842 18.2794 17 17.8979 17 17.5V11H18C19.0271 11.0013 20.0153 10.6075 20.76 9.90003C21.5047 9.19261 21.9486 8.22585 22 7.20003V7.00003C22 5.93916 21.5786 4.92175 20.8284 4.1716C20.0783 3.42146 19.0609 3.00003 18 3.00003Z" stroke="black" stroke-width="2" stroke-linecap="round" stroke-linejoin="round"/>
</svg>
