<svg width="24" height="24" viewBox="0 0 24 24" fill="none" xmlns="http://www.w3.org/2000/svg">
<path d="M10 2V7.632C10 8.056 9.728 8.427 9.347 8.614C8.34175 9.10956 7.4954 9.87678 6.90384 10.8287C6.31229 11.7806 5.99918 12.8792 6 14C6.006 18 9 21 11 22M10 5H8C7.46957 5 6.96086 5.21071 6.58579 5.58579C6.21071 5.96086 6 6.46957 6 7C6 7.53043 6.21071 8.03914 6.58579 8.41421C6.96086 8.78929 7.46957 9 8 9H8.68M14 2V7.632C14 8.056 14.272 8.427 14.652 8.614C15.6574 9.10942 16.504 9.87658 17.0957 10.8285C17.6875 11.7805 18.0007 12.8791 18 14C18 18 15 21 13 22M14 5H16C16.5304 5 17.0391 5.21071 17.4142 5.58579C17.7893 5.96086 18 6.46957 18 7C18 7.53043 17.7893 8.03914 17.4142 8.41421C17.0391 8.78929 16.5304 9 16 9H15.32M18 22H6M9 2H15" stroke="black" stroke-width="2" stroke-linecap="round" stroke-linejoin="round"/>
</svg>
