<svg width="24" height="24" viewBox="0 0 24 24" fill="none" xmlns="http://www.w3.org/2000/svg">
<path d="M8.99997 9C8.35997 9.64 7.47897 9.954 6.59797 10.165C5.16853 10.5073 3.91447 11.3625 3.07375 12.5682C2.23303 13.7738 1.86412 15.2462 2.03704 16.7058C2.20995 18.1655 2.91265 19.5109 4.01181 20.4868C5.11097 21.4627 6.53011 22.0011 7.99997 22C9.83885 22.0023 11.6601 21.6413 13.359 20.9377C15.058 20.2341 16.6012 19.2018 17.9 17.9M10.75 5.09307C11.3941 3.929 12.4067 3.01199 13.6288 2.48623C14.8509 1.96047 16.213 1.85578 17.5011 2.18861C18.7892 2.52145 19.9301 3.27293 20.7445 4.32491C21.5588 5.37689 22.0005 6.6697 22 8.00007C22 10.4111 21.39 12.6801 20.317 14.6601M5.34106 10.6201C5.60412 11.2142 6.00796 11.7353 6.51765 12.1383C7.02733 12.5413 7.62753 12.8141 8.26631 12.9331C8.9051 13.052 9.56325 13.0136 10.1838 12.821C10.8044 12.6285 11.3688 12.2877 11.8281 11.8281M10.6201 5.34106C11.5289 5.74504 12.2555 6.47198 12.6591 7.38106M2 2L22 22" stroke="black" stroke-width="2" stroke-linecap="round" stroke-linejoin="round"/>
</svg>
