<svg width="24" height="24" viewBox="0 0 24 24" fill="none" xmlns="http://www.w3.org/2000/svg">
<path d="M5.34106 10.6201C5.60471 11.2134 6.00879 11.7336 6.51843 12.1357C7.02807 12.5379 7.62794 12.81 8.26625 12.9285C8.90456 13.047 9.56212 13.0084 10.1822 12.8159C10.8022 12.6235 11.3661 12.283 11.8251 11.8239C12.2841 11.3648 12.6245 10.8008 12.8168 10.1808C13.0092 9.56069 13.0477 8.90312 12.9291 8.26484C12.8104 7.62655 12.5382 7.02673 12.1359 6.51716C11.7337 6.0076 11.2134 5.60362 10.6201 5.34009M10.165 6.59797C9.95397 7.47797 9.63997 8.35997 8.99997 8.99997C8.35997 9.63997 7.47897 9.95397 6.59797 10.165C5.16853 10.5073 3.91447 11.3624 3.07375 12.5681C2.23303 13.7738 1.86412 15.2461 2.03704 16.7058C2.20995 18.1655 2.91265 19.5109 4.01181 20.4867C5.11097 21.4626 6.53011 22.0011 7.99997 22C15.732 22 22 15.732 22 7.99997C22.0011 6.53011 21.4626 5.11097 20.4867 4.01181C19.5109 2.91265 18.1655 2.20995 16.7058 2.03704C15.2461 1.86412 13.7738 2.23303 12.5681 3.07375C11.3624 3.91447 10.5073 5.16853 10.165 6.59797Z" stroke="black" stroke-width="2" stroke-linecap="round" stroke-linejoin="round"/>
</svg>
