<svg width="24" height="24" viewBox="0 0 24 24" fill="none" xmlns="http://www.w3.org/2000/svg">
<path d="M3.09675 19L14.1217 11.2022H19.8405C20.0167 11.2022 20.1742 11.3627 20.1742 11.582C20.1742 11.7613 20.1052 11.8423 20.0167 11.9021L14.6002 15.5919C14.2477 15.8334 14.1255 16.3131 14.1255 16.6716L14.1195 18.9974H21V5.48016C21.0003 5.41541 20.989 5.35128 20.9668 5.29165C20.9446 5.23202 20.912 5.17814 20.871 5.13329C20.8299 5.08843 20.7813 5.05353 20.7281 5.0307C20.6748 5.00787 20.6181 4.99759 20.5612 5.00048H13.9972L3 12.7616V18.9983H3.09675V19Z" fill="black"/>
</svg>
