<svg width="24" height="24" viewBox="0 0 24 24" fill="none" xmlns="http://www.w3.org/2000/svg">
<path d="M20.7204 3.00268C20.6615 2.99657 20.6015 3.00093 20.5451 3.01543L3.45102 7.18853C3.28055 7.22978 3.13638 7.34903 3.05942 7.48704C3.01956 7.53651 2.99925 7.59384 3.00097 7.65204V11.9466C2.99925 12.0048 3.01956 12.0622 3.05942 12.1116C3.13638 12.2489 3.28055 12.3674 3.45102 12.4094L10.7122 14.1824L3.45102 15.9547C3.20262 16.0147 3 16.2352 3 16.446V20.7121C3 20.9236 3.20262 21.0451 3.45102 20.9844L20.547 16.8105C20.7779 16.7543 20.962 16.5585 20.9873 16.3605C20.9903 16.344 21 16.3305 21 16.3117V12.0449C21 11.8341 20.7974 11.6136 20.549 11.5529L13.3628 9.79859L20.547 8.0443C20.7954 7.9843 20.9971 7.76304 20.9971 7.55229V3.28769C20.9971 3.12943 20.8831 3.02143 20.7214 3.00268H20.7204Z" fill="black"/>
</svg>
