<svg width="24" height="24" viewBox="0 0 24 24" fill="none" xmlns="http://www.w3.org/2000/svg">
<path d="M15.3146 16.9698C15.508 15.4039 14.4904 14.4055 11.8035 13.5555C10.5017 13.1155 9.88861 12.5388 9.90291 11.7462C9.95757 10.8662 10.7842 10.2253 11.8809 10.2045C12.7445 10.2137 13.5868 10.4714 14.3054 10.9462C14.4029 11.0062 14.4711 10.9962 14.5266 10.9129C14.6023 10.7929 14.7915 10.502 14.8545 10.3962C14.8974 10.3295 14.9058 10.2412 14.7974 10.1628C14.6418 10.0487 14.2053 9.81699 13.9707 9.71949C13.3025 9.43923 12.5846 9.29362 11.859 9.29114C10.2528 9.2978 8.98877 10.3037 8.88197 11.6462C8.81357 12.6163 9.29853 13.4016 10.3369 14.0022C10.558 14.1288 11.7497 14.5989 12.224 14.7455C13.7159 15.2056 14.4904 16.0306 14.3079 16.9931C14.1422 17.8657 13.2155 18.4299 11.9381 18.4465C10.9264 18.4082 10.0148 17.999 9.30834 17.4548L9.18977 17.3631C9.1023 17.2965 9.00643 17.3006 8.94841 17.3881C8.90636 17.4523 8.6322 17.844 8.56324 17.9465C8.49849 18.0365 8.53381 18.0865 8.60109 18.1415C8.89543 18.3857 9.28816 18.6524 9.55475 18.7874C10.2932 19.1602 11.1055 19.3671 11.9339 19.3932C12.5302 19.4213 13.1256 19.3207 13.6789 19.0982C14.5997 18.7107 15.1951 17.9365 15.3146 16.9698ZM12.0003 3.16755C10.2612 3.16755 8.84329 4.79262 8.77685 6.82603H15.2229C15.1548 4.79178 13.7377 3.16672 12.0003 3.16672M18.6027 21.9992L18.5355 22L5.26159 21.9983C4.35839 21.965 3.69486 21.24 3.60404 20.3391L3.59563 20.1766L3.00106 7.23772C2.99717 7.18574 3.00401 7.13352 3.02117 7.08425C3.03833 7.03498 3.06545 6.98969 3.10087 6.95116C3.13629 6.91263 3.17926 6.88166 3.22717 6.86015C3.27508 6.83863 3.32691 6.82702 3.3795 6.82603H7.56333C7.66509 4.14009 9.61193 2 12.0003 2C14.3886 2 16.3338 4.14092 16.4364 6.8252H20.6144C20.6667 6.82536 20.7184 6.83604 20.7665 6.85659C20.8145 6.87715 20.8579 6.90715 20.8939 6.94477C20.9299 6.9824 20.9578 7.02688 20.976 7.07551C20.9941 7.12415 21.0021 7.17593 20.9995 7.22772L20.3494 20.2183L20.3436 20.3274C20.2645 21.2391 19.5202 21.975 18.6027 21.9992Z" fill="black"/>
</svg>
