<svg width="24" height="24" viewBox="0 0 24 24" fill="none" xmlns="http://www.w3.org/2000/svg">
<path d="M8.3027 11.0908V14.0292H7.37682V10.3356H9.28709C10.0988 10.3356 10.3739 10.9162 10.3739 11.4406V14.0292H9.45078V11.4462C9.45078 11.2239 9.3394 11.0908 9.06715 11.0908H8.3027ZM14.596 11.0465C14.2765 11.0465 14.0335 11.2091 13.9311 11.4343C13.8722 11.5591 13.8422 11.6958 13.8434 11.8341H15.2671C15.2497 11.4343 15.068 11.0465 14.596 11.0465ZM13.8428 12.471C13.8428 12.9481 14.1359 13.3036 14.663 13.3036C15.0702 13.3036 15.2722 13.1881 15.5095 12.9481L16.081 13.502C15.7177 13.8666 15.3312 14.0883 14.6545 14.0883C13.7697 14.0883 12.9231 13.5998 12.9231 12.1781C12.9231 10.9606 13.6617 10.2736 14.6343 10.2736C15.6215 10.2736 16.1902 11.0794 16.1902 12.1338V12.4687H13.8434L13.8428 12.471ZM12.1407 14.0229C11.3875 14.0229 11.0685 13.4929 11.0685 12.9686V9.32848H11.9916V10.3356H12.6858V11.0908H11.9916V12.9095C11.9916 13.1256 12.0912 13.2444 12.3111 13.2444H12.6863V14.0235L12.1407 14.0229ZM6.55387 9.82607H5.62236V8.92869H6.55387V9.82607ZM6.55668 14.0673C5.85917 13.9991 5.62236 13.5726 5.62236 13.0778V10.335H6.55387V14.0701L6.55668 14.0673ZM17.6606 13.9877C16.9631 13.9194 16.7291 13.4929 16.7291 13.0016V8.80472H17.6606V13.9911V13.9877ZM20.9209 9.4115C20.0771 5.2442 12.076 4.98033 6.92287 8.15244V8.50502C12.0704 5.82767 19.3773 5.8453 20.0422 9.67822C20.2622 10.9487 19.5557 12.2697 18.2934 13.0312V14.0264C19.8138 13.4634 21.372 11.639 20.9209 9.4115ZM11.5489 16.6975C7.9922 17.029 4.28303 16.5047 3.7644 13.6971C3.5124 12.3106 4.13959 10.8417 4.96254 9.92957V9.44392C3.47414 10.765 2.66582 12.4386 3.13158 14.4142C3.72615 16.9494 6.90825 18.3859 11.7627 17.9093C13.6848 17.72 16.2014 17.095 17.9474 16.1231V14.7457C16.3623 15.7023 13.7343 16.4933 11.5489 16.6975ZM18.7383 9.07996C18.7383 9.0356 18.7091 9.02082 18.6506 9.02082H18.5921V9.15105H18.6506C18.7091 9.15105 18.7383 9.13342 18.7383 9.08906V9.07996ZM18.8295 9.4024H18.7591C18.7561 9.40235 18.7532 9.40148 18.7506 9.39988C18.748 9.39828 18.7459 9.39601 18.7445 9.39331L18.6506 9.23066C18.6465 9.22706 18.6413 9.22504 18.636 9.22498H18.5949V9.38478C18.5949 9.39387 18.5859 9.4024 18.5775 9.4024H18.5161C18.5071 9.4024 18.4987 9.39331 18.4987 9.38478V8.97874C18.4987 8.95826 18.5105 8.94632 18.528 8.94291C18.5662 8.94063 18.6043 8.93969 18.6421 8.94007C18.7563 8.94007 18.8266 8.97248 18.8266 9.08224V9.08792C18.8266 9.15617 18.7912 9.19142 18.7417 9.20962L18.8385 9.37568C18.8385 9.37852 18.8413 9.38478 18.8413 9.38762C18.8441 9.39331 18.8385 9.4024 18.8295 9.4024ZM18.6652 8.86329C18.5836 8.86329 18.5053 8.89607 18.4476 8.9544C18.3899 9.01274 18.3575 9.09186 18.3575 9.17436C18.3603 9.34611 18.4981 9.48543 18.668 9.48543C18.7487 9.48498 18.826 9.45237 18.8831 9.39466C18.9402 9.33695 18.9725 9.25882 18.9729 9.17721C18.9732 9.09435 18.941 9.01476 18.8833 8.95591C18.8256 8.89705 18.7472 8.86375 18.6652 8.86329ZM18.6652 9.55083C18.567 9.55083 18.4727 9.51138 18.4033 9.44115C18.3338 9.37092 18.2948 9.27567 18.2948 9.17635C18.2948 9.07704 18.3338 8.98179 18.4033 8.91156C18.4727 8.84133 18.567 8.80188 18.6652 8.80188C18.8671 8.80188 19.037 8.97077 19.037 9.17777C19.037 9.38478 18.8671 9.55083 18.6652 9.55083Z" fill="black"/>
</svg>
