<svg width="24" height="24" viewBox="0 0 24 24" fill="none" xmlns="http://www.w3.org/2000/svg">
<path d="M19.6821 10.0013C19.7142 9.97807 19.7502 9.96208 19.7879 9.9542C19.8257 9.94632 19.8645 9.9467 19.9021 9.95533C19.9397 9.96396 19.9754 9.98067 20.0071 10.0045C20.0389 10.0283 20.0661 10.0588 20.0871 10.0942C20.1082 10.1296 20.1227 10.1692 20.1298 10.2108C20.137 10.2524 20.1366 10.2951 20.1288 10.3365C20.121 10.378 20.1058 10.4173 20.0842 10.4523C20.0625 10.4872 20.0349 10.5172 20.0027 10.5404C19.9378 10.5872 19.8587 10.6037 19.7827 10.5863C19.7068 10.5689 19.6402 10.5189 19.5977 10.4474C19.5552 10.3759 19.5402 10.2888 19.556 10.2051C19.5718 10.1214 19.6172 10.0481 19.6821 10.0013ZM18.3573 10.3792C18.2916 10.0711 18.3398 9.74686 18.4912 9.47784C18.6426 9.20882 18.8848 9.01706 19.1645 8.94475C19.4443 8.87244 19.7386 8.9255 19.9829 9.09226C20.2271 9.25902 20.4012 9.52581 20.4668 9.83395C20.4993 9.98653 20.5042 10.1447 20.4813 10.2993C20.4583 10.454 20.4079 10.6022 20.3329 10.7354C20.1815 11.0044 19.9393 11.1961 19.6596 11.2685C19.3798 11.3408 19.0855 11.2877 18.8412 11.1209C18.597 10.9542 18.4229 10.6874 18.3573 10.3792ZM15.1985 14.4659C15.2886 14.6084 15.3617 14.7447 15.4039 14.881C15.432 14.9771 15.4714 15.1072 15.5586 15.1568C15.5642 15.1599 15.567 15.163 15.5726 15.163C15.733 15.228 16.1436 15.2156 16.1436 15.2156H16.8974C16.9621 15.2156 17.5275 15.2156 17.5134 15.1444C17.4459 14.8098 17.0943 14.7509 16.8271 14.5774C16.5824 14.4163 16.349 14.2335 16.2421 13.9175C16.1858 13.7564 16.2196 13.3784 16.3152 13.242C16.3855 13.1429 16.4868 13.0778 16.5965 13.05C16.7174 13.0221 16.844 13.0469 16.965 13.0593C17.114 13.0747 17.2631 13.1057 17.4122 13.1274C17.7019 13.1677 17.9916 13.1863 18.2841 13.177C18.7651 13.1615 19.2461 13.0778 19.7018 12.9074C20.0196 12.7897 20.3318 12.6317 20.6018 12.4086C20.9084 12.1577 20.8297 12.1793 20.5175 12.2165C20.1434 12.2599 19.7693 12.2661 19.3952 12.2413C19.0464 12.2196 18.7004 12.1731 18.3854 11.9965C18.1379 11.854 17.9241 11.7146 17.7272 11.4946C17.6991 11.4605 17.6794 11.3645 17.7328 11.3025C17.7863 11.2437 17.896 11.2777 17.9297 11.3087C18.2729 11.6248 18.7876 11.885 19.3164 11.9129C19.6033 11.9284 19.8818 11.9346 20.1715 11.9222C20.3149 11.916 20.5315 11.916 20.675 11.9129C20.7481 11.9129 20.9506 11.9346 20.99 11.8478C21.0012 11.823 21.0013 11.7921 20.9984 11.7642C20.9562 10.497 20.8719 9.07178 19.668 8.46452C18.7707 8.01217 17.4262 7.31196 16.8581 7.02073C16.7259 6.95256 16.5712 7.061 16.5712 7.22211C16.5712 7.64348 16.5909 8.25384 16.5909 8.80533C16.318 8.4986 15.8595 8.30651 15.5108 8.12991C15.1142 7.92852 14.7035 7.75811 14.2872 7.61559C13.449 7.33055 12.5799 7.15395 11.7079 7.05791C10.7178 6.94947 9.71087 7.00214 8.73484 7.22211C7.13439 7.6001 5.55362 8.45213 4.35539 9.69453C3.62126 10.4567 3.04465 11.5442 3.00527 12.6441C2.94902 14.2025 3.34561 15.039 4.07412 15.9035C5.23578 17.2791 7.73632 17.4712 8.74891 15.8415C9.20457 15.1072 9.30302 14.1127 8.97393 13.3009C8.64202 12.4892 7.88258 11.9036 7.07813 11.8757C6.4537 11.854 5.78708 12.2041 5.54518 12.8393C5.36236 13.3257 5.46643 13.9268 5.79833 14.3048C5.92772 14.4535 6.10492 14.5743 6.29619 14.5247C6.4087 14.4968 6.50433 14.4039 6.52121 14.2769C6.54652 14.091 6.39745 13.9701 6.30744 13.8276C6.1443 13.5705 6.17524 13.1801 6.38338 12.9632C6.55778 12.7773 6.81374 12.7215 7.05563 12.7246C7.28065 12.7246 7.5113 12.768 7.70538 12.895C7.97821 13.0716 8.16104 13.397 8.22292 13.7378C8.41138 14.7602 7.65475 15.5936 6.63091 15.6587C6.10773 15.6928 5.57331 15.541 5.16546 15.1785C4.12756 14.2552 3.87441 12.3807 5.05858 11.3769C6.18368 10.4257 7.60131 10.6705 8.43951 11.1662C9.10894 11.5628 9.6068 12.2072 9.98652 12.9229C10.175 13.2823 10.3381 13.6572 10.4872 14.0414C10.6306 14.407 10.7656 14.7788 11.0554 15.0483C11.2466 15.228 11.4829 15.2218 11.7332 15.2218H13.1621C13.3562 15.2218 13.3084 15.0793 13.224 14.9833C13.0355 14.7695 12.7627 14.723 12.5096 14.6456C11.9329 14.4721 11.992 13.6293 12.1523 13.6293C12.6671 13.6293 12.6839 13.6479 13.134 13.6386C13.7865 13.6293 13.9834 13.586 14.4925 13.7935C14.7654 13.9051 15.027 14.1994 15.1985 14.4659Z" fill="black"/>
</svg>
