<svg width="24" height="24" viewBox="0 0 24 24" fill="none" xmlns="http://www.w3.org/2000/svg">
<path d="M14.8796 3L16.5201 4.785C16.5201 4.785 17.9603 4.401 18.6404 5.0535C19.3198 5.706 19.8802 6.282 19.8802 6.282L19.4404 7.31775L20 8.853C20 8.853 18.3532 14.838 18.1606 15.5693C17.7803 17.0085 17.5204 17.5643 16.4403 18.294C15.3309 19.0379 14.2107 19.767 13.0801 20.481C12.76 20.673 12.36 21 12 21C11.64 21 11.2408 20.673 10.9199 20.481C9.78927 19.767 8.66911 19.0379 7.55973 18.294C6.4796 17.5643 6.21974 17.0085 5.84013 15.5693C5.64681 14.838 4 8.853 4 8.853L4.55963 7.31775L4.11975 6.282C4.11975 6.282 4.68017 5.706 5.36034 5.0535C6.03972 4.401 7.47989 4.785 7.47989 4.785L9.11966 3H14.8796ZM12 14.202C11.8904 14.202 11.1876 14.4398 10.624 14.7195C10.0605 14.9993 9.65189 15.1973 9.52118 15.276C9.39047 15.3547 9.47031 15.5017 9.58928 15.5828C9.70825 15.6638 11.3065 16.8503 11.4623 16.9823C11.6173 17.1135 11.845 17.3302 12 17.3302C12.155 17.3302 12.3835 17.1128 12.5385 16.9823C12.6935 16.8518 14.2918 15.663 14.4107 15.5828C14.5297 15.5025 14.6095 15.354 14.4788 15.2753C14.3481 15.1965 13.9395 14.9993 13.3752 14.7195C12.8117 14.4398 12.1096 14.202 12 14.202ZM12 5.7435C12 5.7435 11.6799 5.74425 11.2001 5.898C10.7203 6.05175 10.1998 6.243 9.96028 6.243C9.72077 6.243 7.94012 5.9175 7.94012 5.9175C7.94012 5.9175 5.83074 8.364 5.83074 8.88675C5.83074 9.4095 6.09608 9.5475 6.36298 9.819L7.94404 11.4307C8.09432 11.583 8.40583 11.814 8.22268 12.2303C8.03874 12.6465 7.76871 13.1753 8.06927 13.713C8.36983 14.25 8.88485 14.6085 9.21515 14.5492C9.54466 14.4892 10.3203 14.1007 10.6052 13.9237C10.8901 13.746 11.7934 13.0312 11.7934 12.7582C11.7934 12.4852 10.8596 11.9932 10.6874 11.8822C10.5152 11.7697 9.72782 11.3385 9.71138 11.1698C9.69572 10.9995 9.70199 10.95 9.93367 10.5315C10.1661 10.1122 10.5841 9.5535 10.5144 9.1815C10.4448 8.81025 9.77086 8.61675 9.2895 8.442C8.80814 8.26725 7.88142 7.93875 7.76558 7.887C7.64974 7.83525 7.67948 7.78725 8.03092 7.75575C8.38157 7.7235 9.37638 7.59675 9.82487 7.71675C10.2734 7.83675 11.0396 8.019 11.1022 8.11575C11.1641 8.21325 11.2189 8.21625 11.1547 8.55C11.0905 8.88375 10.7633 10.4857 10.7312 10.77C10.6999 11.055 10.6373 11.2425 10.9567 11.313C11.2768 11.3835 11.8153 11.505 12 11.505C12.1847 11.505 12.7232 11.3835 13.0433 11.313C13.3627 11.2432 13.3009 11.055 13.2688 10.7708C13.2375 10.4858 12.9087 8.88375 12.8453 8.55C12.7819 8.21625 12.8359 8.2125 12.8978 8.11575C12.9604 8.019 13.7266 7.83675 14.1751 7.71675C14.6236 7.59675 15.6192 7.7235 15.9691 7.75575C16.3205 7.78725 16.3503 7.836 16.2344 7.887C16.1186 7.93875 15.1919 8.268 14.7105 8.442C14.2291 8.61675 13.5552 8.8095 13.4856 9.1815C13.4151 9.5535 13.8339 10.1122 14.0663 10.5315C14.2988 10.9507 14.3043 10.9995 14.2886 11.169C14.273 11.3385 13.4856 11.7705 13.3126 11.8815C13.1404 11.994 12.2066 12.4845 12.2066 12.7582C12.2066 13.0312 13.1099 13.746 13.3948 13.9237C13.6797 14.1007 14.4553 14.49 14.7849 14.5492C15.1144 14.6085 15.6302 14.2493 15.9307 13.713C16.2313 13.176 15.9613 12.6465 15.7781 12.2303C15.595 11.814 15.9057 11.583 16.056 11.4307L17.637 9.819C17.9039 9.5475 18.1693 9.4095 18.1693 8.88675C18.1693 8.364 16.0599 5.91675 16.0599 5.91675C16.0599 5.91675 14.28 6.24375 14.0405 6.24375C13.801 6.24375 13.2797 6.05175 12.7999 5.898C12.3201 5.74425 12 5.7435 12 5.7435Z" fill="black"/>
</svg>
