<svg width="24" height="24" viewBox="0 0 24 24" fill="none" xmlns="http://www.w3.org/2000/svg">
<path fill-rule="evenodd" clip-rule="evenodd" d="M11.1783 3H17.3217C17.8635 3 18.3 3 18.6537 3.0288C19.0191 3.0585 19.3386 3.12151 19.6347 3.27181C20.1054 3.51213 20.4879 3.89464 20.7273 4.36537C20.8785 4.66148 20.9415 4.981 20.9703 5.34642C21 5.70013 21 6.13576 21 6.67758V13.3208C21 13.8626 21 14.3001 20.9712 14.6538C20.9415 15.0183 20.8785 15.3378 20.7282 15.6348C20.4882 16.1053 20.1054 16.4878 19.6347 16.7275C19.3386 16.8787 19.0191 16.9408 18.6537 16.9705C18.3 17.0002 17.8635 17.0002 17.3217 17.0002H17.0004V17.3215C17.0004 17.8633 17.0004 18.2999 16.9707 18.6536C16.941 19.019 16.8789 19.3385 16.7277 19.6346C16.4879 20.105 16.1055 20.4875 15.6351 20.7273C15.3381 20.8785 15.0186 20.9415 14.6541 20.9703C14.3004 21 13.863 21 13.3221 21H6.6774C6.1356 21 5.6991 21 5.3454 20.9712C4.98 20.9415 4.6605 20.8785 4.3644 20.7282C3.89391 20.4881 3.51145 20.1053 3.2718 19.6346C3.1206 19.3385 3.0576 19.019 3.0288 18.6536C3 18.3008 3 17.8651 3 17.3233V10.6801C3 10.1383 3 9.70083 3.0288 9.34712C3.0585 8.9826 3.1215 8.66308 3.2718 8.36607C3.51184 7.89555 3.89461 7.51307 4.3653 7.27341C4.6614 7.12311 4.9809 7.0601 5.3463 7.0304C5.7 7.0007 6.1365 7.0007 6.6783 7.0007H7.5V6.67938C7.5 6.13756 7.5 5.70103 7.5288 5.34732C7.5585 4.9819 7.6215 4.66238 7.7718 4.36627C8.01184 3.89575 8.39461 3.51327 8.8653 3.27361C9.1614 3.12241 9.4809 3.0594 9.8463 3.0306C10.2 3 10.6365 3 11.1783 3ZM17.3001 16.0002H17.0004V10.6792C17.0004 10.1374 17.0004 9.69993 16.9707 9.34622C16.941 8.9817 16.8789 8.66218 16.7277 8.36517C16.4879 7.89479 16.1055 7.51233 15.6351 7.27251C15.3381 7.12221 15.0186 7.0592 14.6541 7.0295C14.3004 6.9998 13.863 6.9998 13.3221 6.9998H8.499V6.70008C8.499 6.13216 8.499 5.73524 8.5251 5.42742C8.5494 5.12501 8.5953 4.9504 8.6628 4.81899C8.8068 4.53728 9.0363 4.30777 9.318 4.16376C9.4494 4.09625 9.624 4.05035 9.9264 4.02605C10.2351 4.00085 10.6311 3.99995 11.199 3.99995H17.2992C17.8671 3.99995 18.264 3.99995 18.5718 4.02605C18.8742 4.05035 19.0488 4.09625 19.1802 4.16376C19.4628 4.30777 19.6914 4.53728 19.8354 4.81899C19.9029 4.9504 19.9488 5.12501 19.9731 5.42742C19.9992 5.73524 19.9992 6.13216 19.9992 6.70008V13.3001C19.9992 13.8689 19.9992 14.265 19.9731 14.5737C19.9488 14.8761 19.9029 15.0507 19.8354 15.1812C19.6916 15.4635 19.4623 15.6932 19.1802 15.8373C19.0488 15.9039 18.8742 15.9498 18.5718 15.975C18.2631 16.0002 17.868 16.0002 17.3001 16.0002ZM6.0978 17.9029C6.22081 18.0309 6.3688 18.1323 6.5326 18.2007C6.69639 18.2692 6.8725 18.3032 7.05 18.3008C7.3002 18.3008 7.5252 18.2408 7.725 18.1208C7.92651 17.9992 8.09425 17.829 8.2128 17.6257C8.3376 17.4205 8.4 17.1955 8.4 16.9507C8.40244 16.7732 8.36839 16.5971 8.29996 16.4333C8.23153 16.2695 8.13018 16.1215 8.0022 15.9984C7.87919 15.8705 7.7312 15.7691 7.5674 15.7007C7.4036 15.6322 7.2275 15.5982 7.05 15.6006C6.8725 15.5982 6.69639 15.6322 6.5326 15.7007C6.3688 15.7691 6.22081 15.8705 6.0978 15.9984C5.96982 16.1215 5.86847 16.2695 5.80004 16.4333C5.73161 16.5971 5.69756 16.7732 5.7 16.9507C5.7 17.3209 5.8326 17.6383 6.0978 17.9029Z" fill="black"/>
</svg>
