<svg width="24" height="24" viewBox="0 0 24 24" fill="none" xmlns="http://www.w3.org/2000/svg">
<path d="M12 21C7.02806 21 3 16.9719 3 12C3 7.02806 7.02806 3 12 3C16.9719 3 21 7.02806 21 12C21 16.9719 16.9719 21 12 21ZM12 20.4375C16.6609 20.4375 20.4375 16.6609 20.4375 12C20.4375 7.33912 16.6609 3.5625 12 3.5625C7.33912 3.5625 3.5625 7.33912 3.5625 12C3.5625 16.6609 7.33912 20.4375 12 20.4375ZM12 4.50019C12.1024 4.50019 12.1873 4.58512 12.1873 4.6875V5.43731C12.1873 5.6865 11.8121 5.6865 11.8121 5.43731V4.6875C11.8121 4.58512 11.8976 4.50019 12 4.50019ZM12 18.3748C12.1024 18.3748 12.1873 18.4598 12.1873 18.5621V19.3119C12.1873 19.5611 11.8121 19.5611 11.8121 19.3119V18.5621C11.8121 18.4598 11.8976 18.3748 12 18.3748ZM17.3027 6.69731C17.3201 6.71457 17.334 6.73512 17.3434 6.75776C17.3528 6.7804 17.3577 6.80469 17.3577 6.82922C17.3577 6.85375 17.3528 6.87804 17.3434 6.90068C17.334 6.92332 17.3201 6.94386 17.3027 6.96112L16.7722 7.49156C16.5962 7.67044 16.3301 7.40381 16.5084 7.22775L17.0389 6.69731C17.0561 6.67988 17.0767 6.66604 17.0993 6.6566C17.122 6.64715 17.1462 6.64229 17.1708 6.64229C17.1953 6.64229 17.2196 6.64715 17.2422 6.6566C17.2649 6.66604 17.2854 6.67988 17.3027 6.69731ZM7.491 16.509C7.50914 16.5258 7.52362 16.5463 7.53352 16.569C7.54341 16.5917 7.54852 16.6161 7.54852 16.6409C7.54852 16.6657 7.54341 16.6902 7.53352 16.7129C7.52362 16.7356 7.50914 16.756 7.491 16.7728L6.96056 17.3032C6.89025 17.3854 6.76425 17.3882 6.68831 17.3123C6.61238 17.2363 6.61519 17.1103 6.69731 17.04L7.22775 16.5096C7.2446 16.4914 7.26501 16.4769 7.2877 16.467C7.3104 16.4571 7.3349 16.452 7.35966 16.452C7.38442 16.452 7.40891 16.4571 7.43161 16.467C7.4543 16.4769 7.47415 16.4909 7.491 16.509ZM6.69731 6.69731C6.71457 6.67988 6.73512 6.66604 6.75776 6.6566C6.7804 6.64715 6.80469 6.64229 6.82922 6.64229C6.85375 6.64229 6.87804 6.64715 6.90068 6.6566C6.92332 6.66604 6.94386 6.67988 6.96112 6.69731L7.49156 7.22775C7.67044 7.40381 7.40381 7.66987 7.22775 7.49437L6.69731 6.96112C6.67988 6.94386 6.66604 6.92332 6.6566 6.90068C6.64715 6.87804 6.64229 6.85375 6.64229 6.82922C6.64229 6.80469 6.64715 6.7804 6.6566 6.75776C6.66604 6.73512 6.67988 6.71457 6.69731 6.69731ZM16.509 16.509C16.5258 16.4909 16.5463 16.4764 16.569 16.4665C16.5917 16.4566 16.6161 16.4515 16.6409 16.4515C16.6657 16.4515 16.6902 16.4566 16.7129 16.4665C16.7356 16.4764 16.756 16.4909 16.7728 16.509L17.3032 17.0394C17.3854 17.1097 17.3882 17.2358 17.3123 17.3117C17.2363 17.3876 17.1103 17.3848 17.04 17.3027L16.5096 16.7722C16.4914 16.7554 16.4769 16.735 16.467 16.7123C16.4571 16.6896 16.452 16.6651 16.452 16.6403C16.452 16.6156 16.4571 16.5911 16.467 16.5684C16.4769 16.5457 16.4909 16.5258 16.509 16.509ZM4.50019 12C4.50019 11.8976 4.58512 11.8127 4.6875 11.8127H5.43731C5.6865 11.8127 5.6865 12.1879 5.43731 12.1879H4.6875C4.63791 12.1876 4.59044 12.1678 4.55538 12.1327C4.52031 12.0976 4.50048 12.0496 4.50019 12ZM18.3748 12C18.3748 11.8976 18.4598 11.8127 18.5621 11.8127H19.3119C19.5611 11.8127 19.5611 12.1879 19.3119 12.1879H18.5621C18.5125 12.1876 18.4651 12.1678 18.43 12.1327C18.3949 12.0976 18.3751 12.0496 18.3748 12ZM14.9295 5.09756C15.0262 5.13581 15.0701 5.24719 15.0291 5.34056L14.736 6.03188C14.7269 6.05543 14.7132 6.07693 14.6956 6.09508C14.6781 6.11322 14.657 6.12766 14.6338 6.13752C14.6106 6.14739 14.5856 6.15248 14.5603 6.1525C14.5351 6.15251 14.5101 6.14746 14.4868 6.13763C14.3901 6.09656 14.3462 5.98238 14.3901 5.88563L14.6831 5.19712C14.6927 5.17436 14.7067 5.15371 14.7243 5.13637C14.7419 5.11903 14.7627 5.10534 14.7856 5.09609C14.8085 5.08684 14.833 5.0822 14.8577 5.08246C14.8824 5.08271 14.9068 5.08784 14.9295 5.09756ZM9.50981 17.868C9.60375 17.9091 9.65044 18.0176 9.60938 18.1144L9.31631 18.8029C9.21394 19.0228 8.88544 18.8822 8.97038 18.6594L9.26344 17.9681C9.27283 17.9452 9.28671 17.9244 9.30426 17.9069C9.32182 17.8895 9.34269 17.8757 9.36564 17.8664C9.3886 17.8571 9.41318 17.8526 9.43794 17.8529C9.4627 17.8533 9.48714 17.858 9.50981 17.868ZM18.9553 9.19031C18.9643 9.21321 18.9688 9.23766 18.9683 9.26227C18.9679 9.28688 18.9626 9.31116 18.9528 9.33373C18.943 9.35629 18.9288 9.37671 18.9111 9.39379C18.8934 9.41088 18.8725 9.42431 18.8496 9.43331L18.1554 9.71456C18.1096 9.73282 18.0584 9.73232 18.013 9.71317C17.9675 9.69401 17.9314 9.65774 17.9124 9.61219C17.9026 9.58934 17.8974 9.56474 17.8972 9.53985C17.897 9.51496 17.9019 9.49029 17.9114 9.4673C17.921 9.44432 17.935 9.42349 17.9528 9.40605C17.9706 9.38862 17.9917 9.37493 18.0148 9.36581L18.7089 9.08456C18.7557 9.06637 18.8077 9.06726 18.8538 9.08704C18.8998 9.10682 18.9363 9.1439 18.9553 9.19031ZM6.08812 14.3878C6.09787 14.4104 6.10294 14.4348 6.10304 14.4594C6.10314 14.484 6.09826 14.5084 6.0887 14.5311C6.07914 14.5538 6.06509 14.5743 6.0474 14.5915C6.02971 14.6086 6.00874 14.622 5.98575 14.6308L5.29163 14.9121C5.26855 14.9221 5.24371 14.9275 5.21854 14.928C5.19337 14.9284 5.16836 14.9239 5.14495 14.9146C5.12154 14.9054 5.10018 14.8916 5.08211 14.8741C5.06404 14.8565 5.0496 14.8356 5.03963 14.8125C5.03046 14.789 5.02607 14.764 5.02673 14.7388C5.02738 14.7136 5.03307 14.6888 5.04344 14.6659C5.05382 14.6429 5.06868 14.6223 5.08715 14.6051C5.10562 14.588 5.12733 14.5747 5.151 14.5661L5.84512 14.2849C5.86774 14.2751 5.89209 14.2701 5.91672 14.27C5.94135 14.2699 5.96574 14.2747 5.98843 14.2843C6.01113 14.2939 6.03166 14.3079 6.04879 14.3256C6.06592 14.3433 6.0793 14.3648 6.08812 14.3878ZM9.19031 5.04469C9.21319 5.03543 9.23768 5.03083 9.26235 5.03115C9.28702 5.03147 9.31139 5.03671 9.33401 5.04655C9.35664 5.0564 9.37707 5.07066 9.39412 5.0885C9.41117 5.10633 9.4245 5.12739 9.43331 5.15044L9.71456 5.84456C9.8085 6.07575 9.46256 6.21638 9.36581 5.98519L9.08737 5.29106C9.07774 5.26819 9.07274 5.24362 9.07268 5.2188C9.07262 5.19397 9.07749 5.16938 9.08702 5.14646C9.09654 5.12353 9.11053 5.10273 9.12817 5.08526C9.1458 5.06779 9.1673 5.054 9.19031 5.04469ZM14.3878 17.9119C14.4107 17.9022 14.4353 17.8972 14.4601 17.8972C14.4849 17.8971 14.5095 17.902 14.5324 17.9115C14.5553 17.921 14.5761 17.935 14.5936 17.9527C14.6111 17.9703 14.6249 17.9912 14.6342 18.0142L14.9126 18.7084C14.9227 18.7315 14.9281 18.7563 14.9285 18.7815C14.929 18.8066 14.9244 18.8316 14.9152 18.855C14.9059 18.8785 14.8921 18.8998 14.8746 18.9179C14.8571 18.936 14.8362 18.9504 14.8131 18.9604C14.7896 18.9695 14.7645 18.9739 14.7394 18.9733C14.7142 18.9726 14.6894 18.9669 14.6664 18.9566C14.6435 18.9462 14.6228 18.9313 14.6057 18.9128C14.5886 18.8944 14.5753 18.8727 14.5667 18.849L14.2854 18.1549C14.2757 18.1323 14.2706 18.1079 14.2705 18.0833C14.2704 18.0587 14.2753 18.0343 14.2849 18.0116C14.2944 17.9889 14.3085 17.9683 14.3262 17.9512C14.3439 17.9341 14.3648 17.9207 14.3878 17.9119ZM5.09756 9.0705C5.10666 9.04776 5.12024 9.02708 5.13749 9.00969C5.15474 8.99229 5.17531 8.97855 5.19798 8.96926C5.22064 8.95997 5.24495 8.95533 5.26944 8.95562C5.29393 8.95591 5.31812 8.96112 5.34056 8.97094L6.03188 9.264C6.24844 9.36637 6.11119 9.69488 5.88563 9.60994L5.19712 9.31687C5.17436 9.3073 5.15371 9.29331 5.13637 9.27573C5.11903 9.25814 5.10534 9.2373 5.09609 9.2144C5.08684 9.1915 5.0822 9.167 5.08246 9.1423C5.08271 9.11761 5.08784 9.0932 5.09756 9.0705ZM17.868 14.4902C17.8882 14.4449 17.9251 14.4092 17.9711 14.3906C18.017 14.3721 18.0684 14.3721 18.1144 14.3906L18.8029 14.6837C18.9024 14.7219 18.9525 14.8361 18.9114 14.9329C18.8704 15.0296 18.7534 15.0735 18.6594 15.0296L17.9681 14.7366C17.9452 14.7272 17.9244 14.7133 17.9069 14.6957C17.8895 14.6782 17.8757 14.6573 17.8664 14.6344C17.8571 14.6114 17.8526 14.5868 17.8529 14.5621C17.8533 14.5373 17.858 14.5129 17.868 14.4902ZM12.6593 12.6593L11.3407 11.3407L8.23519 15.7648L12.6593 12.6593ZM17.3027 6.69731L12.9287 12.9287L6.69731 17.3027L11.0713 11.0713L17.3027 6.69731Z" fill="black"/>
</svg>
