<svg width="24" height="24" viewBox="0 0 24 24" fill="none" xmlns="http://www.w3.org/2000/svg">
<path d="M20.8823 17.2378L13.4066 2.63156C13.3141 2.45128 13.1702 2.29751 12.9901 2.1867C12.8099 2.07588 12.6005 2.01218 12.3841 2.00241C12.1676 1.98915 11.9513 2.03078 11.7587 2.12275C11.5661 2.21472 11.4046 2.35353 11.2918 2.52406L3.18389 14.607C3.06125 14.7897 2.99751 15.0006 3.00007 15.2152C3.00264 15.4299 3.07141 15.6394 3.19838 15.8195L7.16176 21.4677C7.31199 21.6792 7.53234 21.8406 7.79013 21.9278C8.04791 22.015 8.32939 22.0234 8.59278 21.9518L20.098 18.8211C20.4503 18.7253 20.7383 18.4961 20.8887 18.1919C21.039 17.8878 21.0372 17.5395 20.8823 17.2378ZM19.2086 17.8644L9.44596 20.5202C9.37832 20.5391 9.3065 20.5416 9.23749 20.5274C9.16849 20.5132 9.10466 20.4829 9.05221 20.4392C8.99977 20.3956 8.96051 20.3402 8.93824 20.2784C8.91598 20.2167 8.91148 20.1507 8.92518 20.0869L12.4122 4.72233C12.4774 4.43484 12.9094 4.38901 13.0453 4.65567L19.5021 17.2703C19.5306 17.3265 19.5455 17.3878 19.5458 17.4499C19.5461 17.512 19.5318 17.5734 19.5038 17.6298C19.4758 17.6863 19.4349 17.7366 19.3838 17.7771C19.3326 17.8176 19.2735 17.8474 19.2086 17.8644Z" fill="black"/>
</svg>
