<svg width="24" height="24" viewBox="0 0 24 24" fill="none" xmlns="http://www.w3.org/2000/svg">
<path d="M12 3C11.199 4.962 10.713 6.249 9.822 8.157C10.371 8.733 11.037 9.408 12.126 10.173C10.956 9.687 10.155 9.21 9.561 8.706C8.4 11.1 6.627 14.475 3 21C5.853 19.353 8.067 18.336 10.128 17.949C10.038 17.571 9.984 17.157 9.993 16.725V16.635C10.038 14.808 10.992 13.404 12.117 13.503C13.242 13.593 14.115 15.15 14.07 16.986C14.061 17.328 14.025 17.661 13.962 17.967C15.996 18.363 18.183 19.371 21 21C20.442 19.974 19.947 19.056 19.479 18.183C18.75 17.607 17.949 16.851 16.365 16.05C17.454 16.32 18.237 16.644 18.849 17.013C14.034 8.058 13.647 6.87 12 3Z" fill="black"/>
</svg>
