<svg width="24" height="24" viewBox="0 0 24 24" fill="none" xmlns="http://www.w3.org/2000/svg">
<path d="M12 3C7.05 3 3 7.023 3 12V18.957C3 20.1 3.9 21 5.043 21H12C16.977 21 21 16.95 21 12C21 7.05 16.95 3 12 3ZM13.827 6.708C15.339 6.708 16.761 7.86 16.761 9.462C16.761 9.606 16.761 9.75 16.743 9.921C16.698 10.344 16.311 10.65 15.888 10.596C15.7879 10.5812 15.6918 10.5464 15.6054 10.4937C15.5191 10.4409 15.4443 10.3713 15.3854 10.289C15.3266 10.2066 15.285 10.1133 15.2631 10.0145C15.2412 9.91568 15.2395 9.81348 15.258 9.714C15.258 9.66 15.267 9.588 15.267 9.462C15.267 8.553 14.529 8.202 13.827 8.202C13.125 8.202 12.495 8.796 12.495 9.462C12.504 10.227 12.495 10.992 12.495 11.766L13.8 11.748C14.808 11.73 14.817 13.26 13.8 13.251L12.495 13.26L12.486 15.411C12.324 17.103 10.893 18.444 9.165 18.444C7.338 18.444 5.826 16.95 5.826 15.114C5.84492 14.2101 6.221 13.3504 6.87202 12.723C7.52303 12.0956 8.39599 11.7515 9.3 11.766L10.335 11.757V13.26L9.3 13.269H9.273C8.229 13.296 7.338 14.007 7.329 15.123C7.329 16.131 8.148 16.95 9.165 16.95C10.2 16.95 10.992 16.203 10.992 15.123C11.01 13.314 10.983 11.325 10.992 9.453C10.992 9.345 11.001 9.264 11.01 9.147C11.181 7.761 12.423 6.708 13.827 6.708Z" fill="black"/>
</svg>
