<svg width="24" height="24" viewBox="0 0 24 24" fill="none" xmlns="http://www.w3.org/2000/svg">
<path d="M14.5031 10.2444C14.1624 10.3379 13.8812 10.388 13.5937 10.4982C13.3656 10.5617 13.1343 10.6285 12.8687 10.702L12.8499 10.7053C12.7187 10.7454 12.7062 10.7488 12.5843 10.5985C12.4374 10.4214 12.3312 10.3078 12.1281 10.2009C11.5125 9.88025 10.9187 9.97378 10.3656 10.3579C9.70309 10.8156 9.36246 11.4937 9.37184 12.3355C9.38121 13.1706 9.91558 13.8554 10.6593 13.969C11.3468 14.0625 11.9031 13.8153 12.3406 13.2842C12.4062 13.1973 12.4656 13.1071 12.5312 13.0069C12.5562 12.9735 12.5781 12.9368 12.6031 12.8967H10.725C10.5218 12.8967 10.4718 12.7631 10.5406 12.586C10.6656 12.262 10.9 11.7209 11.0375 11.4503C11.0656 11.3901 11.1343 11.2565 11.2531 11.2565H14.4124C14.5531 10.8089 14.7812 10.3579 15.0874 9.93036C15.7968 8.93155 16.628 8.41044 17.8124 8.19331C18.8062 8.00624 19.7405 8.1098 20.5905 8.72444C21.3593 9.28564 21.8343 10.0473 21.9624 11.0461C22.128 12.4524 21.7468 13.5949 20.8155 14.5736C20.1999 15.2718 19.4124 15.7094 18.5062 15.9065C18.3312 15.9399 18.1593 15.9566 17.9905 15.9733C17.8999 15.98 17.8124 15.99 17.7249 16C16.8405 15.98 16.0312 15.7094 15.3499 15.0847C14.8718 14.6404 14.5406 14.0959 14.3781 13.4646C14.2624 13.7084 14.1281 13.9456 13.9406 14.1694C13.2656 15.1582 12.3499 15.7728 11.1937 15.9365C10.2375 16.0735 9.35309 15.8764 8.57184 15.2517C7.8531 14.6672 7.44372 13.8988 7.33747 12.9401C7.20935 11.8044 7.52185 10.7555 8.16247 9.89027C8.85621 8.92153 9.77183 8.30689 10.8906 8.08975C11.8062 7.88265 12.6812 8.02629 13.4718 8.60085C13.9874 8.96496 14.3562 9.46269 14.5999 10.0673C14.6593 10.1608 14.6187 10.2143 14.5031 10.2444ZM3.50937 10.4314C3.47031 10.4314 3.46062 10.4114 3.47999 10.378L3.68468 10.0974C3.70406 10.0673 3.75281 10.0473 3.79187 10.0473H7.26872C7.30622 10.0473 7.3156 10.0773 7.29685 10.1074L7.13122 10.378C7.11247 10.4114 7.06248 10.4414 7.03435 10.4414L3.50937 10.4314ZM2.03894 11.3901C2 11.3901 1.99025 11.3668 2.00975 11.3367L2.21422 11.0561C2.23372 11.026 2.28241 11.0026 2.32125 11.0026H6.76248C6.79998 11.0026 6.81873 11.0361 6.80935 11.0661L6.73123 11.3167C6.72185 11.3567 6.68435 11.3801 6.64373 11.3801L2.03894 11.3901ZM4.36624 12.2854C4.34686 12.3155 4.35655 12.3455 4.3953 12.3455L6.51873 12.3555C6.54685 12.3555 6.58748 12.3255 6.58748 12.2854L6.60623 12.0349C6.60623 11.9914 6.58748 11.9614 6.54685 11.9614H4.59999C4.56093 11.9614 4.52218 11.9914 4.50249 12.0248L4.36624 12.2854ZM20.0374 11.6841C20.0312 11.5973 20.028 11.5238 20.0155 11.4503C19.8405 10.4214 18.953 9.83682 18.028 10.0673C17.1218 10.2844 16.5374 10.8991 16.3249 11.8779C16.1499 12.6896 16.5187 13.5113 17.2187 13.8454C17.7562 14.0959 18.2905 14.0659 18.8062 13.7819C19.5749 13.3276 19.9937 12.6896 20.0437 11.7943C20.0405 11.7543 20.0405 11.7175 20.0374 11.6841Z" fill="black"/>
</svg>
