<svg width="24" height="24" viewBox="0 0 24 24" fill="none" xmlns="http://www.w3.org/2000/svg">
<path d="M5.28313 5.82856C5.28313 5.82856 11.8119 5.52708 13.4806 6.87077C15.1775 6.02059 17.6508 5.71864 20.9872 6.10315C20.9872 6.10315 21.0159 15.7553 20.9872 17.3184C20.9585 18.8815 19.0889 20.9102 16.4142 20.9724C13.7394 21.0345 5.05302 20.9724 5.05302 20.9724M5.28313 5.82856L5.05302 20.9724M5.28313 5.82856L3.09681 7.33691L3 19.1282L5.05302 20.9724M15.9131 14.4719C16.5938 14.7664 17.3642 14.8124 18.0781 14.6012C18.792 14.39 19.3998 13.9363 19.7861 13.3262C20.1725 12.7161 20.3104 11.992 20.1739 11.2914C20.0373 10.5907 19.6358 9.96217 19.0454 9.52508C18.455 9.08798 17.7168 8.87272 16.971 8.92012C16.2251 8.96753 15.5235 9.27431 14.9991 9.78225C14.4748 10.2902 14.1643 10.964 14.1265 11.6757C14.0887 12.3875 14.3263 13.0877 14.7941 13.6435M16.7168 6.01409C16.5697 5.18331 16.1229 4.42757 15.4536 3.8774C14.7843 3.32722 13.9345 3.01713 13.051 3.00069C12.1674 2.98425 11.3056 3.26248 10.6143 3.78734C9.92297 4.3122 9.44561 5.05073 9.26462 5.87541M15.0734 15.5104C15.103 15.9788 15.0607 16.4488 14.9479 16.9056M13.2198 12.0795C13.2198 13.8665 11.7004 15.3151 9.82604 15.3151C7.95169 15.3151 6.43223 13.8665 6.43223 12.0795C6.43223 10.2925 7.95169 8.84387 9.82604 8.84387C11.7004 8.84387 13.2198 10.2925 13.2198 12.0795ZM17.0578 9.98766C17.1729 10.2245 17.1954 10.4927 17.1213 10.744C17.0472 10.9953 16.8813 11.213 16.6537 11.358C16.426 11.503 16.1515 11.5656 15.8797 11.5346C15.6078 11.5036 15.3566 11.381 15.1712 11.189C15.0038 11.5745 14.9709 12.0011 15.0773 12.4059C15.1837 12.8106 15.4237 13.172 15.7621 13.4367C16.1004 13.7014 16.519 13.8553 16.9561 13.8759C17.3932 13.8964 17.8257 13.7823 18.1896 13.5506C18.5536 13.3189 18.8297 12.9817 18.9773 12.5889C19.1249 12.1961 19.1361 11.7684 19.0092 11.3691C18.8823 10.9697 18.6242 10.6199 18.2728 10.3711C17.9214 10.1224 17.4955 9.98795 17.0578 9.98766ZM10.3091 10.1477C10.3996 10.402 10.3916 10.6788 10.2865 10.928C10.1815 11.1772 9.98638 11.3823 9.73648 11.5062C9.48657 11.6301 9.1984 11.6647 8.9241 11.6036C8.64981 11.5425 8.4075 11.3898 8.24103 11.1732C8.02457 11.5491 7.94064 11.9814 8.00165 12.4063C8.06265 12.8312 8.26534 13.2261 8.5798 13.5327C8.89426 13.8394 9.30381 14.0415 9.74797 14.1092C10.1921 14.1769 10.6474 14.1067 11.0464 13.9088C11.4455 13.711 11.7673 13.396 11.9642 13.0105C12.1612 12.6249 12.2228 12.1892 12.1401 11.7677C12.0574 11.3461 11.8347 10.9611 11.505 10.6695C11.1752 10.3779 10.7562 10.1946 10.3091 10.1477ZM12.1758 15.4404C12.1758 14.1338 13.1639 13.6027 14.4726 13.6027C15.6377 13.6027 16.2994 15.111 16.2994 15.111C15.1542 15.5754 13.9192 15.8044 12.675 15.7831C13.3922 16.4177 14.2951 16.829 15.2636 16.9622C15.2636 16.9622 14.8613 17.2497 13.4806 17.2497C12.3587 17.2502 12.1758 16.1124 12.1758 15.4404Z" stroke="black" stroke-linecap="round" stroke-linejoin="round"/>
</svg>
