<svg width="22" height="22" viewBox="0 0 22 22" fill="none" xmlns="http://www.w3.org/2000/svg">
<path d="M11 2C9.34225 2 7.78919 2.44819 6.45539 3.23001C6.18671 3.3875 6.06887 3.73752 6.29707 3.94947C6.49786 4.13596 6.76686 4.25 7.06249 4.25H14.9375C15.2331 4.25 15.5021 4.13596 15.7029 3.94947C15.9311 3.73752 15.8132 3.3875 15.5446 3.23001C14.2108 2.44819 12.6577 2 11 2Z" fill="black"/>
<path d="M20 11C20 10.3787 19.4963 9.875 18.875 9.875H3.125C2.50367 9.875 2 10.3787 2 11C2 11.6213 2.50367 12.125 3.125 12.125H18.875C19.4963 12.125 20 11.6213 20 11Z" fill="black"/>
<path d="M15.7029 18.0505C15.9311 18.2625 15.8132 18.6125 15.5446 18.77C14.2108 19.5518 12.6577 20 11 20C9.34225 20 7.78918 19.5518 6.45538 18.77C6.18671 18.6125 6.06887 18.2625 6.29706 18.0505C6.49785 17.8641 6.76685 17.75 7.06249 17.75H14.9375C15.2331 17.75 15.5021 17.8641 15.7029 18.0505Z" fill="black"/>
<path d="M3.125 7.0625C3.125 6.44116 3.62866 5.9375 4.25 5.9375H17.75C18.3713 5.9375 18.875 6.44116 18.875 7.0625C18.875 7.68384 18.3713 8.1875 17.75 8.1875H4.25C3.62866 8.1875 3.125 7.68384 3.125 7.0625Z" fill="black"/>
<path d="M3.125 14.9375C3.125 14.3162 3.62866 13.8125 4.25 13.8125H17.75C18.3713 13.8125 18.875 14.3162 18.875 14.9375C18.875 15.5588 18.3713 16.0625 17.75 16.0625H4.25C3.62866 16.0625 3.125 15.5588 3.125 14.9375Z" fill="black"/>
</svg>
