<svg width="24" height="24" viewBox="0 0 24 24" fill="none" xmlns="http://www.w3.org/2000/svg">
<path fill-rule="evenodd" clip-rule="evenodd" d="M8.24223 2C7.37535 2.02412 6.55195 2.38498 5.94667 3.00603C5.34139 3.62708 5.00183 4.45949 5.00001 5.32671C4.99819 6.19393 5.33425 7.02775 5.93691 7.65134C6.53958 8.27493 7.36145 8.63924 8.22823 8.667C7.36427 8.6987 6.54639 9.06466 5.94703 9.68771C5.34767 10.3108 5.01369 11.1422 5.01551 12.0068C5.01732 12.8713 5.3548 13.7013 5.95676 14.3219C6.55873 14.9424 7.37815 15.3049 8.24223 15.333H11.5772V12.02C11.581 12.6783 11.7795 13.3207 12.1477 13.8664C12.5159 14.412 13.0373 14.8365 13.6463 15.0864C14.2553 15.3363 14.9247 15.4003 15.57 15.2705C16.2154 15.1406 16.8079 14.8227 17.2728 14.3567C17.7378 13.8908 18.0545 13.2976 18.183 12.652C18.3115 12.0064 18.2461 11.3372 17.995 10.7287C17.7438 10.1202 17.3182 9.59963 16.7718 9.23257C16.2254 8.86552 15.5825 8.66838 14.9242 8.666C15.7882 8.63418 16.606 8.2681 17.2053 7.64496C17.8046 7.02181 18.1384 6.1903 18.1365 5.32575C18.1345 4.46121 17.7969 3.63121 17.1949 3.01077C16.5928 2.39032 15.7733 2.02793 14.9092 2H8.24223ZM14.8892 8.667H11.5762V11.979C11.5823 11.1023 11.9333 10.2632 12.5533 9.64337C13.1733 9.02352 14.0125 8.67276 14.8892 8.667Z" fill="black"/>
<path d="M8.24223 22C8.68006 22.0001 9.11362 21.914 9.51817 21.7466C9.92272 21.5792 10.2903 21.3337 10.6 21.0242C10.9097 20.7147 11.1554 20.3472 11.3231 19.9428C11.4907 19.5383 11.5771 19.1048 11.5772 18.667V15.333H8.24223C7.37544 15.359 6.55287 15.7216 5.94895 16.3439C5.34502 16.9662 5.00725 17.7993 5.00725 18.6665C5.00725 19.5337 5.34502 20.3668 5.94895 20.9891C6.55287 21.6114 7.37544 21.974 8.24223 22Z" fill="black"/>
</svg>
