<svg width="24" height="24" viewBox="0 0 24 24" fill="none" xmlns="http://www.w3.org/2000/svg">
<path fill-rule="evenodd" clip-rule="evenodd" d="M19.032 5.41835C19.8069 5.64894 20.4163 6.32506 20.6237 7.18647C20.9983 8.74541 21 12 21 12C21 12 21 15.2546 20.6229 16.8135C20.4163 17.6749 19.8069 18.3511 19.032 18.5816C17.6289 19 12 19 12 19C12 19 6.37114 19 4.968 18.5816C4.19314 18.3511 3.58371 17.6749 3.37629 16.8135C3 15.2546 3 12 3 12C3 12 3 8.74541 3.37714 7.18647C3.58371 6.32506 4.19314 5.64894 4.968 5.41835C6.37114 5 12 5 12 5C12 5 17.6289 5 19.032 5.41835ZM15.012 12L10.1126 14.7176V9.28235L15.012 12Z" fill="black"/>
</svg>
