<svg width="24" height="24" viewBox="0 0 24 24" fill="none" xmlns="http://www.w3.org/2000/svg">
<path d="M12.6322 4.00314C11.0421 3.93348 10.0244 5.04726 10.0244 5.04726C4.8898 5.10676 3.59303 9.40879 3.56228 9.49804L3.37628 10.035C1.67525 16.4057 6.29307 18.9017 6.29307 18.9017C6.43407 18.9677 6.57432 18.8538 6.57432 18.8538C6.94933 18.6289 6.76333 18.4693 6.76333 18.4693C5.69081 17.2053 5.56706 14.2144 5.56631 14.189C5.0863 13.803 4.6303 13.2327 4.73305 12.4897C4.73305 12.4897 4.79605 12.1196 5.17105 12.3467C5.17105 12.3467 6.06057 12.814 6.76333 12.949C6.76258 12.949 7.12033 12.9802 7.13833 13.0774C7.13833 13.0774 7.41884 14.3486 6.55332 14.7608C7.11208 15.0778 7.65209 15.3775 7.65209 15.3775C7.74509 16.2939 8.2596 19.2377 8.2596 19.2377C8.3076 19.816 8.93911 19.9299 8.93911 19.9299C9.30136 20.0547 12.0292 19.9749 12.0292 19.9749C12.7897 19.9429 12.8257 19.2834 12.8257 19.2834C12.8369 18.8879 12.8482 16.6567 12.8482 16.6567C12.9202 16.2395 13.4227 16.2939 13.4227 16.2939C13.9499 16.2722 13.9387 16.6234 13.9387 16.6234C13.9259 16.997 13.9724 19.16 13.9724 19.16C13.9949 19.7826 14.5582 19.9763 14.5582 19.9763C14.9242 19.9763 15.1792 19.9734 15.582 19.9763C15.771 19.9778 16.6867 19.9763 16.6867 19.9763C17.0992 19.7536 17.7195 19.2732 17.7195 19.2732C22.1205 15.7106 20.8208 10.6387 20.8208 10.6387C20.1975 7.55926 16.344 6.9933 16.344 6.9933C15.9075 5.67925 15.1117 5.04726 15.1117 5.04726C14.1952 4.31079 13.3544 4.03506 12.6322 4.00314ZM16.3867 7.10359C16.3867 7.10359 17.7705 9.33841 15.0914 12.8067C15.0922 12.8075 12.8864 15.7933 8.91736 13.6941C9.73037 14.0736 13.0694 15.3717 15.1987 12.2575C15.1987 12.2575 17.1727 9.76361 16.3867 7.10359ZM8.02709 9.72733C8.02709 9.72733 8.99911 9.75345 9.03286 11.0479C9.03286 11.0479 8.26785 9.11203 6.57957 10.9028C6.57957 10.9028 6.88258 9.64824 8.02709 9.72733Z" fill="black"/>
</svg>
