<svg width="24" height="24" viewBox="0 0 24 24" fill="none" xmlns="http://www.w3.org/2000/svg">
<path d="M12 3C13.1819 3 14.3522 3.23279 15.4442 3.68508C16.5361 4.13738 17.5282 4.80031 18.364 5.63604C19.1997 6.47177 19.8626 7.46392 20.3149 8.55585C20.7672 9.64778 21 10.8181 21 12C21 14.3869 20.0518 16.6761 18.364 18.364C16.6761 20.0518 14.3869 21 12 21C10.8181 21 9.64778 20.7672 8.55585 20.3149C7.46392 19.8626 6.47177 19.1997 5.63604 18.364C3.94821 16.6761 3 14.3869 3 12C3 9.61305 3.94821 7.32387 5.63604 5.63604C7.32387 3.94821 9.61305 3 12 3ZM12 4.8C8.643 4.8 5.826 7.095 5.025 10.2L13.8 18.975C16.905 18.174 19.2 15.357 19.2 12H14.475V13.35H17.58C17.3622 14.2491 16.93 15.0822 16.3203 15.778C15.7107 16.4739 14.9417 17.0118 14.079 17.346L6.654 9.921C7.5 7.779 9.57 6.267 12 6.267C13.917 6.267 15.6 7.203 16.662 8.652L17.769 7.698C17.1013 6.79717 16.2314 6.06565 15.2294 5.56231C14.2275 5.05897 13.1213 4.79787 12 4.8ZM4.8 12C4.8 13.9096 5.55857 15.7409 6.90883 17.0912C8.25909 18.4414 10.0904 19.2 12 19.2C12.036 19.2 12.081 19.2 4.8 12Z" fill="black"/>
</svg>
