<svg width="24" height="24" viewBox="0 0 24 24" fill="none" xmlns="http://www.w3.org/2000/svg">
<path d="M18.9421 5.27639C17.6287 4.67146 16.2413 4.2423 14.8157 4C14.6211 4.35092 14.4451 4.71092 14.2875 5.08002C12.7698 4.8499 11.226 4.8499 9.70829 5.08002C9.55037 4.71127 9.37377 4.3508 9.17919 4C7.75303 4.24498 6.36492 4.67498 5.05001 5.27912C2.43904 9.16466 1.73175 12.9511 2.08449 16.6848C3.61305 17.819 5.32489 18.6825 7.14551 19.2376C7.55582 18.6824 7.91704 18.0967 8.22917 17.4803C7.63774 17.2575 7.06679 16.9837 6.52277 16.6621C6.6655 16.5576 6.8055 16.4494 6.94096 16.3457C8.5227 17.0935 10.2506 17.4814 12.0002 17.4814C13.7498 17.4814 15.4776 17.0935 17.0594 16.3457C17.1957 16.4585 17.3351 16.5636 17.4776 16.6612C16.9309 16.9854 16.3612 17.2591 15.7684 17.4821C16.0793 18.0985 16.4403 18.6837 16.8512 19.2376C18.6734 18.6844 20.3865 17.8208 21.9149 16.6848C22.3304 12.3556 21.2058 8.60374 18.9421 5.27639ZM8.67827 14.3884C7.69098 14.3884 6.87641 13.4884 6.87641 12.382C6.87641 11.2747 7.66279 10.3665 8.67463 10.3665C9.68647 10.3665 10.4947 11.2747 10.4774 12.3811C10.4592 13.4884 9.68375 14.3884 8.67827 14.3884ZM15.323 14.3884C14.3348 14.3884 13.5229 13.4884 13.5229 12.382C13.5229 11.2747 14.3093 10.3665 15.323 10.3665C16.3366 10.3665 17.1375 11.2747 17.1203 12.3811C17.103 13.4875 16.3284 14.3884 15.323 14.3884Z" fill="black"/>
</svg>
