<svg width="24" height="24" viewBox="0 0 24 24" fill="none" xmlns="http://www.w3.org/2000/svg">
<path d="M8.64675 9.56475H8.118V10.2705H8.6475C8.9295 10.2705 9.07125 10.1295 9.07125 9.91725C9.0705 9.6705 8.89425 9.56475 8.64675 9.56475ZM6.24675 9.77625C6.24675 9.6 6.10575 9.5295 5.8935 9.5295H5.36475V10.059H5.859C6.10575 10.0237 6.24675 9.95325 6.24675 9.77625ZM10.9057 10.6237H11.541L11.2237 9.8115L10.9057 10.6237ZM5.96475 10.6237H5.3295V11.1532H5.96475C6.2115 11.1532 6.35325 11.0475 6.35325 10.8712C6.35325 10.695 6.2115 10.6237 5.96475 10.6237ZM5 3C3.89543 3 3 3.89543 3 5V19C3 20.1046 3.89543 21 5 21H19C20.1046 21 21 20.1046 21 19V5C21 3.89543 20.1046 3 19 3H5ZM9.318 5.259H11.8942V5.96475H11.0122V8.1885H10.2V5.96475H9.318V5.259ZM9.141 5.259V5.9295H7.5885V6.3885H9V7.02375H7.5885V7.48275H9.177V8.1885H6.8115L6.77625 5.259H9.141ZM7.16475 10.9763C7.16475 11.4705 6.741 11.7878 6.0705 11.7878H4.55325V8.859H6.0705C6.42375 8.859 6.70575 8.96475 6.882 9.10575C6.9885 9.2115 7.059 9.3885 7.059 9.6C7.059 9.95325 6.88275 10.1295 6.6 10.2705C6.95325 10.3762 7.16475 10.5885 7.16475 10.9763ZM5.0115 7.23525C5.1525 7.4115 5.2935 7.51725 5.4705 7.51725C5.682 7.51725 5.788 7.376 5.7885 7.0935V5.22375H6.6V7.09425C6.6 7.4475 6.49425 7.7295 6.318 7.90575C6.14175 8.082 5.859 8.1885 5.50575 8.1885C4.97625 8.22375 4.69425 8.0115 4.48275 7.7295L5.0115 7.23525ZM11.2942 18.741H4.55325V17.6115H11.2942V18.741ZM11.9648 11.8237L11.7532 11.2942H10.6237L10.4122 11.8237H9.56475L9.57975 11.7885H9.0705L8.4705 10.9065H8.118V11.7885H7.30575V8.859H8.682C9.141 8.859 9.423 8.96475 9.63525 9.177C9.8115 9.35325 9.882 9.5655 9.882 9.8475C9.882 10.3065 9.63525 10.5885 9.282 10.7655L9.73575 11.424L10.8345 8.85975H11.6108L12.846 11.8245L11.9648 11.8237ZM13.7647 11.7885H12.9532V8.859H13.7647V11.7885ZM16.7295 11.7885H16.0237L14.7885 10.2V11.8237H13.977V8.859H14.718L15.918 10.4122V8.859H16.7295V11.7885ZM18.1762 11.8237C17.9279 11.8425 17.6782 11.8116 17.4419 11.7328C17.2056 11.6539 16.9874 11.5288 16.8 11.3647L17.259 10.8352C17.541 11.082 17.859 11.1885 18.2122 11.1885C18.4237 11.1885 18.5655 11.118 18.5655 10.977C18.5655 10.836 18.4597 10.8007 18.0712 10.695C17.436 10.554 16.977 10.377 16.977 9.777C16.977 9.2475 17.4007 8.82375 18.1065 8.82375C18.6007 8.82375 18.9885 8.96475 19.3065 9.21225L18.8827 9.777C18.6 9.6 18.318 9.49425 18.0705 9.49425C17.859 9.49425 17.7885 9.56475 17.7885 9.6705C17.7885 9.8115 17.8942 9.84675 18.2827 9.9525C18.9532 10.0935 19.377 10.3057 19.377 10.8705C19.3762 11.4705 18.918 11.8237 18.1762 11.8237Z" fill="black"/>
</svg>
