<svg width="24" height="24" viewBox="0 0 24 24" fill="none" xmlns="http://www.w3.org/2000/svg">
<path d="M19.3995 17.1441C18.1846 18.8866 16.3922 20.1438 14.3392 20.6934C12.2861 21.243 10.1047 21.0495 8.18067 20.1473C6.25661 19.245 4.71384 17.6921 3.82517 15.763C2.9365 13.834 2.75917 11.6531 3.32453 9.60603C3.8899 7.55896 5.16154 5.77757 6.9146 4.57684C8.66767 3.37611 10.7892 2.8334 12.9041 3.04467C15.019 3.25594 16.991 4.20758 18.4715 5.73132C19.9519 7.25505 20.8453 9.25273 20.9939 11.3711C21.2041 14.3641 15.9554 13.7841 14.0748 12.8571C15.468 11.2571 14.4771 8.81911 11.7988 9.00611C10.0522 9.12811 8.86917 10.1631 9.0123 12.2081C9.29254 16.1981 13.4602 18.4131 19.3814 16.9981M3.02205 12.6271C2.7388 8.58412 11.7467 5.39912 14.28 9.93912M12.6365 20.9771C9.64083 21.1871 7.46991 16.2521 9.06632 11.2291" stroke="black" stroke-width="2" stroke-linecap="round" stroke-linejoin="round"/>
</svg>
