<svg width="24" height="24" viewBox="0 0 24 24" fill="none" xmlns="http://www.w3.org/2000/svg">
<path d="M15.6285 11.9423C15.7141 11.9745 15.7997 12.0015 15.8815 12.0382C16.2223 12.1905 16.4229 12.453 16.4479 12.8212C16.4797 13.2978 16.4802 13.774 16.4495 14.25C16.4123 14.799 15.9004 15.219 15.3264 15.2032C14.7698 15.1875 14.2897 14.7382 14.2685 14.1975C14.2556 13.8667 14.2662 13.5345 14.2639 13.203C14.2632 13.0238 14.2616 13.0215 14.0784 13.0208C13.0462 13.02 12.014 13.0267 10.9818 13.0185C10.3094 13.0132 9.90572 13.38 9.86785 14.1135C9.85347 14.3985 9.79212 14.6588 9.5975 14.877C9.29686 15.2153 8.91746 15.3277 8.48277 15.2265C8.06323 15.1282 7.8262 14.835 7.69898 14.4405C7.61038 14.1652 7.65657 13.8877 7.70807 13.62C7.9663 12.2723 8.74252 11.3655 10.0746 10.9537C10.3456 10.8705 10.6277 10.8286 10.9114 10.8293C11.6232 10.8303 12.3354 10.83 13.0477 10.8285C13.1446 10.8285 13.2423 10.8195 13.3393 10.8127C13.8709 10.7745 14.2223 10.4295 14.2632 9.79875C14.2662 9.75075 14.2632 9.702 14.2639 9.654C14.2629 9.37437 14.3729 9.10555 14.5703 8.90559C14.7677 8.70563 15.0365 8.59057 15.3188 8.58525C15.9148 8.5635 16.4078 8.9805 16.4495 9.57375C16.507 10.386 16.2488 11.1082 15.758 11.754C15.7126 11.8132 15.649 11.862 15.6285 11.9423ZM9.15903 10.827C8.96365 10.821 8.72662 10.8405 8.4911 10.8008C8.0852 10.7333 7.82772 10.5082 7.71867 10.1137C7.59977 9.684 7.64521 9.291 7.98448 8.97C8.3298 8.6445 8.73874 8.55 9.18629 8.73375C9.58008 8.89575 9.8368 9.282 9.86028 9.7035C9.87921 10.0365 9.86255 10.371 9.86558 10.704C9.86634 10.791 9.83302 10.8293 9.74366 10.8278C9.56191 10.8255 9.38092 10.827 9.15903 10.827ZM19.3317 3H4.66755C4.44851 2.9998 4.23158 3.04239 4.02917 3.12531C3.82676 3.20824 3.64286 3.32988 3.48797 3.48327C3.33308 3.63667 3.21026 3.81881 3.12653 4.01927C3.0428 4.21972 2.9998 4.43457 3 4.6515V19.1392C2.9999 19.3836 3.04843 19.6256 3.14282 19.8514C3.2372 20.0772 3.37559 20.2824 3.55008 20.4552C3.72456 20.628 3.93172 20.7651 4.15972 20.8586C4.38771 20.952 4.63207 21.0001 4.87883 21H19.1212C19.3679 21.0001 19.6123 20.952 19.8403 20.8586C20.0683 20.7651 20.2754 20.628 20.4499 20.4552C20.6244 20.2824 20.7628 20.0772 20.8572 19.8514C20.9516 19.6256 21.0001 19.3836 21 19.1392V4.6515C20.9996 4.21349 20.8237 3.79354 20.5109 3.48389C20.1981 3.17424 19.774 3.0002 19.3317 3ZM18.1526 12.3547C18.5456 12.9577 18.7077 13.6222 18.6653 14.3475C18.63 15.0345 18.3712 15.6918 17.9276 16.2212C17.484 16.7505 16.8794 17.1235 16.2041 17.2845C14.2465 17.7517 12.7463 16.5922 12.2412 15.189C12.1587 14.961 12.12 14.7225 12.0716 14.4502C12.0201 14.7607 11.9845 15.042 11.8716 15.3007C11.3438 16.5135 10.4449 17.253 9.09618 17.4C8.32979 17.4872 7.55699 17.3027 6.91487 16.8793C6.27275 16.4559 5.80281 15.8209 5.58841 15.087C5.39909 14.4397 5.45589 13.7767 5.53692 13.1182C5.5975 12.6285 5.78001 12.1672 6.01553 11.7323C6.05869 11.6528 6.05869 11.5942 6.00795 11.5185C5.58311 10.8847 5.41802 10.1858 5.47785 9.4305C5.50413 9.02943 5.61152 8.63767 5.79364 8.2785C6.3351 7.2195 7.52404 6.32025 9.11662 6.4695C10.5168 6.60075 11.8141 7.797 12.017 9.1425C12.0269 9.21 12.0466 9.276 12.0685 9.37575C12.1019 9.195 12.1261 9.0465 12.1579 8.89875C12.4184 7.67625 13.627 6.3975 15.3393 6.381C17.075 6.36525 18.3608 7.713 18.6032 8.9655C18.7319 9.6315 18.6706 10.2975 18.5252 10.9627C18.4404 11.3505 18.2904 11.7188 18.1284 12.0817C18.0837 12.1838 18.0905 12.2587 18.1526 12.3547Z" fill="black"/>
</svg>
