<svg width="24" height="24" viewBox="0 0 24 24" fill="none" xmlns="http://www.w3.org/2000/svg">
<path d="M11.9352 2C7.3659 2 7.6512 4.21351 7.6512 4.21351L7.6566 6.50643H12.0171V7.19501H5.9241C5.9241 7.19501 3 6.82308 3 11.9739C3 17.1226 5.5524 16.9397 5.5524 16.9397H7.0752V14.5503C7.0752 14.5503 6.9933 11.7004 9.5862 11.7004H13.9116C13.9116 11.7004 16.3416 11.7437 16.3416 9.0768V4.66787C16.3416 4.66787 16.7106 2 11.9352 2ZM9.5304 3.54202C9.63564 3.53804 9.74052 3.55775 9.83879 3.59998C9.93707 3.64222 10.0267 3.70611 10.1024 3.78785C10.1781 3.86959 10.2383 3.96751 10.2795 4.07579C10.3206 4.18406 10.3418 4.30046 10.3418 4.41807C10.3418 4.53568 10.3206 4.65209 10.2795 4.76036C10.2383 4.86864 10.1781 4.96656 10.1024 5.0483C10.0267 5.13004 9.93707 5.19393 9.83879 5.23617C9.74052 5.2784 9.63564 5.29811 9.5304 5.29413C9.32698 5.28643 9.13419 5.19076 8.99272 5.02731C8.85125 4.86386 8.77217 4.64541 8.77217 4.41807C8.77217 4.19074 8.85125 3.97229 8.99272 3.80884C9.13419 3.64539 9.32698 3.54972 9.5304 3.54202Z" fill="black" fill-opacity="0.7"/>
<path d="M12.0648 22C16.6341 22 16.3488 19.7865 16.3488 19.7865L16.3434 17.4936H11.9829V16.805H18.0759C18.0759 16.805 21 17.1759 21 12.0261C21 6.87636 18.4476 7.05931 18.4476 7.05931H16.9248V9.44773C16.9248 9.44773 17.0067 12.2986 14.4138 12.2986H10.0875C10.0875 12.2986 7.6575 12.2543 7.6575 14.9222V19.3311C7.6575 19.3311 7.2894 22 12.0648 22ZM14.4696 20.458C14.3666 20.4581 14.2646 20.4356 14.1694 20.3917C14.0742 20.3478 13.9876 20.2834 13.9147 20.2021C13.8418 20.1208 13.7839 20.0243 13.7444 19.9181C13.7049 19.8119 13.6845 19.698 13.6844 19.5829C13.6842 19.4679 13.7044 19.3539 13.7437 19.2476C13.783 19.1413 13.8407 19.0446 13.9134 18.9632C13.9862 18.8817 14.0726 18.8171 14.1677 18.7729C14.2628 18.7288 14.3648 18.706 14.4678 18.7059C14.6758 18.7056 14.8754 18.7976 15.0227 18.9618C15.1699 19.1259 15.2528 19.3486 15.2531 19.5809C15.2533 19.8133 15.1709 20.0362 15.024 20.2007C14.877 20.3652 14.6776 20.4577 14.4696 20.458Z" fill="black"/>
</svg>
