<svg width="24" height="24" viewBox="0 0 24 24" fill="none" xmlns="http://www.w3.org/2000/svg">
<path d="M21 12.2043C20.9988 11.5665 20.9431 10.953 20.8329 10.3638H12.1837V13.8495H17.1263C17.0214 14.3997 16.8038 14.9234 16.4865 15.3889C16.1692 15.8544 15.7589 16.2519 15.2804 16.5576V18.8238H18.2614C19.9981 17.2524 21 14.9448 21 12.2043Z" fill="black"/>
<path d="M12.1828 21C14.6623 21 16.7424 20.199 18.2614 18.8238L15.2804 16.5576C14.4621 17.0976 13.4189 17.4243 12.1828 17.4243C9.795 17.4243 7.76541 15.8457 7.0399 13.7181H3.98449V16.0419C5.4952 18.9795 8.59286 21 12.1828 21Z" fill="black"/>
<path d="M7.04082 13.71C6.85012 13.1591 6.7515 12.5817 6.74878 12C6.74878 11.4024 6.85714 10.83 7.04082 10.29V7.9662H3.98541C3.33771 9.21611 3.00009 10.5982 3 12C3 13.4562 3.35908 14.8224 3.98541 16.0338L6.36398 14.2176L7.04082 13.71Z" fill="black"/>
<path d="M12.1828 6.5838C13.5355 6.5838 14.7377 7.0419 15.6973 7.9248L18.3275 5.3481C16.7333 3.8919 14.6614 3 12.1818 3C8.59102 3 5.49429 5.0205 3.98357 7.9662L7.03898 10.29C7.76449 8.1624 9.795 6.5838 12.1828 6.5838Z" fill="black"/>
</svg>
