<svg width="24" height="24" viewBox="0 0 24 24" fill="none" xmlns="http://www.w3.org/2000/svg">
<path d="M4.14385 7.22721C2.54936 9.60517 2.74736 12.6979 3.9661 15.223C3.9946 15.2838 4.0241 15.3432 4.0546 15.4013C4.0721 15.4408 4.09135 15.4797 4.11235 15.5181C4.12285 15.5399 4.1346 15.5612 4.1476 15.582C4.1676 15.6225 4.18785 15.6619 4.20835 15.7003L4.3261 15.9074C4.3486 15.9456 4.36885 15.983 4.3936 16.0211C4.4356 16.0943 4.4836 16.1667 4.5271 16.2399C4.5456 16.2711 4.56535 16.3014 4.58635 16.331C4.65878 16.4501 4.73636 16.5657 4.81885 16.6775C4.87635 16.7606 4.93635 16.8423 4.99885 16.9228L5.06335 17.0123L5.22834 17.2218C5.24934 17.2451 5.26959 17.2739 5.29134 17.2989C5.36534 17.3902 5.44184 17.4811 5.52084 17.5714L5.52459 17.5761C5.61932 17.7012 5.72612 17.816 5.84334 17.9187C5.90284 17.9835 5.96409 18.0471 6.02709 18.1094L6.10284 18.185C6.18534 18.267 6.27034 18.3472 6.35784 18.4255C6.35784 18.4255 6.36009 18.4263 6.36159 18.4279L6.40434 18.4668C6.48084 18.5369 6.55834 18.6044 6.63684 18.6693L6.73059 18.751L6.92558 18.9067L7.02833 18.9885C7.09808 19.043 7.17233 19.0967 7.24358 19.1497C7.26958 19.1694 7.29608 19.1884 7.32308 19.2065L7.34558 19.2244L7.55558 19.3685L7.64558 19.4308C7.75608 19.5034 7.86608 19.574 7.97558 19.6426C8.00708 19.6586 8.03783 19.6763 8.06783 19.6955C8.14983 19.7448 8.23208 19.7923 8.31458 19.838C8.35958 19.8639 8.40558 19.8883 8.45257 19.9112C8.50907 19.9434 8.56757 19.9758 8.62807 20.0085C8.64262 20.013 8.65669 20.019 8.67007 20.0264L8.74207 20.063C8.83207 20.1097 8.92582 20.1552 9.02332 20.1993C9.04182 20.2065 9.06082 20.2154 9.08032 20.2258C9.18782 20.2745 9.29732 20.3218 9.40882 20.3675C9.43432 20.3753 9.46132 20.3885 9.48757 20.3986C9.58957 20.4391 9.69232 20.4786 9.79582 20.517L9.83332 20.531C9.94832 20.5715 10.0633 20.6104 10.1783 20.6478L10.2616 20.6735C10.3816 20.7108 10.4971 20.7552 10.6171 20.7801C18.3218 22.2377 20.5605 15.9705 20.5605 15.9705C18.6795 18.5135 15.342 19.1839 12.1801 18.438C12.0631 18.41 11.9461 18.371 11.8276 18.3352C11.6849 18.2911 11.5431 18.2439 11.4023 18.1935L11.3558 18.1748C11.2548 18.1385 11.1548 18.1001 11.0558 18.0596L10.9733 18.0284C10.8633 17.9817 10.7551 17.934 10.6486 17.8852C10.6253 17.8774 10.6058 17.8665 10.5826 17.8571L10.3111 17.7248L10.2316 17.6843C10.1611 17.65 10.0906 17.6103 10.0216 17.5729C9.97419 17.5493 9.92743 17.5244 9.88132 17.4982C9.79582 17.4515 9.71107 17.4009 9.62632 17.3526C9.60032 17.3344 9.57232 17.3173 9.54232 17.3012C9.43149 17.233 9.32173 17.1629 9.21307 17.091C9.18289 17.0718 9.15337 17.0516 9.12457 17.0302C9.04498 16.979 8.96694 16.9253 8.89057 16.8691L8.81332 16.8122C8.73862 16.7586 8.66485 16.7036 8.59207 16.6471C8.56007 16.6212 8.52707 16.5952 8.49307 16.5693C8.42707 16.5148 8.36033 16.4642 8.29433 16.4073L8.20583 16.3334C8.1207 16.2624 8.03693 16.1897 7.95458 16.1153L7.92683 16.0912L7.66658 15.8452L7.59158 15.772C7.53008 15.7071 7.46758 15.6432 7.40408 15.5804L7.33058 15.5026C7.25134 15.4207 7.17407 15.3369 7.09883 15.2511L7.08758 15.2386C7.00808 15.1483 6.92983 15.0561 6.85283 14.9622C6.83283 14.9383 6.81283 14.9131 6.79283 14.8867L6.62259 14.671C6.53608 14.5556 6.45108 14.4391 6.36759 14.3214C4.6141 11.8367 3.9796 8.40607 5.38284 5.59286M9.09007 5.22456C7.93508 6.94613 7.99958 9.24933 8.89957 11.0706C9.04804 11.3772 9.21799 11.672 9.40807 11.9528C9.58057 12.2097 9.77107 12.5141 10.0028 12.722C10.0838 12.816 10.1698 12.9094 10.2608 13.0024L10.3283 13.0724C10.4143 13.1576 10.5018 13.2419 10.5908 13.3255L10.6028 13.3356C10.704 13.4272 10.8075 13.516 10.9133 13.6019C10.9388 13.6198 10.9606 13.6408 10.9853 13.6587C11.0903 13.7423 11.1973 13.8243 11.3063 13.9048L11.3176 13.9118C11.3641 13.9461 11.4136 13.9798 11.4661 14.013C11.4871 14.027 11.5111 14.0457 11.5336 14.0597C11.6126 14.1116 11.6921 14.1628 11.7721 14.2131L11.8081 14.231C11.8756 14.2739 11.9491 14.3151 12.0196 14.3533C12.0443 14.3689 12.0683 14.3805 12.0946 14.3953C12.1446 14.4213 12.1938 14.4478 12.2423 14.4748L12.2663 14.4857C12.3683 14.5376 12.4703 14.5869 12.5723 14.6336C12.5973 14.644 12.6203 14.6541 12.6413 14.664C12.7248 14.7013 12.8088 14.7369 12.8933 14.7706C12.9308 14.7839 12.966 14.7994 13.0013 14.8111C13.0778 14.8407 13.1588 14.868 13.2338 14.8952L13.3388 14.9303C13.449 14.9653 13.56 15.0112 13.6755 15.0315C19.623 16.0538 21 11.2979 21 11.2979C19.7603 13.1511 17.361 14.0333 14.8043 13.3442C14.6911 13.3138 14.5788 13.2801 14.4675 13.243C14.4315 13.232 14.4 13.2204 14.3655 13.2095C14.2875 13.1814 14.2073 13.155 14.1315 13.1246L14.0235 13.0826C13.9388 13.0475 13.8533 13.0148 13.7715 12.9774C13.746 12.9658 13.7228 12.958 13.7033 12.9463C13.5978 12.898 13.4933 12.8482 13.3898 12.7968L13.2353 12.7135L13.146 12.6668C13.0789 12.6296 13.0126 12.5906 12.9473 12.55L12.9008 12.5227C12.8213 12.4713 12.738 12.4215 12.6623 12.3685C12.6373 12.353 12.6131 12.3369 12.5896 12.3203L12.4336 12.2144C12.3256 12.1365 12.2198 12.0524 12.1126 11.9707C12.0886 11.9489 12.0651 11.9284 12.0421 11.9091C10.9178 10.9919 10.0313 9.73675 9.61057 8.3173C9.16807 6.84023 9.26557 5.18485 10.0306 3.84015M13.2495 3.72569C12.5678 4.76439 12.5026 6.05381 12.972 7.1984C13.4708 8.41541 14.49 9.3708 15.678 9.8224C15.726 9.84109 15.775 9.85926 15.825 9.87691L15.891 9.89793C15.96 9.92129 16.0298 9.94699 16.101 9.96334C19.3868 10.6213 20.2763 8.21141 20.5155 7.85791C19.7333 9.0243 18.4215 9.30383 16.812 8.89739C16.681 8.86313 16.5518 8.82154 16.425 8.7728C16.2671 8.71587 16.1124 8.64984 15.9615 8.57503C15.6756 8.43158 15.4038 8.25947 15.15 8.06113C13.7085 6.92666 12.8153 4.76283 13.7558 3" fill="black"/>
</svg>
