<svg width="24" height="24" viewBox="0 0 24 24" fill="none" xmlns="http://www.w3.org/2000/svg">
<path d="M3 8.49434L3.99549 9.49309C3.99549 9.49309 5.48872 8.39247 5.98646 8.99372C6.49317 9.60195 7.84106 16.6341 8.47519 17.9824C9.02868 19.1649 10.4443 20.8688 12.4571 19.4805C14.4481 17.9824 19.9233 13.9874 20.9188 7.99497C21.3608 5.33732 19.9233 4 18.4301 4C16.4391 4 14.4013 5.20049 13.9504 7.99497C15.9911 6.74255 16.4899 8.99372 15.4436 10.9912C14.3963 12.9887 13.4526 13.9874 12.9549 13.9874C12.4671 13.9874 12.0351 12.8239 11.4617 10.4918C10.8743 8.07487 10.9639 4 8.47519 4C5.98646 4 3 8.49434 3 8.49434Z" stroke="black" stroke-width="2" stroke-linecap="round" stroke-linejoin="round"/>
</svg>
