<svg width="24" height="24" viewBox="0 0 24 24" fill="none" xmlns="http://www.w3.org/2000/svg">
<path d="M12.4728 20.0528C11.1207 19.081 9.07135 16.4023 8.68289 14.3696C8.22242 15.099 7.26074 16.264 6.78795 16.264C5.36769 15.4229 6.2441 12.5008 6.78795 10.5809C5.27579 9.22353 4.44959 8.25266 4.41927 6.79208C1.24525 3.53373 3.9986 1.80037 6.78795 3.9505H7.73542C15.7719 4.4241 13.8191 11.5944 16.2626 14.8432C18.4371 15.3377 19.7351 16.9782 21 18.1584C19.0236 17.969 18.3622 17.8326 17.6839 18.1584C18.1367 19.7118 19.6953 20.2422 21 21M8.68291 6.79207H8.69239" stroke="black" stroke-width="2" stroke-linecap="round" stroke-linejoin="round"/>
</svg>
