<svg width="24" height="24" viewBox="0 0 24 24" fill="none" xmlns="http://www.w3.org/2000/svg">
<path d="M20.682 10.1871C20.9094 9.51375 20.9884 8.80021 20.9136 8.0943C20.8388 7.38839 20.6119 6.70642 20.2483 6.09408C19.7093 5.16792 18.8862 4.43465 17.8976 4.00005C16.909 3.56546 15.8061 3.45202 14.7479 3.67608C14.2703 3.14547 13.6835 2.7215 13.0266 2.43248C12.3697 2.14347 11.658 1.99605 10.9388 2.00008C9.85694 1.9977 8.80228 2.33439 7.92684 2.96162C7.0514 3.58885 6.4004 4.47421 6.06769 5.49008C5.36307 5.63242 4.69732 5.92147 4.1149 6.33792C3.53248 6.75438 3.04679 7.28865 2.69025 7.90508C2.1469 8.82878 1.91496 9.89895 2.02788 10.9612C2.1408 12.0234 2.59275 13.0228 3.31852 13.8151C3.09123 14.4883 3.01234 15.2016 3.08714 15.9073C3.16194 16.6131 3.3887 17.2949 3.75223 17.9071C4.29117 18.8332 5.11431 19.5665 6.1029 20.0011C7.0915 20.4357 8.19443 20.5491 9.2526 20.3251C9.72978 20.8559 10.3164 21.2799 10.9732 21.5688C11.6299 21.8577 12.3417 22.0047 13.0607 22.0001C14.1432 22.003 15.1986 21.6665 16.0747 21.039C16.9508 20.4116 17.6021 19.5256 17.9348 18.5091C18.6395 18.3664 19.3051 18.077 19.8874 17.6602C20.4696 17.2434 20.955 16.7088 21.3113 16.0921C21.8539 15.1684 22.0852 14.0985 21.9719 13.0367C21.8586 11.9749 21.4066 10.976 20.681 10.1841V10.1861L20.682 10.1871ZM13.0637 20.6941C12.1751 20.6954 11.3143 20.3885 10.6317 19.8271C10.6621 19.8101 10.7169 19.7811 10.7513 19.7601L14.7874 17.4601C14.8887 17.4031 14.9729 17.3205 15.0313 17.2209C15.0897 17.1213 15.1202 17.0082 15.1198 16.8931V11.2781L16.8252 12.2501C16.834 12.2546 16.8416 12.2611 16.8472 12.2691C16.8529 12.2771 16.8565 12.2864 16.8577 12.2961V16.9461C16.8563 17.939 16.4563 18.891 15.7452 19.5934C15.0341 20.2959 14.0699 20.6917 13.0637 20.6941ZM4.90236 17.2541C4.45732 16.4959 4.29696 15.6073 4.4494 14.7441L4.56999 14.8141L8.60508 17.1141C8.70581 17.1721 8.82033 17.2026 8.93694 17.2026C9.05356 17.2026 9.16808 17.1721 9.26881 17.1141L14.1956 14.3061V16.2501C14.1963 16.2601 14.1944 16.27 14.1902 16.2791C14.1859 16.2882 14.1794 16.2961 14.1713 16.3021L10.0916 18.6271C9.21896 19.1228 8.18269 19.2567 7.21009 18.9995C6.23749 18.7423 5.40795 18.115 4.90337 17.2551L4.90236 17.2541ZM3.84039 8.56208C4.28351 7.80252 4.98287 7.22067 5.81638 6.91808L5.81537 7.05608V11.6571C5.81503 11.7719 5.8455 11.8848 5.90371 11.9842C5.96191 12.0836 6.04576 12.166 6.14673 12.2231L11.0736 15.0301L9.36812 16.0021C9.35967 16.0076 9.34997 16.0109 9.33988 16.0118C9.32979 16.0127 9.31964 16.0111 9.31036 16.0071L5.22966 13.6801C4.3583 13.1821 3.7226 12.3635 3.46197 11.4037C3.20134 10.4439 3.33706 9.42128 3.83937 8.56008L3.84039 8.56208ZM17.8548 11.7801L12.928 8.97208L14.6334 8.00008C14.6418 7.99457 14.6515 7.99122 14.6616 7.99035C14.6717 7.98947 14.6819 7.9911 14.6912 7.99508L18.7718 10.3201C19.3964 10.6767 19.9052 11.2015 20.2387 11.833C20.5722 12.4646 20.7165 13.1768 20.6548 13.8863C20.5932 14.5958 20.3281 15.2733 19.8906 15.8396C19.453 16.4059 18.8611 16.8376 18.1841 17.0841V12.3451C18.1848 12.2306 18.1547 12.1179 18.0971 12.0185C18.0394 11.9191 17.9562 11.8365 17.8558 11.7791L17.8548 11.7801ZM19.5521 9.25908L19.4325 9.18808L15.3964 6.88808C15.2958 6.83029 15.1815 6.79984 15.0651 6.79984C14.9487 6.79984 14.8343 6.83029 14.7337 6.88808L9.80588 9.69508V7.75008C9.80522 7.7401 9.8071 7.73011 9.81134 7.72103C9.81559 7.71195 9.82207 7.70406 9.8302 7.69808L13.9099 5.37508C14.5349 5.01917 15.2496 4.84632 15.9706 4.87677C16.6915 4.90722 17.3887 5.1397 17.9806 5.547C18.5724 5.9543 19.0345 6.51956 19.3126 7.17662C19.5908 7.83367 19.6735 8.55532 19.5511 9.25708H19.5521V9.25908ZM8.87868 12.7221L7.17324 11.7501C7.16426 11.7457 7.15651 11.7392 7.15067 11.7312C7.14484 11.7232 7.1411 11.7139 7.1398 11.7041V7.05408C7.14074 6.34216 7.34702 5.64521 7.73452 5.0447C8.12202 4.4442 8.67474 3.96496 9.32805 3.663C9.98136 3.36104 10.7083 3.24884 11.4238 3.33952C12.1394 3.43021 12.814 3.72002 13.3688 4.17508L13.2492 4.24208L9.21308 6.54208C9.11196 6.59922 9.02801 6.68181 8.9698 6.78142C8.91158 6.88103 8.88119 6.99409 8.88172 7.10908L8.87868 12.7221ZM9.80588 10.7511L12.0008 9.50108L14.1956 10.7511V13.2511L12.0008 14.5011L9.80588 13.2511V10.7511Z" fill="black"/>
</svg>
