<svg width="24" height="24" viewBox="0 0 24 24" fill="none" xmlns="http://www.w3.org/2000/svg">
<path fill-rule="evenodd" clip-rule="evenodd" d="M5.17358 6.13544C9.35691 1.26632 17.1152 2.22755 20.015 7.91388H13.0452C11.7897 7.91388 10.9788 7.88598 10.1003 8.34859C9.57808 8.62898 9.12197 9.01803 8.76272 9.48952C8.40347 9.96102 8.14942 10.504 8.01767 11.082L5.17358 6.13544Z" fill="black"/>
<path fill-rule="evenodd" clip-rule="evenodd" d="M9.0059 12C9.00709 12.793 9.32252 13.5532 9.88309 14.1141C10.4437 14.675 11.2037 14.9909 11.9967 14.9925C12.7899 14.9911 13.5501 14.6753 14.1109 14.1144C14.6716 13.5535 14.9872 12.7931 14.9884 12C14.9874 11.2067 14.672 10.4461 14.1112 9.88496C13.5504 9.32383 12.79 9.00793 11.9967 9.0065C11.2037 9.00817 10.4437 9.32405 9.88309 9.88496C9.32252 10.4459 9.00709 11.207 9.0059 12Z" fill="black"/>
<path fill-rule="evenodd" clip-rule="evenodd" d="M13.1577 15.9169C11.4792 16.4155 9.51442 15.8629 8.43799 14.0052C7.10923 11.7003 5.78319 9.39387 4.45986 7.08586C1.00376 12.3816 3.98285 19.5979 10.2551 20.8292L13.1577 15.9169Z" fill="black"/>
<path fill-rule="evenodd" clip-rule="evenodd" d="M14.776 9.0065C15.453 9.63756 15.8963 10.4793 16.0336 11.3946C16.1709 12.3099 15.9941 13.2447 15.532 14.0466C14.8174 15.276 12.5403 19.1209 11.4369 20.9822C17.8991 21.38 22.6107 15.0465 20.4822 9.0065H14.776Z" fill="black"/>
</svg>
