<svg width="24" height="24" viewBox="0 0 24 24" fill="none" xmlns="http://www.w3.org/2000/svg">
<path d="M12 3C7.02975 3 3 7.02975 3 12C3 16.9702 7.02975 21 12 21C16.9702 21 21 16.9702 21 12C21 7.02975 16.9702 3 12 3ZM8.2215 8.76C8.787 8.76 9.22425 9.17175 9.27525 9.66C9.327 10.0972 9.147 10.4827 8.65875 10.7145C8.4015 10.8428 8.29875 10.8435 8.247 10.7662C8.2215 10.7145 8.247 10.6635 8.29875 10.6117C8.7615 10.2262 8.7615 9.91725 8.70975 9.48075C8.68425 9.19725 8.47875 9.01725 8.2725 9.01725C7.3725 9.01725 6.087 11.0227 6.267 12.489C6.34425 13.0545 6.67875 13.7235 7.39875 13.7235C7.62975 13.7235 7.88625 13.6462 8.11875 13.5435C8.49375 13.3455 8.718 13.191 8.9415 12.9435C8.88675 12.2797 9.4695 11.409 10.3297 11.409C10.716 11.409 11.0242 11.5627 11.0497 11.8462C11.1007 12.2317 10.767 12.2827 10.6642 12.2827C10.5615 12.2827 10.3807 12.2572 10.3807 12.1552C10.3552 12.0517 10.6125 12.1027 10.587 11.8717C10.5608 11.7172 10.407 11.6662 10.2525 11.6662C9.7125 11.6662 9.40425 12.4117 9.48075 12.8745C9.507 13.0807 9.60975 13.2863 9.816 13.2863C9.96975 13.2863 10.2015 13.0538 10.2787 12.72C10.3297 12.489 10.536 12.3345 10.716 12.3345C10.7925 12.3345 10.8435 12.36 10.8697 12.4627V12.5662C10.8442 12.669 10.767 12.9772 10.7932 13.0545C10.7932 13.1062 10.8187 13.1827 10.9207 13.1827C10.9897 13.1827 11.2478 13.0477 11.5035 12.8385C11.5913 12.396 11.6932 11.865 11.6932 11.8207C11.7187 11.6407 11.796 11.4607 12.156 11.4607C12.2332 11.4607 12.2843 11.4862 12.3097 11.589V11.6925L12.2077 12.1552C12.5415 11.718 13.0305 11.4097 13.3387 11.4097C13.4677 11.4097 13.5705 11.4862 13.5705 11.6152C13.5705 11.6925 13.5705 11.8207 13.5187 11.9497C13.416 12.2325 13.287 12.6697 13.2098 13.0552C13.2098 13.158 13.236 13.2607 13.365 13.2607C13.494 13.2607 13.8787 13.1062 14.187 12.6952L14.1922 12.6923C14.1907 12.6412 14.187 12.5917 14.187 12.5407C14.187 12.2325 14.2132 11.9753 14.265 11.7952C14.316 11.5898 14.5732 11.4097 14.7277 11.4097C14.805 11.4097 14.8815 11.4615 14.8815 11.538C14.8815 11.5642 14.8815 11.6152 14.856 11.6407C14.7532 11.9752 14.676 12.2835 14.676 12.5925C14.676 12.7725 14.7015 13.029 14.7525 13.1835C14.7525 13.209 14.7787 13.2353 14.805 13.2353C14.856 13.2353 15.216 12.9015 15.4725 12.4643C15.2415 12.3098 15.1125 12.0525 15.1125 11.7443C15.1125 11.2043 15.447 10.9215 15.756 10.9215C16.0132 10.9215 16.2188 11.1015 16.2188 11.4615C16.2188 11.6925 16.1415 11.949 16.0132 12.1815H16.0897C16.1713 12.1842 16.2525 12.1695 16.328 12.1385C16.4035 12.1074 16.4716 12.0608 16.5278 12.0015C16.5516 11.9628 16.5866 11.9322 16.6282 11.9137C16.8795 11.595 17.2507 11.3588 17.6857 11.3588C18.0457 11.3588 18.3787 11.5125 18.405 11.7952C18.456 12.1815 18.1215 12.2587 18.0187 12.2587L18.0172 12.2572C17.9137 12.2572 17.7345 12.231 17.7345 12.1282C17.7345 12.0255 17.9663 12.0772 17.94 11.8462C17.9145 11.6917 17.76 11.64 17.6055 11.64C17.091 11.64 16.758 12.3082 16.8345 12.8482C16.86 13.0545 16.9627 13.2855 17.1683 13.2855C17.3228 13.2855 17.5545 13.0545 17.6572 12.72C17.7082 12.5145 17.9145 12.3345 18.0945 12.3345C18.1717 12.3345 18.222 12.36 18.2482 12.4627C18.2482 12.5145 18.2482 12.6172 18.1455 12.9517C18.018 13.1827 18.0172 13.3117 18.0427 13.4145C18.0682 13.62 18.171 13.7745 18.2745 13.8517C18.3 13.8772 18.3255 13.9282 18.3255 13.9282C18.3255 13.98 18.3 14.0317 18.2228 14.0317C18.1973 14.0317 18.1717 14.0317 18.1455 14.0055C17.76 13.8517 17.6055 13.5945 17.5538 13.3372C17.4 13.5172 17.22 13.62 17.0137 13.62C16.68 13.62 16.3462 13.3118 16.2937 12.9255C16.2788 12.7611 16.298 12.5954 16.35 12.4388C16.1977 12.5363 16.0335 12.591 15.8827 12.591H15.7552C15.42 13.08 15.06 13.4145 14.8028 13.5682C14.7154 13.6147 14.6188 13.6413 14.52 13.6462C14.469 13.6462 14.3917 13.62 14.3663 13.5682C14.295 13.4542 14.2492 13.2743 14.2215 13.068C13.8607 13.4632 13.3627 13.6718 13.1317 13.6718C12.8745 13.6718 12.7207 13.5172 12.6952 13.2592V12.9773C12.7717 12.4117 12.978 12.0772 12.978 11.9745C12.9773 11.9609 12.9716 11.9481 12.9621 11.9384C12.9526 11.9287 12.9398 11.9229 12.9262 11.922C12.7462 11.922 12.1552 12.54 12.0517 12.9517L11.9745 13.2855C11.9235 13.5173 11.6917 13.6718 11.538 13.6718C11.4607 13.6718 11.409 13.6455 11.3835 13.5427V13.44L11.418 13.2652C11.0918 13.4977 10.7655 13.6462 10.6117 13.6462C10.3807 13.6462 10.2517 13.5172 10.2262 13.3372C10.0717 13.5427 9.8925 13.6462 9.66075 13.6462C9.39675 13.6462 9.13875 13.4662 9.01425 13.2015C8.83125 13.4078 8.622 13.6162 8.37525 13.7745C8.01525 14.0062 7.60425 14.1862 7.11525 14.1862C6.67875 14.1862 6.2925 13.9545 6.087 13.749C5.778 13.4662 5.59875 13.029 5.5725 12.6172C5.41875 11.3572 6.18975 9.73725 7.3725 9.01725C7.656 8.8635 7.93875 8.76 8.2215 8.76ZM15.549 11.2282C15.471 11.2282 15.42 11.3572 15.42 11.4855C15.42 11.691 15.5227 11.9227 15.6517 12.0517C15.7026 11.9116 15.7285 11.7636 15.7282 11.6145C15.7282 11.3573 15.6263 11.2282 15.549 11.2282Z" fill="black"/>
</svg>
