<svg width="24" height="24" viewBox="0 0 24 24" fill="none" xmlns="http://www.w3.org/2000/svg">
<path d="M9.20364 19.0344C8.29208 18.2089 8.02635 16.4733 8.40533 15.2167C9.06461 16.0089 9.97729 16.2611 10.9225 16.4022C12.3812 16.6211 13.8153 16.5389 15.1708 15.8778C15.3256 15.8022 15.4691 15.7011 15.6384 15.6C15.7651 15.9656 15.7987 16.3344 15.7539 16.7111C15.6463 17.6256 15.1865 18.3333 14.4555 18.8678C14.164 19.0822 13.8545 19.2744 13.5518 19.4767C12.6245 20.0978 12.3745 20.8256 12.7221 21.8856C12.731 21.9111 12.7378 21.9367 12.7557 22C12.3107 21.8079 11.9339 21.4882 11.6737 21.0822C11.4001 20.6654 11.2551 20.1784 11.2566 19.6811C11.2521 19.4333 11.2521 19.1844 11.2185 18.94C11.1367 18.3467 10.8552 18.08 10.326 18.0656C10.0721 18.0502 9.82127 18.1273 9.62075 18.2824C9.42024 18.4375 9.28385 18.66 9.23728 18.9078C9.22756 18.9463 9.21635 18.9885 9.20364 19.0344ZM4 15.0067C4 15.0067 6.69993 13.7033 9.40771 13.7033L11.4484 7.44333C11.5246 7.14 11.7477 6.93444 12 6.93444C12.2523 6.93444 12.4754 7.14 12.5516 7.44333L14.5923 13.7033C17.799 13.7033 20 15.0067 20 15.0067L15.4052 2.60222C15.274 2.23556 15.0509 2 14.7515 2H9.24849C8.94912 2 8.73609 2.23556 8.59594 2.60222C8.58472 2.62667 4 15.0067 4 15.0067Z" fill="black"/>
</svg>
