<svg width="24" height="24" viewBox="0 0 24 24" fill="none" xmlns="http://www.w3.org/2000/svg">
<path d="M13.3086 20.3971C12.882 20.4638 12.4458 20.4971 12 20.4971C10.7733 20.4973 9.56105 20.2319 8.44664 19.7191C7.33223 19.2064 6.34206 18.4584 5.54419 17.5266C4.74632 16.5948 4.15967 15.5013 3.82456 14.3212C3.48945 13.1411 3.41382 11.9025 3.60288 10.6904C3.08179 9.6993 2.89138 8.56746 3.05948 7.46037C3.22757 6.35328 3.74536 5.32897 4.53717 4.53717C5.32897 3.74536 6.35328 3.22757 7.46037 3.05948C8.56746 2.89138 9.6993 3.08179 10.6904 3.60288C11.1183 3.53624 11.5548 3.50291 12 3.50291C13.2267 3.50269 14.4389 3.76809 15.5534 4.28086C16.6678 4.79363 17.6579 5.54162 18.4558 6.47342C19.2537 7.40522 19.8403 8.49873 20.1754 9.67879C20.5106 10.8589 20.5862 12.0975 20.3971 13.3096C20.9182 14.3007 21.1086 15.4325 20.9405 16.5396C20.7724 17.6467 20.2546 18.671 19.4628 19.4628C18.671 20.2546 17.6467 20.7724 16.5396 20.9405C15.4325 21.1086 14.2997 20.9182 13.3086 20.3971ZM12.053 17.1542H12.013C14.884 17.1542 16.3145 15.7687 16.3145 13.9123C16.3145 12.7148 15.7637 11.4422 13.5895 10.9554L11.6071 10.5155C10.8524 10.3436 9.98569 10.1156 9.98569 9.40089C9.98569 8.68614 10.6055 8.18831 11.7091 8.18831C13.9383 8.18831 13.7354 9.71578 14.839 9.71578C15.4148 9.71578 15.9317 9.3739 15.9317 8.7861C15.9317 7.41657 13.7354 6.38693 11.877 6.38693C9.85674 6.38693 7.70547 7.24563 7.70547 9.52985C7.70547 10.6275 8.09934 11.7991 10.2646 12.3419L12.9527 13.0127C13.7684 13.2146 13.9703 13.6714 13.9703 14.0843C13.9703 14.771 13.2866 15.4418 12.053 15.4418C9.63681 15.4418 9.97569 13.5855 8.68014 13.5855C8.10034 13.5855 7.67748 13.9833 7.67748 14.5561C7.67748 15.6697 9.02902 17.1542 12.053 17.1542Z" fill="black"/>
</svg>
