<svg width="24" height="24" viewBox="0 0 24 24" fill="none" xmlns="http://www.w3.org/2000/svg">
<path d="M17.0067 11.3423C16.916 11.305 16.8245 11.2693 16.732 11.2352C16.5707 8.67571 14.9452 7.21024 12.2149 7.19444H12.1782C10.5445 7.19444 9.18651 7.79415 8.35028 8.88556L9.85121 9.77239C10.4761 8.95668 11.4563 8.78283 12.1792 8.78283H12.2037C13.1022 8.7881 13.7802 9.01288 14.2203 9.45102C14.5402 9.7718 14.7529 10.2108 14.8584 10.7681C14.0057 10.6497 13.1402 10.6141 12.2782 10.6619C9.68274 10.79 8.01333 12.0931 8.12565 13.9019C8.18282 14.8203 8.71377 15.6097 9.6225 16.126C10.3903 16.5623 11.3787 16.7757 12.4079 16.7274C13.7659 16.6633 14.8298 16.2181 15.5731 15.4024C16.1378 14.7843 16.4941 13.9826 16.6524 12.972C17.2987 13.3074 17.7786 13.75 18.0431 14.2803C18.4933 15.1847 18.5199 16.6686 17.1119 17.8785C15.8784 18.9392 14.3959 19.3976 12.1547 19.4116C9.66947 19.3958 7.78972 18.71 6.56753 17.3737C5.42294 16.1216 4.83175 14.3137 4.80929 12C4.83073 9.68634 5.42192 7.87844 6.56753 6.62634C7.78972 5.28995 9.66947 4.6042 12.1547 4.58927C14.6583 4.60507 16.5717 5.29434 17.8399 6.63688C18.4627 7.29541 18.9324 8.12429 19.2407 9.09015L21 8.68624C20.6253 7.49737 20.0361 6.47356 19.2336 5.62361C17.605 3.90088 15.227 3.01756 12.1608 3H12.1486C9.08951 3.01756 6.73702 3.90439 5.15543 5.63239C3.74945 7.17073 3.02348 9.31141 3 11.9939V12.0061C3.02348 14.6895 3.74945 16.8293 5.15543 18.3676C6.736 20.0965 9.08951 20.9816 12.1496 21H12.1608C14.8809 20.9842 16.7984 20.3713 18.378 19.0139C20.4446 17.2376 20.3823 15.0108 19.7012 13.6446C19.2122 12.6647 18.281 11.8683 17.0067 11.3423ZM12.3099 15.1417C11.1724 15.1961 9.99109 14.7571 9.93289 13.8158C9.88899 13.1186 10.5098 12.3407 12.3803 12.2467C12.5948 12.2362 12.8051 12.2309 13.0113 12.2309C13.6903 12.2309 14.3265 12.288 14.9044 12.3969C14.6889 14.7123 13.4238 15.089 12.3109 15.1417H12.3099Z" fill="black"/>
</svg>
