<svg width="24" height="24" viewBox="0 0 24 24" fill="none" xmlns="http://www.w3.org/2000/svg">
<path d="M17.5 7.22342C19.2 8.22899 20 10.039 20 12.0502C20 14.5641 17.5 16.5753 15 16.5753H12.4L11.8 20.1953C11.7532 20.4259 11.6276 20.6327 11.4449 20.7796C11.2621 20.9266 11.0339 21.0045 10.8 20.9998H8.1C8.02501 21.0013 7.95064 20.9859 7.88239 20.9546C7.81415 20.9233 7.75378 20.8769 7.70577 20.819C7.65775 20.761 7.62331 20.693 7.605 20.6198C7.58669 20.5467 7.58498 20.4703 7.6 20.3965L7.8 18.9886M10 13.0558H12.5C15 13.0558 17.5 10.5418 17.5 8.02788C17.5 5.01115 15.6 3 12.5 3H7C6.5 3 6 3.50279 6 4.00558L4 18.0836C4 18.5864 4.5 19.0892 5 19.0892H7.8L9 14.0613C9.1 13.458 9.4 13.0558 10 13.0558Z" stroke="black" stroke-width="2" stroke-linecap="round" stroke-linejoin="round"/>
</svg>
