<svg width="24" height="24" viewBox="0 0 24 24" fill="none" xmlns="http://www.w3.org/2000/svg">
<path d="M22 5.11765C21.2639 5.48824 20.4704 5.73176 19.6482 5.84824C20.4895 5.28706 21.1396 4.39765 21.4455 3.32824C20.652 3.85765 19.7725 4.22824 18.8451 4.44C18.0899 3.52941 17.0287 3 15.8241 3C13.5774 3 11.7419 5.03294 11.7419 7.54235C11.7419 7.90235 11.7801 8.25177 11.847 8.58C8.4436 8.38941 5.413 6.57882 3.39579 3.83647C3.04207 4.50353 2.8413 5.28706 2.8413 6.11294C2.8413 7.69059 3.55832 9.08824 4.6673 9.88235C3.98853 9.88235 3.35755 9.67059 2.80306 9.35294V9.38471C2.80306 11.5871 4.21797 13.4294 6.09178 13.8424C5.49029 14.0255 4.85854 14.0508 4.24665 13.9165C4.50632 14.8191 5.01485 15.6089 5.70078 16.1749C6.38671 16.7408 7.21553 17.0545 8.07075 17.0718C6.6211 18.3429 4.8241 19.0299 2.97514 19.02C2.6501 19.02 2.32505 18.9988 2 18.9565C3.81644 20.2482 5.97706 21 8.29063 21C15.8241 21 19.9637 14.0753 19.9637 8.07176C19.9637 7.87059 19.9637 7.68 19.9541 7.47882C20.7572 6.84353 21.4455 6.03882 22 5.11765Z" fill="black"/>
</svg>
