<svg width="24" height="24" viewBox="0 0 24 24" fill="none" xmlns="http://www.w3.org/2000/svg">
<path d="M19.1017 8.11875C19.7318 9.2715 20.0903 10.5938 20.0903 12C20.0903 14.9843 18.4732 17.592 16.068 18.9938L18.5392 11.8485C19.0005 10.6935 19.1542 9.77025 19.1542 8.9505C19.1542 8.64675 19.1348 8.36625 19.1017 8.11875ZM13.116 8.19675C13.6012 8.17425 14.04 8.118 14.04 8.118C14.4765 8.06175 14.4255 7.4205 13.9897 7.44375C13.9897 7.44375 12.6735 7.545 11.8298 7.545C11.0317 7.545 9.69225 7.4325 9.69225 7.4325C9.2535 7.41 9.1965 8.07375 9.636 8.09625C9.636 8.09625 10.041 8.142 10.4797 8.16375L11.7397 11.6175L9.96225 16.9275L7.0155 8.175C7.50225 8.1525 7.941 8.1 7.941 8.1C8.37975 8.04375 8.328 7.4025 7.89225 7.428C7.89225 7.428 6.58275 7.5315 5.73675 7.5315C5.58675 7.5315 5.40825 7.5255 5.21925 7.52025C6.68325 5.3625 9.17625 3.91125 12 3.91125C14.1068 3.91125 16.0237 4.71525 17.4645 6.036C17.43 6.03375 17.3963 6.02925 17.3588 6.02925C16.5638 6.02925 15.9998 6.7215 15.9998 7.46475C15.9998 8.13225 16.3845 8.697 16.7948 9.363C17.103 9.903 17.4623 10.5953 17.4623 11.5958C17.4623 12.282 17.1967 13.0912 16.8465 14.205L16.0402 16.8937L13.1153 8.18625L13.116 8.19675ZM12 20.088C11.2057 20.088 10.4392 19.9732 9.714 19.7603L12.1418 12.7057L14.628 19.521C14.646 19.56 14.6655 19.5972 14.6865 19.6327C13.8465 19.9275 12.9427 20.0895 12 20.0895M3.90825 12C3.90825 10.827 4.16025 9.7125 4.6095 8.7075L8.4675 19.2817C7.10061 18.6184 5.94807 17.5836 5.14178 16.2959C4.33548 15.0081 3.908 13.5194 3.90825 12ZM12 3C7.03875 3 3 7.03875 3 12C3 16.9613 7.03875 21 12 21C16.9613 21 21 16.9613 21 12C21 7.03875 16.9613 3 12 3Z" fill="black"/>
</svg>
