<svg width="24" height="24" viewBox="0 0 24 24" fill="none" xmlns="http://www.w3.org/2000/svg">
<path d="M12 3C13.1819 3 14.3522 3.23279 15.4442 3.68508C16.5361 4.13738 17.5282 4.80031 18.364 5.63604C19.1997 6.47177 19.8626 7.46392 20.3149 8.55585C20.7672 9.64778 21 10.8181 21 12C21 14.3869 20.0518 16.6761 18.364 18.364C16.6761 20.0518 14.3869 21 12 21C10.8181 21 9.64778 20.7672 8.55585 20.3149C7.46392 19.8626 6.47177 19.1997 5.63604 18.364C3.94821 16.6761 3 14.3869 3 12C3 9.61305 3.94821 7.32387 5.63604 5.63604C7.32387 3.94821 9.61305 3 12 3ZM10.2 14.997C10.344 15.483 10.326 15.933 10.2 16.347C10.2 16.392 10.164 16.437 10.146 16.5C10.128 16.5 10.11 16.563 10.083 16.608C9.984 16.824 9.84 17.031 9.669 17.211C9.147 17.787 8.4 18.003 8.103 17.823C7.761 17.625 7.95 16.815 8.544 16.176C9.192 15.492 10.128 15.042 10.128 15.042L10.2 14.997ZM17.643 6.852C17.238 5.25 14.583 4.728 12.081 5.619C10.587 6.15 8.967 6.978 7.806 8.067C6.429 9.363 6.204 10.488 6.294 10.956C6.6 12.612 8.886 13.701 9.822 14.502V14.511C9.552 14.646 7.536 15.663 7.05 16.707C6.564 17.805 7.14 18.597 7.5 18.705C8.706 19.029 9.921 18.444 10.569 17.463C11.199 16.527 11.154 15.312 10.875 14.7C11.253 14.61 11.694 14.565 12.252 14.628C13.836 14.817 14.142 15.798 14.079 16.212C14.025 16.626 13.692 16.851 13.584 16.923C13.476 16.986 13.44 17.013 13.449 17.067C13.458 17.139 13.512 17.139 13.602 17.121C13.737 17.094 14.439 16.788 14.466 16.023C14.502 15.051 13.575 13.971 11.937 13.998C11.262 14.016 10.839 14.079 10.533 14.196L10.461 14.115C9.444 13.035 7.572 12.27 7.653 10.812C7.68 10.281 7.86 8.895 11.253 7.203C14.025 5.817 16.248 6.195 16.635 7.05C17.184 8.247 15.447 10.488 12.567 10.812C11.469 10.938 10.884 10.506 10.74 10.353C10.587 10.2 10.569 10.173 10.515 10.2C10.416 10.263 10.479 10.407 10.515 10.497C10.596 10.722 10.956 11.1 11.55 11.316C12.081 11.487 13.377 11.586 14.934 10.983C16.68 10.308 18.048 8.427 17.643 6.852Z" fill="black"/>
</svg>
