<svg width="24" height="24" viewBox="0 0 24 24" fill="none" xmlns="http://www.w3.org/2000/svg">
<path fill-rule="evenodd" clip-rule="evenodd" d="M6.63562 3H17.3625C18.3269 3 19.2518 3.38302 19.9339 4.06485C20.616 4.74667 20.9995 5.6715 21 6.636V17.364C21 19.3724 19.3707 21 17.3644 21H6.63562C6.15827 21.0002 5.68555 20.9064 5.24447 20.7239C4.80339 20.5414 4.40259 20.2737 4.06496 19.9363C3.72734 19.5988 3.45951 19.1981 3.27678 18.757C3.09405 18.316 3 17.8433 3 17.3659V6.636C2.99975 6.15844 3.09362 5.68552 3.27624 5.24427C3.45886 4.80302 3.72664 4.40209 4.06429 4.0644C4.40194 3.72672 4.80283 3.45891 5.24403 3.27627C5.68524 3.09363 6.15811 2.99975 6.63562 3ZM12.287 6.50526L11.9223 7.13526L11.5652 6.50337C11.4512 6.32602 11.2733 6.19931 11.0685 6.1495C10.8636 6.09968 10.6474 6.13056 10.4647 6.23575C10.282 6.34094 10.1467 6.51238 10.0869 6.71457C10.0271 6.91675 10.0473 7.13421 10.1434 7.3219L10.9769 8.77137L8.30565 13.404H6.21598C6.10828 13.4035 6.00155 13.4244 5.90196 13.4654C5.80237 13.5064 5.71191 13.5667 5.6358 13.643C5.55968 13.7192 5.49944 13.8097 5.45854 13.9094C5.41764 14.009 5.39691 14.1158 5.39754 14.2235C5.39754 14.6782 5.76129 15.042 6.21598 15.042H13.6634C14.0205 14.3713 13.5592 13.404 12.736 13.404H10.1964L13.7079 7.32474C13.7617 7.23137 13.7966 7.12831 13.8106 7.02146C13.8246 6.91461 13.8174 6.80605 13.7894 6.70198C13.7614 6.59791 13.7132 6.50036 13.6476 6.41492C13.5819 6.32948 13.5001 6.25781 13.4067 6.204C13.3133 6.15019 13.2103 6.1153 13.1034 6.10132C12.9966 6.08734 12.8881 6.09455 12.784 6.12252C12.6799 6.1505 12.5824 6.19869 12.497 6.26437C12.4115 6.33004 12.3408 6.41189 12.287 6.50526ZM7.97695 17.2513L8.76318 15.8861C8.33881 15.3726 7.80076 15.2154 7.13956 15.42L6.55415 16.4327C6.49907 16.5262 6.46306 16.6296 6.4482 16.737C6.43335 16.8445 6.43994 16.9538 6.4676 17.0587C6.49525 17.1635 6.54343 17.2619 6.60934 17.348C6.67524 17.4341 6.75757 17.5064 6.85156 17.5605C6.94555 17.6146 7.04934 17.6495 7.15691 17.6632C7.26449 17.677 7.37372 17.6692 7.47829 17.6405C7.58285 17.6117 7.68068 17.5625 7.76612 17.4957C7.85155 17.4289 7.92288 17.3458 7.976 17.2513H7.97695ZM17.6751 13.4087H15.5447L15.0739 12.5931C14.234 11.1366 13.5864 10.0172 13.131 9.23463C12.647 9.63726 12.1563 10.8262 12.8431 12.0085L13.9353 13.9033C14.4752 14.8374 15.1197 15.9534 15.8686 17.2513C15.9827 17.4286 16.1605 17.5553 16.3654 17.6051C16.5703 17.655 16.7864 17.6241 16.9692 17.5189C17.1519 17.4137 17.2872 17.2423 17.347 17.0401C17.4068 16.8379 17.3866 16.6204 17.2905 16.4327L16.4919 15.0467H17.676C17.7837 15.0472 17.8905 15.0264 17.9901 14.9854C18.0896 14.9443 18.1801 14.884 18.2562 14.8078C18.3323 14.7316 18.3926 14.641 18.4335 14.5414C18.4744 14.4417 18.4951 14.335 18.4945 14.2273C18.495 14.1196 18.4741 14.0128 18.4331 13.9132C18.3921 13.8136 18.3317 13.7231 18.2555 13.647C18.1793 13.5709 18.0888 13.5106 17.9892 13.4697C17.8895 13.4288 17.7828 13.4081 17.6751 13.4087Z" fill="black"/>
</svg>
