<svg width="24" height="24" viewBox="0 0 24 24" fill="none" xmlns="http://www.w3.org/2000/svg">
<path d="M9.81081 8.91892C9.81081 8.14477 9.50328 7.40234 8.95588 6.85493C8.40848 6.30753 7.66604 6 6.89189 6H6.40541C5.50224 6 4.63606 6.35878 3.99742 6.99742C3.35878 7.63606 3 8.50224 3 9.40541V14.2703C3 15.1734 3.35878 16.0396 3.99742 16.6783C4.63606 17.3169 5.50224 17.6757 6.40541 17.6757H6.89189C7.66604 17.6757 8.40848 17.3681 8.95588 16.8207C9.50328 16.2733 9.81081 15.5309 9.81081 14.7568M15.6486 6.97297L14.6757 16.7027M19.5405 6.97297L18.5676 16.7027M13.7027 9.89189H21M20.5135 13.7838H13.2162" stroke="black" stroke-width="2" stroke-linecap="round" stroke-linejoin="round"/>
</svg>
