<svg width="24" height="24" viewBox="0 0 24 24" fill="none" xmlns="http://www.w3.org/2000/svg">
<path d="M20.7022 10.1253L20.677 10.058L18.2263 3.41805C18.1765 3.28825 18.0885 3.17809 17.9749 3.10324C17.8613 3.0284 17.7279 2.9927 17.5936 3.00124C17.4593 3.00887 17.3305 3.0591 17.2246 3.14516C17.1202 3.23342 17.0445 3.35281 17.0077 3.4872L15.3534 8.74308H8.65281L6.99948 3.4872C6.96448 3.35168 6.88843 3.23144 6.78258 3.14423C6.67672 3.05853 6.54811 3.00856 6.41408 3.00104C6.28004 2.99353 6.147 3.02882 6.03287 3.10217C5.91857 3.17645 5.83024 3.28684 5.78086 3.41711L3.32472 10.0542L3.30042 10.1215C2.94782 11.0784 2.90436 12.1284 3.17661 13.1132C3.44885 14.098 4.02204 14.9641 4.80974 15.5811L4.81784 15.5877L4.84034 15.6045L8.57271 18.5072L11.5437 20.8398C11.6752 20.9437 11.836 21 12.0013 21C12.1666 21 12.3274 20.9437 12.459 20.8398L13.584 19.9576L15.429 18.5072L19.1848 15.5867L19.1938 15.5793C19.9795 14.9619 20.5511 14.0965 20.8229 13.1131C21.0947 12.1298 21.053 11.0813 20.7022 10.1253Z" fill="black"/>
</svg>
