<svg width="24" height="24" viewBox="0 0 24 24" fill="none" xmlns="http://www.w3.org/2000/svg">
<path d="M19.1865 6.53919C18.8919 6.14857 18.566 5.78263 18.2119 5.44499C17.9864 5.22369 17.7465 5.01749 17.4939 4.82771C17.049 4.4496 16.5501 4.14023 16.0137 3.90988C14.8744 3.34888 13.6279 3.03925 12.3585 3.00194C10.27 2.96055 8.82668 3.58864 8.00963 4.09434C7.72074 4.26682 7.45211 4.47116 7.20878 4.70353C8.64484 3.90019 10.3038 3.58741 11.9338 3.81269C15.1147 4.23112 18.0239 6.71016 18.0239 9.98105C18.0239 12.4988 16.082 14.4208 13.8082 14.2823C10.4311 14.0798 9.57894 10.6091 11.3363 9.11001C10.863 9.00743 9.97217 9.2081 9.35218 10.1358C8.79609 10.97 8.82758 12.2567 9.17132 13.1701C8.95136 12.72 8.80232 12.2386 8.7295 11.7429C8.28408 8.73478 10.2997 6.16846 12.1498 5.53408C11.1519 4.66124 8.65211 4.72063 6.79126 6.09197C5.71146 6.88743 4.9376 8.01762 4.52728 9.36287C4.64537 8.30157 4.96126 7.27179 5.4586 6.32683C4.83592 6.64987 4.04316 7.67118 3.65174 8.61691C3.08267 10.0609 2.88167 11.6237 3.06685 13.1647L3.07854 13.2672C3.08694 13.3494 3.09684 13.4316 3.10824 13.5138C3.34139 14.8585 3.87616 16.1328 4.67239 17.2412C5.46861 18.3496 6.5056 19.2632 7.70549 19.9134C9.51425 20.8924 11.6038 21.2222 13.6262 20.8479C15.6485 20.4736 17.4816 19.4179 18.8202 17.8564C19.7097 16.8204 20.3527 15.5963 20.7011 14.2761C21.0494 12.9558 21.0939 11.5738 20.8314 10.2339C20.5696 8.89393 20.0066 7.63072 19.1865 6.53919Z" fill="black"/>
</svg>
