<svg width="24" height="24" viewBox="0 0 24 24" fill="none" xmlns="http://www.w3.org/2000/svg">
<path d="M22 6.91238V17.7272C22 18.4301 21.39 18.9992 20.6367 18.9992H17.4542V11.7899L12 15.6076L6.54583 11.7899V19H3.36333C3.18423 19 3.00688 18.9671 2.84142 18.9031C2.67595 18.8391 2.52562 18.7454 2.39902 18.6271C2.27241 18.5089 2.172 18.3686 2.10354 18.2142C2.03507 18.0598 1.99989 17.8943 2 17.7272V6.91238C2 5.33942 3.92417 4.44136 5.2725 5.38529L12 10.0933L18.7275 5.38529C20.075 4.44214 22 5.33942 22 6.91238Z" fill="black"/>
</svg>
