<svg width="24" height="24" viewBox="0 0 24 24" fill="none" xmlns="http://www.w3.org/2000/svg">
<path d="M12 3C7.03125 3 3 7.03125 3 12C3 16.9687 7.03125 21 12 21C16.9687 21 21 16.9687 21 12C21 7.03125 16.9687 3 12 3ZM12.576 6.07875C12.7132 6.07875 12.8483 6.1185 12.9698 6.1965C13.0635 6.25875 13.185 6.33525 13.536 7.062C13.7685 6.996 13.887 7.0305 13.9493 7.04775C14.1023 7.08975 14.2237 7.19025 14.2965 7.329C14.6542 8.01675 14.703 9.24375 14.547 10.0327C14.3663 10.9567 13.9807 11.5545 13.6987 11.9648C13.9417 12.2115 14.2822 12.639 14.5365 13.3335C14.745 13.914 14.769 14.442 14.7412 14.8447C14.8963 14.7712 15.0471 14.6888 15.1927 14.598C15.6375 14.3235 16.308 13.9102 17.1075 13.8997C17.643 13.893 18.0592 14.2335 18.1222 14.727C18.1527 14.955 18.0969 15.1861 17.9658 15.3751C17.8347 15.5641 17.6377 15.6972 17.4135 15.7485C16.9267 15.867 16.701 15.957 16.0477 16.3807C15.1237 16.9785 14.1435 17.3122 13.7887 17.4232C13.6352 17.5489 13.4544 17.637 13.2607 17.6805C12.708 17.8162 10.8112 17.9167 10.6612 17.9167H10.6267C10.0395 17.9167 9.71625 17.736 9.53925 17.5485C9.04575 17.7952 8.40675 17.691 7.94775 17.448C7.79181 17.3699 7.66524 17.2436 7.58687 17.0878C7.50849 16.9319 7.4825 16.755 7.51275 16.5832C7.46955 16.5386 7.4311 16.4896 7.398 16.437C7.2765 16.2495 7.002 15.735 7.0575 14.9775C7.0995 14.4352 7.4745 13.9522 7.7175 13.695C7.69951 13.1158 7.80378 12.5392 8.0235 12.003C8.253 11.4577 8.68725 10.992 9.0135 10.7002C8.7735 10.2975 8.5305 9.675 8.76675 9.04275C8.937 8.59125 9.07575 8.34075 9.38175 8.23275H9.378C9.52725 8.17725 9.66975 8.118 9.7425 8.0385C10.1889 7.55096 10.8064 7.2546 11.466 7.21125C11.494 7.14225 11.5252 7.0715 11.5597 6.999C11.7922 6.5055 12.039 6.22725 12.3277 6.123C12.4067 6.09434 12.4898 6.07913 12.5737 6.078L12.576 6.07875ZM12.5805 6.60375C12.2002 6.61575 11.8297 7.743 11.8297 7.743C11.8297 7.743 10.8772 7.59 10.1302 8.39625C9.981 8.55975 9.77925 8.64675 9.57075 8.72625C9.5115 8.74725 9.43875 8.7435 9.258 9.23025C8.97975 9.9735 9.72675 10.8007 9.72675 10.8007C9.72675 10.8007 8.83725 11.43 8.50725 12.2115C8.14275 13.0695 8.25375 13.9072 8.25375 13.9072C8.25375 13.9072 7.6215 14.4563 7.5795 15.0225C7.54125 15.5197 7.68375 15.9225 7.83675 16.1587C8.007 16.416 8.21925 16.2907 8.21925 16.2907C8.21925 16.2907 7.7985 16.7805 8.1915 16.989C8.54925 17.1765 9.15375 17.2845 9.474 16.9612C9.7065 16.7287 9.75225 16.2105 9.8385 15.999C9.8595 15.9502 9.9285 16.0822 9.99525 16.1482C10.068 16.218 10.1932 16.2945 10.1932 16.2945C10.1932 16.2945 9.627 16.5375 9.8595 17.094C9.936 17.2785 10.2105 17.3962 10.659 17.3925C10.8255 17.3888 12.657 17.2882 13.1437 17.1705C13.425 17.1045 13.5225 16.9583 13.5225 16.9583C13.5225 16.9583 14.697 16.635 15.771 15.9405C16.4587 15.492 16.7407 15.3705 17.2965 15.2385C17.7555 15.1275 17.724 14.415 17.1157 14.4255C16.4865 14.4322 15.9345 14.7555 15.4687 15.0442C14.5965 15.5827 14.1622 15.5483 14.1622 15.5483L14.1487 15.5242C14.0895 15.4267 14.427 14.5545 14.0482 13.5157C13.638 12.3795 12.9885 12.105 13.0402 12.018C13.263 11.643 13.8187 11.0452 14.0407 9.933C14.1727 9.25875 14.1382 8.15025 13.839 7.56975C13.7835 7.46175 13.29 7.7505 13.29 7.7505C13.29 7.7505 12.828 6.72225 12.699 6.63825C12.6643 6.61485 12.6224 6.6028 12.5805 6.60375Z" fill="black"/>
</svg>
