<svg width="24" height="24" viewBox="0 0 24 24" fill="none" xmlns="http://www.w3.org/2000/svg">
<path d="M8.21024 5.00113C8.69666 4.99091 9.18234 5.04991 9.6568 5.17685C10.0561 5.27919 10.4357 5.47035 10.7744 5.73972C11.087 6.00813 11.3349 6.36825 11.492 6.78534C11.6728 7.29704 11.7604 7.84929 11.7481 8.40348C11.7695 9.01261 11.6377 9.61559 11.3693 10.1365C11.087 10.6289 10.6975 11.0219 10.241 11.2748C10.8604 11.4718 11.3995 11.9217 11.762 12.5454C12.1097 13.2058 12.2848 13.9733 12.2644 14.7505C12.2763 15.3702 12.1677 15.9849 11.9469 16.5473C11.7424 17.0377 11.4445 17.4655 11.0747 17.7966C10.6944 18.1236 10.2665 18.3654 9.81225 18.5101C9.34133 18.6632 8.85498 18.7402 8.36651 18.7389H3V5.00113H8.21024ZM7.90096 10.5575C8.28306 10.5768 8.65861 10.4416 8.96788 10.1751C9.11554 10.0199 9.2304 9.82611 9.30328 9.60919C9.37616 9.39227 9.40504 9.15824 9.38761 8.9258C9.39749 8.65436 9.35174 8.38411 9.25425 8.13797C9.17062 7.94268 9.04183 7.77933 8.88279 7.66682C8.72135 7.54345 8.53998 7.46094 8.35015 7.42448C8.14395 7.37768 7.93418 7.35633 7.72423 7.36076H5.43003V10.57H7.90096V10.5575ZM8.03433 16.4063C8.26552 16.4093 8.4962 16.3801 8.72161 16.3194C8.92615 16.2654 9.12252 16.165 9.29598 16.0259C9.46616 15.8859 9.60362 15.6977 9.69607 15.4775C9.80244 15.1975 9.85153 14.8925 9.83925 14.5854C9.86255 14.3061 9.83122 14.0242 9.74767 13.7614C9.66413 13.4986 9.53059 13.262 9.35734 13.0696C8.99019 12.7514 8.54071 12.5937 8.08587 12.6236H5.43003V16.4063H8.03433ZM15.727 16.3561C15.9179 16.5644 16.1426 16.7249 16.3876 16.8278C16.6326 16.9307 16.8927 16.9739 17.1522 16.9547C17.5638 16.9663 17.968 16.8196 18.301 16.5338C18.5726 16.3262 18.778 16.0182 18.8852 15.659H20.8243C20.617 16.6827 20.1128 17.5885 19.399 18.2195C18.7132 18.7564 17.9028 19.0283 17.0802 18.9977C16.4935 19.0054 15.9114 18.8751 15.3678 18.6144C14.8764 18.3723 14.4353 18.0073 14.075 17.5446C13.7175 17.0587 13.4426 16.4963 13.265 15.8879C13.0674 15.207 12.9706 14.4911 12.9787 13.7715C12.9743 13.0642 13.0745 12.3615 13.2748 11.6948C13.5432 10.7555 14.0573 9.94087 14.7431 9.36831C15.4288 8.79576 16.2509 8.49478 17.0909 8.50871C17.7109 8.49472 18.3239 8.66575 18.8729 9.00594C19.3685 9.32711 19.7963 9.77591 20.1247 10.319C20.459 10.8896 20.6989 11.5297 20.8316 12.2055C20.9773 12.9306 21.028 13.6779 20.9855 14.4223H15.2107C15.1634 15.1214 15.3491 15.8148 15.727 16.3561ZM18.2601 11.131C18.0986 10.9402 17.9043 10.7927 17.6903 10.6982C17.4763 10.6038 17.2476 10.5647 17.0197 10.5835C16.7171 10.5695 16.4166 10.6484 16.1475 10.8123C15.9346 10.9512 15.7465 11.1374 15.5936 11.3607C15.4587 11.5703 15.358 11.8077 15.2966 12.0607C15.2416 12.272 15.2073 12.49 15.1943 12.7105H18.7714C18.7402 12.1357 18.5625 11.5855 18.2617 11.1319L18.2601 11.131ZM19.2149 5.91834H14.7337V7.27001H19.2149V5.91834Z" fill="black"/>
</svg>
