<svg width="24" height="24" viewBox="0 0 24 24" fill="none" xmlns="http://www.w3.org/2000/svg">
<path fill-rule="evenodd" clip-rule="evenodd" d="M11.993 6C9.331 6 7.673 7.3321 7.003 9.9943C8.007 8.6632 9.171 8.16618 10.509 8.48814C11.265 8.67829 11.819 9.23468 12.414 9.83433C13.389 10.8445 14.524 12.0005 16.996 12.0005C19.658 12.0005 21.331 10.6684 22 8.0052C20.996 9.33663 19.8327 9.83399 18.51 9.49727C17.753 9.30712 17.2 8.75174 16.604 8.15109C15.614 7.15704 14.48 6 11.993 6ZM7.003 12.0005C4.327 12.0005 2.669 13.3316 2 15.9948C3.004 14.6637 4.167 14.1657 5.505 14.4876C6.262 14.6788 6.815 15.2342 7.411 15.8338C8.385 16.844 9.52 18 11.993 18C14.655 18 16.327 16.6689 16.996 14.0057C15.993 15.3368 14.829 15.8338 13.491 15.4978C12.735 15.3066 12.181 14.7512 11.586 14.1516C10.611 13.1555 9.476 12.0005 7.004 12.0005H7.003Z" fill="black"/>
</svg>
