<svg width="24" height="24" viewBox="0 0 24 24" fill="none" xmlns="http://www.w3.org/2000/svg">
<path d="M17.8806 10.7528C17.7513 10.753 17.6273 10.8008 17.5359 10.8855C17.4445 10.9703 17.393 11.0852 17.3928 11.2051V18.5792H15.9869L13.2882 13.3741C13.6733 12.9706 13.8383 12.4104 13.7129 11.8741C13.6548 11.6091 13.5299 11.3607 13.3486 11.1489C13.1673 10.9371 12.9345 10.768 12.6694 10.6553V10.0463C12.6712 9.96204 12.6549 9.87824 12.6215 9.79984C12.588 9.72144 12.5381 9.65 12.4745 9.58968C12.411 9.52937 12.3351 9.48138 12.2513 9.44853C12.1676 9.41568 12.0776 9.39861 11.9867 9.39833C11.8637 9.39834 11.7431 9.4289 11.6372 9.48683C11.5316 9.54649 11.445 9.63116 11.3865 9.73214C11.3279 9.83312 11.2994 9.94676 11.3039 10.0613V10.6013C10.898 10.738 10.556 11.0013 10.3365 11.3461C10.117 11.691 10.0338 12.0959 10.101 12.4914C10.1592 12.8313 10.3257 13.1474 10.5791 13.3989L7.98242 18.5792H5.60415C5.17858 18.5766 4.77132 18.4184 4.47092 18.1389C4.17053 17.8594 4.00129 17.4813 4.00002 17.0867V6.7628C3.99517 7.58931 4.71432 8.26282 5.60657 8.26732C5.64219 8.26741 5.67781 8.26641 5.71335 8.26432H17.6411C17.6411 8.26432 19.6918 8.10082 19.9563 9.41933C19.8581 9.42857 19.767 9.47113 19.7006 9.53882C19.6342 9.60651 19.597 9.69457 19.5963 9.78609C19.5963 10.3193 19.128 10.7536 18.5431 10.7536L17.8806 10.7528ZM16.2239 19.903C16.315 20.077 16.3279 20.2775 16.2596 20.4603C16.1913 20.6432 16.0475 20.7934 15.8599 20.878C15.7579 20.9219 15.6471 20.9457 15.5347 20.9477C15.447 20.9496 15.3595 20.9382 15.2758 20.914C15.2564 20.908 15.2386 20.8982 15.2192 20.8907C15.1535 20.8654 15.0918 20.8321 15.0356 20.7917C15.0151 20.7772 14.9956 20.7622 14.9773 20.7467C14.9081 20.6874 14.8506 20.6174 14.8074 20.5397L13.7914 18.5792L12.5311 16.1454C12.4808 16.0456 12.4007 15.9612 12.3004 15.9022C12.2001 15.8432 12.0836 15.8121 11.9648 15.8124H11.9632C11.8436 15.8126 11.7264 15.8439 11.625 15.9028C11.5236 15.9616 11.4421 16.0457 11.3897 16.1454L10.1682 18.5792L9.17075 20.5637C9.11495 20.6831 9.02563 20.7865 8.91209 20.863C8.79855 20.9395 8.66495 20.9864 8.52522 20.9987C8.47426 21.0025 8.42491 20.9972 8.37557 20.992C8.34752 20.9905 8.31975 20.9875 8.29225 20.983C8.25342 20.9755 8.2154 20.962 8.17738 20.9492C8.15311 20.9402 8.12884 20.9342 8.10457 20.9237C8.06487 20.9042 8.02698 20.8816 7.99132 20.8562C7.97353 20.8462 7.95573 20.8352 7.93793 20.8232C7.88627 20.7825 7.84034 20.7359 7.80122 20.6845C7.7221 20.577 7.67516 20.452 7.66521 20.3222C7.65527 20.1924 7.68266 20.0625 7.7446 19.9457L8.42896 18.5792L11.0726 13.3059C10.7657 13.0957 10.56 12.7822 10.4998 12.4329C10.3745 11.6979 10.9148 11.0079 11.7076 10.8909V10.0463C11.7051 9.99915 11.7165 9.95223 11.7404 9.91052C11.7643 9.8688 11.7999 9.83385 11.8435 9.80934C11.8869 9.78574 11.9363 9.7733 11.9867 9.7733C12.037 9.7733 12.0864 9.78574 12.1298 9.80934C12.1733 9.83394 12.2087 9.86894 12.2325 9.91065C12.2563 9.95235 12.2675 9.99923 12.2649 10.0463V10.9156L12.2755 10.9201C12.5352 10.9862 12.7702 11.1177 12.9541 11.3002C13.1381 11.4827 13.2638 11.7088 13.3174 11.9536C13.3754 12.1995 13.3573 12.4556 13.2651 12.6923C13.1729 12.9291 13.0105 13.1368 12.7964 13.2916L15.5379 18.5792L16.2239 19.903ZM12.7956 12.2296C12.7965 12.1212 12.7743 12.0137 12.7303 11.9133C12.6863 11.8128 12.6214 11.7214 12.5393 11.6442C12.4572 11.567 12.3594 11.5056 12.2517 11.4635C12.144 11.4213 12.0284 11.3993 11.9114 11.3986C11.6736 11.3984 11.4453 11.4849 11.2756 11.6394C11.1096 11.7929 11.0157 12.001 11.0143 12.2184C11.0135 12.3268 11.0357 12.4343 11.0797 12.5347C11.1236 12.6352 11.1885 12.7266 11.2707 12.8038C11.3528 12.8809 11.4505 12.9424 11.5582 12.9845C11.6659 13.0266 11.7816 13.0487 11.8985 13.0494H11.905C12.1401 13.0496 12.3658 12.9635 12.5327 12.8099C12.6996 12.6563 12.7941 12.4476 12.7956 12.2296ZM11.9648 16.1874C11.922 16.1874 11.88 16.1982 11.8434 16.2187C11.8067 16.2392 11.7768 16.2686 11.7569 16.3037L10.6139 18.5792H13.3433L12.1646 16.3044C12.1469 16.2692 12.1187 16.2394 12.0833 16.2187C12.0478 16.198 12.0067 16.1871 11.9648 16.1874ZM18.552 11.1279H17.8806C17.8585 11.1279 17.8373 11.136 17.8217 11.1505C17.806 11.165 17.7973 11.1846 17.7973 11.2051V20.8877C17.7972 20.9073 17.8052 20.9262 17.8196 20.9406C17.8341 20.9549 17.8538 20.9636 17.8749 20.965H18.5577C18.9407 20.9636 19.3076 20.8215 19.5779 20.5699C19.8482 20.3183 20 19.9776 20 19.6225V9.78534C20 10.1414 19.8474 10.4829 19.5759 10.7346C19.3043 10.9864 18.936 11.1279 18.552 11.1279ZM4.40368 6.7628V6.7763C4.40643 7.0713 4.53404 7.35349 4.75904 7.5621C4.98403 7.7707 5.2884 7.88902 5.60657 7.89156L5.71255 7.88931H6.62584C6.77731 6.91504 7.23864 6.00476 7.95088 5.27478H5.60819C5.25191 5.27627 4.90623 5.3873 4.62531 5.59048C4.34439 5.79366 4.1441 6.07751 4.05584 6.39754C4.2516 6.42454 4.40368 6.5738 4.40368 6.76205M9.53073 4.58777L8.69105 3.246C8.67573 3.2211 8.66767 3.19292 8.66767 3.16425C8.66767 3.13558 8.67573 3.10741 8.69105 3.0825C8.70751 3.0587 8.72978 3.03883 8.75606 3.0245C8.78234 3.01016 8.81189 3.00177 8.84232 3C8.87308 3.00046 8.90318 3.0083 8.92969 3.02276C8.9562 3.03722 8.97822 3.0578 8.9936 3.0825L9.84298 4.44377C10.5195 4.16257 11.2525 4.0172 11.9939 4.0172C12.7354 4.0172 13.4684 4.16257 14.1449 4.44377L14.9894 3.0825C15.0162 3.05203 15.0539 3.03147 15.0956 3.02454C15.1373 3.01761 15.1803 3.02478 15.2168 3.04474C15.2533 3.06471 15.2809 3.09614 15.2945 3.13334C15.3082 3.17054 15.307 3.21105 15.2912 3.2475L14.458 4.59002C15.1194 4.92675 15.689 5.39921 16.1234 5.97129C16.5577 6.54337 16.8453 7.19993 16.9641 7.89081L7.02464 7.89006C7.14346 7.19939 7.43094 6.54302 7.86514 5.97108C8.29933 5.39914 8.86875 4.92677 9.52992 4.59002M13.8796 6.55505C13.8808 6.60577 13.8929 6.65577 13.915 6.70219C13.9371 6.74861 13.9688 6.79053 14.0084 6.82556C14.048 6.8606 14.0947 6.88806 14.1457 6.90637C14.1967 6.92469 14.2512 6.9335 14.3059 6.9323C14.3607 6.9324 14.4149 6.92248 14.4656 6.90311C14.5162 6.88375 14.5622 6.85531 14.601 6.81943C14.6398 6.78356 14.6705 6.74094 14.6915 6.69403C14.7125 6.64712 14.7233 6.59683 14.7233 6.54605C14.723 6.46891 14.6981 6.39358 14.6517 6.32955C14.6054 6.26552 14.5396 6.21564 14.4627 6.18621C14.3858 6.15678 14.3012 6.1491 14.2196 6.16415C14.138 6.17921 14.063 6.21631 14.0042 6.27079C13.9636 6.30799 13.9317 6.35244 13.9103 6.40143C13.8889 6.45042 13.8784 6.50294 13.8796 6.5558M9.25488 6.5513C9.25541 6.60202 9.26671 6.65215 9.28814 6.69883C9.30956 6.7455 9.3407 6.78781 9.37976 6.82333C9.41882 6.85885 9.46504 6.88688 9.51579 6.90584C9.56654 6.92479 9.62082 6.9343 9.67553 6.9338C9.73062 6.9349 9.78536 6.92556 9.83641 6.90634C9.88747 6.88713 9.93374 6.85844 9.97241 6.82205C10.0185 6.78757 10.0563 6.74448 10.0833 6.69557C10.1103 6.64666 10.1259 6.59303 10.1291 6.53817C10.1322 6.48331 10.1229 6.42844 10.1017 6.37714C10.0805 6.32584 10.0479 6.27925 10.006 6.2404C9.9641 6.20156 9.91385 6.17132 9.85851 6.15166C9.80318 6.132 9.74401 6.12336 9.68483 6.12629C9.62566 6.12923 9.56782 6.14368 9.51507 6.16871C9.46232 6.19373 9.41584 6.22877 9.37865 6.27154C9.33897 6.30819 9.30759 6.35181 9.28633 6.39985C9.26508 6.44788 9.25439 6.49937 9.25488 6.5513Z" fill="black"/>
</svg>
