<svg width="24" height="24" viewBox="0 0 24 24" fill="none" xmlns="http://www.w3.org/2000/svg">
<path d="M7.73684 9.74989H4.89474V13.1248H7.73684M7.73684 9.74989V13.1248M7.73684 9.74989H10.5789M7.73684 9.74989V6.37494H10.5789M7.73684 13.1248H10.5789M10.5789 9.74989V13.1248M10.5789 9.74989H13.4211M10.5789 9.74989V6.37494M10.5789 13.1248H13.4211V9.74989M13.4211 9.74989V6.37494M10.5789 6.37494H13.4211M10.5789 6.37494V3H13.4211V6.37494M4.48833 18.7497C5.90938 18.7497 6.42759 18.6665 7.29065 17.8723M9.63158 16.4998V16.511M21 12.6073C19.2909 12.2192 18.4412 11.3924 17.6624 9.2999C17.2011 10.0829 16.6184 11.0639 16.7908 11.9999C16.8174 12.2676 16.4877 13.1248 16.2632 13.1248H3C3 18.9837 5.99747 20.9997 8.86989 20.9997C12.7768 21.0245 16.2859 19.4517 18.2053 15.3748C19.2909 15.2612 20.3804 13.6817 21 12.6073Z" stroke="black" stroke-width="2" stroke-linecap="round" stroke-linejoin="round"/>
</svg>
