<svg width="24" height="24" viewBox="0 0 24 24" fill="none" xmlns="http://www.w3.org/2000/svg">
<path d="M3 16.95C7.2003 19.65 10.2 21 12 21C14.25 21 15.6 19.65 15.6 17.85C15.6 16.05 14.25 14.7 12 14.7C10.2 14.7 7.2003 15.4497 3 16.95ZM3 16.95L5.7 13.35C9.9003 11.8497 12.9 11.1 14.7 11.1C16.95 11.1 18.3 12.45 18.3 14.25C18.3 14.9142 18.1164 15.5172 17.7708 16.014L15.1761 19.4565M18.3 10.65L21 7.05C17.4 4.35 13.8 3 12 3C10.164 3 9.6438 3.4167 8.9229 4.3905L6.26519 7.73041M18.3 10.65C17.7632 10.256 17.2226 9.86716 16.6782 9.4836C13.8783 7.5612 10.8192 6.6 9.3 6.6C7.05 6.6 5.7 7.5 5.7 9.75C5.7 11.2647 6.5154 12.1674 7.8744 12.5958M18.3 10.65L16.2282 11.3565" stroke="black" stroke-width="2" stroke-linecap="round" stroke-linejoin="round"/>
</svg>
