<svg width="24" height="24" viewBox="0 0 24 24" fill="none" xmlns="http://www.w3.org/2000/svg">
<path d="M12.0326 20.976C12.3927 20.973 12.7491 20.9542 13.1047 20.9055C13.9194 20.8 14.7155 20.5822 15.4701 20.2582C16.5308 19.8043 17.4978 19.1578 18.3219 18.3517C19.0804 17.6094 19.7015 16.7392 20.1565 15.7814C20.5451 14.9569 20.8038 14.0775 20.9234 13.1743C21.0354 12.3043 21.0249 11.4148 20.8896 10.55C20.7763 9.83152 20.5761 9.12938 20.2933 8.45896C20.1134 8.03762 19.8987 7.63196 19.6512 7.24618C18.7731 5.8684 17.5001 4.76062 16.0348 4.0211C15.5112 3.75508 14.9646 3.53669 14.4017 3.36859H14.3979C14.4874 3.41584 14.5784 3.46759 14.6573 3.51934C14.7476 3.57484 14.837 3.62884 14.9212 3.6881C15.3488 3.975 15.742 4.30968 16.0934 4.68562C16.8926 5.54439 17.4445 6.59666 17.761 7.71644C17.9746 8.45296 18.0874 9.21498 18.1332 9.97924C18.1663 10.5365 18.1663 11.0975 18.0979 11.651C17.9859 12.6036 17.6813 13.5336 17.1746 14.3481C16.8011 14.9547 16.3156 15.4851 15.7438 15.9111C14.8085 16.6071 13.5807 17.0227 12.4085 16.7467C12.2151 16.7008 12.0267 16.636 11.8461 16.5531C11.6405 16.4596 11.4444 16.3466 11.2604 16.2156C10.9115 15.9841 10.5967 15.7051 10.3251 15.3869C9.99474 14.9942 9.72856 14.552 9.53635 14.0766C9.30134 13.4683 9.17561 12.8234 9.16493 12.1715C9.14237 11.2168 9.3341 10.2567 9.80703 9.41898C10.1233 8.861 10.5485 8.37186 11.0574 7.98045C11.2266 7.84694 11.4063 7.73069 11.5867 7.62119L11.5987 7.61594C11.2437 7.53476 10.8789 7.50445 10.5153 7.52594C10.2012 7.54713 9.89099 7.60761 9.59199 7.70594C9.32207 7.79594 9.06267 7.90844 8.82584 8.04345C8.63325 8.15327 8.44904 8.2771 8.27472 8.41396C8.11607 8.54896 7.95893 8.68396 7.81232 8.83022C6.96797 9.69499 6.48301 10.8418 6.29204 12.0223C6.17926 12.7521 6.17926 13.4923 6.22362 14.2348C6.30256 15.2811 6.5176 16.3251 6.93413 17.2814C7.18765 17.8726 7.52936 18.422 7.94765 18.9112C8.58746 19.6483 9.39493 20.2218 10.3025 20.5837C10.8111 20.7905 11.3456 20.9267 11.8912 20.9888C11.9468 21 12.0032 21 12.0483 21L12.0326 20.976ZM9.82657 20.6775C9.7103 20.6276 9.59729 20.5705 9.48823 20.5065C8.92236 20.202 8.40577 19.8142 7.95592 19.356C7.13338 18.5032 6.58226 17.4314 6.26647 16.2959C6.05857 15.5182 5.93382 14.7207 5.8943 13.9168C5.86044 13.3963 5.87202 12.8738 5.92888 12.3553C6.03039 11.4125 6.30106 10.4795 6.77399 9.67024C7.11404 9.07335 7.56974 8.54993 8.11457 8.13045C8.48738 7.84499 8.90133 7.61741 9.34237 7.45543C10.196 7.14693 11.1292 7.13504 11.9905 7.42168C12.0123 7.42168 12.0123 7.42168 12.0243 7.44418C12.0356 7.45543 12.0581 7.45543 12.0694 7.46668C12.1032 7.47868 12.1476 7.50043 12.1935 7.52219C12.3732 7.61219 12.5536 7.72544 12.7228 7.83719C13.4045 8.31365 13.9483 8.9609 14.2994 9.71374C14.6152 10.3993 14.7618 11.1643 14.7739 11.9173C14.7844 12.7266 14.6385 13.5351 14.2889 14.2768C13.8634 15.1721 13.1705 15.914 12.3055 16.4009C12.3732 16.4234 12.4408 16.4346 12.5092 16.4571C12.6784 16.4901 12.8468 16.5126 13.0265 16.5126C14.1303 16.5464 15.2009 16.0176 15.9889 15.2774C16.1358 15.1424 16.2711 14.9961 16.3949 14.8386C16.5641 14.6361 16.722 14.4336 16.8565 14.2213C17.0362 13.9401 17.1836 13.6588 17.3182 13.3558C17.4909 12.9549 17.6192 12.5364 17.7009 12.1078C17.8483 11.3548 17.8595 10.5913 17.8129 9.83824C17.7114 8.3217 17.3069 6.80442 16.428 5.54514C16.2981 5.35849 16.1588 5.17851 16.0107 5.00588C15.7639 4.72799 15.4967 4.46878 15.2115 4.23036C14.8929 3.96916 14.5497 3.73933 14.1867 3.54409C13.7769 3.35686 13.3512 3.20675 12.9145 3.09558L12.6889 3.05058C12.5318 3.02808 12.3732 3.01758 12.2123 3.00558C11.9578 2.99525 11.7031 2.99926 11.4491 3.01758C10.9198 3.05133 10.3875 3.13758 9.86116 3.27034C7.33789 3.91985 5.1304 5.67414 3.95523 8.0022C3.57991 8.74371 3.31111 9.53423 3.15674 10.3505C2.97847 11.284 2.95207 12.24 3.07855 13.1818C3.16877 13.9468 3.35975 14.6991 3.6635 15.4146C3.83418 15.8421 4.04771 16.2576 4.2838 16.6506C5.10634 17.9879 6.30106 19.0777 7.67473 19.8307C8.19201 20.1232 8.73336 20.3482 9.29651 20.5387C9.46643 20.5942 9.63485 20.6512 9.81454 20.6962L9.82657 20.6775Z" fill="black"/>
</svg>
