<svg width="24" height="24" viewBox="0 0 24 24" fill="none" xmlns="http://www.w3.org/2000/svg">
<path fill-rule="evenodd" clip-rule="evenodd" d="M3 5.4003C3 4.5597 3 4.1403 3.1638 3.819C3.3069 3.5364 3.5364 3.3078 3.819 3.1638C4.1403 3 4.5597 3 5.4003 3H18.5997C19.4403 3 19.8597 3 20.181 3.1638C20.463 3.30775 20.6923 3.53705 20.8362 3.819C21 4.1403 21 4.55969 21 5.40027V18.5997C21 19.4403 21 19.8597 20.8362 20.181C20.6931 20.4636 20.4636 20.6922 20.181 20.8362C19.8597 21 19.4403 21 18.5997 21H5.4003C4.55972 21 4.1403 21 3.819 20.8362C3.5364 20.6931 3.3078 20.4636 3.1638 20.181C3 19.8597 3 19.4403 3 18.5997V5.4003ZM18.0647 6.81291C18.4308 6.4468 18.4308 5.8532 18.0647 5.48709C17.6986 5.12097 17.105 5.12097 16.7389 5.48709L5.71206 16.5139C5.34595 16.88 5.34595 17.4736 5.71206 17.8397C6.07818 18.2058 6.67177 18.2058 7.03789 17.8397L18.0647 6.81291ZM19.2254 13.1968C19.5915 12.8307 19.5915 12.2371 19.2254 11.871C18.8593 11.5049 18.2657 11.5049 17.8996 11.871L12.096 17.6746C11.7299 18.0407 11.7299 18.6343 12.096 19.0004C12.4621 19.3665 13.0557 19.3665 13.4218 19.0004L19.2254 13.1968Z" fill="black"/>
</svg>
