<svg width="24" height="24" viewBox="0 0 24 24" fill="none" xmlns="http://www.w3.org/2000/svg">
<path fill-rule="evenodd" clip-rule="evenodd" d="M3.1638 3.819C3 4.1403 3 4.5597 3 5.4003V18.5997C3 19.4403 3 19.8597 3.1638 20.181C3.3078 20.4636 3.5364 20.6931 3.819 20.8362C4.1403 21 4.5597 21 5.4003 21H18.5997C19.4403 21 19.8597 21 20.181 20.8362C20.4636 20.6922 20.6931 20.4636 20.8362 20.181C21 19.8597 21 19.4403 21 18.5997V5.4003C21 4.5597 21 4.1403 20.8362 3.819C20.6923 3.53705 20.463 3.30775 20.181 3.1638C19.8597 3 19.4403 3 18.5997 3H5.4003C4.5597 3 4.1403 3 3.819 3.1638C3.5364 3.3078 3.3069 3.5364 3.1638 3.819ZM6.9465 12.765V12.0315L6.96 12.036V11.298L10.11 11.2845C11.8425 11.2845 13.269 11.289 13.269 11.3025C13.287 11.3115 13.287 11.64 13.287 12.045V12.765H10.947V19.425H9.2865V12.765H6.9465ZM18.588 11.9235C18.287 11.5998 17.8946 11.3754 17.463 11.28L17.472 11.271C17.1615 11.19 16.419 11.163 16.104 11.226C15.132 11.406 14.4525 12.036 14.259 12.936C14.196 13.1925 14.2185 13.8315 14.286 14.0925C14.376 14.394 14.5695 14.7585 14.781 14.9925C15.15 15.3795 15.546 15.6315 16.4775 16.0275C17.2875 16.3875 17.5755 16.5495 17.7195 16.7475C17.823 16.905 17.8545 16.9995 17.8545 17.2065C17.8545 17.4315 17.7825 17.5935 17.616 17.7465C17.229 18.0975 16.446 18.138 15.861 17.8365C15.6675 17.7285 15.3345 17.4135 15.186 17.1795L15.069 17.022L14.5605 17.319L13.8855 17.7105L13.7145 17.8185C13.6965 17.85 14.016 18.3315 14.1825 18.5115C14.6055 18.975 15.294 19.335 16.014 19.47C16.3515 19.5285 17.0715 19.5375 17.3865 19.4835C18.39 19.317 19.092 18.8085 19.38 18.057C19.6365 17.3685 19.551 16.4505 19.1685 15.8655C18.831 15.3435 18.273 14.979 16.986 14.4255C16.2885 14.1195 16.0635 13.971 15.942 13.7235C15.8872 13.6179 15.8593 13.5004 15.861 13.3815C15.861 12.909 16.221 12.6255 16.761 12.6615C17.1345 12.6885 17.373 12.8325 17.607 13.1655C17.679 13.2825 17.751 13.359 17.769 13.3455C18.2415 13.053 19.02 12.5265 19.02 12.4995C19.002 12.4185 18.7545 12.1035 18.588 11.9235Z" fill="black"/>
</svg>
