<svg width="24" height="24" viewBox="0 0 24 24" fill="none" xmlns="http://www.w3.org/2000/svg">
<path d="M19.2972 16.881C19.4629 18.9607 19.4629 19.9357 19.4629 21H14.5396C14.5396 20.7682 14.5442 20.556 14.548 20.3415C14.5618 19.6725 14.5756 18.9757 14.4644 17.568C14.3186 15.5077 13.4102 15.0495 11.7407 15.0495H4.00077V11.2995H11.977C14.0854 11.2995 15.1395 10.6733 15.1395 9.01275C15.1395 7.55325 14.0854 6.669 11.977 6.669H4V3H12.8547C17.6277 3 20 5.2035 20 8.724C20 11.3573 18.3305 13.074 16.0763 13.3605C17.9791 13.7332 19.0916 14.7922 19.2972 16.881ZM4 21V18.2048H9.20495C10.0742 18.2048 10.263 18.8348 10.263 19.2113V21H4Z" fill="black"/>
</svg>
