<svg width="24" height="24" viewBox="0 0 24 24" fill="none" xmlns="http://www.w3.org/2000/svg">
<path d="M20.661 11.1986L12.801 3.33899C12.5834 3.12191 12.2885 3 11.9811 3C11.6737 3 11.3788 3.12191 11.1612 3.33899L9.53032 4.96977L11.6004 7.04063C11.8445 6.95726 12.1072 6.9442 12.3584 7.00294C12.6097 7.06168 12.8393 7.18986 13.0212 7.37285C13.2031 7.55583 13.3298 7.78626 13.387 8.03783C13.4442 8.2894 13.4295 8.55198 13.3446 8.7956L15.3391 10.7909C15.6373 10.6884 15.9616 10.6912 16.2579 10.7988C16.5543 10.9064 16.8048 11.1123 16.9678 11.3822C17.1307 11.6522 17.1962 11.9698 17.1534 12.2821C17.1105 12.5945 16.9619 12.8827 16.7323 13.0988C16.5027 13.3149 16.206 13.4457 15.8916 13.4696C15.5772 13.4934 15.2642 13.4088 15.0046 13.2299C14.745 13.0509 14.5546 12.7884 14.4652 12.486C14.3757 12.1837 14.3925 11.8599 14.5129 11.5685L12.6525 9.70729V14.6032C12.9352 14.7429 13.1614 14.9752 13.2936 15.2615C13.4257 15.5477 13.4557 15.8706 13.3787 16.1763C13.3016 16.482 13.1221 16.7521 12.87 16.9415C12.618 17.1309 12.3086 17.2282 11.9935 17.2172C11.6784 17.2062 11.3766 17.0876 11.1384 16.881C10.9002 16.6745 10.7399 16.3926 10.6844 16.0822C10.6288 15.7719 10.6813 15.4519 10.8331 15.1755C10.9849 14.8992 11.2268 14.6832 11.5185 14.5636V9.62269C11.3499 9.55388 11.1966 9.45232 11.0676 9.32389C10.9385 9.19546 10.8362 9.0427 10.7665 8.87447C10.6969 8.70623 10.6613 8.52586 10.6619 8.34378C10.6624 8.1617 10.699 7.98154 10.7697 7.81372L8.72749 5.77255L3.33901 11.1626C3.12192 11.3802 3 11.6751 3 11.9825C3 12.2898 3.12192 12.5847 3.33901 12.8023L11.1981 20.661C11.4157 20.8781 11.7106 21 12.018 21C12.3254 21 12.6203 20.8781 12.8379 20.661L20.661 12.8383C20.8781 12.6207 21 12.3258 21 12.0184C21 11.7111 20.8781 11.4162 20.661 11.1986Z" fill="black"/>
</svg>
