<svg width="24" height="24" viewBox="0 0 24 24" fill="none" xmlns="http://www.w3.org/2000/svg">
<path d="M10.6815 18.844C9.97675 19.0154 9.23279 18.9803 8.55007 18.7433C7.86736 18.5063 7.27877 18.0789 6.86381 17.5188C6.60859 17.1852 6.42728 16.8071 6.33055 16.4069C6.23381 16.0067 6.22362 15.5925 6.30057 15.1885C6.32692 15.0559 6.36278 14.9251 6.40793 14.797L6.49206 14.5563L6.722 14.7138C7.25169 15.0782 7.84402 15.3552 8.47341 15.5328L8.64006 15.58L8.62403 15.736C8.60382 15.957 8.66797 16.1776 8.8051 16.3585C8.93021 16.5271 9.10744 16.6557 9.31298 16.7272C9.51852 16.7987 9.7425 16.8095 9.95482 16.7583C10.0521 16.7345 10.1449 16.6965 10.2296 16.6458L14.7083 13.9743C14.8178 13.9097 14.9117 13.8245 14.984 13.724C15.0563 13.6235 15.1054 13.51 15.1281 13.3908C15.1513 13.269 15.1483 13.1441 15.1192 13.0235C15.0902 12.9028 15.0358 12.7888 14.9591 12.688C14.834 12.5195 14.6567 12.3908 14.4512 12.3193C14.2457 12.2479 14.0217 12.237 13.8094 12.2883C13.712 12.3121 13.6193 12.35 13.5346 12.4008L11.8256 13.4208C11.5451 13.589 11.2383 13.7153 10.9162 13.795C10.2116 13.9665 9.46768 13.9315 8.78497 13.6946C8.10226 13.4577 7.51363 13.0305 7.09856 12.4705C6.84338 12.1368 6.66215 11.7586 6.56555 11.3583C6.46896 10.9579 6.45895 10.5435 6.53612 10.1395C6.6123 9.7437 6.77574 9.36707 7.01604 9.03365C7.25634 8.70024 7.56823 8.41735 7.9318 8.20303L12.4097 5.53079C12.6902 5.36256 12.997 5.23629 13.319 5.15654C14.0238 4.98513 14.7677 5.0203 15.4505 5.25729C16.1332 5.49428 16.7218 5.92169 17.1367 6.48179C17.3919 6.81538 17.5733 7.19341 17.67 7.59361C17.7667 7.99381 17.7769 8.40809 17.7 8.81203C17.6736 8.94464 17.6377 9.07544 17.5926 9.20353L17.5085 9.44428L17.2793 9.28678C16.7495 8.92202 16.1568 8.64478 15.5271 8.46703L15.3605 8.41978L15.3765 8.26453C15.3969 8.04327 15.3327 7.8224 15.1954 7.64129C15.0702 7.47286 14.8929 7.34435 14.6874 7.27302C14.4819 7.2017 14.2579 7.19097 14.0457 7.24229C13.9484 7.2661 13.8557 7.30406 13.7709 7.35479L9.29223 10.0263C9.18271 10.0908 9.0888 10.1761 9.0165 10.2765C8.94421 10.377 8.89513 10.4905 8.8724 10.6098C8.84924 10.7316 8.85226 10.8564 8.88129 10.9771C8.91032 11.0978 8.96477 11.2118 9.04146 11.3125C9.16656 11.4811 9.34379 11.6097 9.54933 11.6812C9.75487 11.7527 9.97885 11.7635 10.1912 11.7123C10.2888 11.6883 10.3818 11.6501 10.4668 11.599L12.1749 10.579C12.4555 10.4111 12.7623 10.285 13.0843 10.2055C13.7889 10.034 14.5329 10.0691 15.2156 10.3059C15.8983 10.5428 16.4869 10.9701 16.902 11.53C17.1572 11.8638 17.3384 12.242 17.435 12.6423C17.5316 13.0426 17.5416 13.457 17.4644 13.861C17.3883 14.257 17.2249 14.6338 16.9846 14.9673C16.7443 15.3009 16.4324 15.5839 16.0687 15.7983L11.5909 18.4698C11.3104 18.638 11.0036 18.7643 10.6815 18.844ZM18.9803 5.38154C17.1952 2.98905 13.6684 2.2803 11.119 3.80129L6.64028 6.47279C6.03506 6.82869 5.51601 7.2991 5.11644 7.85384C4.71686 8.40857 4.44559 9.03538 4.32002 9.69403C4.10614 10.8034 4.29392 11.9479 4.85361 12.946C4.46952 13.4899 4.20782 14.1013 4.08447 14.743C3.9569 15.4147 3.97397 16.1036 4.13467 16.769C4.29537 17.4345 4.59646 18.0632 5.02026 18.6183C6.80612 21.0108 10.3322 21.7195 12.8816 20.1993L17.3603 17.5278C17.9655 17.1719 18.4845 16.7014 18.8841 16.1467C19.2837 15.592 19.5549 14.9652 19.6805 14.3065C19.894 13.1972 19.7065 12.0529 19.1477 11.0545C19.5312 10.5105 19.7924 9.8991 19.9153 9.25753C20.043 8.58574 20.0262 7.89681 19.8656 7.23121C19.705 6.56561 19.404 5.93674 18.9803 5.38154Z" fill="black"/>
</svg>
