<svg width="24" height="24" viewBox="0 0 24 24" fill="none" xmlns="http://www.w3.org/2000/svg">
<path d="M8.99744 9.98315C8.99744 10.1158 9.05009 10.2429 9.14382 10.3367C9.23755 10.4305 9.36467 10.4831 9.49723 10.4831C9.62978 10.4831 9.7569 10.4305 9.85063 10.3367C9.94436 10.2429 9.99701 10.1158 9.99701 9.98315V8.98315C9.99701 8.85054 9.94436 8.72336 9.85063 8.6296C9.7569 8.53583 9.62978 8.48315 9.49723 8.48315C9.36467 8.48315 9.23755 8.53583 9.14382 8.6296C9.05009 8.72336 8.99744 8.85054 8.99744 8.98315V9.98315ZM8.99744 9.98315C8.99744 11.3092 9.524 12.581 10.4613 13.5187C11.3986 14.4564 12.6698 14.9831 13.9953 14.9831M13.9953 14.9831H14.9949C15.1274 14.9831 15.2546 14.9305 15.3483 14.8367C15.442 14.7429 15.4947 14.6158 15.4947 14.4831C15.4947 14.3505 15.442 14.2234 15.3483 14.1296C15.2546 14.0358 15.1274 13.9831 14.9949 13.9831H13.9953C13.8628 13.9831 13.7356 14.0358 13.6419 14.1296C13.5482 14.2234 13.4955 14.3505 13.4955 14.4831C13.4955 14.6158 13.5482 14.7429 13.6419 14.8367C13.7356 14.9305 13.8628 14.9831 13.9953 14.9831ZM3 20.9831L4.6493 17.1831C3.3875 15.3912 2.82274 13.2002 3.06102 11.0212C3.29929 8.8423 4.32422 6.82526 5.94345 5.34864C7.56268 3.87202 9.6649 3.03734 11.8556 3.00122C14.0463 2.96511 16.1749 3.73005 17.8418 5.15249C19.5088 6.57494 20.5996 8.5571 20.9095 10.727C21.2194 12.8969 20.7271 15.1053 19.525 16.9379C18.3229 18.7704 16.4937 20.1011 14.3805 20.6802C12.2674 21.2593 10.0156 21.047 8.04784 20.0831L3 20.9831Z" stroke="black" stroke-width="2" stroke-linecap="round" stroke-linejoin="round"/>
</svg>
