<svg width="24" height="24" viewBox="0 0 24 24" fill="none" xmlns="http://www.w3.org/2000/svg">
<path d="M12.6995 6.2205L15.561 7.86525C15.6634 7.923 15.6672 8.08275 15.561 8.1405L12.1611 10.0965C12.1126 10.1248 12.0574 10.1398 12.0011 10.1398C11.9449 10.1398 11.8896 10.1248 11.8411 10.0965L8.44127 8.1405C8.3366 8.085 8.33509 7.92075 8.44127 7.86525L11.3005 6.2205V3L4 7.1985V15.5947L6.7997 13.9853V10.6965C6.79744 10.5788 6.93524 10.4948 7.0384 10.5585L10.4383 12.5138C10.4869 12.5419 10.5273 12.5821 10.5555 12.6305C10.5838 12.6789 10.5989 12.7338 10.5994 12.7898V16.6995C10.6009 16.8165 10.4631 16.9005 10.3599 16.8375L7.49849 15.1927L4.69955 16.8015L12 21L19.3005 16.8015L16.5015 15.1927L13.6401 16.8368C13.5392 16.8982 13.3968 16.8188 13.4006 16.6995V12.7898C13.4006 12.6728 13.4661 12.5677 13.5617 12.5138L16.9616 10.5585C17.0625 10.497 17.2041 10.575 17.2011 10.6965V13.9853L20 15.5947V7.1985L12.7003 3L12.6995 6.2205Z" fill="black"/>
</svg>
