<svg width="24" height="24" viewBox="0 0 24 24" fill="none" xmlns="http://www.w3.org/2000/svg">
<path d="M21 12C21 16.971 16.971 21 12 21C7.029 21 3 16.971 3 12C3 7.029 7.029 3 12 3C16.971 3 21 7.029 21 12ZM15.9352 6.32925C15.0202 6.36075 14.223 6.8655 13.629 7.56225C12.9705 8.32725 12.5332 9.234 12.2183 10.158C11.6535 9.6975 11.2192 9.0975 10.314 8.83725C9.95722 8.72742 9.57924 8.70511 9.21202 8.77221C8.8448 8.83931 8.49913 8.99384 8.20425 9.22275C7.89675 9.462 7.67175 9.7905 7.5585 10.1632C7.2885 11.0452 7.84425 11.832 8.09775 12.1132L8.6505 12.7057C8.763 12.8212 9.03975 13.1258 8.90475 13.5592C8.76 14.0325 8.1915 14.337 7.60575 14.1585C7.34475 14.079 6.96975 13.884 7.05525 13.611C7.089 13.4985 7.16925 13.4137 7.21275 13.3177C7.25175 13.2352 7.2705 13.1722 7.284 13.1363C7.38975 12.7875 7.24425 12.3337 6.87075 12.219C6.522 12.1117 6.1665 12.1965 6.027 12.6435C5.87025 13.1535 6.11475 14.0782 7.422 14.4803C8.952 14.9513 10.2457 14.1173 10.4288 13.0312C10.5435 12.351 10.2375 11.8448 9.67425 11.196L9.21525 10.6883C8.937 10.4108 8.8425 9.93675 9.12975 9.5745C9.37275 9.26775 9.7185 9.1365 10.284 9.29025C11.1112 9.51525 11.4795 10.0875 12.093 10.5503C11.8395 11.3828 11.673 12.2175 11.5238 12.9667L11.4315 13.5262C10.9927 15.8287 10.6568 17.094 9.786 17.8207C9.6105 17.9452 9.3585 18.1327 8.98125 18.1462C8.78175 18.15 8.71725 18.0142 8.715 17.9535C8.7105 17.8155 8.8275 17.7502 8.90625 17.6887C9.02175 17.6265 9.19875 17.5207 9.18525 17.1832C9.17325 16.7842 8.84325 16.4377 8.36475 16.4535C8.007 16.4662 7.4625 16.8023 7.48275 17.418C7.50375 18.0555 8.097 18.5317 8.99175 18.501C9.47025 18.4852 10.5382 18.2902 11.5898 17.0392C12.8145 15.606 13.1573 13.9635 13.4152 12.7597L13.7025 11.1728C13.8615 11.1912 14.034 11.2032 14.22 11.2087C15.744 11.2417 16.5068 10.4512 16.518 9.87675C16.5255 9.52875 16.29 9.186 15.96 9.19425C15.8192 9.19775 15.6835 9.24778 15.5742 9.33652C15.4648 9.42525 15.3879 9.5477 15.3555 9.68475C15.285 10.0058 15.84 10.2945 15.4065 10.5765C15.099 10.776 14.547 10.9155 13.7685 10.8015L13.9095 10.02C14.199 8.538 14.5538 6.71475 15.9053 6.66975C16.0043 6.6645 16.3643 6.67425 16.3725 6.912C16.3748 6.99075 16.356 7.0125 16.2623 7.19325C16.1763 7.30957 16.1319 7.45142 16.1362 7.596C16.149 7.974 16.4362 8.223 16.854 8.208C17.4113 8.19075 17.5702 7.647 17.5627 7.36875C17.5387 6.71325 16.8488 6.30075 15.9352 6.32925Z" fill="black"/>
</svg>
