<svg width="24" height="24" viewBox="0 0 24 24" fill="none" xmlns="http://www.w3.org/2000/svg">
<path d="M15.7017 9.38149C15.7866 9.42494 15.8654 9.48363 15.9295 9.55474L17.6909 8.76693L16.0476 7.13262L15.678 9.35779L15.7017 9.38149ZM12.045 7.89673C12.1327 8.02596 12.1851 8.17269 12.2031 8.32844L14.8252 9.443C14.9039 9.38149 14.9945 9.33691 15.0913 9.31038L15.5216 6.63826L13.9245 4.95711L12.0438 7.85497L12.045 7.89673ZM20.9954 12.0265L18.1854 9.20768L16.2721 9.99266L20.9724 11.9972C20.9724 11.9972 21.0134 12.0265 20.9954 12.0265ZM20.5268 12.4853L16.015 10.5508C15.952 10.634 15.8732 10.7038 15.7831 10.7562C15.693 10.8086 15.5934 10.8425 15.4901 10.8561L15.0069 13.8341C15.1504 13.9808 15.2325 14.1778 15.2325 14.3832L17.957 14.9565L20.4565 12.4667V12.4199L20.5268 12.4853ZM14.5495 9.93059L12.1007 8.88375C12.0166 9.01389 11.9003 9.11993 11.7631 9.19154C11.626 9.26315 11.4726 9.29787 11.3181 9.29233H11.1691L9.13874 12.4345L14.5591 10.0801V10.0863C14.5567 10.0442 14.5567 10.002 14.5591 9.95993C14.5621 9.95015 14.5585 9.94037 14.5495 9.93059ZM17.5266 15.4306L15.1301 14.9334C15.0411 15.0504 14.9212 15.1401 14.7841 15.1924L14.2125 18.746L17.5413 15.4362C17.5413 15.4362 17.5351 15.4543 17.5261 15.4543L17.5266 15.4306ZM14.1743 15.1857C14.0609 15.1388 13.96 15.066 13.8797 14.9731C13.7993 14.8803 13.7416 14.7698 13.7113 14.6507L9.24901 13.7314L9.18431 13.8347L13.2342 19.7099L13.4773 19.469L14.1659 15.2009C14.1659 15.2009 14.1889 15.2184 14.1743 15.2099V15.1857ZM9.34296 13.1902L13.7529 14.1016C13.8162 13.9904 13.9056 13.8964 14.0133 13.8278C14.1211 13.7593 14.244 13.7182 14.3712 13.7082L14.8488 10.7805L14.7459 10.6924L9.2642 13.0497C9.29345 13.0933 9.3197 13.1401 9.34296 13.1902ZM7.4938 13.9278L7.39985 13.8347L5.49837 14.6185L6.42098 15.5389L7.47017 13.9046L7.4938 13.9278ZM8.74832 14.228C8.61572 14.2878 8.47234 14.3199 8.32696 14.3222C8.20938 14.3222 8.09799 14.3042 7.98661 14.2664L6.8294 15.9565L11.9043 21L12.7977 20.1089L8.74832 14.228ZM8.03611 12.241C8.11262 12.2323 8.19063 12.2323 8.27014 12.241C8.35565 12.2297 8.44341 12.2297 8.52836 12.241L10.5789 9.04289C10.4198 8.87577 10.3306 8.6538 10.3297 8.42269C10.3214 8.35447 10.3214 8.28549 10.3297 8.21727L7.83921 7.06208L5.83478 9.01919L8.03611 12.241ZM8.26226 6.67099L10.6909 7.7088C10.8663 7.56186 11.0898 7.48545 11.3181 7.49436C11.4179 7.49661 11.5163 7.51223 11.6135 7.5412L13.5099 4.5728L11.942 3L8.26226 6.62359C8.26226 6.62359 8.25608 6.66196 8.26226 6.67099ZM7.35372 12.8143C7.4036 12.7229 7.46417 12.6386 7.53543 12.5615L5.45786 9.45147L3 11.8471L7.35372 12.8143ZM7.15738 13.3403L3.39774 12.5525L5.05 14.2342L7.13375 13.3465L7.15738 13.3403Z" fill="black"/>
</svg>
