<svg width="24" height="24" viewBox="0 0 24 24" fill="none" xmlns="http://www.w3.org/2000/svg">
<path d="M12 3C16.9725 3 21 7.13018 21 12.2274C20.9991 14.1608 20.407 16.0452 19.3071 17.6157C18.2072 19.1861 16.6548 20.3636 14.8683 20.9824C14.4183 21.0746 14.25 20.7867 14.25 20.5441C14.25 20.2331 14.2608 19.2411 14.2608 18.0065C14.2608 17.1419 13.98 16.5883 13.6533 16.2994C15.6567 16.0688 17.76 15.2844 17.76 11.7439C17.76 10.7289 17.4117 9.90948 16.8375 9.26356C16.9275 9.03287 17.2425 8.08706 16.7475 6.8183C16.7475 6.8183 15.9942 6.56454 14.2725 7.76411C13.5398 7.55616 12.7828 7.45154 12.0225 7.45314C11.2575 7.45314 10.4925 7.55649 9.7725 7.76411C8.0508 6.57654 7.2975 6.8183 7.2975 6.8183C6.8025 8.08706 7.1175 9.03287 7.2075 9.26356C6.6333 9.90948 6.285 10.7399 6.285 11.7439C6.285 15.2734 8.3775 16.0688 10.38 16.2994C10.1217 16.5301 9.885 16.9343 9.8067 17.5341C9.2892 17.7758 7.995 18.168 7.185 16.7728C7.0158 16.496 6.51 15.815 5.8008 15.827C5.0475 15.8381 5.4975 16.2653 5.8125 16.4379C6.195 16.6575 6.6333 17.4759 6.735 17.7417C6.915 18.2603 7.5 19.2522 9.7608 18.8259C9.7608 19.5982 9.7725 20.3254 9.7725 20.5441C9.7725 20.7867 9.6033 21.0636 9.1533 20.9824C7.36065 20.371 5.80137 19.1963 4.69681 17.6249C3.59226 16.0535 2.99856 14.1653 3 12.2283C3 7.13018 7.0275 3 12 3Z" fill="black"/>
</svg>
