<svg width="24" height="24" viewBox="0 0 24 24" fill="none" xmlns="http://www.w3.org/2000/svg">
<path d="M12 12V5.25M12 12H18.75M12 12V18.75M12 12H5.25M12 5.25C12 4.65326 12.2371 4.08097 12.659 3.65901C13.081 3.23705 13.6533 3 14.25 3C14.8467 3 15.419 3.23705 15.841 3.65901C16.2629 4.08097 16.5 4.65326 16.5 5.25V12M12 5.25C12 4.80499 11.868 4.36998 11.6208 3.99997C11.3736 3.62996 11.0222 3.34157 10.611 3.17127C10.1999 3.00097 9.7475 2.95642 9.31105 3.04323C8.87459 3.13005 8.47368 3.34434 8.15901 3.65901C7.84434 3.97368 7.63005 4.37459 7.54323 4.81105C7.45642 5.24751 7.50097 5.69991 7.67127 6.11104C7.84157 6.52217 8.12996 6.87357 8.49997 7.12081C8.86998 7.36804 9.30499 7.5 9.75 7.5M16.5 9.75C16.5 9.30499 16.632 8.86998 16.8792 8.49997C17.1264 8.12996 17.4778 7.84157 17.889 7.67127C18.3001 7.50097 18.7525 7.45642 19.189 7.54323C19.6254 7.63005 20.0263 7.84434 20.341 8.15901C20.6557 8.47368 20.8699 8.87459 20.9568 9.31105C21.0436 9.7475 20.999 10.1999 20.8287 10.611C20.6584 11.0222 20.37 11.3736 20 11.6208C19.63 11.868 19.195 12 18.75 12M18.75 12C19.3467 12 19.919 12.2371 20.341 12.659C20.7629 13.081 21 13.6533 21 14.25C21 14.8467 20.7629 15.419 20.341 15.841C19.919 16.2629 19.3467 16.5 18.75 16.5H12M14.25 16.5C14.695 16.5 15.13 16.632 15.5 16.8792C15.87 17.1264 16.1584 17.4778 16.3287 17.889C16.499 18.3001 16.5436 18.7525 16.4568 19.189C16.3699 19.6254 16.1557 20.0263 15.841 20.341C15.5263 20.6557 15.1254 20.8699 14.689 20.9568C14.2525 21.0436 13.8001 20.999 13.389 20.8287C12.9778 20.6584 12.6264 20.37 12.3792 20C12.132 19.63 12 19.195 12 18.75M12 18.75C12 19.3467 11.7629 19.919 11.341 20.341C10.919 20.7629 10.3467 21 9.75 21C9.15326 21 8.58097 20.7629 8.15901 20.341C7.73705 19.919 7.5 19.3467 7.5 18.75V12M7.5 14.25C7.5 14.695 7.36804 15.13 7.12081 15.5C6.87357 15.87 6.52217 16.1584 6.11104 16.3287C5.69991 16.499 5.24751 16.5436 4.81105 16.4568C4.37459 16.3699 3.97368 16.1557 3.65901 15.841C3.34434 15.5263 3.13005 15.1254 3.04323 14.689C2.95642 14.2525 3.00097 13.8001 3.17127 13.389C3.34157 12.9778 3.62996 12.6264 3.99997 12.3792C4.36998 12.132 4.80499 12 5.25 12M5.25 12C4.65326 12 4.08097 11.7629 3.65901 11.341C3.23705 10.919 3 10.3467 3 9.75C3 9.15326 3.23705 8.58097 3.65901 8.15901C4.08097 7.73705 4.65326 7.5 5.25 7.5H12" stroke="black" stroke-width="2" stroke-linecap="round" stroke-linejoin="round"/>
</svg>
