<svg width="24" height="24" viewBox="0 0 24 24" fill="none" xmlns="http://www.w3.org/2000/svg">
<path d="M11.9842 3C7.24979 3 3.36742 6.645 3 11.2778L7.83286 13.2712C8.25643 12.9832 8.75699 12.8291 9.26949 12.8287C9.31658 12.8292 9.36367 12.8308 9.41075 12.8333L11.5604 9.72675V9.6825C11.5616 8.78299 11.9202 7.92065 12.5574 7.2846C13.1946 6.64855 14.0585 6.29069 14.9597 6.2895C16.8336 6.2895 18.3589 7.81275 18.3589 9.68475C18.3589 11.5568 16.8336 13.0785 14.9597 13.0785H14.8808L11.8182 15.2618L11.8212 15.381C11.8218 15.7153 11.7563 16.0464 11.6286 16.3554C11.5008 16.6643 11.3133 16.9452 11.0767 17.1817C10.8401 17.4183 10.5591 17.606 10.2498 17.734C9.94047 17.8621 9.60888 17.928 9.274 17.928C8.68484 17.9263 8.11426 17.722 7.65838 17.3494C7.2025 16.9769 6.88917 16.4589 6.77116 15.8827L3.31107 14.4525C4.38253 18.2303 7.8569 21 11.9842 21C16.9636 21 21 16.9703 21 12C21 7.02975 16.9628 3 11.9842 3ZM8.64886 16.6575L7.54208 16.2C7.73894 16.6073 8.07856 16.9493 8.52939 17.1375C8.87906 17.2821 9.2638 17.3202 9.63511 17.2468C10.0064 17.1735 10.3477 16.9921 10.6158 16.7255C10.884 16.4589 11.0671 16.1189 11.142 15.7486C11.2169 15.3783 11.1803 14.9941 11.0367 14.6445C10.8472 14.1851 10.4858 13.8174 10.0292 13.6195C9.57256 13.4217 9.05668 13.4092 8.591 13.5848L9.73535 14.0573C10.0808 14.201 10.3549 14.4758 10.4974 14.8212C10.6398 15.1667 10.639 15.5544 10.495 15.8993C10.351 16.2441 10.0757 16.5177 9.72963 16.6599C9.38355 16.8021 8.9943 16.8012 8.64886 16.6575ZM17.2258 9.68025C17.2248 9.08083 16.9858 8.50625 16.5612 8.0824C16.1366 7.65855 15.5609 7.41999 14.9604 7.419C14.5124 7.419 14.0744 7.55162 13.7018 7.80009C13.3293 8.04856 13.0389 8.40172 12.8675 8.81491C12.696 9.2281 12.6511 9.68276 12.7386 10.1214C12.826 10.56 13.0417 10.963 13.3585 11.2792C13.6754 11.5954 14.079 11.8108 14.5185 11.8981C14.9579 11.9853 15.4134 11.9405 15.8274 11.7694C16.2413 11.5982 16.5951 11.3084 16.844 10.9365C17.093 10.5647 17.2258 10.1275 17.2258 9.68025ZM13.2638 9.6765C13.2638 9.22586 13.4432 8.79368 13.7624 8.47504C14.0816 8.15639 14.5146 7.97738 14.9661 7.97738C15.4175 7.97738 15.8505 8.15639 16.1697 8.47504C16.489 8.79368 16.6683 9.22586 16.6683 9.6765C16.6679 10.127 16.4884 10.559 16.1691 10.8775C15.8499 11.196 15.4171 11.3751 14.9657 11.3752C14.7422 11.3753 14.5208 11.3315 14.3143 11.2461C14.1078 11.1608 13.9201 11.0357 13.7621 10.8779C13.604 10.7202 13.4787 10.5328 13.3932 10.3267C13.3077 10.1206 13.2637 9.89961 13.2638 9.6765Z" fill="black"/>
</svg>
