<svg width="24" height="24" viewBox="0 0 24 24" fill="none" xmlns="http://www.w3.org/2000/svg">
<path fill-rule="evenodd" clip-rule="evenodd" d="M8.4 3C5.41766 3 3 5.41766 3 8.4V15.6C3 18.5823 5.41766 21 8.4 21H15.6C18.5823 21 21 18.5823 21 15.6V8.4C21 5.41766 18.5823 3 15.6 3H8.4ZM8.45651 14.2817C7.7032 13.8468 7.44509 12.8836 7.88002 12.1302L10.805 7.064C11.2399 6.31069 12.2032 6.05258 12.9565 6.48751C13.7098 6.92243 13.9679 7.88568 13.533 8.639L10.608 13.7052C10.1731 14.4586 9.20982 14.7167 8.45651 14.2817ZM7.14 17.805C7.93529 17.805 8.58 17.1603 8.58 16.365C8.58 15.5697 7.93529 14.925 7.14 14.925C6.34471 14.925 5.7 15.5697 5.7 16.365C5.7 17.1603 6.34471 17.805 7.14 17.805ZM16.86 17.805C17.6553 17.805 18.3 17.1603 18.3 16.365C18.3 15.5697 17.6553 14.925 16.86 14.925C16.0648 14.925 15.42 15.5697 15.42 16.365C15.42 17.1603 16.0648 17.805 16.86 17.805ZM10.5375 15.676C10.1026 16.4293 10.3607 17.3925 11.114 17.8275C11.8673 18.2624 12.8306 18.0043 13.2655 17.251L15.7405 12.9641C16.1754 12.2108 15.9173 11.2476 15.164 10.8127C14.4107 10.3777 13.4474 10.6358 13.0125 11.3891L10.5375 15.676Z" fill="black"/>
</svg>
