<svg width="24" height="24" viewBox="0 0 24 24" fill="none" xmlns="http://www.w3.org/2000/svg">
<path d="M12 3C7.05 3 3 7.05 3 12C3 16.95 7.05 21 12 21C16.95 21 21 16.95 21 12C21 7.05 16.995 3 12 3ZM16.1407 16.005C15.9607 16.2743 15.6458 16.365 15.375 16.185C13.26 14.88 10.605 14.6092 7.45425 15.3292C7.14075 15.4207 6.87 15.195 6.78 14.925C6.69 14.6093 6.915 14.34 7.185 14.25C10.605 13.4843 13.575 13.8 15.915 15.24C16.23 15.375 16.2743 15.7343 16.1407 16.005ZM17.2208 13.53C16.995 13.845 16.59 13.98 16.2743 13.755C13.845 12.27 10.155 11.82 7.32 12.72C6.96075 12.81 6.555 12.63 6.465 12.27C6.375 11.91 6.555 11.5042 6.915 11.4142C10.2 10.425 14.25 10.9208 17.04 12.63C17.3107 12.7657 17.445 13.215 17.2208 13.53ZM17.3107 11.01C14.43 9.3 9.615 9.12 6.87 9.97575C6.42 10.11 5.97 9.84 5.835 9.435C5.7 8.98425 5.97 8.535 6.375 8.39925C9.57 7.45425 14.835 7.63425 18.1658 9.615C18.57 9.84 18.705 10.38 18.48 10.785C18.2557 11.1007 17.715 11.2343 17.3107 11.01Z" fill="black"/>
</svg>
