<svg width="24" height="24" viewBox="0 0 24 24" fill="none" xmlns="http://www.w3.org/2000/svg">
<path d="M15.3408 13.2214C16.655 13.2214 18.5575 12.9341 18.5575 11.2809C18.5609 11.1533 18.5497 11.0258 18.5242 10.9011L17.7408 7.30557C17.5608 6.51421 17.4025 6.15554 16.0892 5.46111C15.07 4.91033 12.8492 4 12.1925 4C11.5817 4 11.4033 4.83366 10.6742 4.83366C9.9725 4.83366 9.45167 4.2115 8.795 4.2115C8.16417 4.2115 7.75333 4.66534 7.43667 5.60035C7.43667 5.60035 6.55333 8.23529 6.43917 8.61776C6.42088 8.68802 6.41301 8.76085 6.41583 8.83366C6.41583 9.85768 10.23 13.217 15.3408 13.217M18.7583 11.9524C18.94 12.8619 18.94 12.957 18.94 13.0778C18.94 14.6332 17.2867 15.4968 15.1125 15.4968C10.2 15.5003 5.89583 12.4556 5.89583 10.4437C5.89473 10.1633 5.94864 9.88577 6.05417 9.62855C4.28833 9.72197 2 10.056 2 12.1912C2 15.6889 9.8375 20 16.0425 20C20.8008 20 22 17.7246 22 15.9286C22 14.5142 20.8442 12.9103 18.7608 11.9524" fill="black"/>
</svg>
