<svg width="24" height="24" viewBox="0 0 24 24" fill="none" xmlns="http://www.w3.org/2000/svg">
<path d="M21.3959 5.04873L15.9484 5.93758L16.895 3L9.33556 4.32602L9.21778 6.10633L2.59477 5.04658C2.13862 5.02282 1.87283 5.31606 2.06118 5.7232L11.6457 20.7695C11.852 21.0709 12.3269 21.0827 12.5352 20.7695L21.9333 5.72176C22.1454 5.38159 21.8205 4.98285 21.3959 5.04873ZM12.0885 20.357L2.70178 5.62111L9.18134 6.6579L8.87588 11.2762L11.5319 10.7275L10.7913 13.9739L12.8089 13.4252L11.8076 17.7634C11.7578 18.0471 12.1705 18.198 12.3747 17.7919L18.2741 7.25239L15.3627 7.75541L15.7588 6.52627L21.2926 5.62332L12.0885 20.357Z" fill="black"/>
</svg>
