<svg width="24" height="24" viewBox="0 0 24 24" fill="none" xmlns="http://www.w3.org/2000/svg">
<path d="M16.8 10.875C16.3032 9.21337 14.5368 8.0625 12.6 8.0625C12.0471 8.058 11.4988 8.15677 10.9871 8.35305C10.4753 8.54934 10.0104 8.8392 9.61945 9.20573C9.22848 9.57226 8.9193 10.0081 8.70993 10.4879C8.50056 10.9676 8.3952 11.4817 8.4 12C8.3952 12.5183 8.50056 13.0324 8.70993 13.5121C8.9193 13.9919 9.22848 14.4277 9.61945 14.7943C10.0104 15.1608 10.4753 15.4507 10.9871 15.6469C11.4988 15.8432 12.0471 15.942 12.6 15.9375C13.7688 15.9375 14.8332 15.5359 15.6 14.8125L21 19.875V3H12.6C7.3368 3 3 7.02975 3 12C3 16.9702 7.3368 21 12.6 21C13.8368 21.0015 15.061 20.7665 16.1976 20.3092" stroke="black" stroke-width="2" stroke-linecap="round" stroke-linejoin="round"/>
</svg>
