<svg width="24" height="24" viewBox="0 0 24 24" fill="none" xmlns="http://www.w3.org/2000/svg">
<path d="M3.17069 9.27708C3.17069 9.27708 2.73328 8.95699 3.25889 8.53142L4.48472 7.42293C4.57564 7.32291 4.70123 7.26217 4.83535 7.25337C4.96947 7.24456 5.10178 7.28836 5.20475 7.37564L16.5154 16.0317V20.1838C16.5154 20.1838 16.5154 20.8348 15.681 20.7621L3.17069 9.27708Z" fill="black"/>
<path d="M6.07867 11.9524L3.17069 14.6313C3.17069 14.6313 2.87188 14.8568 3.17069 15.2587L4.52433 16.5036C4.52433 16.5036 4.84743 16.8528 5.32265 16.4564L8.41513 14.0911L6.07867 11.9506V11.9524ZM11.1989 11.9751L16.5496 7.84668L16.5154 3.72735C16.5154 3.72735 16.2868 2.81801 15.5253 3.28723L8.40613 9.83724L11.1989 11.9751Z" fill="black"/>
<path d="M15.681 20.7685C15.7678 20.8606 15.8765 20.9287 15.9967 20.9664C16.1169 21.0042 16.2446 21.0102 16.3678 20.984L20.5367 18.9079C21.0767 18.5442 20.9957 18.0859 20.9957 18.0859V5.69154C20.9957 5.14502 20.4449 4.96315 20.4449 4.96315L16.8304 3.19812C16.041 2.70525 15.5253 3.28723 15.5253 3.28723C15.5253 3.28723 16.1896 2.80346 16.5154 3.72735V20.1046C16.5164 20.2167 16.4917 20.3275 16.4434 20.4284C16.348 20.6211 16.1428 20.803 15.6468 20.7266L15.681 20.7685Z" fill="black"/>
</svg>
