<svg width="24" height="24" viewBox="0 0 24 24" fill="none" xmlns="http://www.w3.org/2000/svg">
<mask id="path-1-inside-1_17_791" fill="white">
<path d="M13.4582 10.5418C15.2137 12.2973 16.5344 14.0945 17.2644 15.5544C17.6319 16.2895 17.8227 16.8858 17.8737 17.3162C17.8988 17.5276 17.8861 17.6665 17.8666 17.7479C17.8573 17.7867 17.8474 17.8088 17.8417 17.8194C17.8365 17.8293 17.8328 17.8328 17.8328 17.8328C17.8328 17.8328 17.829 17.8366 17.8194 17.8417C17.8088 17.8474 17.7867 17.8573 17.7479 17.8666C17.6665 17.8861 17.5276 17.8988 17.3162 17.8737C16.8858 17.8227 16.2895 17.6319 15.5544 17.2644C15.4011 17.1877 15.2441 17.1046 15.0838 17.015C14.7221 17.2277 14.34 17.4029 13.9434 17.5381C16.0435 18.8481 17.8173 19.3065 18.5619 18.5619C19.7699 17.3539 17.8114 13.4367 14.1873 9.81269C10.5633 6.18864 6.64609 4.23006 5.43807 5.43808C4.7566 6.11954 5.08285 7.66316 6.14734 9.52994C6.29438 9.13366 6.48219 8.75199 6.70872 8.39139C6.35875 7.68119 6.17604 7.10362 6.12628 6.68379C6.10123 6.47239 6.11391 6.33348 6.13337 6.25212C6.14266 6.21332 6.1526 6.19116 6.15825 6.18056C6.16336 6.17097 6.16713 6.16723 6.16713 6.16723C6.16713 6.16723 6.17096 6.16337 6.18055 6.15826C6.19115 6.15261 6.21331 6.14266 6.25212 6.13338C6.33348 6.11391 6.47238 6.10123 6.68379 6.12629C7.11424 6.1773 7.71051 6.36809 8.44555 6.73561C9.90546 7.46557 11.7027 8.78633 13.4582 10.5418Z"/>
<path d="M6.60168 14.7962C6.49542 14.7928 6.39134 14.788 6.28956 14.7819C5.46924 14.7326 4.85746 14.5997 4.45917 14.4287C4.26356 14.3447 4.14961 14.2642 4.08888 14.2067C4.05991 14.1793 4.0457 14.1596 4.03934 14.1494C4.03359 14.1402 4.03223 14.135 4.03223 14.135C4.03223 14.135 4.03081 14.1298 4.03118 14.1189C4.03159 14.1069 4.03405 14.0828 4.04542 14.0445C4.06924 13.9643 4.12771 13.8377 4.25511 13.6671C4.51452 13.3198 4.97788 12.8988 5.66368 12.446C7.0258 11.5467 9.06825 10.6506 11.4663 10.0081C13.8643 9.36551 16.0811 9.12033 17.7104 9.21813C18.5308 9.26736 19.1425 9.40027 19.5408 9.57132C19.7364 9.65532 19.8504 9.73576 19.9111 9.7933C19.9401 9.82074 19.9543 9.84043 19.9607 9.85062C19.9664 9.85984 19.9678 9.86497 19.9678 9.86497C19.9678 9.86497 19.9692 9.87022 19.9688 9.88108C19.9684 9.89309 19.9659 9.91725 19.9546 9.9555C19.9308 10.0357 19.8723 10.1623 19.7449 10.3329C19.4855 10.6802 19.0221 11.1012 18.3363 11.554C18.2705 11.5974 18.2031 11.6408 18.1342 11.6842C18.134 12.1124 18.0895 12.5398 18.0009 12.9594C20.043 11.8282 21.2265 10.5786 20.9638 9.59817C20.5216 7.94799 16.1499 7.68559 11.1994 9.01208C6.24884 10.3386 2.59408 12.7516 3.03624 14.4018C3.30172 15.3926 4.98374 15.8831 7.35709 15.8298C7.20127 15.6574 7.05506 15.476 6.91927 15.2866C6.80601 15.1286 6.7 14.965 6.60168 14.7962Z"/>
<path d="M13.9919 12.5337C13.3494 14.9318 12.4533 16.9742 11.5539 18.3363C11.1011 19.0221 10.6802 19.4855 10.3329 19.7449C10.1623 19.8723 10.0357 19.9308 9.95549 19.9546C9.91724 19.9659 9.89308 19.9684 9.88108 19.9688C9.87022 19.9692 9.86509 19.9678 9.86509 19.9678C9.86509 19.9678 9.85983 19.9664 9.85062 19.9607C9.84042 19.9543 9.82073 19.9401 9.79329 19.9111C9.73575 19.8504 9.65531 19.7364 9.57131 19.5408C9.40026 19.1425 9.26735 18.5308 9.21812 17.7104C9.20872 17.5539 9.20249 17.392 9.19948 17.2251C8.83523 17.0445 8.49115 16.8291 8.17164 16.583C8.10867 18.9879 8.59906 20.696 9.59816 20.9638C11.2483 21.4059 13.6614 17.7512 14.9879 12.8006C16.3144 7.85006 16.052 3.47841 14.4018 3.03624C13.4994 2.79445 12.3689 3.77781 11.3127 5.52826C11.7193 5.4863 12.1304 5.48461 12.5399 5.524C12.957 4.9145 13.3439 4.4965 13.6671 4.25511C13.8377 4.12771 13.9643 4.06924 14.0445 4.04542C14.0827 4.03405 14.1069 4.03159 14.1189 4.03118C14.1298 4.03081 14.1349 4.0322 14.1349 4.0322C14.1349 4.0322 14.1401 4.03359 14.1494 4.03934C14.1596 4.0457 14.1793 4.05991 14.2067 4.08888C14.2642 4.14961 14.3447 4.26356 14.4287 4.45917C14.5997 4.85746 14.7326 5.46924 14.7819 6.28956C14.8797 7.91886 14.6345 10.1357 13.9919 12.5337Z"/>
</mask>
<path d="M17.2644 15.5544L16.37 16.0017V16.0017L17.2644 15.5544ZM13.4582 10.5418L12.7511 11.2489L13.4582 10.5418ZM17.8737 17.3162L16.8807 17.4339V17.4339L17.8737 17.3162ZM17.8666 17.7479L18.8392 17.9806L18.8392 17.9805L17.8666 17.7479ZM17.8417 17.8194L16.9592 17.3491L16.9592 17.3492L17.8417 17.8194ZM17.8328 17.8328L17.14 17.1117L17.1317 17.1197L17.1235 17.1279L17.8328 17.8328ZM17.8194 17.8417L17.3492 16.9592L17.3491 16.9592L17.8194 17.8417ZM17.7479 17.8666L17.9805 18.8392L17.9806 18.8392L17.7479 17.8666ZM17.3162 17.8737L17.4339 16.8807H17.4339L17.3162 17.8737ZM15.5544 17.2644L15.1072 18.1588H15.1072L15.5544 17.2644ZM15.0838 17.015L15.5712 16.1419L15.0708 15.8625L14.5768 16.153L15.0838 17.015ZM13.9434 17.5381L13.6208 16.5916L11.6264 17.2714L13.4142 18.3865L13.9434 17.5381ZM18.5619 18.5619L19.269 19.269V19.269L18.5619 18.5619ZM14.1873 9.81269L14.8944 9.10559L14.1873 9.81269ZM5.43807 5.43808L6.14518 6.14518L5.43807 5.43808ZM6.14734 9.52994L5.27864 10.0253L6.3397 11.8861L7.08487 9.87782L6.14734 9.52994ZM6.70872 8.39139L7.5555 8.92333L7.8526 8.45038L7.60572 7.94937L6.70872 8.39139ZM6.12628 6.68379L7.11933 6.5661V6.5661L6.12628 6.68379ZM6.13337 6.25212L5.16082 6.01945L5.16082 6.01945L6.13337 6.25212ZM6.15825 6.18056L5.27577 5.71021L5.27576 5.71023L6.15825 6.18056ZM6.16713 6.16723L6.87203 6.87656L6.87642 6.87214L6.16713 6.16723ZM6.18055 6.15826L5.71023 5.27576L5.71021 5.27577L6.18055 6.15826ZM6.25212 6.13338L6.01944 5.16082L6.01944 5.16082L6.25212 6.13338ZM6.68379 6.12629L6.5661 7.11934H6.5661L6.68379 6.12629ZM8.44555 6.73561L7.99834 7.63004L8.44555 6.73561ZM6.28956 14.7819L6.22965 15.7801H6.22965L6.28956 14.7819ZM6.60168 14.7962L7.46578 14.2929L7.18715 13.8145L6.63384 13.7967L6.60168 14.7962ZM4.45917 14.4287L4.06457 15.3475H4.06457L4.45917 14.4287ZM4.08888 14.2067L3.4011 14.9326L3.40111 14.9326L4.08888 14.2067ZM4.03934 14.1494L4.8879 13.6203L4.88786 13.6202L4.03934 14.1494ZM4.03223 14.135L4.99896 13.8791L4.99764 13.8743L4.03223 14.135ZM4.03118 14.1189L5.0306 14.153L5.0306 14.1529L4.03118 14.1189ZM4.04542 14.0445L3.08683 13.7597L3.08682 13.7597L4.04542 14.0445ZM4.25511 13.6671L3.45395 13.0687H3.45395L4.25511 13.6671ZM5.66368 12.446L5.11269 11.6115L5.66368 12.446ZM11.4663 10.0081L11.7251 10.974H11.7251L11.4663 10.0081ZM17.7104 9.21813L17.7704 8.21992L17.7104 9.21813ZM19.5408 9.57132L19.1462 10.4902L19.1462 10.4902L19.5408 9.57132ZM19.9111 9.7933L19.2233 10.5192L19.2233 10.5192L19.9111 9.7933ZM19.9607 9.85062L20.8092 9.32157L20.8092 9.32146L19.9607 9.85062ZM19.9678 9.86497L19.0011 10.1209L19.0027 10.1268L19.9678 9.86497ZM19.9688 9.88108L20.9682 9.91498L20.9683 9.91493L19.9688 9.88108ZM19.9546 9.9555L20.9132 10.2403V10.2403L19.9546 9.9555ZM19.7449 10.3329L18.9437 9.73444H18.9437L19.7449 10.3329ZM18.3363 11.554L18.8873 12.3885L18.3363 11.554ZM18.1342 11.6842L17.6014 10.838L17.1344 11.132L17.1342 11.6839L18.1342 11.6842ZM18.0009 12.9594L17.0225 12.753L16.5707 14.8947L18.4855 13.8341L18.0009 12.9594ZM20.9638 9.59817L19.9978 9.85699L20.9638 9.59817ZM11.1994 9.01208L11.4582 9.97801L11.1994 9.01208ZM3.03624 14.4018L2.07032 14.6607V14.6607L3.03624 14.4018ZM7.35709 15.8298L7.37954 16.8296L9.56381 16.7805L8.09907 15.1594L7.35709 15.8298ZM11.5539 18.3363L10.7194 17.7853H10.7194L11.5539 18.3363ZM13.9919 12.5337L13.026 12.2749V12.2749L13.9919 12.5337ZM10.3329 19.7449L9.73443 18.9437L9.73443 18.9437L10.3329 19.7449ZM9.95549 19.9546L10.2403 20.9132L10.2403 20.9132L9.95549 19.9546ZM9.88108 19.9688L9.84718 18.9694L9.84705 18.9694L9.88108 19.9688ZM9.86509 19.9678L10.1274 19.0028L10.1207 19.001L9.86509 19.9678ZM9.85062 19.9607L10.3798 19.1122L10.3798 19.1121L9.85062 19.9607ZM9.79329 19.9111L9.06736 20.5989L9.06739 20.5989L9.79329 19.9111ZM9.57131 19.5408L8.65246 19.9354L8.65246 19.9354L9.57131 19.5408ZM9.21812 17.7104L10.2163 17.6505L9.21812 17.7104ZM9.19948 17.2251L10.1993 17.207L10.1883 16.5992L9.64365 16.3291L9.19948 17.2251ZM8.17164 16.583L8.78199 15.7908L7.22348 14.59L7.17199 16.5568L8.17164 16.583ZM9.59816 20.9638L9.85698 19.9978H9.85698L9.59816 20.9638ZM14.9879 12.8006L15.9538 13.0594L14.9879 12.8006ZM14.4018 3.03624L14.6606 2.07032L14.4018 3.03624ZM11.3127 5.52826L10.4564 5.01163L9.42028 6.72883L11.4153 6.52298L11.3127 5.52826ZM12.5399 5.524L12.4442 6.51941L13.0318 6.57594L13.3652 6.08871L12.5399 5.524ZM13.6671 4.25511L14.2656 5.05627L14.2656 5.05627L13.6671 4.25511ZM14.0445 4.04542L14.3293 5.00401L14.3293 5.00401L14.0445 4.04542ZM14.1189 4.03118L14.1528 5.0306H14.1528L14.1189 4.03118ZM14.1349 4.0322L13.8731 4.99734L13.879 4.99891L14.1349 4.0322ZM14.1494 4.03934L14.6785 3.19079L14.6784 3.19077L14.1494 4.03934ZM14.2067 4.08888L13.4808 4.77666L13.4808 4.77666L14.2067 4.08888ZM14.4287 4.45917L13.5098 4.85378V4.85378L14.4287 4.45917ZM14.7819 6.28956L15.7801 6.22965L14.7819 6.28956ZM6.91927 15.2866L7.73202 14.704L6.91927 15.2866ZM18.1588 15.1072C17.369 13.5277 15.9756 11.645 14.1653 9.83469L12.7511 11.2489C14.4517 12.9495 15.6998 14.6614 16.37 16.0017L18.1588 15.1072ZM18.8668 17.1985C18.797 16.6096 18.5537 15.8971 18.1588 15.1072L16.37 16.0017C16.7101 16.6819 16.8484 17.1619 16.8807 17.4339L18.8668 17.1985ZM18.8392 17.9805C18.8931 17.7553 18.9016 17.4929 18.8668 17.1985L16.8807 17.4339C16.8879 17.4951 16.888 17.5315 16.8875 17.5462C16.8869 17.5621 16.8858 17.5496 16.8941 17.5152L18.8392 17.9805ZM18.7242 18.2898C18.7739 18.1966 18.8122 18.0933 18.8392 17.9806L16.8941 17.5152C16.9025 17.48 16.9209 17.4211 16.9592 17.3491L18.7242 18.2898ZM17.8328 17.8328C18.5256 18.554 18.5258 18.5537 18.5261 18.5535C18.5262 18.5534 18.5264 18.5532 18.5266 18.553C18.5269 18.5527 18.5272 18.5524 18.5275 18.5521C18.5282 18.5515 18.5288 18.5509 18.5294 18.5503C18.5307 18.549 18.532 18.5478 18.5332 18.5466C18.5358 18.5441 18.5383 18.5416 18.5408 18.5391C18.5458 18.5341 18.5507 18.529 18.5556 18.5239C18.5654 18.5136 18.575 18.5032 18.5843 18.4926C18.603 18.4714 18.6206 18.4496 18.6372 18.4273C18.6705 18.3826 18.6994 18.3364 18.7243 18.2897L16.9592 17.3492C16.9789 17.3123 17.0032 17.2729 17.0334 17.2324C17.0484 17.2122 17.0648 17.1919 17.0826 17.1716C17.0915 17.1615 17.1008 17.1514 17.1103 17.1414C17.1151 17.1364 17.12 17.1314 17.1249 17.1265C17.1274 17.124 17.1299 17.1215 17.1324 17.1191C17.1337 17.1178 17.135 17.1166 17.1362 17.1154C17.1369 17.1147 17.1375 17.1141 17.1381 17.1135C17.1384 17.1132 17.1388 17.1129 17.1391 17.1126C17.1392 17.1124 17.1395 17.1122 17.1396 17.1121C17.1398 17.1119 17.14 17.1117 17.8328 17.8328ZM18.2897 18.7243C18.3375 18.6988 18.3829 18.6701 18.4255 18.6385C18.4467 18.6228 18.4671 18.6064 18.4866 18.5895C18.4964 18.5811 18.5059 18.5725 18.5151 18.5639C18.5197 18.5596 18.5243 18.5552 18.5288 18.5509C18.5311 18.5487 18.5333 18.5465 18.5355 18.5443C18.5366 18.5432 18.5377 18.5421 18.5388 18.541C18.5394 18.5405 18.5399 18.5399 18.5405 18.5394C18.5407 18.5391 18.541 18.5388 18.5413 18.5386C18.5414 18.5384 18.5416 18.5382 18.5417 18.5381C18.5419 18.5379 18.5421 18.5377 17.8328 17.8328C17.1235 17.1279 17.1237 17.1277 17.1239 17.1275C17.124 17.1274 17.1242 17.1272 17.1243 17.1271C17.1246 17.1268 17.1249 17.1265 17.1252 17.1263C17.1257 17.1257 17.1263 17.1252 17.1268 17.1246C17.1279 17.1235 17.129 17.1224 17.1301 17.1213C17.1323 17.1192 17.1345 17.117 17.1367 17.1149C17.1412 17.1106 17.1457 17.1063 17.1502 17.1021C17.1592 17.0937 17.1683 17.0855 17.1775 17.0775C17.196 17.0615 17.2149 17.0464 17.234 17.0322C17.2723 17.0038 17.311 16.9796 17.3492 16.9592L18.2897 18.7243ZM17.9806 18.8392C18.0933 18.8122 18.1966 18.7739 18.2898 18.7242L17.3491 16.9592C17.4211 16.9209 17.48 16.9025 17.5152 16.8941L17.9806 18.8392ZM17.1985 18.8668C17.4929 18.9017 17.7553 18.8931 17.9805 18.8392L17.5152 16.8941C17.5496 16.8858 17.5621 16.8869 17.5462 16.8875C17.5315 16.888 17.4951 16.8879 17.4339 16.8807L17.1985 18.8668ZM15.1072 18.1588C15.8971 18.5537 16.6096 18.797 17.1985 18.8668L17.4339 16.8807C17.1619 16.8484 16.6819 16.7101 16.0017 16.37L15.1072 18.1588ZM14.5963 17.8882C14.769 17.9846 14.9395 18.0749 15.1072 18.1588L16.0017 16.37C15.8628 16.3005 15.7192 16.2245 15.5712 16.1419L14.5963 17.8882ZM14.5768 16.153C14.2737 16.3313 13.9533 16.4782 13.6208 16.5916L14.2661 18.4846C14.7267 18.3276 15.1706 18.1241 15.5907 17.877L14.5768 16.153ZM13.4142 18.3865C14.5139 19.0725 15.5879 19.575 16.5351 19.7946C17.4299 20.0021 18.5182 20.0199 19.269 19.269L17.8548 17.8548C17.852 17.8577 17.8442 17.865 17.8229 17.8747C17.7999 17.8851 17.7572 17.8998 17.6869 17.9094C17.54 17.9293 17.3108 17.9214 16.9869 17.8463C16.336 17.6954 15.473 17.3136 14.4727 16.6896L13.4142 18.3865ZM19.269 19.269C19.8806 18.6575 19.9781 17.815 19.8907 17.0772C19.8016 16.3251 19.5043 15.4927 19.0811 14.6461C18.2296 12.9431 16.7613 10.9725 14.8944 9.10559L13.4802 10.5198C15.2374 12.277 16.5604 14.0769 17.2922 15.5405C17.6606 16.2773 17.853 16.8772 17.9046 17.3125C17.93 17.5265 17.9174 17.6693 17.8969 17.7551C17.878 17.8338 17.8559 17.8537 17.8548 17.8548L19.269 19.269ZM14.8944 9.10559C13.0275 7.23871 11.0569 5.77041 9.35389 4.91893C8.50734 4.49565 7.67492 4.19843 6.92283 4.10929C6.18499 4.02185 5.34249 4.11944 4.73096 4.73097L6.14518 6.14518C6.14628 6.14408 6.16616 6.12196 6.24488 6.10313C6.33072 6.08259 6.47346 6.07004 6.68745 6.0954C7.12283 6.14699 7.72272 6.33941 8.45946 6.70779C9.9231 7.4396 11.723 8.76263 13.4802 10.5198L14.8944 9.10559ZM4.73096 4.73097C4.04198 5.41995 4.00305 6.39638 4.15444 7.22024C4.31199 8.07767 4.71707 9.04047 5.27864 10.0253L7.01603 9.03459C6.51311 8.15263 6.22283 7.41022 6.12151 6.85879C6.07132 6.5857 6.07467 6.39731 6.09585 6.27979C6.10597 6.22361 6.11905 6.18974 6.12788 6.17165C6.13613 6.15475 6.14232 6.14804 6.14518 6.14518L4.73096 4.73097ZM7.08487 9.87782C7.20816 9.54557 7.36561 9.2256 7.5555 8.92333L5.86193 7.85945C5.59877 8.27837 5.3806 8.72174 5.2098 9.18206L7.08487 9.87782ZM5.13323 6.80148C5.20138 7.37652 5.43475 8.06841 5.81171 8.8334L7.60572 7.94937C7.28276 7.29396 7.15069 6.83073 7.11933 6.5661L5.13323 6.80148ZM5.16082 6.01945C5.10693 6.24471 5.09835 6.50711 5.13323 6.80148L7.11933 6.5661C7.11208 6.5049 7.11202 6.46855 7.11253 6.45383C7.11308 6.43794 7.11416 6.45038 7.10593 6.4848L5.16082 6.01945ZM5.27576 5.71023C5.22607 5.80346 5.1878 5.90669 5.16082 6.01945L7.10593 6.4848C7.09752 6.51994 7.07913 6.57885 7.04075 6.65088L5.27576 5.71023ZM6.16713 6.16723C5.46224 5.45791 5.46203 5.45811 5.46182 5.45832C5.46175 5.45839 5.46154 5.4586 5.46141 5.45874C5.46113 5.45901 5.46085 5.45929 5.46057 5.45957C5.46001 5.46012 5.45946 5.46068 5.4589 5.46124C5.45779 5.46235 5.45668 5.46347 5.45558 5.46459C5.45336 5.46684 5.45115 5.4691 5.44894 5.47137C5.44453 5.47592 5.44015 5.48053 5.43579 5.4852C5.42708 5.49454 5.41847 5.50412 5.41 5.51392C5.39304 5.53354 5.37666 5.55398 5.36092 5.57524C5.32937 5.61785 5.30095 5.66297 5.27577 5.71021L7.04074 6.6509C7.02067 6.68855 6.99668 6.72701 6.96829 6.76535C6.95413 6.78447 6.93902 6.80338 6.92292 6.822C6.91488 6.8313 6.90661 6.84051 6.89812 6.84961C6.89387 6.85416 6.88958 6.85868 6.88522 6.86317C6.88305 6.86541 6.88086 6.86765 6.87866 6.86988C6.87756 6.871 6.87645 6.87211 6.87534 6.87322C6.87479 6.87377 6.87424 6.87433 6.87368 6.87488C6.8734 6.87516 6.87313 6.87544 6.87285 6.87571C6.87271 6.87585 6.8725 6.87606 6.87243 6.87613C6.87222 6.87634 6.87201 6.87654 6.16713 6.16723ZM5.71021 5.27577C5.66189 5.30153 5.61631 5.33041 5.57371 5.36207C5.55248 5.37785 5.53217 5.39418 5.51281 5.41097C5.50313 5.41936 5.49371 5.42785 5.48455 5.43641C5.47996 5.44069 5.47545 5.44499 5.47099 5.44931C5.46877 5.45147 5.46656 5.45363 5.46437 5.4558C5.46327 5.45688 5.46218 5.45797 5.46109 5.45905C5.46055 5.45959 5.46 5.46013 5.45946 5.46068C5.45919 5.46095 5.45892 5.46122 5.45865 5.46149C5.45851 5.46163 5.45831 5.46183 5.45824 5.4619C5.45804 5.4621 5.45784 5.46231 6.16713 6.16723C6.87642 6.87214 6.87621 6.87235 6.87601 6.87255C6.87594 6.87262 6.87574 6.87282 6.8756 6.87296C6.87533 6.87323 6.87506 6.8735 6.87479 6.87377C6.87425 6.87431 6.87371 6.87485 6.87317 6.87539C6.87209 6.87648 6.871 6.87755 6.86991 6.87863C6.86773 6.88078 6.86555 6.88292 6.86335 6.88505C6.85896 6.88931 6.85454 6.89352 6.85008 6.89769C6.84116 6.90602 6.83211 6.91417 6.82294 6.92211C6.8046 6.93802 6.78585 6.95307 6.76678 6.96725C6.7285 6.9957 6.68963 7.0201 6.65089 7.04074L5.71021 5.27577ZM6.01944 5.16082C5.90669 5.1878 5.80346 5.22608 5.71023 5.27576L6.65088 7.04075C6.57885 7.07914 6.51994 7.09753 6.4848 7.10593L6.01944 5.16082ZM6.80148 5.13324C6.50711 5.09835 6.24471 5.10693 6.01944 5.16082L6.48479 7.10593C6.45037 7.11417 6.43794 7.11309 6.45382 7.11254C6.46854 7.11203 6.50489 7.11208 6.5661 7.11934L6.80148 5.13324ZM8.89276 5.84118C8.10293 5.44627 7.39037 5.20303 6.80148 5.13324L6.5661 7.11934C6.83811 7.15157 7.31809 7.28991 7.99834 7.63004L8.89276 5.84118ZM14.1653 9.83469C12.355 8.02437 10.4723 6.63097 8.89276 5.84118L7.99834 7.63004C9.33859 8.30016 11.0505 9.54829 12.7511 11.2489L14.1653 9.83469ZM6.22965 15.7801C6.34103 15.7868 6.45436 15.792 6.56952 15.7957L6.63384 13.7967C6.53647 13.7936 6.44166 13.7892 6.34948 13.7837L6.22965 15.7801ZM4.06457 15.3475C4.60946 15.5815 5.34818 15.7272 6.22965 15.7801L6.34948 13.7837C5.5903 13.7381 5.10546 13.6179 4.85378 13.5098L4.06457 15.3475ZM3.40111 14.9326C3.56924 15.0919 3.79219 15.2306 4.06457 15.3475L4.85378 13.5098C4.79714 13.4855 4.76563 13.4674 4.75314 13.4596C4.73966 13.4512 4.75097 13.4564 4.77665 13.4808L3.40111 14.9326ZM3.19078 14.6785C3.24666 14.7681 3.31691 14.8529 3.4011 14.9326L4.77666 13.4808C4.80292 13.5057 4.84473 13.551 4.8879 13.6203L3.19078 14.6785ZM4.03223 14.135C3.06552 14.3909 3.0656 14.3912 3.06568 14.3915C3.0657 14.3916 3.06578 14.3919 3.06583 14.392C3.06593 14.3924 3.06603 14.3928 3.06613 14.3932C3.06633 14.3939 3.06654 14.3947 3.06674 14.3955C3.06715 14.397 3.06756 14.3985 3.06798 14.4C3.06882 14.4031 3.06967 14.4061 3.07054 14.4091C3.07227 14.4152 3.07407 14.4213 3.07594 14.4274C3.07967 14.4397 3.08366 14.4519 3.08791 14.4641C3.09642 14.4886 3.10594 14.513 3.11648 14.5373C3.13761 14.5859 3.16248 14.6331 3.19082 14.6785L4.88786 13.6202C4.91045 13.6564 4.93177 13.6964 4.95078 13.7402C4.96026 13.762 4.96908 13.7846 4.97716 13.8078C4.98119 13.8194 4.98503 13.8312 4.98867 13.8431C4.99048 13.849 4.99225 13.855 4.99396 13.861C4.99482 13.864 4.99566 13.867 4.99649 13.8701C4.99691 13.8716 4.99732 13.8731 4.99773 13.8746C4.99793 13.8754 4.99814 13.8761 4.99834 13.8769C4.99844 13.8773 4.99854 13.8776 4.99864 13.878C4.99869 13.8782 4.99877 13.8785 4.99879 13.8786C4.99887 13.8789 4.99894 13.8791 4.03223 14.135ZM3.03176 14.0848C3.02989 14.1397 3.03213 14.1936 3.03822 14.2462C3.04126 14.2724 3.04523 14.298 3.05004 14.323C3.05245 14.3355 3.05506 14.3479 3.05786 14.36C3.05926 14.3661 3.06071 14.3721 3.06221 14.378C3.06295 14.381 3.06371 14.384 3.06448 14.3869C3.06487 14.3884 3.06525 14.3899 3.06564 14.3914C3.06584 14.3921 3.06603 14.3928 3.06623 14.3936C3.06633 14.3939 3.06643 14.3943 3.06653 14.3947C3.06658 14.3948 3.06665 14.3951 3.06667 14.3952C3.06675 14.3955 3.06682 14.3958 4.03223 14.135C4.99764 13.8743 4.99772 13.8746 4.99779 13.8748C4.99782 13.8749 4.99789 13.8752 4.99794 13.8754C4.99804 13.8758 4.99814 13.8761 4.99824 13.8765C4.99843 13.8772 4.99863 13.878 4.99882 13.8787C4.99921 13.8802 4.9996 13.8816 4.99998 13.8831C5.00074 13.886 5.00149 13.889 5.00223 13.8919C5.0037 13.8978 5.00512 13.9037 5.00648 13.9096C5.00921 13.9214 5.01171 13.9332 5.01399 13.945C5.01855 13.9687 5.02219 13.9923 5.02491 14.0159C5.03039 14.0631 5.0321 14.1089 5.0306 14.153L3.03176 14.0848ZM3.08682 13.7597C3.0538 13.8709 3.03534 13.9794 3.03175 14.085L5.0306 14.1529C5.02783 14.2344 5.01431 14.2946 5.00401 14.3293L3.08682 13.7597ZM3.45395 13.0687C3.27655 13.3062 3.15279 13.5377 3.08683 13.7597L5.00401 14.3293C4.99393 14.3632 4.98678 14.3734 4.99425 14.3594C5.00117 14.3464 5.01939 14.3149 5.05627 14.2656L3.45395 13.0687ZM5.11269 11.6115C4.37577 12.0981 3.80884 12.5936 3.45395 13.0687L5.05627 14.2656C5.2202 14.0461 5.57999 13.6996 6.21467 13.2806L5.11269 11.6115ZM11.2074 9.04213C8.7345 9.70475 6.58645 10.6385 5.11269 11.6115L6.21467 13.2806C7.46514 12.4549 9.402 11.5964 11.7251 10.974L11.2074 9.04213ZM17.7704 8.21992C16.0075 8.11411 13.6804 8.37951 11.2074 9.04213L11.7251 10.974C14.0482 10.3515 16.1548 10.1266 17.6505 10.2163L17.7704 8.21992ZM19.9354 8.65247C19.3905 8.41846 18.6518 8.27283 17.7704 8.21992L17.6505 10.2163C18.4097 10.2619 18.8945 10.3821 19.1462 10.4902L19.9354 8.65247ZM20.5989 9.06738C20.4308 8.90807 20.2078 8.76944 19.9354 8.65247L19.1462 10.4902C19.2029 10.5145 19.2344 10.5326 19.2469 10.5404C19.2603 10.5488 19.249 10.5436 19.2233 10.5192L20.5989 9.06738ZM20.8092 9.32146C20.7533 9.2319 20.6831 9.14715 20.5989 9.06738L19.2233 10.5192C19.1971 10.4943 19.1553 10.449 19.1121 10.3798L20.8092 9.32146ZM19.9678 9.86497C20.9345 9.60905 20.9344 9.60877 20.9343 9.60848C20.9343 9.60839 20.9342 9.6081 20.9342 9.60791C20.9341 9.60754 20.934 9.60716 20.9339 9.60678C20.9337 9.60602 20.9335 9.60526 20.9332 9.6045C20.9328 9.60298 20.9324 9.60146 20.932 9.59994C20.9312 9.5969 20.9303 9.59386 20.9295 9.59082C20.9277 9.58473 20.9259 9.57863 20.924 9.57252C20.9203 9.56031 20.9163 9.54808 20.9121 9.53585C20.9036 9.51136 20.8941 9.48697 20.8835 9.46273C20.8624 9.41413 20.8376 9.36698 20.8092 9.32157L19.1121 10.3797C19.0895 10.3435 19.0682 10.3035 19.0492 10.2598C19.0397 10.238 19.0309 10.2154 19.0228 10.1922C19.0188 10.1806 19.015 10.1688 19.0113 10.157C19.0095 10.151 19.0078 10.145 19.006 10.139C19.0052 10.136 19.0043 10.133 19.0035 10.13C19.0031 10.1285 19.0027 10.127 19.0023 10.1254C19.0021 10.1247 19.0019 10.1239 19.0017 10.1232C19.0016 10.1228 19.0015 10.1224 19.0014 10.122C19.0013 10.1218 19.0012 10.1216 19.0012 10.1215C19.0011 10.1212 19.0011 10.1209 19.9678 9.86497ZM20.9683 9.91493C20.9701 9.86021 20.9679 9.80629 20.9618 9.75358C20.9587 9.7273 20.9547 9.70155 20.9498 9.67639C20.9474 9.66382 20.9448 9.65142 20.9419 9.6392C20.9405 9.63309 20.9391 9.62703 20.9376 9.62102C20.9368 9.61801 20.936 9.61502 20.9352 9.61203C20.9349 9.61054 20.9345 9.60906 20.9341 9.60757C20.9339 9.60683 20.9337 9.60609 20.9335 9.60535C20.9334 9.60498 20.9333 9.60461 20.9332 9.60424C20.9331 9.60405 20.9331 9.60378 20.933 9.60368C20.933 9.60341 20.9329 9.60313 19.9678 9.86497C19.0027 10.1268 19.0026 10.1265 19.0025 10.1263C19.0025 10.1262 19.0024 10.1259 19.0024 10.1257C19.0023 10.1253 19.0022 10.125 19.0021 10.1246C19.0019 10.1239 19.0017 10.1231 19.0015 10.1224C19.0011 10.1209 19.0007 10.1194 19.0003 10.1179C18.9995 10.115 18.9988 10.112 18.998 10.1091C18.9965 10.1031 18.9951 10.0972 18.9937 10.0912C18.9909 10.0794 18.9884 10.0675 18.9861 10.0555C18.9815 10.0317 18.9779 10.0079 18.9751 9.98434C18.9696 9.93696 18.9679 9.8911 18.9694 9.84724L20.9683 9.91493ZM20.9132 10.2403C20.9462 10.1292 20.9647 10.0207 20.9682 9.91498L18.9694 9.84719C18.9722 9.76552 18.9857 9.70529 18.996 9.67073L20.9132 10.2403ZM20.5461 10.9313C20.7235 10.6938 20.8472 10.4623 20.9132 10.2403L18.996 9.67073C19.0061 9.63681 19.0132 9.62658 19.0057 9.64061C18.9988 9.65361 18.9806 9.68506 18.9437 9.73444L20.5461 10.9313ZM18.8873 12.3885C19.6242 11.9019 20.1912 11.4064 20.5461 10.9313L18.9437 9.73444C18.7798 9.95389 18.42 10.3004 17.7853 10.7194L18.8873 12.3885ZM18.667 12.5305C18.7418 12.4834 18.8153 12.436 18.8873 12.3885L17.7853 10.7194C17.7257 10.7588 17.6644 10.7983 17.6014 10.838L18.667 12.5305ZM17.1342 11.6839C17.1341 12.0429 17.0967 12.4012 17.0225 12.753L18.9794 13.1658C19.0822 12.6784 19.134 12.182 19.1342 11.6846L17.1342 11.6839ZM18.4855 13.8341C19.5579 13.2401 20.4692 12.5815 21.0902 11.8909C21.6811 11.2339 22.1949 10.3292 21.9297 9.33935L19.9978 9.85699C19.9989 9.8609 20.0011 9.87067 19.9993 9.89194C19.9973 9.91481 19.9901 9.95541 19.9666 10.0159C19.9176 10.1423 19.8095 10.3241 19.6031 10.5536C19.1875 11.0157 18.4861 11.5475 17.5164 12.0846L18.4855 13.8341ZM21.9297 9.33935C21.7058 8.50399 21.025 7.99823 20.3423 7.70503C19.6464 7.40618 18.7769 7.24738 17.8321 7.19067C15.9316 7.07659 13.4908 7.36283 10.9406 8.04616L11.4582 9.97801C13.8586 9.33484 16.0788 9.08903 17.7123 9.18708C18.5345 9.23643 19.1503 9.36973 19.5531 9.54274C19.7511 9.62777 19.8684 9.71001 19.9325 9.77071C19.9913 9.82639 19.9974 9.85549 19.9978 9.85699L21.9297 9.33935ZM10.9406 8.04616C8.39037 8.72948 6.13345 9.70199 4.54456 10.7511C3.75471 11.2726 3.0811 11.8448 2.62786 12.4516C2.18321 13.0469 1.84648 13.8253 2.07032 14.6607L4.00217 14.143C4.00177 14.1415 3.99255 14.1132 4.0156 14.0356C4.04073 13.951 4.10123 13.8211 4.23019 13.6485C4.49256 13.2972 4.95915 12.8739 5.64654 12.4201C7.01213 11.5184 9.05786 10.6212 11.4582 9.97801L10.9406 8.04616ZM2.07032 14.6607C2.33827 15.6607 3.25078 16.1879 4.10179 16.4599C4.99805 16.7463 6.13423 16.8575 7.37954 16.8296L7.33463 14.8301C6.2066 14.8554 5.31509 14.748 4.71064 14.5548C4.41025 14.4588 4.22075 14.3541 4.11184 14.2676C4.05974 14.2262 4.03235 14.1939 4.01879 14.1746C4.00618 14.1567 4.00322 14.1469 4.00217 14.143L2.07032 14.6607ZM12.3885 18.8873C13.3615 17.4135 14.2952 15.2655 14.9579 12.7926L13.026 12.2749C12.4035 14.598 11.5451 16.5349 10.7194 17.7853L12.3885 18.8873ZM10.9313 20.5461C11.4064 20.1912 11.9019 19.6242 12.3885 18.8873L10.7194 17.7853C10.3004 18.42 9.95388 18.7798 9.73443 18.9437L10.9313 20.5461ZM10.2403 20.9132C10.4623 20.8472 10.6938 20.7235 10.9313 20.5461L9.73443 18.9437C9.68505 18.9806 9.6536 18.9988 9.6406 19.0058C9.62657 19.0132 9.63679 19.0061 9.6707 18.996L10.2403 20.9132ZM9.91497 20.9682C10.0206 20.9647 10.1292 20.9462 10.2403 20.9132L9.67072 18.996C9.70533 18.9857 9.76556 18.9722 9.84718 18.9694L9.91497 20.9682ZM9.86509 19.9678C9.60283 20.9328 9.60312 20.9329 9.6034 20.933C9.6035 20.933 9.60378 20.9331 9.60397 20.9331C9.60435 20.9332 9.60473 20.9333 9.60511 20.9334C9.60587 20.9336 9.60663 20.9338 9.60739 20.934C9.60892 20.9344 9.61044 20.9348 9.61197 20.9352C9.61503 20.936 9.61809 20.9368 9.62117 20.9376C9.62732 20.9391 9.63352 20.9406 9.63975 20.9421C9.65222 20.945 9.66483 20.9476 9.67758 20.9501C9.70309 20.955 9.72903 20.959 9.75535 20.962C9.80812 20.968 9.8615 20.9701 9.9151 20.9682L9.84705 18.9694C9.88979 18.9679 9.93518 18.9695 9.98268 18.9749C10.0064 18.9776 10.0303 18.9813 10.0546 18.9859C10.0666 18.9883 10.0788 18.9908 10.0909 18.9936C10.097 18.995 10.1031 18.9965 10.1091 18.998C10.1122 18.9988 10.1152 18.9996 10.1182 19.0004C10.1198 19.0008 10.1213 19.0012 10.1228 19.0016C10.1236 19.0018 10.1243 19.002 10.1251 19.0022C10.1255 19.0023 10.1258 19.0024 10.1262 19.0025C10.1264 19.0025 10.1267 19.0026 10.1268 19.0026C10.1271 19.0027 10.1274 19.0028 9.86509 19.9678ZM9.32138 20.8091C9.36791 20.8382 9.41578 20.8632 9.46456 20.8843C9.48888 20.8948 9.51321 20.9042 9.53746 20.9126C9.54958 20.9168 9.56166 20.9207 9.57368 20.9244C9.57968 20.9262 9.58568 20.928 9.59165 20.9297C9.59463 20.9305 9.59761 20.9314 9.60059 20.9322C9.60208 20.9326 9.60356 20.933 9.60505 20.9334C9.60579 20.9336 9.60653 20.9338 9.60728 20.934C9.60765 20.9341 9.60802 20.9342 9.60839 20.9343C9.60857 20.9343 9.60885 20.9344 9.60894 20.9344C9.60922 20.9345 9.6095 20.9346 9.86509 19.9678C10.1207 19.001 10.121 19.0011 10.1212 19.0012C10.1213 19.0012 10.1216 19.0013 10.1218 19.0013C10.1222 19.0014 10.1225 19.0015 10.1229 19.0016C10.1237 19.0018 10.1244 19.002 10.1251 19.0022C10.1266 19.0026 10.1281 19.003 10.1296 19.0034C10.1325 19.0042 10.1355 19.005 10.1384 19.0059C10.1443 19.0076 10.1502 19.0093 10.156 19.0111C10.1677 19.0146 10.1793 19.0184 10.1908 19.0224C10.2138 19.0303 10.2362 19.039 10.2581 19.0485C10.3019 19.0674 10.3425 19.0889 10.3798 19.1122L9.32138 20.8091ZM9.06739 20.5989C9.14716 20.6831 9.2319 20.7533 9.32146 20.8092L10.3798 19.1121C10.4489 19.1553 10.4943 19.1971 10.5192 19.2233L9.06739 20.5989ZM8.65246 19.9354C8.76943 20.2078 8.90806 20.4308 9.06736 20.5989L10.5192 19.2234C10.5436 19.249 10.5488 19.2603 10.5404 19.2469C10.5326 19.2344 10.5145 19.2029 10.4902 19.1462L8.65246 19.9354ZM8.21991 17.7704C8.27282 18.6518 8.41845 19.3905 8.65246 19.9354L10.4902 19.1462C10.3821 18.8945 10.2619 18.4097 10.2163 17.6505L8.21991 17.7704ZM8.19964 17.2431C8.2029 17.4232 8.20964 17.5991 8.21991 17.7704L10.2163 17.6505C10.2078 17.5088 10.2021 17.3608 10.1993 17.207L8.19964 17.2431ZM9.64365 16.3291C9.33831 16.1777 9.04986 15.9972 8.78199 15.7908L7.56129 17.3751C7.93243 17.6611 8.33214 17.9112 8.7553 18.121L9.64365 16.3291ZM7.17199 16.5568C7.13897 17.8178 7.24726 18.9682 7.53277 19.8751C7.80343 20.7348 8.33122 21.6596 9.33934 21.9297L9.85698 19.9978C9.85307 19.9968 9.84313 19.9938 9.82487 19.9809C9.8052 19.967 9.77236 19.9389 9.73032 19.8855C9.64244 19.774 9.53678 19.5805 9.44047 19.2745C9.24676 18.6592 9.14135 17.753 9.1713 16.6091L7.17199 16.5568ZM9.33934 21.9297C10.1747 22.1535 10.9531 21.8168 11.5484 21.3721C12.1552 20.9189 12.7274 20.2453 13.2489 19.4554C14.298 17.8666 15.2705 15.6096 15.9538 13.0594L14.022 12.5418C13.3788 14.9421 12.4815 16.9879 11.5799 18.3535C11.1261 19.0409 10.7027 19.5074 10.3515 19.7698C10.1789 19.8988 10.049 19.9593 9.96435 19.9844C9.88676 20.0075 9.85848 19.9982 9.85698 19.9978L9.33934 21.9297ZM15.9538 13.0594C16.6372 10.5092 16.9234 8.06842 16.8093 6.16787C16.7526 5.22309 16.5938 4.35359 16.295 3.65769C16.0018 2.97498 15.496 2.29415 14.6606 2.07032L14.143 4.00217C14.1445 4.00257 14.1736 4.00873 14.2293 4.06749C14.29 4.13156 14.3722 4.2489 14.4573 4.4469C14.6303 4.84975 14.7636 5.46547 14.8129 6.2877C14.911 7.92115 14.6652 10.1414 14.022 12.5418L15.9538 13.0594ZM14.6606 2.07032C13.7478 1.82571 12.9057 2.24723 12.2792 2.76326C11.6308 3.29729 11.0154 4.08534 10.4564 5.01163L12.1689 6.0449C12.6662 5.22073 13.1441 4.64188 13.5507 4.30706C13.7516 4.14155 13.9068 4.05923 14.0114 4.02336C14.108 3.99024 14.1426 4.00206 14.143 4.00217L14.6606 2.07032ZM11.4153 6.52298C11.7562 6.4878 12.1009 6.48639 12.4442 6.51941L12.6357 4.5286C12.16 4.48284 11.6824 4.48481 11.21 4.53355L11.4153 6.52298ZM13.0687 3.45395C12.6251 3.78529 12.1659 4.29971 11.7146 4.95929L13.3652 6.08871C13.748 5.52929 14.0628 5.20772 14.2656 5.05627L13.0687 3.45395ZM13.7597 3.08682C13.5377 3.15278 13.3061 3.27655 13.0687 3.45395L14.2656 5.05627C14.3149 5.01939 14.3464 5.00116 14.3594 4.99425C14.3734 4.98678 14.3632 4.99393 14.3293 5.00401L13.7597 3.08682ZM14.085 3.03175C13.9794 3.03534 13.8709 3.05381 13.7597 3.08682L14.3293 5.00401C14.2946 5.0143 14.2344 5.02783 14.1528 5.0306L14.085 3.03175ZM14.1349 4.0322C14.3967 3.06708 14.3964 3.067 14.3961 3.06693C14.396 3.0669 14.3958 3.06683 14.3956 3.06677C14.3952 3.06667 14.3948 3.06657 14.3944 3.06647C14.3937 3.06626 14.3929 3.06606 14.3922 3.06586C14.3906 3.06545 14.3891 3.06505 14.3876 3.06465C14.3845 3.06386 14.3815 3.06307 14.3784 3.0623C14.3723 3.06076 14.3661 3.05927 14.3598 3.05783C14.3474 3.05495 14.3348 3.05229 14.3221 3.04985C14.2966 3.04497 14.2707 3.04101 14.2445 3.03801C14.1918 3.03199 14.1385 3.02994 14.085 3.03175L14.1528 5.0306C14.1102 5.03205 14.0649 5.0305 14.0175 5.02509C13.9939 5.02239 13.9699 5.01876 13.9458 5.01412C13.9337 5.01181 13.9216 5.00926 13.9094 5.00645C13.9034 5.00505 13.8973 5.00359 13.8913 5.00207C13.8882 5.00131 13.8852 5.00053 13.8822 4.99974C13.8806 4.99934 13.8791 4.99894 13.8776 4.99854C13.8769 4.99834 13.8761 4.99813 13.8753 4.99793C13.875 4.99783 13.8746 4.99773 13.8742 4.99762C13.874 4.99757 13.8737 4.9975 13.8736 4.99747C13.8734 4.99739 13.8731 4.99732 14.1349 4.0322ZM14.6784 3.19077C14.632 3.16181 14.5842 3.13678 14.5355 3.11572C14.5112 3.10522 14.4869 3.09581 14.4627 3.08743C14.4506 3.08325 14.4386 3.07933 14.4266 3.07567C14.4206 3.07385 14.4146 3.07209 14.4086 3.07039C14.4056 3.06954 14.4026 3.06871 14.3997 3.06789C14.3982 3.06748 14.3967 3.06708 14.3952 3.06668C14.3945 3.06648 14.3937 3.06628 14.393 3.06608C14.3926 3.06598 14.3923 3.06589 14.3919 3.06579C14.3917 3.06574 14.3914 3.06566 14.3913 3.06564C14.3911 3.06557 14.3908 3.06549 14.1349 4.0322C13.879 4.99891 13.8787 4.99883 13.8784 4.99876C13.8784 4.99873 13.8781 4.99866 13.8779 4.99861C13.8775 4.99851 13.8771 4.99841 13.8768 4.99832C13.876 4.99812 13.8753 4.99792 13.8746 4.99772C13.8731 4.99732 13.8716 4.99692 13.8701 4.99651C13.8672 4.9957 13.8642 4.99488 13.8613 4.99404C13.8554 4.99237 13.8496 4.99064 13.8437 4.98887C13.832 4.98531 13.8205 4.98155 13.809 4.97758C13.7861 4.96964 13.7637 4.96094 13.7418 4.95151C13.6981 4.93258 13.6575 4.91113 13.6203 4.88791L14.6784 3.19077ZM14.9326 3.40111C14.8529 3.31692 14.7681 3.24667 14.6785 3.19079L13.6203 4.88789C13.551 4.84472 13.5056 4.80291 13.4808 4.77666L14.9326 3.40111ZM15.3475 4.06457C15.2306 3.7922 15.0919 3.56924 14.9326 3.4011L13.4808 4.77666C13.4564 4.75097 13.4512 4.73966 13.4596 4.75314C13.4674 4.76563 13.4855 4.79714 13.5098 4.85378L15.3475 4.06457ZM15.7801 6.22965C15.7272 5.34818 15.5815 4.60946 15.3475 4.06457L13.5098 4.85378C13.6179 5.10546 13.7381 5.5903 13.7837 6.34948L15.7801 6.22965ZM14.9579 12.7926C15.6205 10.3196 15.8859 7.9925 15.7801 6.22965L13.7837 6.34948C13.8734 7.84523 13.6485 9.95184 13.026 12.2749L14.9579 12.7926ZM8.09907 15.1594C7.96843 15.0148 7.84586 14.8628 7.73202 14.704L6.10652 15.8692C6.26427 16.0893 6.43411 16.2999 6.6151 16.5002L8.09907 15.1594ZM7.73202 14.704C7.63707 14.5715 7.5482 14.4344 7.46578 14.2929L5.73758 15.2995C5.85179 15.4956 5.97495 15.6857 6.10652 15.8692L7.73202 14.704Z" fill="black" mask="url(#path-1-inside-1_17_791)"/>
<path d="M15.0436 15.9791C15.4667 15.6539 15.835 15.2633 16.1348 14.8219M16.9999 12.0327C17.0034 11.3324 16.8598 10.6391 16.5786 9.99761M14.0945 7.46281C13.4588 7.16859 12.7684 7.01092 12.0679 7M8.85589 8.10016C8.30929 8.53824 7.86065 9.08604 7.53896 9.7082M7 12.4605C7.10649 13.6347 7.62385 14.7336 8.46103 15.564C9.29821 16.3943 10.4015 16.9028 11.5768 17" stroke="black"/>
</svg>
