<svg width="24" height="24" viewBox="0 0 24 24" fill="none" xmlns="http://www.w3.org/2000/svg">
<path d="M12.0541 3.00159C11.8934 3.00085 11.7326 3.00378 11.5719 3.01036C6.98797 3.22881 3.25827 7.08501 3.01303 11.8548C2.81353 15.7716 4.924 19.1973 8.0552 20.787C9.22293 21.3802 10.6089 20.6356 10.8347 19.3034C10.9869 18.4057 10.5482 17.5168 9.76292 17.1174C7.9832 16.2093 6.78847 14.2457 6.92947 12.0103C7.09446 9.39539 9.12768 7.27077 11.6386 7.09059C14.6078 6.87773 17.0813 9.32045 17.0813 12.3675C17.0813 14.4586 15.9166 16.2643 14.2246 17.123C13.8519 17.311 13.5477 17.624 13.3587 18.0137C13.1696 18.4035 13.1063 18.8485 13.1784 19.2803L13.1866 19.3249C13.4079 20.6356 14.7698 21.3802 15.9188 20.8014C18.9248 19.2858 21 16.0794 21 12.3675C20.997 7.21257 16.9981 3.03029 12.0541 3V3.00159ZM12.0084 9.07171C10.2602 9.07171 8.83969 10.5514 8.83969 12.3715C8.83969 14.1907 10.2602 15.6696 12.0084 15.6696C13.7566 15.6696 15.1771 14.1907 15.1771 12.3715C15.1771 10.5514 13.7559 9.07171 12.0084 9.07171Z" fill="black"/>
</svg>
