<svg width="24" height="24" viewBox="0 0 24 24" fill="none" xmlns="http://www.w3.org/2000/svg">
<path d="M11.573 2C12.2774 3.18583 11.3488 4.755 10.6067 5.63167C9.88708 6.48167 9.01212 7.1925 8.21722 7.965C7.36388 8.795 6.54335 9.66833 5.84211 10.6425C4.43882 12.5917 3.57907 15.0425 4.21067 17.475C4.84147 19.905 6.86356 21.4517 9.14741 21.9992C7.99468 21.4808 6.91719 20.1633 6.91399 18.8158C6.91159 17.345 7.80656 16.0975 8.91926 15.2775C8.78558 15.8042 8.71273 16.2858 9.04334 16.7558C9.19677 16.9709 9.40623 17.1356 9.64688 17.2304C9.88752 17.3252 10.1493 17.3462 10.401 17.2908C11.5914 17.0192 11.6466 15.6575 10.9405 14.8625C10.2425 14.0767 9.56768 13.1883 9.83264 12.0483C9.96633 11.4775 10.3033 10.9417 10.73 10.5592C10.4018 11.4575 11.3344 12.3425 11.9492 12.7842C13.0155 13.5492 14.185 14.1275 15.1648 15.0242C16.1959 15.9675 16.958 17.2417 16.8035 18.72C16.637 20.3225 15.4138 21.4367 14.0417 22C16.9412 21.3333 19.9375 18.9917 19.9975 15.6442C20.072 13.1175 18.4741 10.88 15.8685 9.49083C16.0206 9.89083 15.9277 10.0717 15.8221 10.2608C15.3818 11.0475 14.1554 11.2208 13.5526 10.4142C12.588 9.12417 13.5726 7.73417 13.7103 6.36833C13.8824 4.65583 12.8514 2.99417 11.573 2Z" fill="black"/>
</svg>
