<svg width="24" height="24" viewBox="0 0 24 24" fill="none" xmlns="http://www.w3.org/2000/svg">
<path d="M13.2204 19H20.6551C20.8909 19 21.1234 18.9347 21.3275 18.8123C21.5306 18.6903 21.7004 18.5133 21.82 18.2991C21.9377 18.0874 21.9999 17.8456 22 17.5991C21.9995 17.3529 21.937 17.1113 21.8192 16.9L16.8269 7.90013C16.7072 7.68622 16.5374 7.50962 16.3344 7.38787C16.1289 7.26455 15.8974 7.19991 15.6619 7.20013C15.4261 7.20013 15.1936 7.26539 14.9895 7.38787C14.7868 7.50974 14.6173 7.68633 14.4978 7.90013L13.2195 10.2031L10.7255 5.7C10.6058 5.48609 10.436 5.30949 10.233 5.18774C10.0275 5.06442 9.79596 4.99978 9.56052 5C9.32386 5 9.09221 5.06526 8.88805 5.18774C8.68505 5.30949 8.51527 5.48609 8.39557 5.7L2.18083 16.9C2.06299 17.1113 2.00052 17.3529 2 17.5991C2 17.845 2.06166 18.0863 2.17999 18.2991C2.29936 18.5132 2.46885 18.6901 2.67164 18.8123C2.87663 18.9347 3.10912 19 3.34494 19H8.01142C9.86134 19 11.2246 18.1543 12.1629 16.5057L15.6603 10.2031L19.3226 16.8026H14.4403L13.2204 19ZM7.93642 16.8008L4.67989 16.799L9.56135 8.00026L11.9971 12.3996L10.3663 15.3409C9.74301 16.4101 9.03554 16.7999 7.93642 16.7999" fill="black"/>
</svg>
