<svg width="24" height="24" viewBox="0 0 24 24" fill="none" xmlns="http://www.w3.org/2000/svg">
<path d="M22 12.002C22 10.663 20.341 9.39479 17.797 8.60757C18.384 5.9872 18.123 3.90344 16.974 3.23546C16.6953 3.0782 16.3802 2.99868 16.061 3.00505V3.92365C16.248 3.92365 16.399 3.96104 16.525 4.03077C17.08 4.35212 17.32 5.5759 17.133 7.14934C17.088 7.53638 17.015 7.94464 16.925 8.36099C16.0727 8.15392 15.2078 8.0037 14.336 7.9113C13.8164 7.18764 13.2498 6.49962 12.64 5.85179C13.97 4.60375 15.217 3.9196 16.065 3.9196V3C14.944 3 13.476 3.80844 11.992 5.20907C10.508 3.81653 9.041 3.01718 7.92 3.01718V3.93678C8.763 3.93678 10.015 4.61588 11.344 5.85583C10.774 6.46216 10.202 7.14934 9.66 7.9113C8.739 8.01033 7.867 8.16292 7.068 8.36503C6.97762 7.97037 6.90686 7.57137 6.856 7.16955C6.664 5.59612 6.9 4.37233 7.451 4.04693C7.59483 3.96891 7.75695 3.93188 7.92 3.93982V3.02122C7.577 3.02122 7.267 3.096 6.998 3.25163C5.853 3.91859 5.596 6.00034 6.187 8.61161C3.651 9.40287 2 10.6671 2 12.002C2 13.341 3.66 14.6093 6.203 15.3975C5.616 18.0168 5.877 20.1016 7.027 20.7686C7.292 20.9252 7.602 21 7.944 21C9.065 21 10.533 20.1916 12.017 18.7919C13.5 20.1845 14.968 20.9828 16.089 20.9828C16.432 20.9828 16.741 20.909 17.011 20.7524C18.156 20.0854 18.413 18.0037 17.821 15.3924C20.349 14.6062 22 13.337 22 12.002ZM16.692 9.25432C16.542 9.78587 16.354 10.3336 16.142 10.8813C15.8013 10.2118 15.4271 9.56012 15.021 8.92892C15.5825 9.01212 16.1401 9.12069 16.692 9.25432ZM14.825 13.6422C14.507 14.198 14.181 14.7255 13.843 15.2156C12.6198 15.3256 11.3894 15.3269 10.166 15.2196C9.46342 14.2072 8.84975 13.1346 8.332 12.0141C8.84965 10.8914 9.46051 9.81504 10.158 8.79654C11.3812 8.68689 12.6116 8.68587 13.835 8.79351C14.5379 9.80593 15.1519 10.8785 15.67 11.999C15.41 12.5578 15.1282 13.106 14.825 13.6422ZM16.142 13.1066C16.362 13.6583 16.55 14.2101 16.705 14.7457C16.171 14.877 15.608 14.9882 15.025 15.0761C15.4289 14.4381 15.8017 13.7814 16.142 13.1066ZM12.008 17.5025C11.6085 17.0826 11.2303 16.6424 10.875 16.1837C11.242 16.1999 11.617 16.213 11.996 16.213C12.38 16.2137 12.758 16.2039 13.13 16.1837C12.763 16.6657 12.384 17.1063 12.008 17.5025ZM8.975 15.0761C8.41322 14.994 7.8556 14.8851 7.304 14.7497C7.454 14.2182 7.642 13.6704 7.854 13.1227C8.02 13.4522 8.198 13.7819 8.388 14.1121C8.57705 14.4375 8.77276 14.7589 8.975 15.0761ZM11.989 6.50157C12.369 6.89771 12.7467 7.33696 13.122 7.81934C12.7489 7.80145 12.3755 7.79202 12.002 7.79104C11.6173 7.79037 11.2393 7.7998 10.868 7.81934C11.235 7.33831 11.614 6.8967 11.989 6.50157ZM8.971 8.92892C8.56726 9.56535 8.19448 10.2213 7.854 10.8945C7.64095 10.3571 7.4534 9.80976 7.292 9.25432C7.84715 9.12169 8.40766 9.01313 8.972 8.92892H8.971ZM5.282 14.0868C3.839 13.4643 2.905 12.6488 2.905 12.002C2.905 11.3553 3.839 10.5357 5.282 9.91725C5.632 9.76566 6.016 9.62924 6.412 9.50191C6.644 10.3093 6.949 11.1491 7.328 12.0101C6.96963 12.82 6.66724 13.654 6.423 14.5062C6.03591 14.3859 5.65509 14.246 5.282 14.0868ZM7.475 19.9743C6.921 19.6529 6.68 18.4281 6.868 16.8557C6.913 16.4677 6.986 16.0604 7.076 15.6441C7.875 15.8421 8.747 15.9937 9.664 16.0927C10.214 16.8557 10.785 17.5479 11.36 18.1533C10.031 19.4013 8.784 20.0854 7.936 20.0854C7.77608 20.0861 7.61733 20.048 7.475 19.9743ZM17.145 16.8345C17.337 18.4079 17.1 19.6317 16.55 19.9571C16.4062 20.0351 16.2441 20.0722 16.081 20.0642C15.237 20.0642 13.986 19.3851 12.657 18.1442C13.227 17.5388 13.798 16.8507 14.34 16.0887C15.2136 15.9985 16.0801 15.8473 16.933 15.636C17.0283 16.0523 17.099 16.4518 17.145 16.8345ZM18.715 14.0868C18.364 14.2384 17.981 14.3748 17.585 14.5031C17.3345 13.6472 17.0282 12.809 16.668 11.9939C17.043 11.137 17.345 10.3013 17.573 9.49787C17.9777 9.62587 18.3597 9.76566 18.719 9.91725C20.162 10.5397 21.095 11.3553 21.095 12.002C21.091 12.6488 20.158 13.4693 18.715 14.0868Z" fill="black"/>
<path d="M11.996 13.8847C12.4901 13.8847 12.964 13.6863 13.3133 13.3333C13.6627 12.9802 13.859 12.5013 13.859 12.002C13.859 11.5027 13.6627 11.0238 13.3133 10.6708C12.964 10.3177 12.4901 10.1194 11.996 10.1194C11.5019 10.1194 11.028 10.3177 10.6787 10.6708C10.3293 11.0238 10.133 11.5027 10.133 12.002C10.133 12.5013 10.3293 12.9802 10.6787 13.3333C11.028 13.6863 11.5019 13.8847 11.996 13.8847Z" fill="black"/>
</svg>
