<svg width="24" height="24" viewBox="0 0 24 24" fill="none" xmlns="http://www.w3.org/2000/svg">
<path d="M17.4 12.4H21M19.2 10.6V14.2M11.1 12.4H14.7M12.9 10.6V14.2M9.3 9.7C9.3 8.98392 9.01554 8.29716 8.50919 7.79081C8.00284 7.28446 7.31608 7 6.6 7H6.15C5.31457 7 4.51335 7.33187 3.92261 7.92261C3.33187 8.51335 3 9.31457 3 10.15V14.65C3 15.4854 3.33187 16.2866 3.92261 16.8774C4.51335 17.4681 5.31457 17.8 6.15 17.8H6.6C7.31608 17.8 8.00284 17.5155 8.50919 17.0092C9.01554 16.5028 9.3 15.8161 9.3 15.1" stroke="black" stroke-width="2" stroke-linecap="round" stroke-linejoin="round"/>
</svg>
