<svg width="24" height="24" viewBox="0 0 24 24" fill="none" xmlns="http://www.w3.org/2000/svg">
<path d="M12 3L4 7.5V16.5L12 21L20 16.5V7.5L12 3ZM16.6176 15.4425C16.6176 15.9713 16.1204 16.41 15.4409 16.41C14.9553 16.41 14.4012 16.2188 14.0548 15.8025L9.43723 10.4467V15.4418C9.43723 15.9825 8.99856 16.4093 8.45676 16.4093H8.39827C7.84339 16.4093 7.40548 15.9593 7.40548 15.4418V8.5575C7.40548 8.02875 7.89033 7.59 8.55988 7.59C9.05705 7.59 9.62193 7.78125 9.96825 8.1975L14.5628 13.5533V8.5575C14.5628 8.01675 15.0245 7.59 15.5556 7.59H15.6133C16.1674 7.59 16.6061 8.04 16.6061 8.5575V15.4425H16.6176Z" fill="black"/>
</svg>
