<svg width="24" height="24" viewBox="0 0 24 24" fill="none" xmlns="http://www.w3.org/2000/svg">
<path d="M9.9 8.58621L5 17.3793L3.9 15.4138L5.2 13.0345H2.6L2 12L2.6 10.9655H6.3L7.6 8.58621H9.9ZM10.2 15.6207H19.9L18.8 17.5862H16.2L17.5 19.9655L16.9 21H15.8L14 17.5862H11.3L10.2 15.6207ZM15.9 11.7931L11 3H13.2L14.5 5.37931L15.8 3H16.9L17.5 4.03448L15.6 7.34483L17 9.72414L15.9 11.7931ZM13.8 8.37931H4L5.1 6.41379H7.7L6.4 4.03448L7 3H8.1L10 6.31034H12.7L13.8 8.37931ZM14.1 15.4138L19 6.62069L20.1 8.58621L18.8 10.9655H21.4L22 12L21.4 13.0345H17.7L16.4 15.4138H14.1ZM8.1 12.2069L13 20.8966H10.8L9.5 18.5172L8.4 20.8966H7.1L6.5 19.8621L8.4 16.5517L7 14.2759L8.1 12.2069Z" fill="black"/>
</svg>
