<svg width="24" height="24" viewBox="0 0 24 24" fill="none" xmlns="http://www.w3.org/2000/svg">
<path d="M12.4079 3C12.2828 3 12.1533 3.00525 12.0195 3.01575C8.59961 3.2655 9.50678 6.62104 9.45417 7.73931C9.39267 8.55831 9.2114 9.20407 8.60446 10.0043C7.88828 10.7926 6.88319 12.0669 6.40654 13.3951C6.18157 14.0191 6.07475 14.6581 6.17429 15.2619C6.13695 15.2892 6.10656 15.3237 6.08527 15.3631C5.87486 15.5641 5.72111 15.8131 5.54874 15.9924C5.38769 16.1417 5.15625 16.1927 4.90376 16.2924C4.65047 16.3944 4.37128 16.4942 4.20457 16.8024C4.13174 16.9442 4.09451 17.0979 4.09775 17.2539C4.09775 17.4032 4.1196 17.5539 4.14226 17.6559C4.1892 17.9552 4.23613 18.2019 4.17463 18.3834C3.97313 18.8934 3.94804 19.2422 4.08885 19.4964C4.22966 19.7469 4.5218 19.8489 4.84954 19.9472C5.50504 20.0972 6.39521 20.0484 7.0944 20.3972C7.84377 20.7467 8.60446 20.8997 9.2114 20.7497C9.63706 20.6627 9.99637 20.4017 10.189 20.0402C10.664 20.0379 11.1844 19.8384 12.0179 19.7897C12.5835 19.7462 13.2916 19.9899 14.1033 19.9397C14.1235 20.0402 14.1543 20.0882 14.1956 20.1894L14.198 20.1917C14.5144 20.7752 15.0987 21.0407 15.7226 20.995C16.3466 20.9492 17.0109 20.593 17.5491 20.0154C18.0597 19.4417 18.9111 19.2024 19.4735 18.8882C19.7551 18.7389 19.9825 18.5364 19.9987 18.2484C20.0173 17.9484 19.8368 17.6402 19.4209 17.2164V17.1437L19.4185 17.1414C19.2809 16.9914 19.2162 16.7402 19.1449 16.4469C19.0762 16.1462 18.9977 15.8574 18.7468 15.6624H18.7444C18.6966 15.6219 18.6448 15.6121 18.5922 15.5611C18.5469 15.532 18.4936 15.5153 18.4385 15.5131C18.7873 14.5546 18.6521 13.6006 18.2985 12.7426C17.8671 11.6851 17.1129 10.7641 16.5383 10.1303C15.8942 9.37657 15.263 8.66257 15.2759 7.6043C15.297 5.99028 15.4669 3.0045 12.4079 3ZM12.836 5.55378H12.8465C13.0189 5.55378 13.167 5.60028 13.3192 5.70228C13.4729 5.80353 13.5862 5.95128 13.6736 6.10204C13.7586 6.29629 13.8015 6.44629 13.8079 6.64504C13.8079 6.63004 13.8128 6.61504 13.8128 6.60004V6.67879L13.8096 6.66304L13.8063 6.64504C13.8048 6.82733 13.7636 7.00745 13.6849 7.17455C13.6472 7.26862 13.5885 7.35424 13.5126 7.4258C13.4894 7.41423 13.4656 7.40372 13.4413 7.3943C13.3572 7.36055 13.2811 7.3463 13.2115 7.29455C13.1539 7.27321 13.0943 7.25665 13.0335 7.24505C13.0739 7.20005 13.1516 7.1453 13.1816 7.09655C13.2247 7.00005 13.2485 6.89955 13.2528 6.79504V6.78004C13.2548 6.67817 13.2381 6.57673 13.2034 6.48004C13.167 6.37954 13.1217 6.33004 13.0553 6.23029C12.9874 6.18079 12.9202 6.13129 12.8393 6.13129H12.8263C12.7511 6.13129 12.6839 6.15379 12.6143 6.23029C12.5374 6.29975 12.4804 6.38583 12.4484 6.48079C12.4057 6.57618 12.3811 6.67766 12.3756 6.78079V6.79504C12.3766 6.86204 12.382 6.9288 12.3918 6.9953C12.2356 6.94505 12.0373 6.89405 11.9005 6.84379C11.893 6.79405 11.8881 6.74399 11.886 6.69379V6.67879C11.8804 6.48086 11.9218 6.28422 12.0074 6.10279C12.0735 5.93808 12.1956 5.79777 12.3553 5.70303C12.4941 5.60658 12.6626 5.55475 12.836 5.55378ZM10.439 5.59803H10.4682C10.5831 5.59803 10.6867 5.63403 10.7911 5.69928C10.9092 5.79603 11.0047 5.91528 11.0694 6.04804C11.1423 6.19729 11.1827 6.34804 11.1933 6.54829V6.55129C11.1989 6.65179 11.1981 6.70129 11.1916 6.75079V6.81079C11.1674 6.81604 11.1463 6.82429 11.1245 6.82879C11.0015 6.87004 10.9027 6.93005 10.8064 6.9788C10.8161 6.9108 10.817 6.84404 10.8089 6.77854V6.76729C10.7991 6.66754 10.7765 6.61729 10.7425 6.51754C10.7177 6.44091 10.6714 6.37179 10.6082 6.31729C10.5882 6.30055 10.5648 6.28769 10.5393 6.27944C10.5139 6.2712 10.487 6.26775 10.4601 6.26929H10.4431C10.3856 6.27379 10.3379 6.29929 10.2926 6.36829C10.2409 6.42632 10.2073 6.49635 10.1954 6.57079C10.1745 6.65176 10.1682 6.73541 10.1768 6.81829V6.82954C10.1865 6.9308 10.2068 6.97955 10.2416 7.08005C10.2788 7.18055 10.3209 7.23005 10.3759 7.28105C10.3835 7.28805 10.3926 7.29405 10.4034 7.29905C10.3468 7.3418 10.3087 7.35155 10.261 7.40105C10.2308 7.42597 10.1944 7.4435 10.155 7.45205C10.0708 7.35823 9.99628 7.25728 9.93244 7.15055C9.85648 6.99277 9.81389 6.82295 9.80701 6.65029C9.79442 6.481 9.81638 6.31103 9.87175 6.14929C9.91561 6.00166 9.99377 5.86471 10.1008 5.74803C10.2043 5.64828 10.3112 5.59803 10.439 5.59803ZM11.5477 6.87755C11.8164 6.87755 12.1409 6.9263 12.5318 7.1768C12.7689 7.3268 12.955 7.37855 13.3831 7.5278H13.3855C13.5919 7.6298 13.7133 7.7273 13.7723 7.82706V7.7288C13.8014 7.78333 13.8176 7.84297 13.8199 7.90376C13.8221 7.96455 13.8103 8.02508 13.7853 8.08131C13.6857 8.31381 13.3677 8.56356 12.925 8.71282V8.71432C12.7082 8.81557 12.5196 8.96407 12.2979 9.06307C12.0745 9.16432 11.822 9.28207 11.4789 9.26332C11.3556 9.27006 11.2322 9.25295 11.1164 9.21307C11.027 9.16741 10.9401 9.11785 10.8558 9.06457C10.698 8.96332 10.562 8.81557 10.3605 8.71582V8.71207H10.3565C10.0328 8.52756 9.85799 8.32806 9.80134 8.17956C9.74523 7.97806 9.7973 7.82806 9.95753 7.72956C10.1388 7.6283 10.265 7.5263 10.3484 7.47755C10.4326 7.42205 10.4641 7.40105 10.4908 7.3793H10.4924V7.37705C10.6292 7.22555 10.8453 7.02455 11.1714 6.9263C11.2839 6.8993 11.4093 6.87755 11.5485 6.87755H11.5477ZM13.8136 8.48406C14.1033 9.54683 14.7815 11.0903 15.2177 11.8389C15.4491 12.2394 15.9096 13.0831 16.1094 14.1069C16.2357 14.1031 16.3765 14.1204 16.5246 14.1549C17.0474 12.9016 16.0827 11.5546 15.6433 11.1803C15.4653 11.0303 15.4556 10.9291 15.5438 10.9291C16.0212 11.3296 16.6484 12.1081 16.8758 12.9969C16.981 13.3981 17.0053 13.8249 16.8928 14.2494C16.947 14.2704 17.002 14.2944 17.0587 14.2996C17.8938 14.7001 18.2022 15.0031 18.0541 15.4524V15.4201C18.0055 15.4179 17.957 15.4201 17.9084 15.4201H17.8955C18.0177 15.0699 17.7482 14.8014 17.0336 14.5021C16.2931 14.2021 15.7016 14.2501 15.6012 14.8509C15.5948 14.8831 15.5907 14.9004 15.5867 14.9521C15.5316 14.9694 15.4742 14.9919 15.4175 15.0001C15.0696 15.2011 14.8818 15.5019 14.7758 15.8904C14.6706 16.2902 14.6382 16.7574 14.6099 17.2922V17.2944C14.5937 17.5449 14.4723 17.9229 14.3518 18.3069C13.1379 19.1109 11.4546 19.4604 10.0239 18.5574C9.93371 18.4122 9.82443 18.2779 9.69857 18.1577C9.63777 18.0649 9.56282 17.9808 9.47602 17.9079C9.62331 17.9079 9.74955 17.8854 9.85232 17.8577C9.96845 17.8073 10.0594 17.7177 10.1064 17.6072C10.1938 17.4069 10.1064 17.0844 9.82724 16.7349C9.54805 16.3854 9.07383 15.9887 8.3803 15.5941C7.87047 15.2941 7.58238 14.9416 7.44966 14.5471C7.31614 14.1466 7.33394 13.7334 7.43752 13.3134C7.63579 12.5109 8.144 11.7309 8.46851 11.2411C8.5551 11.1923 8.49845 11.3423 8.13833 11.9716C7.81787 12.5349 7.21579 13.8444 8.03961 14.8621C8.07031 14.1195 8.24777 13.3884 8.56319 12.7051C9.01961 11.7466 9.97371 10.0771 10.049 8.75407C10.0878 8.78107 10.2246 8.85532 10.2828 8.90557C10.4593 9.00532 10.5904 9.15532 10.7603 9.25432C10.9302 9.40507 11.1463 9.50558 11.4692 9.50558C11.5005 9.50808 11.5302 9.50958 11.5582 9.51008C11.8916 9.51008 12.149 9.40957 12.365 9.30907C12.5997 9.20857 12.7859 9.05857 12.9639 9.00907H12.9679C13.3459 8.90782 13.6437 8.70757 13.8128 8.48406H13.8136ZM15.5818 15.2026C15.6118 15.6526 15.8594 16.1364 16.2956 16.2354C16.7714 16.3359 17.456 15.9857 17.7449 15.6616L17.9157 15.6541C18.1706 15.6489 18.3826 15.6616 18.6011 15.8551L18.6036 15.8574C18.7719 16.0067 18.8504 16.2549 18.92 16.5144C18.9888 16.8144 19.0446 17.0994 19.251 17.3139C19.6442 17.7092 19.7729 17.9934 19.7656 18.1689L19.7681 18.1637V18.1772L19.7656 18.1689C19.7535 18.3654 19.6159 18.4652 19.3626 18.6144C18.8528 18.9152 17.9497 19.1484 17.3743 19.7919C16.8742 20.3447 16.2656 20.647 15.7267 20.6852C15.1893 20.725 14.7256 20.5352 14.4529 20.0117L14.4489 20.0094C14.2789 19.7094 14.3518 19.2407 14.4942 18.7419C14.6366 18.2409 14.8405 17.7339 14.8689 17.3192C14.8988 16.7837 14.9304 16.3179 15.0267 15.9587C15.1238 15.6099 15.2759 15.3609 15.5454 15.2206L15.5818 15.2041V15.2026ZM6.83059 15.2394H6.83868C6.88184 15.2394 6.92419 15.2429 6.96573 15.2499C7.27001 15.2911 7.53706 15.4996 7.79359 15.8139L8.53001 17.0619L8.53244 17.0642C8.72909 17.4639 9.14261 17.8622 9.49464 18.2919C9.84585 18.7404 10.1178 19.1402 10.0846 19.4694V19.4739C10.0385 20.0319 9.69614 20.335 9.17417 20.4445C8.65221 20.5457 7.94411 20.446 7.23602 20.0964C6.45267 19.6944 5.52203 19.7447 4.92399 19.6449C4.62565 19.5949 4.43062 19.4949 4.33891 19.3449C4.24989 19.1949 4.24746 18.8934 4.43844 18.4224V18.4194L4.44006 18.4172C4.53475 18.1667 4.46434 17.8532 4.41821 17.5787C4.3737 17.2779 4.35105 17.0462 4.45301 16.8737C4.58249 16.6232 4.77347 16.5737 5.01139 16.4739C5.24931 16.3727 5.52931 16.3224 5.75186 16.1214H5.75348V16.1199C5.96064 15.9189 6.11359 15.6691 6.29405 15.4914C6.44781 15.3406 6.60157 15.2394 6.83059 15.2394ZM12.624 8.43381C12.272 8.58456 11.8593 8.83507 11.4198 8.83507C10.9812 8.83507 10.6349 8.63482 10.384 8.48556C10.2594 8.38506 10.1574 8.28456 10.0822 8.23431C9.94944 8.13381 9.96562 7.98456 10.0223 7.98456C10.1105 7.99656 10.1267 8.08506 10.1833 8.13456C10.261 8.18406 10.3573 8.28456 10.4746 8.38431C10.7109 8.53431 11.0249 8.73457 11.419 8.73457C11.8115 8.73457 12.2712 8.53431 12.5504 8.38506C12.7082 8.28381 12.9105 8.13456 13.0748 8.03481C13.201 7.93281 13.1953 7.83456 13.3005 7.83456C13.4041 7.84656 13.3281 7.93506 13.1816 8.08356C13.0022 8.20948 12.8158 8.32664 12.6232 8.43456L12.624 8.43381ZM11.7484 7.24655V7.23005C11.7435 7.21505 11.7589 7.19855 11.7719 7.19255C11.8318 7.1603 11.9175 7.1723 11.9823 7.19555C12.0333 7.19555 12.1118 7.2458 12.1037 7.2968C12.0988 7.33355 12.0349 7.3463 11.9944 7.3463C11.9499 7.3463 11.92 7.31405 11.8803 7.2953C11.8382 7.2818 11.7622 7.2893 11.7484 7.24655ZM11.3025 7.24655C11.2863 7.29005 11.2111 7.2833 11.1682 7.29605C11.1301 7.3148 11.0986 7.34705 11.0549 7.34705C11.0144 7.34705 10.9497 7.33205 10.9448 7.29605C10.9367 7.24655 11.016 7.1963 11.0662 7.1963C11.1309 7.17305 11.2151 7.16105 11.2758 7.19255C11.2912 7.1993 11.3049 7.21505 11.3001 7.23005V7.24505H11.3025V7.24655Z" fill="black"/>
</svg>
