<svg width="24" height="24" viewBox="0 0 24 24" fill="none" xmlns="http://www.w3.org/2000/svg">
<path d="M21 10.213C19.2328 10.2148 17.5092 9.68124 16.0708 8.687V15.673C16.07 17.3513 15.3809 18.9606 14.1551 20.147C12.9292 21.3335 11.2669 22 9.53373 22C8.23764 22.0023 6.97038 21.6297 5.89443 20.93C4.66708 20.1326 3.75507 18.9559 3.30724 17.592C2.85941 16.2281 2.90221 14.7575 3.42864 13.4201C3.95507 12.0828 4.93405 10.9577 6.20583 10.2285C7.4776 9.4993 8.96707 9.20901 10.4312 9.405V12.904C9.8307 12.7189 9.1852 12.7223 8.58685 12.9137C7.9885 13.1051 7.46789 13.4746 7.09935 13.9695C6.73082 14.4645 6.53321 15.0595 6.53474 15.6697C6.53627 16.2799 6.73686 16.874 7.10788 17.3672C7.47889 17.8604 8.00135 18.2275 8.60066 18.416C9.19996 18.6045 9.84546 18.6049 10.445 18.417C11.0445 18.2291 11.5674 17.8626 11.939 17.3698C12.3106 16.8771 12.5119 16.2832 12.5142 15.673V2H16.0708V2.44C16.1842 3.62973 16.7526 4.73549 17.6645 5.54028C18.5765 6.34508 19.7661 6.79081 21 6.79V10.213Z" fill="black"/>
</svg>
