<svg width="24" height="24" viewBox="0 0 24 24" fill="none" xmlns="http://www.w3.org/2000/svg">
<path d="M15.2574 4.66491C15.053 4.92325 14.8326 5.21491 14.5962 5.54825L14.5561 5.59992C14.1116 6.22568 13.689 6.86206 13.2889 7.50826C13.1012 7.80826 12.9086 8.1266 12.7109 8.46326L14.9819 8.25493C15.6431 8.00326 15.9386 7.77326 16.2261 7.44159C16.3044 7.34742 16.3812 7.25241 16.4565 7.15659C16.6869 6.85409 16.9173 6.52075 17.1207 6.18992C17.318 5.86825 17.4913 5.55075 17.6266 5.26491C17.71 5.08047 17.7762 4.9138 17.8249 4.76491C17.8663 4.6338 17.8997 4.5088 17.9251 4.38991C17.0395 4.51491 15.9566 4.63574 15.2524 4.66491H15.2574ZM12.6988 8.4841L12.6217 8.61743C12.5436 8.74965 12.4648 8.88521 12.3853 9.0241L12.1248 9.4841L11.9926 9.72327C11.4897 10.6303 11.0131 11.5472 10.5631 12.4733C10.4001 12.8044 10.2355 13.1461 10.0692 13.4983C9.91893 13.815 9.77167 14.1358 9.6184 14.4683L9.59836 14.5183C9.44877 14.8483 9.2975 15.1872 9.14456 15.535L9.13454 15.5575L9.85582 15.4908C9.84162 15.4904 9.82752 15.4887 9.81374 15.4858C10.6783 15.3975 11.8273 14.8608 12.5686 14.1966C12.9112 13.8908 13.2218 13.53 13.5103 13.1083C13.7233 12.795 13.925 12.4455 14.1154 12.0599C14.2836 11.7227 14.4439 11.3566 14.5962 10.9616C14.3999 11.0491 14.1725 11.1116 13.922 11.1574C13.832 11.1755 13.7406 11.1883 13.6485 11.1958C14.456 10.9374 14.9649 10.4416 15.3345 9.8291C15.0415 9.9982 14.7123 10.1192 14.3648 10.1858C14.306 10.1958 14.2479 10.2041 14.1905 10.2108L14.1474 10.2158H14.1494C14.4279 10.1174 14.6643 10.0091 14.8687 9.87994C15.1223 9.7201 15.3386 9.52296 15.5068 9.29827L15.5699 9.2116L15.6471 9.08327C15.7859 8.85326 15.9087 8.61675 16.0147 8.37493L16.0448 8.3016C16.0981 8.17592 16.1393 8.0469 16.168 7.91576C16.1379 7.9353 16.1064 7.95338 16.0738 7.96993C15.8304 8.09076 15.4126 8.20076 15.0761 8.25326L15.7402 8.1916L15.075 8.25243H15.058L14.9578 8.2666C14.9632 8.26382 14.9689 8.2616 14.9749 8.25993L12.7059 8.46826L12.6928 8.4866L12.6988 8.4841ZM9.06843 15.7091C8.95089 15.9786 8.83234 16.2541 8.7128 16.5358L8.70779 16.5483L8.6577 16.6666C8.57756 16.8558 8.50743 17.0266 8.34715 17.4166C8.61162 17.5166 8.82299 17.7791 9.02335 18.0775C9.00429 17.7621 8.83656 17.4657 8.55652 17.2525C9.85181 17.3025 10.9708 17.0275 11.5518 16.2383C11.6019 16.1683 11.6487 16.0939 11.6921 16.015C11.4316 16.2925 11.101 16.41 10.4899 16.3816C11.3915 16.045 11.8453 15.7233 12.246 15.1875C12.3395 15.0602 12.433 14.9205 12.5265 14.7683C11.7371 15.4433 10.8215 15.635 9.85782 15.4891L9.13655 15.5541L9.06943 15.7066L9.06843 15.7091ZM16.2311 2.09407C15.8544 2.27907 15.2293 2.8024 14.48 3.56324L15.1672 4.64158C15.6481 4.06908 16.1389 3.55241 16.6318 3.11157L16.6899 3.0599C16.6699 3.07657 16.6498 3.09379 16.6318 3.11157C16.4715 3.25824 15.9877 3.72824 15.2554 4.66408C15.9596 4.63491 17.0425 4.51408 17.9261 4.38908C18.1886 3.16407 17.6676 2.60407 17.6676 2.60407C17.6676 2.60407 17.0065 1.7124 16.2291 2.09573L16.2311 2.09407ZM13.1416 7.42909C13.553 6.78964 13.9893 6.16152 14.4499 5.54575L14.49 5.49242C14.7144 5.19853 14.9405 4.91519 15.1682 4.64241L14.482 3.56491L14.3247 3.72491C14.1264 3.92991 13.9217 4.14935 13.7106 4.38324C12.9933 5.18269 12.3194 6.00853 11.6911 6.85826L11.669 6.88992L12.5636 8.3591C12.7533 8.04354 12.9453 7.73298 13.1396 7.42743L13.1416 7.42909ZM9.40502 14.3625C9.5633 14.0241 9.72459 13.6875 9.88888 13.3416C10.0452 13.0133 10.2094 12.6833 10.3737 12.3499C10.8819 11.3393 11.4163 10.338 11.9766 9.3466L12.1819 8.99327C12.3021 8.79077 12.4194 8.5891 12.5426 8.38993C12.5461 8.3777 12.553 8.36631 12.5626 8.3566L11.666 6.88742L11.6219 6.94576C11.4111 7.23283 11.2051 7.5223 11.0038 7.81409C10.6185 8.3714 10.2537 8.93833 9.90991 9.5141L9.81575 9.67494C9.32734 10.5082 8.90633 11.3676 8.55552 12.2475C8.34577 12.7939 8.17187 13.3495 8.0346 13.9116L8.93219 15.3866C9.05039 15.1222 9.17194 14.8547 9.29683 14.5841L9.40502 14.3625ZM8.02658 13.9658C7.91137 14.431 7.83306 14.902 7.79217 15.3758L7.78716 15.4258C7.50666 15.0508 6.75534 14.6858 6.75934 14.6891C7.29729 15.3375 7.70502 15.9808 7.76612 16.6141C7.47561 16.6625 7.08091 16.5916 6.6241 16.4516C7.09995 16.815 7.45557 16.915 7.59582 16.9416C7.16105 16.9666 6.70425 17.215 6.24744 17.5C6.91662 17.275 7.45958 17.1833 7.84627 17.2583C7.23518 18.7083 6.61409 20.3042 6 22C6.0852 21.9795 6.16302 21.9418 6.2266 21.8904C6.29019 21.8389 6.3376 21.7753 6.36465 21.705C6.47484 21.3983 7.20613 19.3833 8.34615 16.7341L8.44332 16.5091L8.47137 16.4441C8.59225 16.1675 8.71714 15.8841 8.84603 15.5941L8.93619 15.3966V15.3933L8.0366 13.9175C8.0336 13.9341 8.02658 13.9508 8.02458 13.9675L8.02658 13.9658Z" fill="black"/>
</svg>
