<svg width="24" height="24" viewBox="0 0 24 24" fill="none" xmlns="http://www.w3.org/2000/svg">
<path d="M16.5399 7.23549C15.7349 4.73126 14.0039 3 11.9999 3C9.22593 3 6.97693 5.78695 6.97693 9.87844C6.97693 11.9496 8.55893 14.8837 9.48893 16.2317M4.71092 12.5076C3.05492 14.4951 2.49692 16.939 3.49992 18.7666C4.88692 21.2973 8.63792 21.7643 12.0009 19.7196C13.7039 18.683 14.8759 16.1597 15.5169 14.6391M15.0139 20.9902C17.5249 20.9902 19.5369 20.5265 20.5009 18.7666C21.8879 16.2359 20.2859 12.5267 16.9219 10.482C15.2199 9.44535 12.5649 9.17428 10.9949 9.349M10.4929 10.266C10.9729 10.5582 11.5879 10.3846 11.8649 9.87844C11.9971 9.6352 12.0327 9.34635 11.9639 9.07533C11.8951 8.80432 11.7275 8.57331 11.4979 8.43307C11.2672 8.29231 10.9932 8.25407 10.7359 8.3267C10.4785 8.39933 10.2589 8.57692 10.1249 8.82062C9.9928 9.06398 9.95735 9.35294 10.0264 9.62397C10.0954 9.895 10.2632 10.1259 10.4929 10.266ZM8.49994 16.2359C8.49994 16.5167 8.6053 16.7861 8.79283 16.9847C8.98037 17.1832 9.23472 17.2948 9.49994 17.2948C9.76516 17.2948 10.0195 17.1832 10.207 16.9847C10.3946 16.7861 10.4999 16.5167 10.4999 16.2359C10.4999 15.9551 10.3946 15.6858 10.207 15.4872C10.0195 15.2886 9.76516 15.177 9.49994 15.177C9.23472 15.177 8.98037 15.2886 8.79283 15.4872C8.6053 15.6858 8.49994 15.9551 8.49994 16.2359ZM14.4999 14.6476C14.4999 14.9284 14.6053 15.1978 14.7928 15.3963C14.9804 15.5949 15.2347 15.7065 15.4999 15.7065C15.7652 15.7065 16.0195 15.5949 16.207 15.3963C16.3946 15.1978 16.4999 14.9284 16.4999 14.6476C16.4999 14.3668 16.3946 14.0974 16.207 13.8989C16.0195 13.7003 15.7652 13.5887 15.4999 13.5887C15.2347 13.5887 14.9804 13.7003 14.7928 13.8989C14.6053 14.0974 14.4999 14.3668 14.4999 14.6476Z" stroke="black" stroke-width="2" stroke-linecap="round" stroke-linejoin="round"/>
</svg>
