<svg width="24" height="24" viewBox="0 0 24 24" fill="none" xmlns="http://www.w3.org/2000/svg">
<path d="M19.65 3H4.35C3.99196 3 3.64858 3.14223 3.39541 3.39541C3.14223 3.64858 3 3.99196 3 4.35V19.65C3 19.8273 3.03492 20.0028 3.10276 20.1666C3.17061 20.3304 3.27005 20.4792 3.39541 20.6046C3.52076 20.73 3.66959 20.8294 3.83338 20.8972C3.99717 20.9651 4.17272 21 4.35 21H19.65C19.8273 21 20.0028 20.9651 20.1666 20.8972C20.3304 20.8294 20.4792 20.73 20.6046 20.6046C20.73 20.4792 20.8294 20.3304 20.8972 20.1666C20.9651 20.0028 21 19.8273 21 19.65V4.35C21 3.99196 20.8578 3.64858 20.6046 3.39541C20.3514 3.14223 20.008 3 19.65 3ZM8.4 18.3H5.7V10.2H8.4V18.3ZM7.05 8.625C6.74056 8.61616 6.4406 8.51632 6.18758 8.33797C5.93456 8.15962 5.7397 7.91066 5.62737 7.6222C5.51503 7.33374 5.49019 7.01857 5.55595 6.71607C5.6217 6.41358 5.77515 6.13717 5.9971 5.92138C6.21906 5.70559 6.49968 5.55999 6.80391 5.50278C7.10814 5.44556 7.42248 5.47927 7.70766 5.59969C7.99284 5.72011 8.23622 5.92189 8.40737 6.17983C8.57853 6.43778 8.66987 6.74044 8.67 7.05C8.66342 7.47348 8.48919 7.87708 8.18552 8.17232C7.88185 8.46756 7.4735 8.63035 7.05 8.625ZM18.3 18.3H15.6V14.034C15.6 12.756 15.06 12.297 14.358 12.297C14.1521 12.3106 13.951 12.3647 13.7661 12.4563C13.5813 12.5479 13.4163 12.6752 13.2808 12.8307C13.1453 12.9863 13.0419 13.1672 12.9766 13.3628C12.9112 13.5585 12.8852 13.7652 12.9 13.971C12.8956 14.0129 12.8956 14.0551 12.9 14.097V18.3H10.2V10.2H12.81V11.37C13.0733 10.9696 13.4351 10.6434 13.8605 10.4228C14.286 10.2022 14.761 10.0945 15.24 10.11C16.635 10.11 18.264 10.884 18.264 13.404L18.3 18.3Z" fill="black"/>
</svg>
