<svg width="24" height="24" viewBox="0 0 24 24" fill="none" xmlns="http://www.w3.org/2000/svg">
<path d="M9.19154 16.9219C5.86171 17.6938 11.2067 19.2916 15.4417 17.8195C15.0303 17.6871 14.6337 17.5249 14.2563 17.3348C12.786 17.6134 11.2672 17.6682 9.77345 17.4964C8.36177 17.3617 9.19154 16.9219 9.19154 16.9219ZM14.9352 15.4139C13.0386 15.757 11.0868 15.8358 9.15921 15.6473C7.74753 15.5216 8.67428 14.9561 8.67428 14.9561C5.0104 15.9615 10.711 17.1104 15.8296 15.8537C15.4969 15.7627 15.1917 15.6126 14.9352 15.4139ZM16.8965 6.68019C16.8965 6.68019 9.49327 8.2151 13.0278 11.6081C13.1657 11.7458 13.2685 11.9054 13.3298 12.0773C13.3912 12.2492 13.4098 12.4297 13.3846 12.6078C13.3594 12.7859 13.2909 12.9578 13.1832 13.1131C13.0755 13.2684 12.931 13.4038 12.7584 13.511C12.7584 13.511 15.4094 12.371 14.1917 10.9438C12.974 9.51664 12.1873 8.95114 16.8965 6.68019Z" fill="black"/>
<path d="M18.6314 18.385C18.6314 18.385 19.2349 18.7979 17.9525 19.121C15.5064 19.7404 7.79064 19.9289 5.64619 19.121C4.87031 18.8428 6.31431 18.4568 6.7238 18.376C6.96643 18.3234 7.2167 18.2992 7.46736 18.3042C6.60526 17.8016 1.91764 19.2916 5.08583 19.7224C13.7606 20.9522 20.8621 19.2198 18.6314 18.385ZM15.6572 14.0047C15.9741 13.8377 16.3055 13.6907 16.6486 13.5648C16.6486 13.5648 15.0214 13.8072 13.4158 13.9239C11.6892 14.0632 9.95138 14.0782 8.22168 13.9688C5.65696 13.6905 9.59025 12.8737 9.59025 12.8737C8.40655 12.8657 7.23814 13.0967 6.18499 13.5469C3.96511 14.4714 11.67 14.8754 15.6572 14.0047ZM16.6378 16.1948C16.6142 16.2252 16.5851 16.2525 16.5516 16.2756C21.9397 15.0908 19.9784 12.1017 17.3922 12.8557C17.2492 12.899 17.1252 12.9772 17.0366 13.0801C17.0366 13.0801 17.1874 13.0353 17.4999 12.9724C18.8146 12.748 20.6466 14.4355 16.6378 16.1948ZM12.0257 12.8737C11.2282 11.3747 8.51264 10.0552 12.0257 7.74835C16.4331 4.86703 14.1809 3 14.1809 3C15.0861 5.97108 10.948 6.86869 9.50405 8.71776C8.50186 9.98339 10.0105 11.3388 12.0257 12.8737Z" fill="black"/>
<path d="M16.7779 20.3418C13.5221 20.8054 10.1999 20.8477 6.92855 20.4675C6.92855 20.4675 7.42425 20.8085 9.98897 20.9432C13.8792 21.1496 19.8491 20.8355 20 19.3006C20 19.3006 19.7198 19.875 16.7779 20.3418Z" fill="black"/>
</svg>
