<svg width="24" height="24" viewBox="0 0 24 24" fill="none" xmlns="http://www.w3.org/2000/svg">
<path d="M19 18.14L12.6125 21.8227C12.175 22.0591 11.7375 22.0591 11.3 21.8227L5 18.14L16.4187 6.18277L16.725 6.09184C16.9875 6.09184 17.1362 6.21005 17.1625 6.45556L19 18.14ZM9.68125 6.36463L5.7 13.2298L7.3625 2.36372C7.38875 2.11821 7.5375 2 7.8 2C7.975 2 8.08875 2.05456 8.15 2.22732L10.0312 5.81905L9.68125 6.36463ZM13.6188 7.51034L5.2625 16.2305L11.6063 5.04615C11.6938 4.86429 11.825 4.78245 12 4.78245C12.175 4.78245 12.2887 4.86429 12.35 5.04615L13.6188 7.51034Z" fill="black"/>
</svg>
