<svg width="24" height="24" viewBox="0 0 24 24" fill="none" xmlns="http://www.w3.org/2000/svg">
<path d="M3.91011 2.01329C4.2821 1.96529 4.6601 2.04829 4.9771 2.24628L15.823 8.39612L13.078 11.1661L3.91011 2.01329ZM3.07511 2.84627C3.02402 3.02747 2.99877 3.21499 3.00011 3.40325V20.5948C2.99811 20.7841 3.02311 20.9698 3.07511 21.1518L12.2521 12L3.07511 2.84627ZM13.087 12.831L3.91011 21.9848C4.2821 22.0368 4.6611 21.9548 4.9771 21.7518L15.823 15.6019L13.087 12.831ZM20.195 10.8841L16.908 9.02011L13.904 11.999L16.899 14.986L20.187 13.122C21.271 12.507 21.271 11.492 20.187 10.8761L20.195 10.8841Z" fill="black"/>
</svg>
