<svg width="24" height="24" viewBox="0 0 24 24" fill="none" xmlns="http://www.w3.org/2000/svg">
<path d="M6.7386 4C5.7117 4 4.9521 5.00395 4.9854 6.09123C5.0187 7.13535 4.9764 8.49068 4.6704 9.59403C4.3644 10.7004 3.846 11.4011 3 11.4905V12.5105C3.846 12.6009 4.3644 13.2996 4.6704 14.407C4.9764 15.5113 5.0187 16.8647 4.9854 17.9098C4.9521 18.9971 5.7117 20 6.7386 20H17.2632C18.2892 20 19.0497 18.9971 19.0155 17.9098C18.9831 16.8647 19.0254 15.5103 19.3305 14.407C19.6365 13.2996 20.154 12.5999 21 12.5095V11.4905C20.154 11.4001 19.6374 10.7004 19.3305 9.59302C19.0254 8.48968 18.9831 7.13635 19.0155 6.09123C19.0497 5.00295 18.2901 4 17.2623 4H6.7386ZM15.0546 13.8478C15.0546 15.3457 14.0529 16.2532 12.3906 16.2532H9.3243C9.30583 16.2527 9.28823 16.2443 9.27517 16.2297C9.2621 16.2152 9.25456 16.1955 9.2541 16.1749V7.82205C9.25456 7.80144 9.2621 7.78182 9.27517 7.76724C9.28823 7.75266 9.30583 7.74425 9.3243 7.74374H12.3744C13.7604 7.74374 14.6703 8.58104 14.6703 9.8671C14.6703 10.7687 14.0583 11.5768 13.2789 11.7184V11.7656C14.3409 11.8961 15.0546 12.7153 15.0546 13.8478ZM12.0819 8.82299H10.4673V11.365H11.8263C12.8775 11.365 13.4571 10.8931 13.4571 10.0498C13.4571 9.25871 12.9594 8.82299 12.0819 8.82299ZM10.4673 12.373V15.174H12.1413C13.2357 15.174 13.8153 14.6851 13.8153 13.7644C13.8153 12.8438 13.2195 12.373 12.0711 12.373H10.4673Z" fill="black"/>
</svg>
