<svg width="24" height="24" viewBox="0 0 24 24" fill="none" xmlns="http://www.w3.org/2000/svg">
<path d="M9.711 9.17601V7.91483C9.81684 7.90576 9.92289 7.90047 10.029 7.89895C12.9705 7.78959 14.8988 10.8746 14.8988 10.8746C14.8988 10.8746 12.8182 14.271 10.5862 14.271C10.2912 14.2713 9.99803 14.2162 9.71775 14.1078V10.2749C10.8637 10.4381 11.0955 11.0307 11.778 12.3784L13.308 10.8667C13.308 10.8667 12.189 9.14514 10.308 9.14514C10.1086 9.13987 9.9092 9.15018 9.711 9.17601ZM9.711 5V6.8856L10.029 6.86179C14.1165 6.69863 16.7865 10.8041 16.7865 10.8041C16.7865 10.8041 13.7265 15.1821 10.539 15.1821C10.2637 15.1809 9.98895 15.1522 9.71775 15.0965V16.2651C9.94275 16.296 10.1752 16.3198 10.4002 16.3198C13.368 16.3198 15.5152 14.5356 17.595 12.4322C17.9392 12.7594 19.35 13.5461 19.6425 13.8891C17.6678 15.8365 13.0635 17.4028 10.4528 17.4028C10.2015 17.4028 9.963 17.3869 9.7245 17.3561V19H21V5H9.711ZM9.711 14.107V15.1044C6.96825 14.5277 6.20625 11.171 6.20625 11.171C6.20625 11.171 7.52475 9.45647 9.711 9.17601V10.267H9.705C8.559 10.1029 7.6575 11.365 7.6575 11.365C7.6575 11.365 8.1675 13.4923 9.71175 14.1078M4.842 11.0299C4.842 11.0299 6.465 8.21028 9.717 7.91395V6.8856C6.11475 7.22868 3 10.812 3 10.812C3 10.812 4.7625 16.811 9.711 17.3561V16.2651C6.081 15.7359 4.842 11.0299 4.842 11.0299Z" fill="black"/>
</svg>
