<svg width="24" height="24" viewBox="0 0 24 24" fill="none" xmlns="http://www.w3.org/2000/svg">
<path d="M19.2 3C20.1941 3 21 3.80589 21 4.8V19.2C21 20.1941 20.1941 21 19.2 21H4.8C3.80589 21 3 20.1941 3 19.2V4.8C3 3.80589 3.80589 3 4.8 3H19.2ZM11.1997 14.9175H8.13V19.0575H11.2785V18.36H8.96625V17.2327H11.0437V16.5353H8.96625V15.6172H11.1997V14.9175ZM12.8093 14.9175H11.9963V19.0575H12.7725V16.3575L14.442 19.0575H15.2805V14.9175H14.5035V17.682L12.8093 14.9175ZM16.647 14.9175H15.741L17.2207 19.0575H18.1133L19.5953 14.9175H18.7087L17.6948 17.9812L16.647 14.9175ZM7.05 17.76H5.79V19.02H7.05V17.76Z" fill="black"/>
</svg>
