<svg width="24" height="24" viewBox="0 0 24 24" fill="none" xmlns="http://www.w3.org/2000/svg">
<path d="M4.42463 9.1039H7.09345C7.87781 9.11082 8.44571 9.36017 8.79717 9.85195C9.14926 10.3437 9.26547 11.0156 9.14581 11.8675C9.09775 12.265 8.99375 12.6516 8.83758 13.0135C8.68207 13.3911 8.46588 13.7343 8.19951 14.0265C7.86747 14.4074 7.51225 14.6499 7.13386 14.7538C6.74857 14.8577 6.35388 14.9086 5.9592 14.9075H4.76199L4.38328 17H3L4.42463 9.1039ZM5.58989 10.359L4.99222 13.6629C5.03176 13.6691 5.07162 13.6726 5.11157 13.6732H5.25158C5.88872 13.6809 6.41998 13.6116 6.84536 13.4655C7.27012 13.3103 7.55548 12.7742 7.70145 11.8571C7.82048 11.0862 7.70114 10.6419 7.34342 10.5242C6.99133 10.4064 6.54966 10.3513 6.0184 10.359C5.93884 10.3659 5.86241 10.3694 5.78911 10.3694H5.57955L5.58989 10.359ZM10.7236 7H12.0975L11.7094 9.1039H12.9442C13.6214 9.11775 14.1264 9.27186 14.459 9.56623C14.7973 9.85991 14.8969 10.4178 14.7579 11.24L14.0907 14.9075H12.6952L13.3332 11.4052C13.3996 11.0381 13.3796 10.7773 13.2731 10.6229C13.1666 10.4684 12.9376 10.3915 12.5861 10.3922L11.4801 10.3818L10.6635 14.9075H9.28865L10.7236 7ZM16.2332 9.1039H18.903C19.6861 9.11082 20.254 9.36017 20.6067 9.85195C20.9582 10.3437 21.0741 11.0156 20.9544 11.8675C20.9064 12.265 20.8024 12.6516 20.6462 13.0135C20.491 13.391 20.2751 13.7342 20.009 14.0265C19.6764 14.4074 19.3212 14.6499 18.9434 14.7538C18.5581 14.8577 18.1634 14.9086 17.7678 14.9075H16.5725L16.1938 17H14.8095L16.2332 9.1039ZM17.3985 10.359L16.8018 13.6629C16.8413 13.6691 16.8812 13.6726 16.9211 13.6732H17.0602C17.6979 13.6809 18.2292 13.6116 18.654 13.4655C19.0787 13.3103 19.3644 12.7742 19.511 11.8571C19.63 11.0862 19.5104 10.6419 19.152 10.5242C18.8006 10.4064 18.3589 10.3513 17.827 10.359C17.751 10.3658 17.6749 10.3693 17.5986 10.3694H17.3891L17.3985 10.359Z" fill="black"/>
</svg>
