<svg width="24" height="24" viewBox="0 0 24 24" fill="none" xmlns="http://www.w3.org/2000/svg">
<path d="M9.48695 4V18.9273L12.7494 20V7.48107C12.7494 6.89409 13.0028 6.50191 13.4111 6.63803C13.9411 6.79115 14.0444 7.3305 14.0444 7.91833V12.9162C16.0786 13.9311 17.6794 12.9145 17.6794 10.2348C17.6794 7.48107 16.7411 6.25776 13.9811 5.27775C12.8919 4.89664 10.8744 4.26882 9.48945 4H9.48695ZM13.3669 17.8162L18.6135 15.8809C19.2094 15.6614 19.3019 15.3492 18.8185 15.185C18.3302 15.0217 17.4544 15.0668 16.8544 15.2897L13.3503 16.5657V14.5351L13.5503 14.4628C13.5503 14.4628 14.5511 14.1055 15.9777 13.9396C17.3911 13.7865 19.1319 13.9651 20.5085 14.5019C22.0485 15.0132 22.2085 15.7541 21.8218 16.2646C21.4344 16.775 20.4702 17.1459 20.4702 17.1459L13.3503 19.789V17.8358L13.3669 17.8162ZM3.50617 17.6146C1.92285 17.151 1.66118 16.1957 2.37951 15.641C3.047 15.1425 4.1795 14.7461 4.1795 14.7461L8.85862 13.0336V15.0013L5.50448 16.2535C4.91699 16.484 4.81699 16.7912 5.30532 16.9562C5.79365 17.1221 6.66947 17.0838 7.2578 16.8541L8.87279 16.2535V18.0179C8.77279 18.0434 8.65946 18.0553 8.54779 18.08C6.93197 18.3615 5.21782 18.2467 3.51617 17.6725L3.50617 17.6146Z" fill="black"/>
</svg>
