<svg width="24" height="24" viewBox="0 0 24 24" fill="none" xmlns="http://www.w3.org/2000/svg">
<path d="M4.31225 8.46916C3.58755 8.46882 3.00018 9.02259 3 9.70367L3.00089 14.8724C3.00082 15.0346 3.03473 15.1952 3.10068 15.345C3.16662 15.4949 3.26332 15.631 3.38523 15.7457C3.50715 15.8604 3.6519 15.9513 3.8112 16.0134C3.97051 16.0754 4.14126 16.1073 4.31368 16.1073C4.4861 16.1075 4.65686 16.0756 4.81618 16.0136C4.9755 15.9516 5.12025 15.8607 5.24214 15.746C5.36402 15.6313 5.46064 15.4951 5.52647 15.3453C5.5923 15.1954 5.62604 15.0348 5.62576 14.8726V9.70299C5.62538 9.37561 5.48682 9.06175 5.24053 8.8304C4.99423 8.59904 4.66035 8.46911 4.31225 8.46916ZM14.8963 3.82743L15.8123 2.25423C15.8356 2.21432 15.8412 2.16734 15.8278 2.12358C15.8143 2.07983 15.783 2.04287 15.7406 2.02081C15.6982 1.99913 15.6483 1.99416 15.602 2.00699C15.5557 2.01982 15.5167 2.0494 15.4935 2.08926L14.5682 3.67893C13.7897 3.35303 12.9183 3.1704 11.9964 3.17124C11.077 3.1704 10.206 3.35252 9.43074 3.67658L8.50435 2.09094C8.49304 2.07115 8.47767 2.05366 8.45912 2.03949C8.44058 2.02533 8.41923 2.01477 8.39631 2.00842C8.37339 2.00207 8.34937 2.00005 8.32562 2.0025C8.30187 2.00495 8.27887 2.0118 8.25796 2.02266C8.23684 2.03328 8.21819 2.04774 8.20309 2.06522C8.188 2.08269 8.17675 2.10282 8.17003 2.12443C8.1633 2.14604 8.16123 2.1687 8.16392 2.19107C8.16661 2.21344 8.17402 2.23509 8.18572 2.25473L9.1021 3.82692C7.30153 4.70021 6.08493 6.36338 6.08601 8.27291L17.9083 8.27156C17.9086 6.3627 16.6942 4.7029 14.8963 3.82743ZM9.30755 6.25861C9.17607 6.25854 9.05 6.20936 8.95708 6.12187C8.86417 6.03439 8.812 5.91577 8.81208 5.79211C8.81215 5.66846 8.86444 5.5499 8.95746 5.46251C9.05048 5.37512 9.1766 5.32606 9.30808 5.32613C9.43957 5.32635 9.56562 5.37556 9.65861 5.46299C9.75161 5.55042 9.80398 5.66895 9.80427 5.79262C9.80403 5.91634 9.75158 6.03492 9.65844 6.12229C9.5653 6.20967 9.4391 6.2587 9.30755 6.25861ZM14.6907 6.25777C14.6256 6.25781 14.5611 6.24579 14.501 6.22239C14.4408 6.19899 14.3862 6.16467 14.3401 6.12139C14.2941 6.07811 14.2576 6.02673 14.2327 5.97017C14.2078 5.91361 14.195 5.85299 14.195 5.79178C14.1957 5.66823 14.2482 5.54991 14.341 5.46247C14.4338 5.37502 14.5595 5.32549 14.6908 5.32461C14.8221 5.32563 14.9476 5.37526 15.0403 5.46274C15.1329 5.55022 15.1851 5.6685 15.1856 5.79195C15.1857 5.85311 15.1729 5.91369 15.1481 5.97021C15.1232 6.02673 15.0868 6.0781 15.0408 6.12136C14.9948 6.16463 14.9403 6.19894 14.8802 6.22235C14.8201 6.24575 14.7557 6.25779 14.6907 6.25777ZM6.13428 8.7024L6.13625 16.713C6.13599 16.886 6.17204 17.0574 6.24233 17.2173C6.31261 17.3772 6.41576 17.5225 6.54585 17.6448C6.67595 17.7672 6.83043 17.8641 7.00045 17.9302C7.17047 17.9963 7.35269 18.0302 7.53665 18.0299L8.49022 18.0303L8.4913 20.7653C8.49112 21.4464 9.07975 22 9.80284 22C10.5281 22 11.1156 21.4459 11.1158 20.7645L11.1151 18.0301L12.8869 18.0296L12.8876 20.7645C12.8876 21.4451 13.4764 21.9998 14.1997 21.9985C14.9249 21.999 15.5128 21.4449 15.5126 20.7635L15.5117 18.0293L16.4687 18.0286C16.6527 18.0286 16.8349 17.9945 17.0048 17.9284C17.1748 17.8622 17.3293 17.7651 17.4594 17.6428C17.5895 17.5205 17.6927 17.3752 17.7631 17.2154C17.8335 17.0555 17.8698 16.8842 17.8698 16.7112L17.8682 8.70055L6.13428 8.7024ZM20.9991 9.70182C20.9991 9.53972 20.9651 9.37922 20.8991 9.22947C20.8332 9.07972 20.7365 8.94366 20.6146 8.82905C20.4927 8.71445 20.348 8.62355 20.1888 8.56154C20.0295 8.49953 19.8588 8.46762 19.6865 8.46764C18.9618 8.46697 18.3746 9.02041 18.3746 9.70232L18.3757 14.8714C18.3756 15.0335 18.4094 15.1941 18.4753 15.3439C18.5412 15.4936 18.6379 15.6297 18.7598 15.7444C18.8816 15.859 19.0263 15.9499 19.1856 16.0119C19.3449 16.0739 19.5156 16.1057 19.6879 16.1056C19.8603 16.1056 20.031 16.0737 20.1903 16.0116C20.3495 15.9496 20.4942 15.8586 20.6161 15.7439C20.7379 15.6292 20.8346 15.4931 20.9004 15.3433C20.9663 15.1934 21.0001 15.0329 21 14.8708L20.9991 9.70182Z" fill="black"/>
</svg>
