<svg width="24" height="24" viewBox="0 0 24 24" fill="none" xmlns="http://www.w3.org/2000/svg">
<path d="M10.1168 3.00225L10.6635 3H13.3365L13.884 3.00225L14.5695 3.00975L14.8942 3.015L15.2078 3.02325L15.51 3.03375L15.801 3.04575L16.0815 3.0615L16.3515 3.08025L16.6102 3.10275L16.86 3.12751C18.165 3.27451 19.0597 3.58952 19.7347 4.26455C20.4097 4.93958 20.7248 5.83362 20.8717 7.13942L20.8973 7.38918L20.919 7.64869L20.9377 7.9187L20.9528 8.19847L20.9715 8.63948L20.9805 8.947L20.9902 9.43002L20.997 10.1163L21 10.8513L20.9993 13.3362L20.997 13.8837L20.9895 14.5692L20.9842 14.894L20.976 15.2075L20.9655 15.5098L20.9535 15.8008L20.9377 16.0813L20.919 16.3513L20.8965 16.6101L20.8717 16.8598C20.7248 18.1649 20.4097 19.0597 19.7347 19.7347C19.0597 20.4097 18.1657 20.7247 16.86 20.8717L16.6102 20.8972L16.3507 20.919L16.0807 20.9377L15.801 20.9527L15.36 20.9715L15.0525 20.9805L14.5695 20.9902L13.8832 20.997L13.1483 21L10.6635 20.9993L10.116 20.997L9.4305 20.9895L9.10575 20.9842L8.79225 20.976L8.49 20.9655L8.199 20.9535L7.9185 20.9377L7.6485 20.919L7.38975 20.8965L7.14 20.8717C5.835 20.7247 4.94025 20.4097 4.26525 19.7347C3.59025 19.0597 3.27525 18.1656 3.12825 16.8598L3.10275 16.6101L3.081 16.3506L3.06225 16.0805L3.04725 15.8008L3.0285 15.3598L3.0195 15.0523L3.00975 14.5692L3.003 13.883L3 13.1479L3.00075 10.6631L3.003 10.1155L3.0105 9.43002L3.01575 9.10525L3.024 8.79174L3.0345 8.48948L3.0465 8.19847L3.06225 7.91795L3.081 7.64794L3.1035 7.38918L3.12825 7.13942C3.27525 5.83437 3.59025 4.93958 4.26525 4.26455C4.94025 3.58952 5.83425 3.27451 7.14 3.12751L7.38975 3.102L7.64925 3.08025L7.91925 3.0615L8.199 3.0465L8.64 3.02775L8.9475 3.01875L9.4305 3.009L10.1168 3.00225ZM8.0925 8.47448H6.0375C6.135 13.1547 8.475 15.9673 12.5775 15.9673H12.81V13.2897C14.3175 13.4397 15.4575 14.5422 15.915 15.9673H18.045C17.46 13.8372 15.9225 12.6597 14.9625 12.2096C15.9225 11.6546 17.2725 10.3046 17.595 8.47448H15.66C15.24 9.95954 13.995 11.3096 12.81 11.4371V8.47448H10.875V13.6647C9.675 13.3647 8.16 11.9096 8.0925 8.47448Z" fill="black"/>
</svg>
