<svg width="24" height="24" viewBox="0 0 24 24" fill="none" xmlns="http://www.w3.org/2000/svg">
<path d="M12 21C16.971 21 21 17.3154 21 12.7712C21 9.953 19.4573 7.46433 17.0858 5.98811C16.1213 5.3808 15.363 4.8355 14.7315 4.38279C13.5435 3.52746 12.81 3 12 3C11.1772 3 10.2495 3.66676 9.0255 4.54672C8.33564 5.05327 7.63126 5.53399 6.9135 5.98811C4.54275 7.46433 3 9.953 3 12.7712C3 17.3154 7.029 20.9991 12 20.9991V21ZM10.9493 5.81229C11.1997 5.16761 11.3265 4.47027 11.3228 3.76614C11.3228 3.64298 11.4742 3.6073 11.4952 3.74151C11.9887 6.10532 10.8188 7.27661 9.9525 7.66903C9.8595 7.7098 9.80325 7.56625 9.87525 7.49151C10.3344 7.02439 10.7005 6.45198 10.9493 5.81229ZM12.4928 5.72565C12.4218 5.03312 12.2219 4.36552 11.9062 3.76699V3.7534C11.8545 3.64892 11.9707 3.53001 12.045 3.6073C13.5165 5.40034 13.0253 7.06172 12.462 7.89751C12.4005 7.98499 12.2895 7.89496 12.3202 7.79049C12.5054 7.12361 12.5641 6.42001 12.4928 5.72565ZM13.8247 5.24915C13.5234 4.64569 13.1111 4.12257 12.6158 3.71518V3.70328C12.5317 3.63109 12.5978 3.47055 12.7013 3.51812C14.6475 4.44139 14.7817 6.21914 14.5455 7.26132C14.5403 7.28589 14.5272 7.30738 14.5087 7.32163C14.4909 7.33588 14.4689 7.34155 14.4473 7.33741C14.4258 7.33327 14.4067 7.31966 14.394 7.29955C14.381 7.27916 14.3751 7.25405 14.3775 7.22905C14.3173 6.53262 14.129 5.85817 13.8247 5.24915ZM10.0095 5.72565C9.54675 6.18941 9.048 6.37118 8.46225 6.57503C8.3745 6.57503 8.316 6.50878 8.34525 6.42129C9.65925 5.64921 10.1273 5.02067 10.5945 4.06172C10.5945 4.06172 10.7108 3.96149 10.7355 4.13392C10.7355 4.39213 10.4737 5.26274 10.0095 5.72565ZM13.7183 15.2701C13.6117 15.7822 13.3659 16.2436 13.0155 16.5892C12.756 16.8831 12.4155 17.0691 12.051 17.1158C11.6755 17.0755 11.3239 16.8895 11.0557 16.5892C10.7087 16.2422 10.4661 15.781 10.362 15.2701C10.3583 15.2398 10.3608 15.2089 10.3691 15.1798C10.3774 15.1507 10.3914 15.1241 10.41 15.1019C10.4285 15.0801 10.4512 15.0635 10.4763 15.0534C10.5014 15.0432 10.5283 15.0397 10.5547 15.0433H13.5285C13.5547 15.0403 13.5811 15.044 13.6058 15.0543C13.6305 15.0646 13.6528 15.0812 13.671 15.1028C13.7085 15.1478 13.7257 15.2089 13.7183 15.2701ZM9.62475 13.4219C9.35288 13.6314 9.02436 13.7255 8.69721 13.6874C8.37006 13.6493 8.0653 13.4816 7.83675 13.2138C7.60511 12.9403 7.46182 12.5862 7.4301 12.209C7.39838 11.8317 7.4801 11.4534 7.662 11.1353C7.81725 10.8644 8.03925 10.6546 8.298 10.5297C8.55625 10.405 8.84196 10.3724 9.117 10.4363C9.3915 10.5 9.64425 10.658 9.84225 10.8873C10.0408 11.1213 10.1753 11.4153 10.2296 11.7339C10.2839 12.0525 10.2556 12.3821 10.1483 12.6829C10.0416 12.9819 9.85955 13.2395 9.62475 13.4219ZM15.996 13.4261C15.7236 13.6341 15.3952 13.7267 15.0685 13.6873C14.7419 13.648 14.4379 13.4794 14.2102 13.2112C13.9456 12.8995 13.7985 12.4834 13.8 12.051C13.8 11.7248 13.8825 11.4054 14.04 11.1345C14.1953 10.8635 14.4173 10.6529 14.6768 10.5289C14.9354 10.4045 15.2214 10.3725 15.4965 10.4371C15.7718 10.5017 16.0245 10.6597 16.2225 10.8907C16.4205 11.1256 16.5541 11.4204 16.6074 11.7395C16.6606 12.0586 16.6311 12.3883 16.5225 12.6888C16.415 12.988 16.2318 13.2445 15.996 13.4261Z" fill="black"/>
</svg>
