<svg width="24" height="24" viewBox="0 0 24 24" fill="none" xmlns="http://www.w3.org/2000/svg">
<path d="M21 12C21 7.0293 16.9707 3 12 3C7.0293 3 3 7.0293 3 12C3 16.9707 7.0293 21 12 21C16.9707 21 21 16.9707 21 12ZM7.5567 6.0438C7.7871 6.1059 7.9257 6.3408 7.869 6.5721L7.8663 6.582L7.2687 8.7969L7.266 8.8077C7.25099 8.86343 7.22515 8.91565 7.18996 8.96139C7.15476 9.00713 7.11091 9.04549 7.06089 9.07428C6.95987 9.13243 6.83989 9.14806 6.72735 9.11775C6.61481 9.08744 6.51891 9.01365 6.46077 8.91264C6.40262 8.81162 6.38699 8.69164 6.4173 8.5791L6.42 8.5683L7.0176 6.3534L7.0212 6.3426C7.05426 6.23305 7.12859 6.14065 7.22852 6.08489C7.32844 6.02914 7.44612 6.0144 7.5567 6.0438ZM15.2355 6.4623C15.4668 6.5253 15.6045 6.7593 15.5487 6.9906L15.546 7.0014L15.0762 8.7411L15.0375 8.7123C14.8037 8.54022 14.5553 8.38904 14.295 8.2605L14.6973 6.7719L14.7 6.762C14.7331 6.65245 14.8074 6.56005 14.9073 6.50429C15.0072 6.44854 15.1249 6.4329 15.2355 6.4623ZM11.3268 3.9657C11.3409 4.03102 11.3403 4.09865 11.325 4.1637L11.3223 4.1745L10.7238 6.3894L10.7211 6.4002C10.6883 6.50984 10.6141 6.60236 10.5141 6.65807C10.4142 6.71378 10.2964 6.72828 10.1859 6.69849C10.0755 6.6687 9.98097 6.59697 9.92258 6.49856C9.86419 6.40016 9.84651 6.28285 9.8733 6.1716L9.876 6.1608L10.4331 4.0953L10.4916 4.0836C10.7678 4.03012 11.0466 3.99017 11.3268 3.9657ZM16.8258 5.4966L16.878 5.5353C17.1192 5.7153 17.3502 5.9082 17.571 6.114L17.5575 6.1608L17.5548 6.1716C17.5398 6.22733 17.514 6.27955 17.4788 6.32529C17.4436 6.37103 17.3997 6.40939 17.3497 6.43818C17.2997 6.46697 17.2445 6.48563 17.1872 6.49309C17.13 6.50055 17.0719 6.49666 17.0161 6.48165C16.9604 6.46664 16.9082 6.4408 16.8625 6.40561C16.8167 6.37041 16.7784 6.32656 16.7496 6.27654C16.7208 6.22652 16.7021 6.17132 16.6947 6.11409C16.6872 6.05686 16.6911 5.99873 16.7061 5.943L16.7088 5.9322L16.8258 5.4966ZM13.35 4.0368L13.413 4.0476C13.6812 4.0926 13.9467 4.1517 14.2095 4.2249L13.9863 5.052L13.9836 5.0619C13.9508 5.17154 13.8766 5.26406 13.7766 5.31977C13.6767 5.37548 13.5589 5.38998 13.4484 5.36019C13.338 5.3304 13.2435 5.25867 13.1851 5.16026C13.1267 5.06186 13.109 4.94455 13.1358 4.8333L13.1385 4.8225L13.35 4.0368ZM11.8488 16.4235C11.9073 16.4399 11.9618 16.468 12.0091 16.506C12.0565 16.5441 12.0956 16.5913 12.1242 16.6449L12.1368 16.7097L12.1575 16.8123L12.1719 16.8843L12.1701 16.9014L12.1611 16.9509L12.1584 16.9617L11.5608 19.1766L11.5581 19.1874C11.5431 19.2431 11.5173 19.2954 11.4821 19.3411C11.4469 19.3868 11.403 19.4252 11.353 19.454C11.303 19.4828 11.2478 19.5014 11.1905 19.5089C11.1333 19.5163 11.0752 19.5125 11.0194 19.4974C10.9637 19.4824 10.9115 19.4566 10.8658 19.4214C10.82 19.3862 10.7817 19.3424 10.7529 19.2923C10.7241 19.2423 10.7054 19.1871 10.698 19.1299C10.6905 19.0727 10.6944 19.0145 10.7094 18.9588L10.7121 18.948L11.3097 16.7331L11.3124 16.7223C11.3455 16.6126 11.4199 16.52 11.5201 16.4642C11.6202 16.4084 11.7381 16.3938 11.8488 16.4235ZM7.6827 14.142C7.9059 14.3376 8.1597 14.5104 8.4441 14.6604L7.9023 16.6692L7.8996 16.68C7.86917 16.7925 7.79527 16.8884 7.69417 16.9465C7.59307 17.0045 7.47304 17.02 7.3605 16.9896C7.24795 16.9592 7.15211 16.8853 7.09405 16.7842C7.03599 16.6831 7.02047 16.563 7.0509 16.4505L7.0536 16.4397L7.6512 14.2257L7.6557 14.2104L7.6827 14.142ZM6.258 11.595C6.4884 11.658 6.627 11.892 6.5703 12.1233L6.5676 12.1341L5.97 14.3481L5.9673 14.3589C5.95229 14.4146 5.92645 14.4669 5.89126 14.5126C5.85606 14.5583 5.81221 14.5967 5.76219 14.6255C5.71217 14.6543 5.65697 14.6729 5.59974 14.6804C5.54251 14.6878 5.48438 14.684 5.42865 14.669C5.37292 14.6539 5.3207 14.6281 5.27496 14.5929C5.22922 14.5577 5.19086 14.5139 5.16207 14.4638C5.13328 14.4138 5.11462 14.3586 5.10716 14.3014C5.0997 14.2442 5.10359 14.186 5.1186 14.1303L5.1213 14.1195L5.7189 11.9055L5.7216 11.8947C5.75447 11.7848 5.82887 11.692 5.92901 11.6361C6.02916 11.5801 6.14717 11.5654 6.258 11.595ZM19.659 11.0919C19.8894 11.1549 20.028 11.3889 19.9713 11.6202L19.9686 11.631L19.371 13.845L19.3674 13.8567C19.3357 13.9677 19.2616 14.0617 19.1611 14.1185C19.0606 14.1752 18.9418 14.1901 18.8303 14.16C18.7189 14.1298 18.6239 14.057 18.5657 13.9573C18.5076 13.8576 18.491 13.739 18.5196 13.6272L18.5223 13.6173L19.1199 11.4015L19.1226 11.3916C19.1555 11.2817 19.2299 11.1889 19.33 11.133C19.4302 11.077 19.5482 11.0623 19.659 11.0919ZM4.9566 8.1345C5.02232 8.13598 5.08687 8.15219 5.14548 8.18194C5.2041 8.21169 5.25529 8.25422 5.29529 8.30639C5.33528 8.35856 5.36305 8.41904 5.37655 8.48338C5.39005 8.54771 5.38894 8.61425 5.3733 8.6781L5.3697 8.6889L4.7721 10.9029L4.7694 10.9137C4.7472 10.9891 4.70516 11.0572 4.64768 11.1108C4.59019 11.1645 4.51936 11.2017 4.44259 11.2186C4.36581 11.2355 4.2859 11.2315 4.2112 11.207C4.1365 11.1825 4.06974 11.1384 4.0179 11.0793C4.13665 10.0461 4.45549 9.04585 4.9566 8.1345ZM18.1452 8.1498C18.3756 8.2128 18.5142 8.4468 18.4575 8.6781L18.4548 8.6889L17.8572 10.9029L17.8545 10.9137C17.8242 11.0262 17.7504 11.1221 17.6494 11.1803C17.5484 11.2384 17.4284 11.2541 17.3158 11.2237C17.2033 11.1934 17.1074 11.1197 17.0493 11.0186C16.9911 10.9176 16.9755 10.7976 17.0058 10.6851L17.0085 10.6743L17.6061 8.4603L17.6088 8.4486C17.6419 8.33886 17.7163 8.24629 17.8165 8.19052C17.9166 8.13474 18.0345 8.12014 18.1452 8.1498ZM9.399 17.4954C9.6303 17.5575 9.768 17.7924 9.7113 18.0237L9.7086 18.0336L9.2811 19.6194L9.2217 19.5969C8.96431 19.5006 8.71198 19.3913 8.4657 19.2693L8.8599 17.805L8.8635 17.7942C8.89655 17.6847 8.97089 17.5922 9.07082 17.5365C9.17074 17.4807 9.28842 17.466 9.399 17.4954ZM11.6976 8.1138C12.9567 8.1138 14.0367 8.4621 14.8863 9.1263C15.9429 9.9525 16.3416 11.0901 16.6836 12.324L18.0534 17.4351C16.7659 18.855 15.0188 19.7754 13.1196 20.0343C12.9999 19.2608 12.8637 18.4899 12.711 17.7222L12.6894 17.6052L12.6039 17.1597V17.157C12.4509 16.3524 12.2889 15.4911 12.2205 15.303C12.1395 15.0798 12.0693 14.9133 11.8218 14.9187C8.9184 14.9808 7.0446 13.7451 7.0446 11.8101C7.0446 9.7608 9.0804 8.1138 11.6976 8.1138Z" fill="black"/>
<path d="M12.261 9.5934C12.4102 9.5934 12.5533 9.65266 12.6587 9.75815C12.7642 9.86364 12.8235 10.0067 12.8235 10.1559C12.8235 10.3051 12.7642 10.4482 12.6587 10.5536C12.5533 10.6591 12.4102 10.7184 12.261 10.7184C12.1118 10.7184 11.9687 10.6591 11.8633 10.5536C11.7578 10.4482 11.6985 10.3051 11.6985 10.1559C11.6985 10.0067 11.7578 9.86364 11.8633 9.75815C11.9687 9.65266 12.1118 9.5934 12.261 9.5934Z" fill="black"/>
</svg>
