<svg width="24" height="24" viewBox="0 0 24 24" fill="none" xmlns="http://www.w3.org/2000/svg">
<path d="M13.632 21H16.3875C18.9195 21 21 18.9195 21 16.3875V7.6125C21 5.08125 18.9195 3 16.3875 3H13.575C13.5195 3 13.4625 3.0555 13.4625 3.1125V20.8875C13.4618 20.9445 13.5188 21 13.632 21ZM17.0625 11.1007C18.0758 11.1007 18.8617 11.9445 18.8617 12.8993C18.8617 13.9132 18.018 14.6993 17.0625 14.6993C16.05 14.6993 15.2625 13.9125 15.2625 12.8993C15.2063 11.8875 16.05 11.1007 17.0625 11.1007ZM11.55 3H7.6125C5.08125 3 3 5.08125 3 7.6125V16.3875C3 18.9195 5.08125 21 7.6125 21H11.55C11.6055 21 11.6625 20.9445 11.6625 20.8883V3.1125C11.6632 3.0555 11.6062 3 11.55 3ZM10.257 19.5382H7.6125C7.19854 19.5389 6.78852 19.4579 6.40594 19.2998C6.02336 19.1417 5.67575 18.9097 5.38304 18.617C5.09033 18.3242 4.85827 17.9766 4.70018 17.5941C4.54208 17.2115 4.46106 16.8015 4.46175 16.3875V7.6125C4.46106 7.19854 4.54208 6.78852 4.70018 6.40594C4.85827 6.02336 5.09033 5.67575 5.38304 5.38304C5.67575 5.09033 6.02336 4.85827 6.40594 4.70018C6.78852 4.54208 7.19854 4.46106 7.6125 4.46175H10.2L10.257 19.5382ZM5.8125 8.39925C5.8125 9.3555 6.54375 10.0868 7.5 10.0868C8.45625 10.0868 9.1875 9.3555 9.1875 8.39925C9.1875 7.4445 8.45625 6.71175 7.5 6.71175C6.54375 6.71175 5.8125 7.4445 5.8125 8.39925Z" fill="black"/>
</svg>
