<svg width="24" height="24" viewBox="0 0 24 24" fill="none" xmlns="http://www.w3.org/2000/svg">
<path d="M7.59122 10.0726L7.72387 10.7708C7.72387 11.0032 7.7907 11.16 7.92436 11.3912V11.5469L7.85753 11.7792L7.39175 12.0906L7.25809 12.1672L7.0576 12.0906L6.7913 11.7014L6.59182 11.2367C6.0582 11.9349 5.39294 12.3217 4.65985 12.3217C4.06041 12.3217 3.59362 12.0906 3.32731 11.7025C2.99418 11.3912 2.7947 10.8487 2.7947 10.2283C2.7947 9.60676 2.99418 9.06423 3.39414 8.67621C3.7941 8.21035 4.3257 8.05585 5.05981 8.05585C5.55515 8.05263 6.04841 8.13085 6.52499 8.28819V7.74567C6.52499 7.12412 6.39133 6.7361 6.19186 6.50376C5.99238 6.19358 5.65925 6.11456 5.12563 6.11456L4.39354 6.19358C4.07222 6.28793 3.76136 6.41727 3.46097 6.5816H3.3263C3.25947 6.5816 3.19264 6.50376 3.19264 6.34808V5.96006L3.25947 5.72771C3.25947 5.64987 3.3263 5.57203 3.45996 5.57203L4.25988 5.18401L5.3251 5.02951C6.12503 5.02951 6.65764 5.26185 7.05659 5.64987C7.39073 6.11574 7.59021 6.7361 7.59021 7.58998L7.59122 10.0726ZM4.92615 11.3145L5.59242 11.1588C5.85872 11.081 6.0582 10.8487 6.25869 10.6163L6.45816 10.1505L6.52499 9.45225V9.14207C6.10958 9.03401 5.68491 8.98178 5.25928 8.98639C4.85932 8.98639 4.52619 9.06423 4.25988 9.29657C4.06041 9.45225 3.99358 9.76244 3.99358 10.1505C3.99358 10.5385 4.06041 10.7708 4.19305 11.0032C4.39354 11.1588 4.59302 11.3145 4.92615 11.3145ZM10.2553 12.0906L9.98898 12.0127L9.85532 11.7792L8.32331 5.72771L8.25648 5.41753L8.39014 5.26185H9.0564L9.32271 5.33969L9.45637 5.64987L10.5884 10.7708L11.5878 5.64987L11.7215 5.33969L11.9878 5.26185H12.5204L12.7867 5.33969L12.9204 5.64987L13.9856 10.8487L15.1186 5.64869L15.2513 5.33851L15.5186 5.26067H16.118C16.2507 5.26067 16.3175 5.33851 16.3175 5.41635V5.57085L16.2507 5.72654L14.6518 11.778L14.5192 12.0894L14.2519 12.1661H13.6524L13.3861 12.0894L12.2541 6.73492L11.2547 11.7002L11.121 12.0115L10.8547 12.0894L10.2553 12.0906ZM18.8489 12.3229C18.2278 12.3188 17.6147 12.16 17.0506 11.857L16.8501 11.6247L16.7833 11.469V11.081C16.7833 10.9265 16.8501 10.8487 16.9169 10.8487H17.0506L17.2501 10.9265C17.73 11.186 18.2525 11.3181 18.7821 11.3145C19.1821 11.3145 19.5152 11.1588 19.7147 11.0043C19.981 10.8487 20.0488 10.6151 20.0488 10.305L19.9152 9.76244L19.2489 9.37324L18.2495 8.98639C17.7837 8.83071 17.3837 8.52053 17.1833 8.21035C17.0536 8.01286 16.9592 7.78709 16.9057 7.54639C16.8522 7.3057 16.8407 7.05495 16.8719 6.80898C16.903 6.56302 16.9762 6.32682 17.0871 6.11436C17.198 5.9019 17.3443 5.71749 17.5174 5.57203L18.1827 5.18401C18.611 5.01418 19.0666 4.95993 19.5152 5.02951C19.7852 5.08927 20.0518 5.16671 20.3151 5.26185L20.5804 5.41753L20.7809 5.57203L20.8477 5.88222V6.19358C20.8477 6.42592 20.7809 6.50376 20.7141 6.50376L20.4478 6.34808C20.04 6.18878 19.6121 6.11024 19.1821 6.11574C18.7821 6.11574 18.449 6.11574 18.2495 6.27024C18.05 6.42592 17.9832 6.65944 17.9832 6.96844C17.9832 7.20196 18.05 7.35764 18.1827 7.51214C18.3163 7.66783 18.5158 7.82233 18.9157 7.97801L19.8473 8.28819C20.3141 8.52053 20.6472 8.75405 20.8477 9.06423C21.0482 9.37441 21.1809 9.76244 21.1809 10.1493L20.9804 11.081L20.5146 11.7025C20.3141 11.9349 20.0488 12.0906 19.7815 12.1672L18.8489 12.3229Z" fill="black"/>
<path fill-rule="evenodd" clip-rule="evenodd" d="M20.1146 16.1253C17.3972 18.2391 14.1511 19.2345 10.8923 18.9533C7.63346 18.6721 4.54879 17.1304 2.12843 14.5732C1.86213 14.3397 2.0616 14.1073 2.26108 14.263C4.90789 16.009 7.86191 17.0283 10.8981 17.2433C13.9343 17.4583 16.9726 16.8634 19.7815 15.5037C20.1146 15.3492 20.4478 15.8139 20.1146 16.1253Z" fill="black"/>
<path fill-rule="evenodd" clip-rule="evenodd" d="M20.9804 14.8834C20.7141 14.4954 19.1152 14.651 18.449 14.8055C18.1827 14.8055 18.1827 14.5732 18.3821 14.4175C19.6478 13.4091 21.7135 13.7193 21.9129 14.0295C22.1803 14.4187 21.8461 16.8235 20.7141 17.9876C20.5146 18.1421 20.3141 18.0642 20.3809 17.8319C20.7151 17.0558 21.2467 15.2714 20.9804 14.8834Z" fill="black"/>
</svg>
