<svg width="24" height="24" viewBox="0 0 24 24" fill="none" xmlns="http://www.w3.org/2000/svg">
<path d="M12 3C7.0266 3 3 7.0302 3 12.0072C2.999 13.8175 3.54394 15.586 4.56365 17.0818C5.58336 18.5775 7.03044 19.731 8.7159 20.3916C8.6349 19.6743 8.5674 18.5925 8.7429 17.8086C8.9049 17.1048 9.7977 13.332 9.7977 13.332C9.7977 13.332 9.5277 12.7911 9.5277 11.9928C9.5277 10.7355 10.2567 9.8022 11.1486 9.8022C11.919 9.8022 12.2835 10.3836 12.2835 11.0739C12.2835 11.8443 11.7975 13.008 11.541 14.0754C11.325 14.9682 11.9865 15.699 12.8784 15.699C14.4732 15.699 15.7026 14.0079 15.7026 11.5743C15.7026 9.4233 14.1483 7.9095 11.946 7.9095C9.3918 7.9095 7.878 9.8292 7.878 11.8173C7.878 12.5886 8.175 13.4265 8.5539 13.8729C8.6214 13.9674 8.6349 14.0349 8.6214 14.1303C8.5539 14.4138 8.4054 15.0222 8.3784 15.1446C8.3379 15.3066 8.2434 15.3471 8.0814 15.2661C6.9591 14.7387 6.2571 13.1025 6.2571 11.7768C6.2571 8.9373 8.3244 6.3264 12.2025 6.3264C15.3246 6.3264 17.7429 8.5584 17.7429 11.5194C17.7429 14.6172 15.7836 17.1192 13.0809 17.1192C12.1755 17.1192 11.3106 16.6458 11.0136 16.0914L10.4592 18.228C10.2567 19.0119 9.7032 19.9857 9.3378 20.595C10.1757 20.8515 11.0676 21 12 21C16.9734 21 21 16.9698 21 11.9928C21 7.0302 16.9734 3 12 3Z" fill="black"/>
</svg>
