<svg width="24" height="24" viewBox="0 0 24 24" fill="none" xmlns="http://www.w3.org/2000/svg">
<path d="M13.157 12.5708C12.8045 12.5708 13.2275 12.7375 13.6867 12.8042C13.8101 12.7208 13.9247 12.6208 14.0305 12.5292C13.7441 12.5887 13.4483 12.6028 13.157 12.5708ZM15.044 12.1292C15.2468 11.8542 15.3966 11.5542 15.4583 11.2458C15.4054 11.4708 15.282 11.6625 15.1674 11.8542C14.5064 12.2458 15.1057 11.6292 15.1674 11.3875C14.4623 12.2292 15.0705 11.8875 15.044 12.1292ZM15.7324 10.4208C15.7765 9.82 15.609 10.0033 15.5561 10.2367C15.6178 10.27 15.6707 10.6542 15.7324 10.4208ZM11.835 2.25833C12.0112 2.29167 12.2316 2.31667 12.2051 2.35833C12.4079 2.31667 12.4519 2.275 11.8262 2.25833M12.2051 2.35833L12.0729 2.38333L12.1963 2.375V2.35833M18.0425 10.645C18.0601 11.1783 17.8662 11.4367 17.7076 11.895L17.3991 12.0458C17.1523 12.4958 17.4255 12.3375 17.2492 12.6958C16.8614 13.0208 16.0682 13.7125 15.8214 13.78C15.6443 13.78 15.9448 13.5717 15.9889 13.4967C15.468 13.83 15.5649 13.9967 14.7805 14.205L14.7541 14.155C12.7966 15.0217 10.0802 13.305 10.1242 10.9533C10.0978 11.095 10.0625 11.0617 10.0185 11.12C9.96471 10.522 10.1046 9.9226 10.4196 9.4015C10.7346 8.88041 11.2098 8.46223 11.7821 8.2025C12.31 7.95123 12.9053 7.85505 13.4915 7.92633C14.0777 7.99761 14.6279 8.2331 15.0714 8.6025C14.7895 8.25676 14.4255 7.97855 14.0089 7.79036C13.5923 7.60217 13.1347 7.50927 12.6732 7.51917C11.6331 7.5275 10.6628 8.1525 10.3366 8.8275C9.80782 9.14417 9.74612 10.0525 9.51697 10.2117C9.19879 12.3792 10.0987 13.3133 11.6146 14.4133C11.8526 14.5717 11.6851 14.5883 11.7204 14.705C11.2053 14.4739 10.7463 14.1449 10.3719 13.7383C10.5746 14.0133 10.7861 14.2883 11.077 14.4967C10.5922 14.3467 9.95765 13.4133 9.77256 13.3717C10.5922 14.755 13.1041 15.8058 14.4095 15.2883C13.7155 15.3349 13.0184 15.2557 12.3559 15.055C12.065 14.9217 11.6772 14.63 11.7389 14.58C12.5918 14.9193 13.5261 15.0334 14.4422 14.9101C15.3582 14.7868 16.2218 14.4308 16.9408 13.88C17.3286 13.5883 17.7604 13.0967 17.8838 13.0883C17.7076 13.355 17.9191 13.2217 17.7781 13.455C18.1659 12.855 17.6018 13.205 18.1835 12.4217L18.395 12.6967C18.3157 12.1967 19.0472 11.5958 18.9767 10.8117C19.1442 10.5617 19.153 11.0617 18.9767 11.62C19.2323 11.0033 19.0472 10.9117 19.1089 10.4033C19.1794 10.57 19.2676 10.7533 19.3116 10.9283C19.153 10.345 19.4879 9.92833 19.5584 9.595C19.4791 9.55333 19.3116 9.845 19.2764 9.15333C19.2764 8.845 19.3645 8.98667 19.3998 8.92C19.3293 8.87833 19.1706 8.65333 19.0649 8.2025C19.1354 8.09417 19.2588 8.4775 19.3645 8.48583C19.294 8.13583 19.1883 7.86083 19.1883 7.58583C18.8886 7.01917 19.0825 7.66917 18.8357 7.33583C18.536 6.42667 19.1001 7.1275 19.1354 6.71917C19.6113 7.36083 19.8757 8.3525 20 8.76917C19.9119 8.26917 19.7532 7.76917 19.5681 7.3025C19.7091 7.36083 19.339 6.26833 19.7532 6.99417C19.2048 5.43235 18.0518 4.12452 16.5256 3.33333C16.6843 3.475 16.8958 3.65833 16.8165 3.68333C16.1555 3.30833 16.27 3.28333 16.1731 3.125C15.6354 2.91667 15.6002 3.14167 15.2388 3.125C14.2164 2.60833 14.0225 2.66667 13.0865 2.33333L13.1306 2.525C12.4519 2.31667 12.3374 2.60833 11.6058 2.525C11.5617 2.49167 11.8438 2.40833 12.0729 2.375C11.4198 2.45833 11.4551 2.25833 10.8117 2.4C10.9615 2.29167 11.129 2.225 11.2965 2.13333C10.7676 2.16667 10.0273 2.425 10.2564 2.19167C9.38476 2.56667 7.83972 3.08333 6.97597 3.85L6.95041 3.66667C6.5538 4.11667 5.22292 5.00917 5.11716 5.5925L5.0017 5.6175C4.79899 5.95083 4.66678 6.32583 4.49932 6.66833C4.23491 7.10167 4.1027 6.835 4.14677 6.90167C3.61795 7.91833 3.35354 8.7775 3.12438 9.48667C3.28303 9.71167 3.12438 10.8617 3.18608 11.7867C2.92166 16.3392 6.57054 20.7667 10.557 21.7917C11.1475 21.9833 12.0112 21.9833 12.7516 22C11.879 21.7667 11.7645 21.875 10.9183 21.5917C10.3014 21.325 10.1692 21.0083 9.73731 20.65L9.91358 20.9417C9.05777 20.6583 9.4112 20.5917 8.71404 20.3833L8.89913 20.1583C8.6259 20.1333 8.16759 19.7167 8.0442 19.4833L7.74453 19.4917C7.38317 19.0742 7.18926 18.7658 7.20689 18.5242L7.10906 18.6908C6.99448 18.5158 5.76938 17.1067 6.40396 17.4317C6.28938 17.3317 6.13074 17.265 5.96328 16.9733L6.08667 16.8317C5.77819 16.465 5.52259 15.9817 5.54022 15.8317C5.71649 16.0317 5.82226 16.0817 5.93684 16.1067C5.16123 14.2967 5.11716 16.0067 4.52576 14.2717L4.65797 14.255C4.56983 14.1217 4.49932 13.9717 4.42881 13.83L4.48169 13.33C3.92643 12.7133 4.32304 10.745 4.40237 9.66167C4.46406 9.21167 4.8695 8.745 5.17797 8.01083L4.99289 7.9775C5.34544 7.38583 7.05618 5.58417 7.84941 5.67667C8.2284 5.21833 7.77009 5.67667 7.69076 5.56C8.53688 4.73417 8.80129 4.97667 9.36625 4.82667C9.98321 4.4925 8.83743 4.96 9.12828 4.70083C10.1859 4.45083 9.87745 4.1175 11.2621 3.9925C11.4031 4.07583 10.9183 4.10917 10.8038 4.20917C11.6851 3.80083 13.581 3.90083 14.8246 4.43417C16.2612 5.07583 17.875 6.94333 17.9367 8.71083L18.0072 8.7275C17.972 9.43583 18.1218 10.245 17.8574 10.9867L18.0337 10.6367M9.33188 13.03L9.28781 13.2633C9.51697 13.555 9.70205 13.8717 9.99291 14.105C9.78138 13.7133 9.62273 13.555 9.33188 13.0217M9.87833 13.005C9.75494 12.88 9.68443 12.7217 9.6051 12.5717C9.67561 12.8383 9.83426 13.0717 9.98409 13.305L9.87833 13.005ZM19.5249 11.02L19.4632 11.145C19.3751 11.7783 19.1636 12.4042 18.8551 12.9883C19.2076 12.38 19.428 11.7042 19.5161 11.02M11.8967 2.1C12.1346 2.01667 12.4784 2.05833 12.734 2C12.4079 2.025 12.0818 2.04167 11.7645 2.08333L11.8967 2.1ZM3.573 6.285C3.63469 6.76 3.19401 6.95167 3.66995 6.635C3.93436 6.085 3.573 6.485 3.58181 6.285M3.01773 8.5025C3.1235 8.1775 3.14994 7.98583 3.19401 7.8025C2.88553 8.16917 3.04417 8.24417 3.01773 8.49417" fill="black"/>
</svg>
