<svg width="24" height="24" viewBox="0 0 24 24" fill="none" xmlns="http://www.w3.org/2000/svg">
<path d="M4.8504 13.7407C5.8728 13.7407 6.7017 12.9625 6.7017 12.0018C6.7017 11.0411 5.8737 10.2629 4.8504 10.2629C3.8289 10.2629 3 11.0411 3 12.0018C3 12.9625 3.828 13.7407 4.8504 13.7407ZM17.7996 21C18.822 21 19.65 20.2227 19.65 19.2611C19.65 18.3013 18.822 17.5222 17.7996 17.5222C16.7772 17.5222 15.9483 18.3013 15.9483 19.2611C15.9483 20.2218 16.7772 21 17.7996 21ZM13.4832 7.66178C15.7314 7.66178 17.5971 9.28319 17.9058 11.3854H21C20.8564 9.72477 20.1403 8.16651 18.975 6.97941C18.5887 7.17064 18.1619 7.26494 17.7313 7.25424C17.3007 7.24353 16.8791 7.12814 16.5027 6.91796C16.132 6.71391 15.8191 6.41857 15.5933 6.05968C15.3676 5.70079 15.2364 5.29014 15.2121 4.86634C13.5545 4.49203 11.8206 4.66805 10.2711 5.36794L11.82 7.97359C12.3504 7.76705 12.9143 7.66132 13.4832 7.66178Z" fill="black"/>
<path d="M17.9067 12.6164C17.598 14.7195 15.7323 16.3418 13.4832 16.3418C12.914 16.3421 12.3497 16.2361 11.8191 16.0291L10.2702 18.6357C11.2794 19.095 12.3751 19.3314 13.4832 19.3289C14.0727 19.3289 14.6532 19.2629 15.213 19.1364C15.2371 18.7122 15.3682 18.3011 15.5942 17.9419C15.8201 17.5826 16.1334 17.287 16.5045 17.0829C16.8811 16.8726 17.3028 16.7571 17.7336 16.7464C18.1643 16.7357 18.5912 16.8301 18.9777 17.0215C20.1418 15.8342 20.857 14.2764 21 12.6164H17.9067ZM9.0147 12.0018C9.0147 10.619 9.6843 9.38532 10.7247 8.58998L9.1749 5.98433C8.80922 6.23273 8.46564 6.51244 8.148 6.82035C7.26894 7.66602 6.61775 8.7217 6.2553 9.88873C6.61538 10.1107 6.91313 10.4213 7.12038 10.791C7.32763 11.1608 7.43754 11.5775 7.4397 12.0018C7.4397 12.8875 6.9681 13.6657 6.2553 14.114C6.61775 15.281 7.26894 16.3367 8.148 17.1824C8.466 17.4909 8.808 17.7695 9.174 18.0184L10.722 15.4127C9.6825 14.6174 9.0147 13.3837 9.0147 12.0018ZM17.7978 6.47781C18.8202 6.47781 19.6482 5.69964 19.6482 4.7389C19.6482 3.77817 18.8202 3 17.7978 3C16.7754 3 15.9474 3.77817 15.9474 4.7389C15.9474 5.69964 16.7754 6.47781 17.7978 6.47781Z" fill="black"/>
</svg>
