<svg width="24" height="24" viewBox="0 0 24 24" fill="none" xmlns="http://www.w3.org/2000/svg">
<path d="M13.6154 5.5C13.6154 6.16304 13.899 6.79893 14.4039 7.26777C14.9088 7.73661 15.5936 8 16.3077 8C17.0217 8 17.7065 7.73661 18.2114 7.26777C18.7163 6.79893 19 6.16304 19 5.5C19 4.83696 18.7163 4.20107 18.2114 3.73223C17.7065 3.26339 17.0217 3 16.3077 3C15.5936 3 14.9088 3.26339 14.4039 3.73223C13.899 4.20107 13.6154 4.83696 13.6154 5.5ZM5 3H10.3846V8H5V3ZM10.3846 11V21C8.97797 20.9983 7.62789 20.4856 6.62314 19.5714C5.61839 18.6573 5.03876 17.4144 5.00822 16.1085C4.97769 14.8027 5.49868 13.5376 6.45976 12.5838C7.42084 11.63 8.74568 11.0634 10.1509 11.005L10.3846 11Z" stroke="black" stroke-width="2" stroke-linecap="round" stroke-linejoin="round"/>
</svg>
