<svg width="24" height="24" viewBox="0 0 24 24" fill="none" xmlns="http://www.w3.org/2000/svg">
<path d="M12.4277 8C14.6972 8 16.737 8.826 18.1486 10.14C18.6315 9.9425 19.159 9.95316 19.6357 10.1701C20.1125 10.3869 20.5069 10.7958 20.7478 11.3225C20.9887 11.8493 21.06 12.4592 20.9489 13.042C20.8378 13.6248 20.5516 14.142 20.1421 14.5C20.1421 18.09 16.6881 21 12.4285 21C8.25036 21 4.84782 18.2 4.71498 14.706L3.85792 14.5C3.4484 14.142 3.16221 13.6248 3.05111 13.042C2.94002 12.4592 3.01135 11.8493 3.2522 11.3225C3.49306 10.7958 3.88753 10.3869 4.36428 10.1701C4.84102 9.95316 5.36855 9.9425 5.85144 10.14C7.26217 8.827 9.30197 8 11.5715 8H12.4277ZM12.4277 8L13.2847 3L18.4271 4M10.7136 17C11.2852 17.333 11.856 17.5 12.4277 17.5C12.9993 17.5 13.5701 17.333 14.1418 17M17.57 4C17.57 4.26522 17.6603 4.51957 17.8211 4.70711C17.9818 4.89464 18.1998 5 18.4271 5C18.6544 5 18.8724 4.89464 19.0331 4.70711C19.1939 4.51957 19.2842 4.26522 19.2842 4C19.2842 3.73478 19.1939 3.48043 19.0331 3.29289C18.8724 3.10536 18.6544 3 18.4271 3C18.1998 3 17.9818 3.10536 17.8211 3.29289C17.6603 3.48043 17.57 3.73478 17.57 4ZM10.285 13C10.285 13.2761 10.0932 13.5 9.85649 13.5C9.61982 13.5 9.42796 13.2761 9.42796 13C9.42796 12.7239 9.61982 12.5 9.85649 12.5C10.0932 12.5 10.285 12.7239 10.285 13ZM15.4274 13C15.4274 13.2761 15.2355 13.5 14.9989 13.5C14.7622 13.5 14.5703 13.2761 14.5703 13C14.5703 12.7239 14.7622 12.5 14.9989 12.5C15.2355 12.5 15.4274 12.7239 15.4274 13Z" stroke="black" stroke-width="2" stroke-linecap="round" stroke-linejoin="round"/>
</svg>
