<svg width="24" height="24" viewBox="0 0 24 24" fill="none" xmlns="http://www.w3.org/2000/svg">
<path d="M6.07801 18.7752C7.71603 20.2118 9.82122 21.0027 12 21C14.1802 21.003 16.2869 20.2122 17.9265 18.7752C19.3341 17.3406 14.6892 12.243 12 10.2117C9.3135 12.243 4.66501 17.3406 6.07621 18.7752M14.4462 7.9707C16.3209 10.191 20.0586 15.7053 19.0029 17.6547C20.2983 16.0558 21.0036 14.0596 21 12.0018C21.0015 10.8103 20.7655 9.63054 20.3058 8.53136C19.8461 7.43217 19.1718 6.43567 18.3225 5.6001C18.3225 5.6001 18.3018 5.5839 18.2613 5.5686C18.1935 5.54531 18.1223 5.53374 18.0507 5.5344C17.6061 5.5344 16.5612 5.8611 14.4462 7.9707ZM5.74051 5.5695C5.69731 5.5848 5.67931 5.6001 5.67571 5.601C4.82669 6.43672 4.15278 7.43329 3.69336 8.53247C3.23394 9.63164 2.99823 10.8114 3.00001 12.0027C3.00001 14.1438 3.74881 16.1076 4.99531 17.6529C3.94591 15.699 7.6809 10.1892 9.5565 7.9707C7.4415 5.8602 6.39481 5.5362 5.95201 5.5362C5.88017 5.53377 5.80857 5.5457 5.74141 5.5713L5.74051 5.5695ZM12 5.6631C12 5.6631 9.7914 4.3707 8.067 4.3095C7.3893 4.2852 6.9753 4.5309 6.9258 4.5633C8.535 3.4851 10.245 3 11.9892 3H12C13.7505 3 15.4542 3.4842 17.0742 4.5633C17.0238 4.5291 16.6134 4.2843 15.9348 4.3095C14.2095 4.3707 12 5.6595 12 5.6595V5.6631Z" fill="black"/>
</svg>
