<svg width="24" height="24" viewBox="0 0 24 24" fill="none" xmlns="http://www.w3.org/2000/svg">
<path d="M12 4.62189C14.4035 4.62189 14.6877 4.63137 15.6369 4.674C16.2072 4.68165 16.7721 4.78642 17.3072 4.98379C17.6984 5.12874 18.0518 5.358 18.3426 5.65737C18.642 5.94821 18.8713 6.30158 19.0153 6.69284C19.2142 7.22716 19.3184 7.79179 19.326 8.36305C19.3696 9.31232 19.3781 9.59747 19.3781 12C19.3781 14.4025 19.3686 14.6877 19.326 15.6369C19.3183 16.2072 19.2136 16.7721 19.0162 17.3072C18.8663 17.6955 18.6368 18.0481 18.3425 18.3425C18.0481 18.6368 17.6955 18.8663 17.3072 19.0162C16.7728 19.2142 16.2082 19.3194 15.6369 19.326C14.6877 19.3696 14.4025 19.3781 12 19.3781C9.59747 19.3781 9.31232 19.3686 8.36305 19.326C7.79244 19.3185 7.2273 19.2137 6.69189 19.0162C6.30101 18.8719 5.94749 18.6417 5.65737 18.3426C5.35851 18.0521 5.12865 17.6983 4.98474 17.3072C4.78704 16.7721 4.68196 16.2073 4.674 15.6369C4.63042 14.6877 4.62189 14.4035 4.62189 12C4.62189 9.59653 4.63137 9.31232 4.674 8.36305C4.68165 7.79276 4.78642 7.22794 4.98379 6.69284C5.12874 6.30158 5.358 5.94821 5.65737 5.65737C5.94821 5.358 6.30158 5.12874 6.69284 4.98474C7.22789 4.78704 7.79271 4.68196 8.36305 4.674C9.31232 4.63042 9.59747 4.62189 12 4.62189ZM12 3C9.55579 3 9.24884 3.01042 8.28916 3.054C7.54262 3.06928 6.80402 3.21053 6.10453 3.47179C5.50381 3.69817 4.9597 4.05283 4.51011 4.51105C4.05222 4.96074 3.69789 5.50485 3.47179 6.10547C3.21096 6.80473 3.07003 7.54299 3.05495 8.28916C3.00947 9.24884 3 9.55579 3 12C3 14.4442 3.01042 14.7502 3.054 15.7108C3.06916 16.4574 3.21032 17.1954 3.47179 17.8945C3.69804 18.4956 4.05271 19.04 4.51105 19.4899C4.96074 19.9478 5.50485 20.3021 6.10547 20.5282C6.80473 20.789 7.54299 20.93 8.28916 20.9451C9.24884 20.9905 9.55579 21 12 21C14.4442 21 14.7502 20.9896 15.7108 20.946C16.4574 20.9307 17.196 20.7895 17.8955 20.5282C18.4935 20.2968 19.0366 19.9429 19.49 19.4894C19.9434 19.0359 20.297 18.4927 20.5282 17.8945C20.789 17.1953 20.93 16.457 20.9451 15.7108C20.9905 14.7502 21 14.4442 21 12C21 9.55579 20.9896 9.24884 20.946 8.28916C20.9307 7.54262 20.7895 6.80402 20.5282 6.10453C20.3018 5.50381 19.9472 4.9597 19.4889 4.51011C19.0393 4.05222 18.4952 3.69789 17.8945 3.47179C17.1953 3.21096 16.457 3.07003 15.7108 3.05495C14.7502 3.00947 14.4442 3 12 3ZM12 7.37779C10.7741 7.37779 9.59844 7.86477 8.7316 8.7316C7.86477 9.59844 7.37779 10.7741 7.37779 12C7.37779 13.2259 7.86477 14.4016 8.7316 15.2684C9.59844 16.1352 10.7741 16.6222 12 16.6222C13.2259 16.6222 14.4016 16.1352 15.2684 15.2684C16.1352 14.4016 16.6222 13.2259 16.6222 12C16.6222 10.7741 16.1352 9.59844 15.2684 8.7316C14.4016 7.86477 13.2259 7.37779 12 7.37779ZM12 15.0003C11.2043 15.0003 10.4411 14.6842 9.87846 14.1215C9.31579 13.5589 8.99968 12.7957 8.99968 12C8.99968 11.2043 9.31579 10.4411 9.87846 9.87846C10.4411 9.31579 11.2043 8.99968 12 8.99968C12.7957 8.99968 13.5589 9.31579 14.1215 9.87846C14.6842 10.4411 15.0003 11.2043 15.0003 12C15.0003 12.7957 14.6842 13.5589 14.1215 14.1215C13.5589 14.6842 12.7957 15.0003 12 15.0003ZM16.8041 6.11589C16.5177 6.11589 16.243 6.22968 16.0404 6.43222C15.8379 6.63476 15.7241 6.90946 15.7241 7.19589C15.7241 7.48233 15.8379 7.75703 16.0404 7.95957C16.243 8.16211 16.5177 8.27589 16.8041 8.27589C17.0905 8.27589 17.3652 8.16211 17.5678 7.95957C17.7703 7.75703 17.8841 7.48233 17.8841 7.19589C17.8841 6.90946 17.7703 6.63476 17.5678 6.43222C17.3652 6.22968 17.0905 6.11589 16.8041 6.11589Z" fill="black"/>
</svg>
