<svg width="24" height="24" viewBox="0 0 24 24" fill="none" xmlns="http://www.w3.org/2000/svg">
<path d="M21 11.9895H20.9797L17.7413 8.751L20.9685 5.4405V4.09575L20.4818 3.60975H14.3333L13.8383 4.0635V4.84725L12.0113 3.02025V3L12 3.0105L11.9895 3V3.02025L11.022 3.9885L10.6185 3.58425H4.52625L4.04775 4.10325V5.517L4.50975 5.979H5.04975V9.9615L3.02025 11.9903H3L3.0105 12L3 12.0105H3.02025L5.04975 14.04V18.8903L5.73 19.2825H7.4715L8.86425 17.8545L11.9887 20.979V21L12 20.9895L12.0105 21V20.979L13.893 19.0972H14.2568C14.34 19.0972 14.415 19.0448 14.4443 18.963L14.5538 18.6435C14.564 18.6136 14.5668 18.5817 14.562 18.5505C14.5572 18.5192 14.5448 18.4896 14.526 18.4642L15.6225 17.3678L15.1635 18.8392C15.1542 18.8691 15.152 18.9008 15.1572 18.9317C15.1625 18.9625 15.1749 18.9917 15.1935 19.0169C15.2122 19.042 15.2365 19.0624 15.2645 19.0764C15.2925 19.0903 15.3234 19.0975 15.3547 19.0972H16.7228C16.7617 19.0965 16.7995 19.0846 16.8319 19.063C16.8642 19.0413 16.8896 19.0107 16.905 18.975L17.0287 18.6795C17.0401 18.6492 17.0441 18.6166 17.0403 18.5845C17.0365 18.5523 17.0251 18.5215 17.0069 18.4947C16.9888 18.4679 16.9645 18.4458 16.936 18.4304C16.9076 18.4149 16.8759 18.4064 16.8435 18.4058H16.7872L17.4172 16.4227H18.3412L17.5792 18.8385C17.5701 18.8684 17.5681 18.9 17.5734 18.9308C17.5787 18.9616 17.5911 18.9907 17.6097 19.0158C17.6283 19.0409 17.6526 19.0613 17.6805 19.0753C17.7084 19.0893 17.7393 19.0966 17.7705 19.0965H19.272C19.3545 19.0965 19.4272 19.047 19.458 18.969L19.581 18.648C19.5921 18.6179 19.5958 18.5855 19.5917 18.5537C19.5876 18.5218 19.5759 18.4914 19.5576 18.4651C19.5393 18.4387 19.5148 18.4172 19.4864 18.4023C19.458 18.3874 19.4264 18.3796 19.3942 18.3795H19.2855L20.1337 15.6248C20.1439 15.5946 20.1466 15.5625 20.1415 15.5311C20.1364 15.4997 20.1237 15.4701 20.1045 15.4447L19.8232 15.0668L19.821 15.063C19.8022 15.0394 19.7784 15.0202 19.7513 15.007C19.7242 14.9938 19.6944 14.9868 19.6642 14.9865H18.5873C18.5336 14.9871 18.4823 15.0089 18.4447 15.0472L18.1448 15.3765H17.6768L17.6453 15.342L20.979 12.0082H21L20.9895 12L21 11.9895ZM10.3785 18.8542L11.5627 15.4725H11.187L11.4097 15.2445H12.654L11.4818 18.6608H11.949L11.8897 18.8542H10.3785ZM13.1497 13.2172L13.2622 13.3305L13.0605 14.022L12.8918 14.1915H12.165L12.0292 14.0557L12.2625 13.4025L12.4785 13.2172H13.1497ZM7.1925 18.6217H5.90775L5.71125 18.5093V5.31825H4.78425L4.70925 5.24325V4.36125L4.8165 4.24575H10.3448L10.5045 4.40625V5.23725L10.398 5.367H9.58875V11.883L16.194 5.367H14.6295L14.4983 5.226V4.35375L14.589 4.2705H20.2065L20.3055 4.37025V5.17275L12.7343 12.9375H12.4545C12.4435 12.937 12.433 12.9373 12.423 12.9383L12.408 12.9405C12.3748 12.9475 12.3441 12.963 12.3188 12.9855L12.0615 13.2067L12.0585 13.209C12.0343 13.2323 12.0155 13.2608 12.0037 13.2922L11.7817 13.9148L7.1925 18.6217ZM18.2685 15.6578L18.624 15.2685H19.6245L19.8563 15.5798L18.9075 18.66H19.2772L19.2172 18.8168H17.88L18.723 16.1437H17.2118L16.404 18.687H16.722L16.6672 18.8175H15.4635L16.2938 16.1565H14.7218L13.9253 18.6608H14.2523L14.1982 18.8175H12.9525L14.088 15.4725H13.6485L13.7167 15.2692H14.9543L15.3435 15.672H16.023L16.3912 15.2565H17.187L17.5538 15.6578H18.2685Z" fill="black"/>
</svg>
