<svg width="24" height="24" viewBox="0 0 24 24" fill="none" xmlns="http://www.w3.org/2000/svg">
<path d="M18.5226 9.13543C17.9204 9.49584 17.4215 9.99955 17.0727 10.5994C16.7239 11.1993 16.5365 11.8759 16.5281 12.5657C16.5305 13.342 16.766 14.1006 17.2054 14.7475C17.6448 15.3944 18.2687 15.9012 19 16.2051C18.7125 17.114 18.2859 17.9752 17.7346 18.7594C16.9458 19.8686 16.1218 20.9769 14.8678 20.9769C13.6139 20.9769 13.2919 20.2654 11.8466 20.2654C10.4373 20.2654 9.93542 21 8.78852 21C7.64163 21 6.84223 19.9731 5.9226 18.7131C4.70813 16.948 4.04059 14.8781 4 12.7517C4 9.252 6.32889 7.39714 8.6218 7.39714C9.83977 7.39714 10.855 8.17886 11.6193 8.17886C12.3477 8.17886 13.4823 7.35086 14.8678 7.35086C15.5802 7.33267 16.2861 7.48594 16.9235 7.79716C17.5608 8.10837 18.11 8.56797 18.5226 9.13543ZM14.2115 5.86971C14.822 5.16742 15.1676 4.28192 15.1908 3.36086C15.1919 3.23967 15.1798 3.11871 15.1548 3C14.1057 3.09968 13.1354 3.58796 12.4433 4.36457C11.8264 5.0383 11.4676 5.90007 11.428 6.80314C11.428 6.91343 11.44 7.02229 11.464 7.12971C11.5471 7.14514 11.6307 7.15286 11.715 7.15286C12.1984 7.11517 12.669 6.98192 13.0982 6.7612C13.5273 6.54048 13.9061 6.23689 14.2115 5.86886V5.86971Z" fill="black"/>
</svg>
