<svg width="24" height="24" viewBox="0 0 24 24" fill="none" xmlns="http://www.w3.org/2000/svg">
<path d="M9.8256 20.7986V14.792H7.968V12.0316H9.8256V10.842C9.8256 7.76736 11.2116 6.34384 14.2176 6.34384C14.7864 6.34384 15.7692 6.45584 16.1724 6.56784V9.06895C15.8263 9.04262 15.4791 9.03177 15.132 9.03643C13.656 9.03643 13.0872 9.59645 13.0872 11.0561V12.0325H16.0284L15.5244 14.7929H13.0908V21C17.5476 20.458 21 16.6499 21 12.0325C21 7.04386 16.9707 3 12 3C7.0293 3 3 7.04386 3 12.0325C3 16.2688 5.9052 19.8222 9.8256 20.7986Z" fill="black"/>
</svg>
