<svg width="24" height="24" viewBox="0 0 24 24" fill="none" xmlns="http://www.w3.org/2000/svg">
<path d="M7.0785 7.4295V13.758C7.0785 15.303 8.346 16.5705 9.891 16.5705H14.1097C15.6547 16.5705 16.9222 15.303 16.9222 13.758V10.242C16.9193 9.68344 16.696 9.14861 16.301 8.75371C15.906 8.35882 15.3711 8.13576 14.8125 8.133C14.2914 8.13639 13.7902 8.3334 13.4062 8.68575C13.0223 8.3334 12.5211 8.13639 12 8.133C11.4416 8.13596 10.9069 8.3591 10.512 8.75398C10.1171 9.14885 9.89396 9.68357 9.891 10.242V13.758H11.2972V10.242C11.2972 9.84525 11.6032 9.53925 12 9.53925C12.3968 9.53925 12.7035 9.84525 12.7035 10.242V13.758H14.1097V10.242C14.1097 9.84525 14.4157 9.53925 14.8125 9.53925C15.2093 9.53925 15.516 9.84525 15.516 10.242V13.758C15.5175 13.9431 15.4821 14.1266 15.412 14.2979C15.3419 14.4692 15.2383 14.6248 15.1075 14.7557C14.9766 14.8866 14.821 14.9901 14.6497 15.0603C14.4784 15.1304 14.2948 15.1657 14.1097 15.1642H9.891C9.70591 15.1657 9.52237 15.1304 9.35108 15.0603C9.17979 14.9901 9.02417 14.8866 8.89329 14.7557C8.76241 14.6248 8.65888 14.4692 8.58874 14.2979C8.5186 14.1266 8.48325 13.9431 8.48475 13.758V7.4295H7.0785ZM12 3C7.038 3 3 7.038 3 12C3 16.962 7.038 21 12 21C16.962 21 21 16.962 21 12C21 7.038 16.962 3 12 3ZM12 4.40625C12.9976 4.40477 13.9858 4.60018 14.9078 4.98127C15.8297 5.36237 16.6675 5.92166 17.3729 6.6271C18.0783 7.33254 18.6376 8.17026 19.0187 9.09225C19.3998 10.0142 19.5952 11.0024 19.5938 12C19.5952 12.9976 19.3998 13.9858 19.0187 14.9078C18.6376 15.8297 18.0783 16.6675 17.3729 17.3729C16.6675 18.0783 15.8297 18.6376 14.9078 19.0187C13.9858 19.3998 12.9976 19.5952 12 19.5938C11.0024 19.5952 10.0142 19.3998 9.09225 19.0187C8.17026 18.6376 7.33254 18.0783 6.6271 17.3729C5.92166 16.6675 5.36237 15.8297 4.98127 14.9078C4.60018 13.9858 4.40477 12.9976 4.40625 12C4.40477 11.0024 4.60018 10.0142 4.98127 9.09225C5.36237 8.17026 5.92166 7.33254 6.6271 6.6271C7.33254 5.92166 8.17026 5.36237 9.09225 4.98127C10.0142 4.60018 11.0024 4.40477 12 4.40625Z" fill="black"/>
</svg>
