<svg width="24" height="24" viewBox="0 0 24 24" fill="none" xmlns="http://www.w3.org/2000/svg">
<path fill-rule="evenodd" clip-rule="evenodd" d="M3.1638 3.819C3 4.1403 3 4.5597 3 5.4003V18.5997C3 19.4403 3 19.8597 3.1638 20.181C3.3078 20.4636 3.5364 20.6931 3.819 20.8362C4.1403 21 4.5597 21 5.4003 21H18.5997C19.4403 21 19.8597 21 20.181 20.8362C20.4636 20.6922 20.6931 20.4636 20.8362 20.181C21 19.8597 21 19.4403 21 18.5997V5.4003C21 4.5597 21 4.1403 20.8362 3.819C20.6923 3.53705 20.463 3.30775 20.181 3.1638C19.8597 3 19.4403 3 18.5997 3H5.4003C4.5597 3 4.1403 3 3.819 3.1638C3.5364 3.3078 3.3069 3.5364 3.1638 3.819ZM17.2731 14.5533C18.8598 15.1968 19.3953 15.8853 19.5267 16.707C19.6527 17.4135 19.4961 17.8725 19.4727 17.94C18.8877 19.9425 15.6243 20.0073 14.3202 18.6852L14.2077 18.5592C13.9953 18.3234 13.8477 18.1596 13.7082 17.8518L14.4048 17.4504L15.0744 17.0634C15.4407 17.6259 15.78 17.9364 16.3884 18.0624C17.2155 18.1632 18.0471 17.8788 17.8608 17.0013C17.7492 16.5855 17.1984 16.3533 16.5558 16.0806C16.0896 15.8826 15.5757 15.6657 15.1464 15.3435C14.1096 14.6469 13.8666 12.9549 14.7189 11.9883C15.0033 11.6301 15.4875 11.3637 15.9951 11.235L16.5261 11.1666C17.5431 11.1468 18.1803 11.415 18.6474 11.937C18.7779 12.0684 18.8832 12.2106 19.0821 12.5184L18.804 12.6957C18.507 12.8847 18.381 12.9648 17.7645 13.3635C17.6951 13.2064 17.5943 13.0652 17.4683 12.9485C17.3423 12.8318 17.1938 12.7421 17.0319 12.6849C16.5801 12.5481 16.0104 12.6966 15.8925 13.1736C15.852 13.3212 15.8601 13.458 15.9249 13.701C16.0734 14.0385 16.5036 14.2221 16.9554 14.4138C17.0616 14.4588 17.1675 14.5053 17.2731 14.5533ZM11.1018 11.2728H12.7848C12.7848 11.7888 12.7857 12.3048 12.7875 12.8208C12.7893 13.8513 12.7911 14.8791 12.7857 15.9078C12.7863 16.0476 12.7878 16.1856 12.7902 16.3218C12.8028 17.1039 12.8145 17.814 12.4878 18.4161C12.2223 18.9561 11.7165 19.3098 11.1288 19.4808C10.227 19.6878 9.3648 19.5699 8.7231 19.1847C8.2938 18.921 7.9581 18.516 7.7313 18.0489L8.4153 17.6304L9.0993 17.2101C9.13128 17.249 9.15847 17.2916 9.1803 17.337L9.1956 17.364C9.3702 17.6565 9.5205 17.8635 9.8166 18.0093C10.1073 18.1083 10.7463 18.1713 10.992 17.6601C11.1126 17.4531 11.1063 16.8708 11.0991 16.1733C11.0967 15.9963 11.0952 15.8139 11.0946 15.6261C11.0946 14.8989 11.0958 14.1732 11.0982 13.449C11.1006 12.7248 11.1018 11.9994 11.1018 11.2728Z" fill="black"/>
</svg>
