<svg width="24" height="24" viewBox="0 0 24 24" fill="none" xmlns="http://www.w3.org/2000/svg">
<path d="M2 2L22 22M8.34998 2.6899C10.1606 1.98272 12.1381 1.81858 14.0405 2.21754C15.943 2.61651 17.6879 3.56128 19.0618 4.9363C20.4358 6.31133 21.3792 8.05698 21.7767 9.95972C22.1742 11.8625 22.0085 13.8398 21.3 15.6499M19.0801 19.0799C18.1503 20.0097 17.0465 20.7472 15.8317 21.2504C14.6169 21.7536 13.3149 22.0126 12.0001 22.0126C10.6852 22.0126 9.38318 21.7536 8.16839 21.2504C6.9536 20.7472 5.84982 20.0097 4.92006 19.0799C3.9903 18.1502 3.25277 17.0464 2.74959 15.8316C2.24641 14.6168 1.98743 13.3148 1.98743 11.9999C1.98743 10.685 2.24641 9.38304 2.74959 8.16825C3.25277 6.95346 3.9903 5.84968 4.92006 4.91992" stroke="black" stroke-width="2" stroke-linecap="round" stroke-linejoin="round"/>
</svg>
