<svg width="24" height="24" viewBox="0 0 24 24" fill="none" xmlns="http://www.w3.org/2000/svg">
<path d="M12 7V11M7.99788 9.00305C7.44121 9.74624 7.10249 10.6298 7.01968 11.5546C6.93687 12.4795 7.11324 13.4091 7.52902 14.2394C7.9448 15.0697 8.58358 15.7678 9.37376 16.2554C10.1639 16.7431 11.0743 17.0011 12.0029 17.0005C12.9314 17 13.8415 16.7408 14.6311 16.2522C15.4206 15.7635 16.0585 15.0646 16.4733 14.2338C16.888 13.403 17.0632 12.4732 16.9793 11.5484C16.8953 10.6237 16.5555 9.74055 15.9979 8.99805M22 12C22 17.5228 17.5228 22 12 22C6.47715 22 2 17.5228 2 12C2 6.47715 6.47715 2 12 2C17.5228 2 22 6.47715 22 12Z" stroke="black" stroke-width="2" stroke-linecap="round" stroke-linejoin="round"/>
</svg>
