<svg width="24" height="24" viewBox="0 0 24 24" fill="none" xmlns="http://www.w3.org/2000/svg">
<path d="M19.6499 15.6601C18.1361 17.0957 16.1214 17.8833 14.0353 17.8547C11.9493 17.8262 9.95684 16.9839 8.48292 15.5073C7.009 14.0308 6.17019 12.0369 6.14534 9.95076C6.12049 7.86462 6.91157 5.85131 8.34991 4.34009M14 10L8.5 15.5M14 10L13.9999 17.85M14 10H6.1499M21.6599 17.6699C21.7691 17.7739 21.8552 17.8996 21.9129 18.0389C21.9705 18.1782 21.9983 18.328 21.9946 18.4787C21.9908 18.6295 21.9555 18.7777 21.891 18.914C21.8265 19.0502 21.7341 19.1715 21.6199 19.2699C19.3174 21.1622 16.393 22.13 13.4161 21.9848C10.4392 21.8396 7.62293 20.5918 5.51546 18.4843C3.40799 16.3769 2.1602 13.5606 2.01499 10.5837C1.86979 7.60683 2.83757 4.68245 4.72993 2.37988C4.83009 2.26674 4.95249 2.17545 5.08949 2.11171C5.22649 2.04796 5.37516 2.01313 5.52622 2.00937C5.67728 2.00562 5.82749 2.03303 5.96749 2.08989C6.10749 2.14676 6.23427 2.23186 6.33993 2.33988L21.6599 17.6699Z" stroke="black" stroke-width="2" stroke-linecap="round" stroke-linejoin="round"/>
</svg>
