<svg width="24" height="24" viewBox="0 0 24 24" fill="none" xmlns="http://www.w3.org/2000/svg">
<path d="M12.3379 21.9941C10.2944 22.0631 8.27893 21.504 6.56298 20.3922C4.84703 19.2805 3.51311 17.6694 2.74098 15.7762C1.96884 13.883 1.79559 11.7985 2.24458 9.80382C2.69357 7.8091 3.74321 5.99995 5.25207 4.62015C6.76093 3.24034 8.65648 2.35621 10.6833 2.0869C12.7101 1.81758 14.7708 2.17601 16.5876 3.11391C18.4044 4.0518 19.8901 5.52407 20.8444 7.33232C21.7987 9.14057 22.1758 11.1979 21.9249 13.2271M12 6V12L14 13M14 18L18 22M18 22L22 18M18 22V14" stroke="black" stroke-width="2" stroke-linecap="round" stroke-linejoin="round"/>
</svg>
