<svg width="24" height="24" viewBox="0 0 24 24" fill="none" xmlns="http://www.w3.org/2000/svg">
<path d="M13.2281 21.925C11.1989 22.1762 9.14149 21.7993 7.33312 20.8451C5.52474 19.8909 4.05232 18.4053 3.11427 16.5885C2.17622 14.7718 1.81762 12.7111 2.08681 10.6842C2.35599 8.65734 3.24002 6.7617 4.61976 5.25273C5.9995 3.74377 7.80864 2.69401 9.80338 2.24492C11.7981 1.79584 13.8826 1.969 15.7759 2.74109C17.6692 3.51318 19.2803 4.84707 20.3921 6.56302C21.5039 8.27898 22.063 10.2945 21.9941 12.338M12 6V12L13.562 12.781M14 18L18 14M18 14L22 18M18 14V22" stroke="black" stroke-width="2" stroke-linecap="round" stroke-linejoin="round"/>
</svg>
