<svg width="24" height="24" viewBox="0 0 24 24" fill="none" xmlns="http://www.w3.org/2000/svg">
<path d="M10.188 8.5C10.5206 7.21165 11.2721 6.07042 12.3242 5.25581C13.3763 4.4412 14.6694 3.99944 16 4C15.2043 4.79565 14.7573 5.87478 14.7573 7C14.7573 7.55715 14.8671 8.10885 15.0803 8.62359C15.2935 9.13833 15.606 9.60603 16 10C16.394 10.394 16.8617 10.7065 17.3764 10.9197C17.8911 11.1329 18.4428 11.2426 19 11.2426C20.1252 11.2426 21.2043 10.7956 22 10C22.0001 11.0534 21.723 12.0882 21.1964 13.0005C20.6697 13.9128 19.9122 14.6703 19 15.197M13 16C13.7956 16 14.5587 16.3161 15.1213 16.8787C15.6839 17.4413 16 18.2044 16 19C16 19.7956 15.6839 20.5587 15.1213 21.1213C14.5587 21.6839 13.7956 22 13 22H6.99996C6.05393 21.9998 5.12737 21.7312 4.32788 21.2255C3.5284 20.7197 2.8888 19.9975 2.48339 19.1427C2.07797 18.288 1.92336 17.3358 2.03752 16.3966C2.15168 15.4575 2.52992 14.5701 3.12832 13.8373C3.72672 13.1046 4.52071 12.5567 5.41808 12.2572C6.31545 11.9577 7.27938 11.9189 8.1979 12.1454C9.11642 12.3718 9.95185 12.8542 10.6072 13.5366C11.2625 14.2189 11.7108 15.0731 11.9 16H13Z" stroke="black" stroke-width="2" stroke-linecap="round" stroke-linejoin="round"/>
</svg>
