<svg width="24" height="24" viewBox="0 0 24 24" fill="none" xmlns="http://www.w3.org/2000/svg">
<path d="M16.17 7.83008L2 22.0001M16.17 7.83008C16.4398 7.5599 16.652 7.23787 16.794 6.88343C16.9359 6.529 17.0045 6.14949 16.9958 5.7678C16.987 5.38611 16.901 5.01015 16.743 4.6626C16.585 4.31504 16.3582 4.00309 16.0764 3.74557C15.7945 3.48804 15.4634 3.29028 15.1031 3.1642C14.7427 3.03813 14.3605 2.98635 13.9796 3.012C13.5987 3.03765 13.2269 3.1402 12.8867 3.31345C12.5464 3.4867 12.2448 3.72707 12.0001 4.02006C11.7553 3.72707 11.4537 3.4867 11.1135 3.31345C10.7732 3.1402 10.4015 3.03765 10.0205 3.012C9.6396 2.98635 9.25743 3.03813 8.89706 3.1642C8.53668 3.29028 8.20558 3.48804 7.92372 3.74557C7.64187 4.00309 7.41509 4.31504 7.25708 4.6626C7.09907 5.01015 7.01309 5.38611 7.00434 5.7678C6.99559 6.14949 7.06424 6.529 7.20615 6.88343C7.34806 7.23787 7.5603 7.55988 7.83006 7.83006M16.17 7.83008C16.4402 7.56032 16.7622 7.34806 17.1167 7.20615C17.4711 7.06424 17.8506 6.99559 18.2323 7.00434C18.614 7.01309 18.99 7.09907 19.3375 7.25708C19.6851 7.41509 19.997 7.64187 20.2545 7.92372C20.5121 8.20558 20.7098 8.53668 20.8359 8.89706C20.962 9.25743 21.0138 9.6396 20.9881 10.0205C20.9625 10.4015 20.8599 10.7732 20.6867 11.1135C20.5134 11.4537 20.273 11.7553 19.9801 12.0001C20.273 12.2448 20.5134 12.5464 20.6867 12.8867C20.8599 13.2269 20.9625 13.5987 20.9881 13.9796C21.0138 14.3605 20.962 14.7427 20.8359 15.1031C20.7098 15.4634 20.5121 15.7945 20.2545 16.0764C19.997 16.3582 19.6851 16.585 19.3375 16.743C18.99 16.901 18.614 16.987 18.2323 16.9958C17.8506 17.0045 17.4711 16.9359 17.1167 16.794C16.7622 16.652 16.4402 16.4398 16.1701 16.1701M4.02006 12.0001C3.72707 11.7553 3.4867 11.4537 3.31345 11.1135C3.1402 10.7732 3.03765 10.4015 3.012 10.0205C2.98635 9.6396 3.03813 9.25743 3.1642 8.89706C3.29028 8.53668 3.48804 8.20558 3.74557 7.92372C4.00309 7.64187 4.31504 7.41509 4.6626 7.25708C5.01015 7.09907 5.38611 7.01309 5.7678 7.00434C6.14949 6.99559 6.529 7.06424 6.88343 7.20615C7.23787 7.34806 7.55988 7.5603 7.83006 7.83006M7.83006 7.83006L16.1701 16.1701M16.1701 16.1701C16.4398 16.4402 16.652 16.7622 16.794 17.1167C16.9359 17.4711 17.0045 17.8506 16.9958 18.2323C16.987 18.614 16.901 18.99 16.743 19.3375C16.585 19.6851 16.3582 19.997 16.0764 20.2545C15.7945 20.5121 15.4634 20.7098 15.1031 20.8359C14.7427 20.962 14.3605 21.0138 13.9796 20.9881C13.5987 20.9625 13.2269 20.8599 12.8867 20.6867C12.5464 20.5134 12.2448 20.273 12.0001 19.9801C11.7553 20.273 11.4537 20.5134 11.1135 20.6867C10.7732 20.8599 10.4015 20.9625 10.0205 20.9881C9.6396 21.0138 9.25743 20.962 8.89706 20.8359C8.53668 20.7098 8.20558 20.5121 7.92372 20.2545C7.64187 19.997 7.41509 19.6851 7.25708 19.3375C7.09907 18.99 7.01309 18.614 7.00434 18.2323C6.99559 17.8506 7.06424 17.4711 7.20615 17.1167C7.34806 16.7622 7.5603 16.4402 7.83006 16.1701C7.27708 16.6779 6.54499 16.9454 5.79485 16.9135C5.0447 16.8816 4.33795 16.553 3.83006 16.0001C3.32217 15.4471 3.05475 14.715 3.08663 13.9648C3.11851 13.2147 3.44708 12.5079 4.00006 12.0001" stroke="black" stroke-width="2" stroke-linecap="round" stroke-linejoin="round"/>
</svg>
