<svg width="24" height="24" viewBox="0 0 24 24" fill="none" xmlns="http://www.w3.org/2000/svg">
<path d="M12.0001 17.66C11.4755 18.4052 10.774 19.0083 9.95865 19.4153C9.14326 19.8222 8.23954 20.0201 7.32871 19.9913C6.41788 19.9625 5.52848 19.7078 4.74046 19.2501C3.95243 18.7924 3.29048 18.1461 2.81408 17.3693C2.33769 16.5924 2.06179 15.7094 2.01118 14.7995C1.96056 13.8896 2.13683 12.9814 2.52412 12.1565C2.91142 11.3317 3.49761 10.6159 4.23002 10.0737C4.96242 9.53144 5.81808 9.17968 6.7201 9.05001C6.48102 8.23032 6.43607 7.36622 6.58881 6.52614C6.74155 5.68606 7.08779 4.89309 7.6001 4.21001C8.1124 3.52693 8.77672 2.97251 9.54042 2.59066C10.3041 2.20881 11.1462 2.01001 12.0001 2.01001C12.8539 2.01001 13.6961 2.20881 14.4598 2.59066C15.2235 2.97251 15.8878 3.52693 16.4001 4.21001C16.9124 4.89309 17.2586 5.68606 17.4114 6.52614C17.5641 7.36622 17.5192 8.23032 17.2801 9.05001V9.06001C18.1832 9.18851 19.0402 9.53961 19.7738 10.0817C20.5074 10.6238 21.0947 11.3398 21.4828 12.1654C21.8709 12.9909 22.0475 13.9 21.9968 14.8108C21.9461 15.7216 21.6697 16.6055 21.1924 17.3828C20.7151 18.1602 20.052 18.8067 19.2628 19.264C18.4735 19.7213 17.5829 19.9752 16.6711 20.0027C15.7593 20.0302 14.855 19.8304 14.0396 19.4215C13.2242 19.0125 12.5233 18.4072 12.0001 17.66ZM12.0001 17.66L12 21.9999" stroke="black" stroke-width="2" stroke-linecap="round" stroke-linejoin="round"/>
</svg>
