<svg width="24" height="24" viewBox="0 0 24 24" fill="none" xmlns="http://www.w3.org/2000/svg">
<path d="M15.536 11.2931C15.3485 11.4806 15.2432 11.7349 15.2432 12.0001C15.2432 12.2652 15.3485 12.5195 15.536 12.7071L17.912 15.0841C18.0995 15.2715 18.3538 15.3769 18.6189 15.3769C18.8841 15.3769 19.1384 15.2715 19.326 15.0841L21.7029 12.7071C21.8904 12.5195 21.9957 12.2652 21.9957 12.0001C21.9957 11.7349 21.8904 11.4806 21.7029 11.2931L19.326 8.91608C19.1384 8.72861 18.8841 8.62329 18.6189 8.62329C18.3538 8.62329 18.0995 8.72861 17.912 8.91608L15.536 11.2931Z" stroke="black" stroke-width="2" stroke-linecap="round" stroke-linejoin="round"/>
<path d="M2.29694 11.2931C2.10947 11.4806 2.00415 11.7349 2.00415 12.0001C2.00415 12.2652 2.10947 12.5195 2.29694 12.7071L4.67394 15.0841C4.86146 15.2715 5.11577 15.3769 5.38094 15.3769C5.6461 15.3769 5.90041 15.2715 6.08794 15.0841L8.46494 12.7071C8.65241 12.5195 8.75772 12.2652 8.75772 12.0001C8.75772 11.7349 8.65241 11.4806 8.46494 11.2931L6.08794 8.91608C5.90041 8.72861 5.6461 8.62329 5.38094 8.62329C5.11577 8.62329 4.86146 8.72861 4.67394 8.91608L2.29694 11.2931Z" stroke="black" stroke-width="2" stroke-linecap="round" stroke-linejoin="round"/>
<path d="M8.91609 17.912C8.82311 18.0048 8.74935 18.1151 8.69903 18.2365C8.64871 18.3579 8.6228 18.488 8.6228 18.6194C8.6228 18.7509 8.64871 18.881 8.69903 19.0024C8.74935 19.1238 8.82311 19.2341 8.91609 19.327L11.2931 21.7029C11.4806 21.8904 11.7349 21.9957 12.0001 21.9957C12.2653 21.9957 12.5196 21.8904 12.7071 21.7029L15.0841 19.327C15.1771 19.2341 15.2508 19.1238 15.3011 19.0024C15.3515 18.881 15.3774 18.7509 15.3774 18.6194C15.3774 18.488 15.3515 18.3579 15.3011 18.2365C15.2508 18.1151 15.1771 18.0048 15.0841 17.912L12.7071 15.536C12.5196 15.3485 12.2653 15.2432 12.0001 15.2432C11.7349 15.2432 11.4806 15.3485 11.2931 15.536L8.91609 17.912Z" stroke="black" stroke-width="2" stroke-linecap="round" stroke-linejoin="round"/>
<path d="M8.91608 4.67394C8.72861 4.86146 8.62329 5.11577 8.62329 5.38094C8.62329 5.6461 8.72861 5.90041 8.91608 6.08794L11.2931 8.46394C11.4806 8.65141 11.7349 8.75672 12.0001 8.75672C12.2652 8.75672 12.5195 8.65141 12.7071 8.46394L15.0841 6.08794C15.2715 5.90041 15.3769 5.6461 15.3769 5.38094C15.3769 5.11577 15.2715 4.86146 15.0841 4.67394L12.7071 2.29694C12.5195 2.10947 12.2652 2.00415 12.0001 2.00415C11.7349 2.00415 11.4806 2.10947 11.2931 2.29694L8.91608 4.67394Z" stroke="black" stroke-width="2" stroke-linecap="round" stroke-linejoin="round"/>
</svg>
