<svg width="24" height="24" viewBox="0 0 24 24" fill="none" xmlns="http://www.w3.org/2000/svg">
<path d="M16 14V14.5M4.42001 11.2471C4.14014 12.3278 3.999 13.4397 4.00001 14.5561C4.00001 18.7281 7.58201 21.0001 12 21.0001C16.418 21.0001 20 18.7281 20 14.5561C19.995 13.4352 19.829 12.3208 19.507 11.2471M8 14V14.5M8.49998 8.49997C8.11598 9.54997 7.41698 10.528 6.15598 11C4.22498 11.722 2.57998 10.703 2.49998 9.99997C2.38698 9.00597 3.67698 3.46997 6.49998 2.99997C8.42298 2.67897 10.151 3.84497 10.151 5.23497C11.4158 4.91375 12.7425 4.92822 14 5.27697C14 3.88697 15.844 2.67897 17.767 2.99997C20.59 3.46997 21.88 9.00597 21.767 9.99997C21.687 10.703 20.042 11.722 18.111 11C16.85 10.528 16.256 9.54997 15.872 8.49997M11.25 16.25H12.75L12 17L11.25 16.25Z" stroke="black" stroke-width="2" stroke-linecap="round" stroke-linejoin="round"/>
</svg>
