<svg width="24" height="24" viewBox="0 0 24 24" fill="none" xmlns="http://www.w3.org/2000/svg">
<path d="M16 17H20M4 13H8M3.99991 16V13.62C3.99991 11.5 2.96991 10.5 2.99991 8C3.02991 5.28 4.48991 2 7.49991 2C9.36991 2 9.99991 3.8 9.99991 5.5C9.99991 8.61 7.99991 11.16 7.99991 14.18V16C7.99991 16.5304 7.7892 17.0391 7.41412 17.4142C7.03905 17.7893 6.53034 18 5.99991 18C5.46948 18 4.96077 17.7893 4.5857 17.4142C4.21062 17.0391 3.99991 16.5304 3.99991 16ZM20 20V17.62C20 15.5 21.03 14.5 21 12C20.97 9.28 19.51 6 16.5 6C14.63 6 14 7.8 14 9.5C14 12.61 16 15.16 16 18.18V20C16 20.5304 16.2107 21.0391 16.5858 21.4142C16.9609 21.7893 17.4696 22 18 22C18.5304 22 19.0391 21.7893 19.4142 21.4142C19.7893 21.0391 20 20.5304 20 20Z" stroke="black" stroke-width="2" stroke-linecap="round" stroke-linejoin="round"/>
</svg>
