<svg width="24" height="24" viewBox="0 0 24 24" fill="none" xmlns="http://www.w3.org/2000/svg">
<path d="M22 5V2L16.11 7.89M19.6 15.8899C19.6 17.5467 18.2568 18.8899 16.6 18.8899C14.9431 18.8899 13.6 17.5467 13.6 15.8899C13.6 14.233 14.9431 12.8899 16.6 12.8899C18.2568 12.8899 19.6 14.233 19.6 15.8899ZM11.11 7.3999C11.11 9.05676 9.76684 10.3999 8.10998 10.3999C6.45313 10.3999 5.10999 9.05676 5.10999 7.3999C5.10999 5.74305 6.45313 4.3999 8.10998 4.3999C9.76684 4.3999 11.11 5.74305 11.11 7.3999ZM15.35 11.6499C15.35 13.3068 14.0068 14.6499 12.35 14.6499C10.6931 14.6499 9.34998 13.3068 9.34998 11.6499C9.34998 9.99305 10.6931 8.6499 12.35 8.6499C14.0068 8.6499 15.35 9.99305 15.35 11.6499ZM16.91 5.8501C16.91 7.50695 15.5669 8.8501 13.91 8.8501C12.2532 8.8501 10.91 7.50695 10.91 5.8501C10.91 4.19324 12.2532 2.8501 13.91 2.8501C15.5669 2.8501 16.91 4.19324 16.91 5.8501ZM21.15 10.0901C21.15 11.7469 19.8069 13.0901 18.15 13.0901C16.4932 13.0901 15.15 11.7469 15.15 10.0901C15.15 8.43323 16.4932 7.09009 18.15 7.09009C19.8069 7.09009 21.15 8.43323 21.15 10.0901ZM9.56006 13.2C9.56006 14.8568 8.21691 16.2 6.56006 16.2C4.9032 16.2 3.56006 14.8568 3.56006 13.2C3.56006 11.5431 4.9032 10.2 6.56006 10.2C8.21691 10.2 9.56006 11.5431 9.56006 13.2ZM13.8 17.4399C13.8 19.0968 12.4569 20.4399 10.8 20.4399C9.14319 20.4399 7.80005 19.0968 7.80005 17.4399C7.80005 15.7831 9.14319 14.4399 10.8 14.4399C12.4569 14.4399 13.8 15.7831 13.8 17.4399ZM8 19C8 20.6569 6.65685 22 5 22C3.34315 22 2 20.6569 2 19C2 17.3431 3.34315 16 5 16C6.65685 16 8 17.3431 8 19Z" stroke="black" stroke-width="2" stroke-linecap="round" stroke-linejoin="round"/>
</svg>
