<svg width="24" height="24" viewBox="0 0 24 24" fill="none" xmlns="http://www.w3.org/2000/svg">
<path d="M21 14H19.657M9.12793 3.47006C10.4817 3.01423 11.9245 2.88717 13.337 3.09939C14.7496 3.31161 16.0914 3.85701 17.2514 4.6905C18.4115 5.52399 19.3565 6.62162 20.0083 7.89266C20.6601 9.1637 21 10.5716 20.9999 12.0001V15.3431M2 2L22 22M20.414 20.414C20.039 20.7891 19.5304 20.9999 19 21H18C17.4696 21 16.9609 20.7893 16.5858 20.4142C16.2107 20.0391 16 19.5304 16 19V16M3 14H6C6.53043 14 7.03914 14.2107 7.41421 14.5858C7.78929 14.9608 8 15.4696 8 16V19C8 19.5304 7.78929 20.0391 7.41421 20.4142C7.03914 20.7893 6.53043 21 6 21H5C4.46957 21 3.96086 20.7893 3.58579 20.4142C3.21071 20.0391 3 19.5304 3 19V12C2.99999 10.8181 3.23277 9.64776 3.68506 8.55582C4.13734 7.46388 4.80028 6.47172 5.636 5.63599" stroke="black" stroke-width="2" stroke-linecap="round" stroke-linejoin="round"/>
</svg>
