<svg width="24" height="24" viewBox="0 0 24 24" fill="none" xmlns="http://www.w3.org/2000/svg">
<path d="M10 12.0001V8.96411M14 12.0001V8.96411M8.5 21H5C4.46957 21 3.96086 20.7893 3.58579 20.4142C3.21071 20.0391 3 19.5304 3 19V9.99997C2.99993 9.70904 3.06333 9.42159 3.18579 9.15768C3.30824 8.89378 3.4868 8.65976 3.709 8.47197L10.709 2.47297C11.07 2.16788 11.5274 2.00049 12 2.00049C12.4726 2.00049 12.93 2.16788 13.291 2.47297L20.291 8.47197C20.5132 8.65976 20.6918 8.89378 20.8142 9.15768C20.9367 9.42159 21.0001 9.70904 21 9.99997V19C21 19.5304 20.7893 20.0391 20.4142 20.4142C20.0391 20.7893 19.5304 21 19 21H14C13.4696 21 12.9609 20.7893 12.5858 20.4142C12.2107 20.0391 12 19.5304 12 19V17M15 12C15.2652 12 15.5196 12.1054 15.7071 12.2929C15.8946 12.4804 16 12.7348 16 13V15C16 15.5304 15.7893 16.0391 15.4142 16.4142C15.0391 16.7893 14.5304 17 14 17H10C9.46957 17 8.96086 16.7893 8.58579 16.4142C8.21071 16.0391 8 15.5304 8 15V13C8 12.7348 8.10536 12.4804 8.29289 12.2929C8.48043 12.1054 8.73478 12 9 12H15Z" stroke="black" stroke-width="2" stroke-linecap="round" stroke-linejoin="round"/>
</svg>
