<svg width="24" height="24" viewBox="0 0 24 24" fill="none" xmlns="http://www.w3.org/2000/svg">
<g clip-path="url(#clip0_17_2349)">
<path d="M16.02 12L21.5 15.13C21.6539 15.2172 21.7819 15.3437 21.871 15.4965C21.96 15.6494 22.0069 15.8231 22.0069 16C22.0069 16.1769 21.96 16.3506 21.871 16.5035C21.7819 16.6563 21.6539 16.7828 21.5 16.87L13 21.74C12.696 21.9155 12.3511 22.0079 12 22.0079C11.6489 22.0079 11.304 21.9155 11 21.74L2.49999 16.87C2.34609 16.7828 2.21808 16.6563 2.12902 16.5035C2.03997 16.3506 1.99304 16.1769 1.99304 16C1.99304 15.8231 2.03997 15.6494 2.12902 15.4965C2.21808 15.3437 2.34609 15.2172 2.49999 15.13L7.97999 12M13 13.7399C12.696 13.9154 12.3511 14.0078 12 14.0078C11.6489 14.0078 11.304 13.9154 11 13.7399L2.49999 8.86989C2.34609 8.78267 2.21808 8.65619 2.12902 8.50335C2.03997 8.35051 1.99304 8.17679 1.99304 7.99989C1.99304 7.823 2.03997 7.64927 2.12902 7.49643C2.21808 7.34359 2.34609 7.21711 2.49999 7.12989L11 2.25989C11.304 2.08436 11.6489 1.99194 12 1.99194C12.3511 1.99194 12.696 2.08436 13 2.25989L21.5 7.12989C21.6539 7.21711 21.7819 7.34359 21.871 7.49643C21.96 7.64927 22.0069 7.823 22.0069 7.99989C22.0069 8.17679 21.96 8.35051 21.871 8.50335C21.7819 8.65619 21.6539 8.78267 21.5 8.86989L13 13.7399Z" stroke="black" stroke-width="2" stroke-linecap="round" stroke-linejoin="round"/>
</g>
<defs>
<clipPath id="clip0_17_2349">
<rect width="24" height="24" fill="white"/>
</clipPath>
</defs>
</svg>
