<svg width="24" height="24" viewBox="0 0 24 24" fill="none" xmlns="http://www.w3.org/2000/svg">
<path d="M11.0001 7.60107L5.00609 15.7911C4.86505 15.9837 4.7976 16.2205 4.81594 16.4586C4.83429 16.6966 4.9372 16.9203 5.10609 17.0891L5.92309 17.9071C6.09444 18.0782 6.32208 18.1814 6.56375 18.1974C6.80541 18.2134 7.04467 18.1412 7.23709 17.9941L15.0901 12.0001M16.5 21.174C15.5 20.5 14.372 20 13 20C10.942 20 9.07204 22.356 7.00004 22C4.92804 21.644 4.22504 18.631 5.50004 17.5M21 7C21 9.76142 18.7614 12 16 12C13.2386 12 11 9.76142 11 7C11 4.23858 13.2386 2 16 2C18.7614 2 21 4.23858 21 7Z" stroke="black" stroke-width="2" stroke-linecap="round" stroke-linejoin="round"/>
</svg>
