<svg width="24" height="24" viewBox="0 0 24 24" fill="none" xmlns="http://www.w3.org/2000/svg">
<path d="M18 12H20M18 16H20M18 20H20M18 20C18 20.5304 17.7893 21.0391 17.4142 21.4142C17.0391 21.7893 16.5304 22 16 22H8C7.46957 22 6.96086 21.7893 6.58579 21.4142C6.21071 21.0391 6 20.5304 6 20M18 20V4M18 4H20M18 4C18 3.46957 17.7893 2.96086 17.4142 2.58579C17.0391 2.21071 16.5304 2 16 2H14.5C14.224 2 14.006 2.227 13.938 2.495C13.8282 2.92565 13.5781 3.30747 13.2271 3.58016C12.8762 3.85285 12.4444 4.00088 12 4.00088C11.5556 4.00088 11.1238 3.85285 10.7729 3.58016C10.4219 3.30747 10.1718 2.92565 10.062 2.495C9.994 2.227 9.776 2 9.5 2H8C7.46957 2 6.96086 2.21071 6.58579 2.58579C6.21071 2.96086 6 3.46957 6 4M18 8H20M4 12H6M4 16H6M4 20H6M6 20V4M4 4H6M4 8H6" stroke="black" stroke-width="2" stroke-linecap="round" stroke-linejoin="round"/>
</svg>
