<svg width="24" height="24" viewBox="0 0 24 24" fill="none" xmlns="http://www.w3.org/2000/svg">
<path d="M11.7998 11.8L20.1998 20.2001M2.03393 2.68093C1.99788 2.59049 1.98913 2.49147 2.00877 2.39611C2.0284 2.30075 2.07555 2.21324 2.1444 2.1444C2.21324 2.07555 2.30075 2.0284 2.39611 2.00877C2.49147 1.98913 2.59049 1.99788 2.68093 2.03393L11.6809 5.53393C11.7778 5.57143 11.8605 5.63816 11.9177 5.72485C11.9749 5.81153 12.0037 5.91388 12.0001 6.01767C11.9965 6.12146 11.9606 6.22154 11.8975 6.30402C11.8344 6.3865 11.7472 6.44729 11.6479 6.47793L8.20393 7.54493C8.04854 7.59297 7.90721 7.6782 7.7922 7.7932C7.6772 7.90821 7.59197 8.04954 7.54393 8.20493L6.47793 11.6479C6.44729 11.7472 6.3865 11.8344 6.30402 11.8975C6.22154 11.9606 6.12146 11.9965 6.01767 12.0001C5.91388 12.0037 5.81153 11.9749 5.72485 11.9177C5.63816 11.8605 5.57143 11.7778 5.53393 11.6809L2.03393 2.68093ZM22 16C22 19.3137 19.3137 22 16 22C12.6863 22 10 19.3137 10 16C10 12.6863 12.6863 10 16 10C19.3137 10 22 12.6863 22 16Z" stroke="black" stroke-width="2" stroke-linecap="round" stroke-linejoin="round"/>
</svg>
