<svg width="24" height="24" viewBox="0 0 24 24" fill="none" xmlns="http://www.w3.org/2000/svg">
<path d="M14 4.1001L12 6.0001M5.09995 7.99995L2.19995 7.19995M5.99998 12L4.09998 14M7.19995 2.19995L7.99995 5.09995M9.03703 9.68991C8.99825 9.59856 8.98765 9.49771 9.00659 9.4003C9.02552 9.30288 9.07313 9.21335 9.1433 9.14318C9.21347 9.073 9.303 9.0254 9.40042 9.00646C9.49783 8.98753 9.59868 8.99813 9.69003 9.03691L20.69 13.5369C20.7879 13.5771 20.8706 13.6473 20.926 13.7374C20.9815 13.8275 21.007 13.9329 20.9987 14.0384C20.9905 14.1439 20.949 14.244 20.8803 14.3245C20.8115 14.4049 20.719 14.4614 20.616 14.4859L16.267 15.5269C16.0875 15.5698 15.9233 15.6615 15.7927 15.792C15.6621 15.9224 15.5702 16.0864 15.527 16.2659L14.487 20.6159C14.4628 20.7192 14.4063 20.8121 14.3258 20.8812C14.2453 20.9503 14.1449 20.9919 14.0391 21.0002C13.9333 21.0084 13.8276 20.9828 13.7374 20.927C13.6471 20.8712 13.577 20.7882 13.537 20.6899L9.03703 9.68991Z" stroke="black" stroke-width="2" stroke-linecap="round" stroke-linejoin="round"/>
</svg>
