<svg width="24" height="24" viewBox="0 0 24 24" fill="none" xmlns="http://www.w3.org/2000/svg">
<g clip-path="url(#clip0_17_36)">
<path d="M10.3999 21.8999C12.3227 22.2158 14.2958 21.9631 16.0769 21.1729C17.858 20.3826 19.3694 19.0892 20.4254 17.4516C21.4814 15.814 22.036 13.9036 22.021 11.9551C22.006 10.0066 21.422 8.105 20.3409 6.48389M13.5001 2.09996C11.5852 1.80754 9.62655 2.07757 7.86223 2.87726C6.0979 3.67694 4.60381 4.97184 3.5615 6.60461C2.5192 8.23739 1.97356 10.1377 1.99088 12.0748C2.0082 14.0118 2.58773 15.9021 3.65906 17.516M15 12C15 13.6569 13.6569 15 12 15C10.3431 15 9 13.6569 9 12C9 10.3431 10.3431 9 12 9C13.6569 9 15 10.3431 15 12ZM21 5C21 6.10457 20.1046 7 19 7C17.8954 7 17 6.10457 17 5C17 3.89543 17.8954 3 19 3C20.1046 3 21 3.89543 21 5ZM7 19C7 20.1046 6.10457 21 5 21C3.89543 21 3 20.1046 3 19C3 17.8954 3.89543 17 5 17C6.10457 17 7 17.8954 7 19Z" stroke="black" stroke-width="2" stroke-linecap="round" stroke-linejoin="round"/>
</g>
<defs>
<clipPath id="clip0_17_36">
<rect width="24" height="24" fill="white"/>
</clipPath>
</defs>
</svg>
