<svg width="24" height="24" viewBox="0 0 24 24" fill="none" xmlns="http://www.w3.org/2000/svg">
<path d="M17 10C17.667 10.667 19.6 12 22 12L21.83 12.342C21.5808 12.8402 21.1978 13.2592 20.724 13.552C20.2501 13.8449 19.704 14 19.147 14H4.855C4.29761 14.0004 3.75114 13.8454 3.27689 13.5526C2.80263 13.2597 2.41934 12.8405 2.17 12.342L2 12C4.4 12 6.333 10.667 7 10M17 10H7M17 10V6M7 10V6M19 22V14M5 22V14M3 22H21M10 22V19C10 18.4696 10.2107 17.9609 10.5858 17.5858C10.9609 17.2107 11.4696 17 12 17C12.5304 17 13.0391 17.2107 13.4142 17.5858C13.7893 17.9609 14 18.4696 14 19V22M19 4C17.547 4 16.265 3.511 15.332 2.978C14.348 2.415 13.856 2.134 13.604 2.067C13.35 2 13.015 2 12.344 2H11.657C10.985 2 10.649 2 10.397 2.067C10.144 2.134 9.652 2.415 8.668 2.977C7.735 3.512 6.453 4 5 4L5.17 4.342C5.41934 4.84051 5.80263 5.2597 6.27689 5.55256C6.75114 5.84541 7.29761 6.00035 7.855 6H16.147C16.704 5.99998 17.2501 5.84487 17.724 5.55203C18.1978 5.2592 18.5808 4.84021 18.83 4.342L19 4Z" stroke="black" stroke-width="2" stroke-linecap="round" stroke-linejoin="round"/>
</svg>
