<svg width="24" height="24" viewBox="0 0 24 24" fill="none" xmlns="http://www.w3.org/2000/svg">
<path d="M11 15H13M12 12V15M12 19V22M9 9C9 8.20435 9.31607 7.44129 9.87868 6.87868C10.4413 6.31607 11.2044 6 12 6C12.7956 6 13.5587 6.31607 14.1213 6.87868C14.6839 7.44129 15 8.20435 15 9M15.282 18.9999C15.4913 19 15.6954 18.9345 15.8654 18.8125C16.0355 18.6905 16.163 18.5182 16.23 18.3199L18.6 11.3319C18.9731 10.2761 19.0875 9.14621 18.9335 8.03706C18.7796 6.92792 18.3618 5.8719 17.7152 4.95765C17.0686 4.0434 16.2121 3.29761 15.2177 2.78288C14.2232 2.26815 13.1198 1.99951 12 1.99951C10.8802 1.99951 9.77678 2.26815 8.78232 2.78288C7.78785 3.29761 6.93139 4.0434 6.28482 4.95765C5.63825 5.8719 5.22044 6.92792 5.06648 8.03706C4.91252 9.14621 5.02689 10.2761 5.4 11.3319L7.77 18.3199C7.83698 18.5182 7.96449 18.6905 8.13456 18.8125C8.30463 18.9345 8.5087 19 8.718 18.9999H15.282Z" stroke="black" stroke-width="2" stroke-linecap="round" stroke-linejoin="round"/>
</svg>
