<svg width="24" height="24" viewBox="0 0 24 24" fill="none" xmlns="http://www.w3.org/2000/svg">
<path d="M10.83 2.37989C11.1706 2.13418 11.58 2.00195 12 2.00195C12.42 2.00195 12.8294 2.13418 13.17 2.37989L21.17 8.11989C21.5151 8.36854 21.772 8.72077 21.9033 9.1254C22.0346 9.53002 22.0334 9.96596 21.9 10.3699L18.86 19.6299C18.7275 20.029 18.4726 20.3762 18.1315 20.6221C17.7905 20.8681 17.3805 21.0003 16.96 20.9999H7.04C6.61948 21.0003 6.20954 20.8681 5.86845 20.6221C5.52735 20.3762 5.27246 20.029 5.14 19.6299L2.1 10.3699C1.96658 9.96596 1.96543 9.53002 2.09671 9.1254C2.22798 8.72077 2.48485 8.36854 2.83 8.11989L10.83 2.37989Z" stroke="black" stroke-width="2" stroke-linecap="round" stroke-linejoin="round"/>
</svg>
