<svg width="24" height="24" viewBox="0 0 24 24" fill="none" xmlns="http://www.w3.org/2000/svg">
<path d="M12 2V22M2.50001 16.8801C2.38124 16.8107 2.27804 16.7177 2.19688 16.6066C2.11571 16.4956 2.05832 16.369 2.02829 16.2348C1.99825 16.1006 1.99623 15.9617 2.02233 15.8266C2.04844 15.6916 2.10211 15.5634 2.18001 15.4501L11.18 2.43008C11.2722 2.29805 11.3948 2.19022 11.5376 2.11577C11.6804 2.04132 11.839 2.00244 12 2.00244C12.161 2.00244 12.3196 2.04132 12.4624 2.11577C12.6052 2.19022 12.7278 2.29805 12.82 2.43008L21.82 15.4401C21.8996 15.5537 21.9546 15.6827 21.9816 15.8188C22.0087 15.9549 22.0071 16.0951 21.977 16.2305C21.9469 16.366 21.8889 16.4936 21.8068 16.6055C21.7247 16.7173 21.6202 16.8108 21.5 16.8801L12.99 21.7401C12.6884 21.9119 12.3472 22.0023 12 22.0023C11.6528 22.0023 11.3117 21.9119 11.01 21.7401L2.50001 16.8801Z" stroke="black" stroke-width="2" stroke-linecap="round" stroke-linejoin="round"/>
</svg>
