<svg width="24" height="24" viewBox="0 0 24 24" fill="none" xmlns="http://www.w3.org/2000/svg">
<path d="M2 14H22M2 14V16C2 17.1046 2.89543 18 4 18H9.03438C9.56768 18 10.1088 17.5314 10.5858 17.2929C10.9609 17.1054 11.4696 17 12 17C12.5304 17 13.0391 17.1054 13.4142 17.2929C13.8912 17.5314 14.4323 18 14.9656 18H20C21.1046 18 22 17.1046 22 16V14M2 14V8C2 6.89543 2.89543 6 4 6H20C21.1046 6 22 6.89543 22 8V14M16.5 11H17.5C17.7761 11 18 10.7761 18 10.5C18 10.2239 17.7761 10 17.5 10H16.5C16.2239 10 16 10.2239 16 10.5C16 10.7761 16.2239 11 16.5 11ZM11.5 11H12.5C12.7761 11 13 10.7761 13 10.5C13 10.2239 12.7761 10 12.5 10H11.5C11.2239 10 11 10.2239 11 10.5C11 10.7761 11.2239 11 11.5 11ZM6.5 11H7.5C7.77614 11 8 10.7761 8 10.5C8 10.2239 7.77614 10 7.5 10H6.5C6.22386 10 6 10.2239 6 10.5C6 10.7761 6.22386 11 6.5 11Z" stroke="black" stroke-width="2"/>
</svg>
