<svg width="24" height="24" viewBox="0 0 24 24" fill="none" xmlns="http://www.w3.org/2000/svg">
<path d="M11.6324 15.0784L8 11.0785L9.63239 11.1127C10.1628 11.1127 10.6715 10.902 11.0466 10.527C11.4217 10.1519 11.6324 9.64317 11.6324 9.11274C11.6324 8.58231 11.4217 8.0736 11.0466 7.69853C10.6715 7.32345 10.1628 7.11274 9.63239 7.11274L8 7.07843V15.0784M13.7257 15.5001L14.9415 15.5343C15.4719 15.5343 15.9806 15.3236 16.3557 14.9485C16.7307 14.5735 16.9415 14.0647 16.9415 13.5343C16.9415 13.0039 16.7307 12.4952 16.3557 12.1201C15.9806 11.745 15.4719 11.5343 14.9415 11.5343L13.7257 11.5V17.5M4 2V22L6 21L8 22L10 21L12 22L14 21L16 22L18 21L20 22V2L18 3L16 2L14 3L12 2L10 3L8 2L6 3L4 2Z" stroke="black" stroke-width="2" stroke-linecap="round" stroke-linejoin="round"/>
</svg>
