<svg width="24" height="24" viewBox="0 0 24 24" fill="none" xmlns="http://www.w3.org/2000/svg">
<path d="M11.99 11.22C13.002 10.002 14 9 14 8C14 7.46957 13.7893 6.96086 13.4142 6.58579C13.0391 6.21071 12.5304 6 12 6C11.4696 6 10.9609 6.21071 10.5858 6.58579C10.2107 6.96086 10 7.46957 10 8C10 9 11 9.997 12 11.22L9.3501 14.53M12 18L14.57 14.5M12 18L14.646 21.602C14.8026 21.8119 15.0353 21.9521 15.2941 21.9923C15.5528 22.0325 15.8171 21.9695 16.03 21.817L17.924 20.457C18.0336 20.3783 18.1261 20.2782 18.196 20.1628C18.2659 20.0473 18.3117 19.9189 18.3307 19.7853C18.3497 19.6517 18.3414 19.5157 18.3064 19.3853C18.2714 19.255 18.2103 19.1331 18.127 19.027L14.57 14.5M12 18L9.32098 21.593C9.16397 21.8043 8.92997 21.9452 8.66974 21.9851C8.40951 22.025 8.14406 21.9606 7.93098 21.806L6.06598 20.453C5.95754 20.3743 5.86602 20.2746 5.79685 20.1599C5.72769 20.0451 5.68229 19.9176 5.66336 19.785C5.64442 19.6523 5.65233 19.5173 5.68663 19.3877C5.72092 19.2582 5.78089 19.1369 5.86298 19.031L9.3501 14.53M14.57 14.5C16.222 12.235 17.995 10.22 18 7C18 5.67392 17.3678 4.40215 16.2426 3.46447C15.1174 2.52678 13.5913 2 12 2C10.4087 2 8.88255 2.52678 7.75734 3.46447C6.63212 4.40215 5.99998 5.67392 5.99998 7C5.99998 10.221 7.7281 12.246 9.3501 14.53M6.24292 9.0159C6.88644 8.08574 7.74578 7.32536 8.74738 6.79987C9.74897 6.27438 10.863 5.99942 11.9941 5.99854C13.1251 5.99765 14.2396 6.27087 15.242 6.79479C16.2444 7.31872 17.1049 8.07774 17.7499 9.0069" stroke="black" stroke-width="2" stroke-linecap="round" stroke-linejoin="round"/>
</svg>
