<svg width="24" height="24" viewBox="0 0 24 24" fill="none" xmlns="http://www.w3.org/2000/svg">
<path d="M10.4999 16.8175L4 9.90891L6.92103 9.96801C7.87019 9.96801 8.78048 9.60406 9.45165 8.95624C10.1228 8.30842 10.4999 7.42979 10.4999 6.51363C10.4999 5.59748 10.1228 4.71884 9.45165 4.07102C8.78048 3.4232 7.87019 3.05926 6.92103 3.05926L4 3V16.8175M14.2456 17.5458L16.4212 17.6049C17.3703 17.6049 18.2806 17.2409 18.9518 16.5931C19.6229 15.9453 20 15.0667 20 14.1505C20 13.2344 19.6229 12.3557 18.9518 11.7079C18.2806 11.0601 17.3703 10.6961 16.4212 10.6961L14.2456 10.6369V21" stroke="black" stroke-width="2" stroke-linecap="round" stroke-linejoin="round"/>
</svg>
