<svg width="24" height="24" viewBox="0 0 24 24" fill="none" xmlns="http://www.w3.org/2000/svg">
<path d="M2.37012 11.2229L10.7421 4.44592C11.0981 4.15788 11.5422 4.00073 12.0001 4.00073C12.4581 4.00073 12.9021 4.15788 13.2581 4.44592L21.6291 11.2229M21 15C21.2652 15 21.5196 15.1054 21.7071 15.2929C21.8946 15.4804 22 15.7348 22 16V18C22 18.2652 21.8946 18.5196 21.7071 18.7071C21.5196 18.8946 21.2652 19 21 19H15.75M21 15C21.5523 15 22 14.5523 22 14V12C22 11.4477 21.5523 11 21 11H3C2.44772 11 2 11.4477 2 12V14C2 14.5523 2.44772 15 3 15M21 15H3M3 15C2.73478 15 2.48043 15.1054 2.29289 15.2929C2.10536 15.4804 2 15.7348 2 16V18C2 18.2652 2.10536 18.5196 2.29289 18.7071C2.48043 18.8946 2.73478 19 3 19H12M6.66992 15L12.7999 19.6C13.01 19.7576 13.2491 19.8722 13.5036 19.9374C13.758 20.0026 14.0228 20.017 14.2828 19.9799C14.5428 19.9428 14.7929 19.8548 15.0189 19.7209C15.2449 19.5871 15.4423 19.4101 15.5999 19.2L18.7499 15" stroke="black" stroke-width="2" stroke-linecap="round" stroke-linejoin="round"/>
</svg>
