<svg width="24" height="24" viewBox="0 0 24 24" fill="none" xmlns="http://www.w3.org/2000/svg">
<path d="M3 17C3 18.6569 4.34315 20 6 20H18C19.6569 20 21 18.6569 21 17M3 17C3 15.3431 4.34315 14 6 14H18C19.6569 14 21 15.3431 21 17M3 17L5.90229 6.22008C6.25494 4.91024 7.44265 4 8.79913 4H15.2009C16.5574 4 17.7451 4.91024 18.0977 6.22008L21 17M13 17C13 17.2761 12.7761 17.5 12.5 17.5H11.5C11.2239 17.5 11 17.2761 11 17C11 16.7239 11.2239 16.5 11.5 16.5H12.5C12.7761 16.5 13 16.7239 13 17ZM18 17C18 17.2761 17.7761 17.5 17.5 17.5H16.5C16.2239 17.5 16 17.2761 16 17C16 16.7239 16.2239 16.5 16.5 16.5H17.5C17.7761 16.5 18 16.7239 18 17Z" stroke="black" stroke-width="2"/>
</svg>
