<svg width="24" height="24" viewBox="0 0 24 24" fill="none" xmlns="http://www.w3.org/2000/svg">
<path d="M13.873 14C12.6551 13.3261 11.2824 12.9817 9.89059 13.0007C8.49879 13.0198 7.13604 13.4016 5.93699 14.1086C4.73794 14.8155 3.74409 15.823 3.05363 17.0316C2.36317 18.2402 2 19.6081 2 21H13.873M17 17L22 22M22 17L17 22M15 8C15 10.7614 12.7614 13 10 13C7.23858 13 5 10.7614 5 8C5 5.23858 7.23858 3 10 3C12.7614 3 15 5.23858 15 8Z" stroke="black" stroke-width="2" stroke-linecap="round" stroke-linejoin="round"/>
</svg>
