<svg width="24" height="24" viewBox="0 0 24 24" fill="none" xmlns="http://www.w3.org/2000/svg">
<path d="M2 2C5.0186 4.40804 7.47673 7.44442 9.20362 10.8982C10.9305 14.352 11.8847 18.1403 12 22C12.9 15.18 13.5 12.5 16 8M16 8C20 8 22 6 22 2C18 2 16 4 16 8ZM17.4099 3.5999C15.3347 2.26497 12.8393 1.74439 10.4035 2.13827C7.96763 2.53216 5.76343 3.81269 4.21474 5.73362C2.66606 7.65455 1.88224 10.0802 2.01404 12.5442C2.14584 15.0081 3.18394 17.3363 4.9287 19.0811C6.67346 20.8259 9.00169 21.864 11.4656 21.9958C13.9296 22.1276 16.3553 21.3437 18.2762 19.7951C20.1971 18.2464 21.4776 16.0422 21.8715 13.6063C22.2654 11.1705 21.7448 8.67507 20.4099 6.5999" stroke="black" stroke-width="2" stroke-linecap="round" stroke-linejoin="round"/>
</svg>
