<svg width="24" height="24" viewBox="0 0 24 24" fill="none" xmlns="http://www.w3.org/2000/svg">
<path d="M10.6599 6H13.9999C14.5303 6 15.0391 6.21071 15.4141 6.58579C15.7892 6.96086 15.9999 7.46957 15.9999 8V10.5L21.2479 7.438C21.3239 7.39366 21.4102 7.37015 21.4982 7.36985C21.5862 7.36956 21.6727 7.39248 21.749 7.4363C21.8253 7.48012 21.8886 7.5433 21.9327 7.61945C21.9768 7.6956 21.9999 7.78202 21.9999 7.87V16.066M16 16C16 16.5304 15.7893 17.0391 15.4142 17.4142C15.0391 17.7893 14.5304 18 14 18H4C3.46957 18 2.96086 17.7893 2.58579 17.4142C2.21071 17.0391 2 16.5304 2 16V8C2 7.46957 2.21071 6.96086 2.58579 6.58579C2.96086 6.21071 3.46957 6 4 6H6M2 2L22 22" stroke="black" stroke-width="2" stroke-linecap="round" stroke-linejoin="round"/>
</svg>
